<svg width="48" height="48" viewBox="0 0 48 48" fill="none" xmlns="http://www.w3.org/2000/svg">
<path d="M47.8969 21.7448C47.7953 20.6856 47.6151 19.6232 47.3474 18.5591C46.2517 14.2066 43.8838 10.1994 40.5304 7.23072C34.9343 2.27689 29.5976 -0.521095 22.0295 0.0808022C17.6149 0.431501 13.0325 1.31341 9.19743 3.62531C2.40174 7.72278 -0.269347 16.9878 0.0212492 24.4835C0.317307 32.1244 4.07045 39.2498 10.5351 43.4751C11.1578 43.8818 11.7991 44.2602 12.4557 44.6104C23.6048 50.5559 39.6362 49.2042 45.2455 36.3496C47.1939 31.8841 48.3656 26.6214 47.8969 21.7448Z" fill="#151435"/>
<path d="M21.6855 26.0855C21.7946 26.2275 22.0013 26.2442 22.1319 26.1217C22.9627 25.3415 23.7154 24.4822 24.4131 23.5806C24.8093 23.0685 25.1876 22.5427 25.5526 22.0098C26.5988 20.4815 27.4806 18.8526 28.4206 17.2593C28.455 17.2012 28.4893 17.1431 28.5239 17.085C28.6379 16.8937 29.0329 17.0769 29.1752 17.135C29.6103 17.3127 30.032 17.5235 30.4509 17.7358C30.6745 17.8491 31.1436 17.9947 30.9572 18.3187C30.3551 19.3651 29.7595 20.4153 29.1527 21.4588C28.5479 22.4985 27.9315 23.5314 27.2875 24.5474C26.6175 25.604 25.9176 26.6415 25.1801 27.6518C24.376 28.7533 23.5279 29.8222 22.639 30.8563C22.335 31.2098 22.0742 31.5609 21.5519 31.39C21.1582 31.2613 20.9176 30.8988 20.6801 30.5842C19.6189 29.1791 18.8037 27.5946 17.9175 26.078C17.6096 25.5511 17.309 25.0197 17.0079 24.4886C16.9923 24.4611 17.0004 24.4264 17.0265 24.4086L19.3643 22.8233C19.3918 22.8045 19.4293 22.8116 19.448 22.8389L21.6852 26.0857L21.6855 26.0855Z" fill="white"/>
</svg>
