<svg width="49" height="48" viewBox="0 0 49 48" fill="none" xmlns="http://www.w3.org/2000/svg">
<path d="M22.5483 1.57617C29.5661 1.01804 34.5167 3.55626 39.936 8.35352C42.858 10.9404 44.9868 14.3886 46.0864 18.166L46.2925 18.9258C46.5412 19.9146 46.7087 20.9021 46.8032 21.8877V21.8887C47.2414 26.4491 46.1457 31.4533 44.271 35.75C41.6941 41.6553 36.7394 44.9361 31.0386 46.0586C25.2993 47.1886 18.8533 46.1094 13.561 43.2871C12.9426 42.9573 12.339 42.6006 11.7544 42.2188C5.72571 38.2779 2.19911 31.6156 1.92041 24.4258C1.78231 20.8636 2.35019 16.8821 3.74756 13.3291C5.14548 9.7747 7.33337 6.74218 10.3716 4.91016C13.6915 2.9088 17.6865 2.03145 21.7378 1.64648L22.5483 1.57617Z" fill="white" stroke="#151435" stroke-width="3"/>
</svg>
