<svg width="2280" height="738" viewBox="0 0 2280 738" fill="none" xmlns="http://www.w3.org/2000/svg">
  <path fill-rule="evenodd" clip-rule="evenodd"
        d="M1072.61 155.012H1190.83C1190.83 155.012 1307.88 152.651 1306.7 259.042C1305.53 338.262 1193.22 350.077 1193.22 350.077H1072.62L1072.61 155.012ZM1426.28 536.907C1429.6 552.38 1440.79 569.435 1478.13 571.186C1527.78 572.353 1556.16 553.43 1556.16 553.43V590.083C1556.16 590.083 1501.78 603.104 1475.76 603.104C1448.58 603.104 1368.18 597.177 1368.18 522.705C1368.18 462.421 1434.39 443.498 1472.21 443.498C1538.42 445.859 1570.34 469.516 1569.16 536.894C1569.16 537.866 1460.22 537.14 1426.28 536.907ZM1426.44 507.323H1517.15C1517.15 507.323 1517.15 473.044 1473.4 473.044C1440.5 473.044 1429.73 490.786 1426.44 507.323ZM1713.39 470.307C1726.52 456.066 1748.55 444.666 1785.52 444.666C1858.82 444.666 1870.65 506.142 1869.47 522.692C1868.29 539.241 1862.38 601.898 1777.27 601.898C1745.12 601.898 1725.44 590.926 1713.41 577.308V597.164H1655.47V384.356H1713.41V470.307H1713.39ZM1763.07 568.799C1797.35 567.606 1812.72 538.074 1812.72 523.885C1812.72 509.696 1804.43 480.138 1760.68 480.138C1726.74 480.138 1716.4 505.779 1713.39 518.308V533.729C1716.38 546.504 1726.77 568.799 1763.07 568.799ZM2263.17 562.898L2264.34 596.01C2264.34 596.01 2237.15 601.911 2219.42 601.911C2201.69 601.911 2155.56 591.276 2155.56 546.336V477.765H2107.1V447.039H2155.56V410.387H2214.69V447.039H2263.17V477.765H2214.69V536.894C2214.69 536.894 2214.69 566.452 2238.34 566.452C2261.98 566.452 2263.17 562.898 2263.17 562.898ZM2083.46 186.93H2152.03V351.257H2209.94V186.93H2279.71V152.638H2083.46V186.93ZM2059.8 195.205L2066.9 160.913C2066.9 160.913 2037.34 147.917 1985.33 147.917C1934.49 147.917 1852.92 176.295 1852.92 253.141C1852.92 328.807 1939.22 354.811 1992.42 354.811C2045.63 354.811 2063.36 346.536 2063.36 346.536L2057.46 308.704C2057.46 308.704 2033.8 315.798 1993.59 315.798C1954.58 314.618 1914.41 283.879 1914.41 249.6C1915.58 218.862 1951.04 184.57 1997.17 184.57C2032.62 184.57 2059.8 195.205 2059.8 195.205ZM1537.24 153.832C1537.24 153.832 1634.19 149.111 1634.19 205.853C1634.19 254.334 1578.64 257.875 1578.64 257.875C1578.64 257.875 1593.99 260.236 1601.1 270.871C1607 280.326 1646.02 351.27 1646.02 351.27H1586.89C1586.89 351.27 1577.43 339.442 1572.7 331.18C1569.16 322.906 1558.51 305.163 1558.51 305.163C1558.51 305.163 1550.25 275.605 1521.86 275.605C1521.14 275.605 1509.6 275.164 1500.57 274.827V351.27H1443.83V153.832H1537.24ZM1500.59 242.506H1531.34C1531.34 242.506 1573.89 240.132 1576.25 214.128C1577.44 189.304 1534.89 185.75 1534.89 185.75H1500.59V242.506ZM1738.22 273.244H1832.81V236.592H1738.22V191.665H1841.09V153.832H1680.32V351.27H1842.29V315.798H1738.23V273.244H1738.22ZM1968.75 424.563H2026.69V384.356H1968.75V424.563ZM1968.75 597.177H2026.69V447.039H1968.75V597.177ZM1337.45 351.27H1394.19V153.832H1337.45V351.27ZM1072.61 400.932H1190.83C1190.83 400.932 1307.88 398.545 1306.7 504.962C1305.53 584.168 1193.22 596.01 1193.22 596.01H1072.62L1072.61 400.932ZM1130.55 559.357H1168.38C1168.38 559.357 1246.4 554.623 1246.4 494.327C1246.4 434.03 1163.64 428.116 1163.64 428.116H1130.55V559.357ZM1130.55 313.438H1168.38C1168.38 313.438 1246.4 307.523 1246.4 248.407C1246.4 186.931 1163.64 182.209 1163.64 182.209H1130.55V313.438ZM541.77 272.544V668.122C541.77 668.122 312.399 626.735 312.399 469.503C312.412 344.098 482.2 288.821 541.77 272.544ZM541.77 265.164C403.914 255.19 91.3297 319.806 91.3297 461.215C91.3297 553.417 256.85 688.212 526.4 691.753C537.036 691.753 843.239 679.924 838.518 351.257C834.549 75.209 627.941 26.8577 561.873 18.4403V1.61855C825.263 18.3366 1032.42 176.736 1032.42 368.987C1032.42 572.34 800.685 737.847 515.765 737.847C230.845 737.847 0.294922 572.327 0.294922 368.987C0.294922 165.647 230.833 0.126953 515.765 0.126953C524.494 0.126953 533.171 0.282631 541.783 0.593905L541.77 265.164Z"
        fill="#151435"/>
</svg>
