<svg width="24" height="23" viewBox="0 0 24 23" fill="none" xmlns="http://www.w3.org/2000/svg">
  <path
    d="M20.4491 19.5975H16.8931V14.2605C16.8931 12.9878 16.8694 11.3495 15.0436 11.3495C13.1915 11.3495 12.9081 12.7361 12.9081 14.1678V19.5972H9.35203V8.62202H12.7658V10.1219H12.8136C13.1553 9.56208 13.649 9.10154 14.2421 8.78934C14.8352 8.47715 15.5056 8.32497 16.1819 8.34903C19.7861 8.34903 20.4506 10.621 20.4506 13.5768L20.4491 19.5975ZM5.33963 7.1218C4.93148 7.12187 4.53247 7.00595 4.19307 6.78869C3.85367 6.57144 3.58913 6.2626 3.43287 5.90125C3.27661 5.5399 3.23566 5.14226 3.31521 4.75861C3.39477 4.37496 3.59125 4.02253 3.8798 3.7459C4.16835 3.46926 4.53602 3.28084 4.93631 3.20446C5.3366 3.12808 5.75152 3.16717 6.12863 3.3168C6.50573 3.46642 6.82807 3.71985 7.05489 4.04504C7.2817 4.37024 7.40281 4.75258 7.40288 5.14374C7.40293 5.40345 7.34959 5.66063 7.24593 5.9006C7.14227 6.14056 6.99032 6.35861 6.79873 6.54229C6.60714 6.72597 6.37966 6.87168 6.1293 6.97111C5.87895 7.07055 5.61062 7.12175 5.33963 7.1218ZM7.11765 19.5975H3.5579V8.62202H7.11765V19.5975ZM22.222 0.00156703H1.77099C1.30681 -0.00345315 0.859518 0.168344 0.52744 0.479207C0.195362 0.79007 0.00566506 1.21457 0 1.65941V21.3402C0.00547117 21.7853 0.195057 22.2101 0.527123 22.5213C0.85919 22.8325 1.30658 23.0046 1.77099 22.9999H22.222C22.6873 23.0055 23.1359 22.8338 23.4693 22.5226C23.8027 22.2115 23.9936 21.7862 24 21.3402V1.658C23.9934 1.21226 23.8024 0.787285 23.469 0.47643C23.1356 0.165574 22.6871 -0.0057322 22.222 0.000146454"
    fill="white"/>
</svg>
