<svg width="12" height="10" viewBox="0 0 12 10" fill="none" xmlns="http://www.w3.org/2000/svg">
<path d="M4.62811 4.75423C4.39282 4.43599 4.16809 4.10869 3.9509 3.77838C3.331 2.82968 2.81216 1.82216 2.25711 0.834239C2.23751 0.798041 2.21639 0.761842 2.19678 0.725644C2.12891 0.606491 1.88608 0.713578 1.79709 0.748268C1.52862 0.85083 1.26769 0.974508 1.00827 1.09969C0.869506 1.16606 0.581427 1.24901 0.69153 1.44961C1.04597 2.09817 1.3974 2.74823 1.75486 3.39377C2.11081 4.0378 2.47581 4.67731 2.8559 5.30777C3.25257 5.96235 3.66735 6.60639 4.10474 7.23533C4.58286 7.92009 5.08813 8.58523 5.61754 9.22927C5.79853 9.44947 5.95388 9.66817 6.27514 9.57013C6.51797 9.49623 6.67031 9.27753 6.81963 9.089C7.48779 8.24286 8.00663 7.2836 8.56771 6.36808C8.76831 6.03928 8.96589 5.70896 9.16197 5.37865C9.75924 4.37415 10.3475 3.36361 10.9387 2.35608C11.0729 2.12683 11.2027 1.89908 11.3203 1.66228V1.65775C11.3897 1.56424 11.171 1.43151 11.0729 1.3561C10.7441 1.10573 10.3641 0.933785 10.0353 0.68492C9.99001 0.65023 9.92666 0.665313 9.898 0.713577C8.66122 2.86437 6.86035 5.57624 6.26006 6.32434C6.19219 6.41031 6.06398 6.41785 5.98706 6.34093C5.48933 5.85225 5.03987 5.31681 4.62359 4.75725" fill="#006BD9"/>
</svg>
