<svg width="84" height="58" viewBox="0 0 84 58" fill="none" xmlns="http://www.w3.org/2000/svg">
<title>Apple Pay</title>
<path d="M0 4C0 1.79086 1.79086 0 4 0H80C82.2091 0 84 1.79086 84 4V54C84 56.2091 82.2091 58 80 58H4C1.79086 58 0 56.2091 0 54V4Z" fill="white"/>
<path fill-rule="evenodd" clip-rule="evenodd" d="M25.4591 20.9595C24.8481 21.6914 23.8705 22.2686 22.8929 22.1862C22.7707 21.1966 23.2493 20.1452 23.8094 19.4958C24.4204 18.7433 25.4896 18.2072 26.3552 18.166C26.457 19.1968 26.0599 20.207 25.4591 20.9595ZM26.345 22.382C25.4838 22.3318 24.6979 22.6442 24.0632 22.8965C23.6547 23.0589 23.3088 23.1963 23.0457 23.1963C22.7504 23.1963 22.3902 23.0515 21.9858 22.8889C21.4559 22.6758 20.85 22.4322 20.2147 22.4439C18.7585 22.4645 17.4042 23.2994 16.6608 24.6292C15.1333 27.2886 16.2637 31.2263 17.7402 33.391C18.4632 34.4631 19.3288 35.6382 20.4693 35.5969C20.9711 35.5778 21.332 35.4227 21.7056 35.2623C22.1356 35.0776 22.5823 34.8857 23.2799 34.8857C23.9533 34.8857 24.3805 35.0726 24.7905 35.252C25.1805 35.4226 25.5549 35.5864 26.1108 35.5763C27.2921 35.5557 28.0354 34.5043 28.7584 33.4323C29.5387 32.2817 29.8816 31.1587 29.9336 30.9883L29.9397 30.9686C29.9384 30.9674 29.9288 30.9629 29.9118 30.955C29.651 30.8341 27.6574 29.9103 27.6383 27.433C27.6191 25.3536 29.2195 24.3001 29.4715 24.1342C29.4868 24.1241 29.4971 24.1173 29.5018 24.1138C28.4835 22.5882 26.8949 22.4232 26.345 22.382ZM34.5221 35.4629V19.3927H40.4793C43.5546 19.3927 45.7033 21.5368 45.7033 24.6704C45.7033 27.8041 43.5139 29.9687 40.3978 29.9687H36.9865V35.4629H34.5221ZM36.9865 21.4955H39.8276C41.966 21.4955 43.188 22.65 43.188 24.6807C43.188 26.7114 41.966 27.8762 39.8174 27.8762H36.9865V21.4955ZM53.8396 33.5353C53.1879 34.7929 51.7521 35.5866 50.2042 35.5866C47.913 35.5866 46.3143 34.2053 46.3143 32.1231C46.3143 30.0615 47.8621 28.8761 50.7236 28.7008L53.7989 28.5153V27.6288C53.7989 26.3197 52.9537 25.6084 51.4466 25.6084C50.2042 25.6084 49.2979 26.2578 49.1146 27.2474H46.8947C46.966 25.1652 48.9008 23.6499 51.5179 23.6499C54.3386 23.6499 56.1716 25.1446 56.1716 27.4639V35.4629H53.8905V33.5353H53.8396ZM50.8661 33.6796C49.5525 33.6796 48.7175 33.0405 48.7175 32.0613C48.7175 31.0511 49.522 30.4635 51.0596 30.3708L53.7989 30.1955V31.1026C53.7989 32.6076 52.5362 33.6796 50.8661 33.6796ZM63.7377 36.0917C62.7499 38.9058 61.6196 39.8335 59.2164 39.8335C59.0331 39.8335 58.4221 39.8129 58.2795 39.7717V37.8441C58.4323 37.8647 58.809 37.8853 59.0025 37.8853C60.0921 37.8853 60.7031 37.4215 61.0799 36.2154L61.3039 35.5042L57.1288 23.8045H59.7052L62.6074 33.2982H62.6583L65.5605 23.8045H68.0655L63.7377 36.0917Z" fill="black"/>
</svg>
