<svg width="288" height="48" viewBox="0 0 288 48" fill="none" xmlns="http://www.w3.org/2000/svg">
<path d="M287.708 46.272C287.698 46.956 287.018 47.508 286.181 47.512C281.414 47.532 280.912 47.644 275.226 47.644C268.99 47.644 268.99 47.488 262.759 47.488C256.523 47.488 256.523 47.996 250.287 47.996C244.051 47.996 244.051 47.456 237.815 47.456C231.579 47.456 231.579 47.832 225.343 47.832C219.107 47.832 219.107 48 212.875 48C206.639 48 206.639 47.892 200.408 47.892C196.251 47.892 192.093 47.888 187.936 47.88C181.7 47.88 181.7 47.492 175.464 47.492C169.228 47.492 169.228 47.608 162.992 47.608C156.756 47.608 156.756 47.944 150.52 47.944C144.284 47.944 144.284 47.452 138.048 47.452C131.812 47.452 131.812 47.408 125.576 47.408C119.34 47.408 119.34 47.624 113.104 47.624C106.868 47.624 106.868 47.864 100.632 47.864C94.3955 47.864 94.3955 47.58 88.1595 47.58C81.9235 47.58 81.9235 47.676 75.6922 47.676C69.4562 47.676 69.4562 47.324 63.2202 47.324C56.9841 47.324 56.9841 47.356 50.7481 47.356C44.5121 47.356 44.5121 47.796 38.276 47.796C32.04 47.796 32.04 47.48 25.804 47.48C21.6466 47.48 17.4893 47.4773 13.3319 47.472C7.66063 47.472 7.14854 47.5 2.40571 47.504C1.55382 47.504 0.864653 46.936 0.874225 46.236C0.907726 44.048 0.989086 39.576 0.989086 36.156C0.989086 31.7 1.04652 31.7 1.04652 27.244C1.04652 22.788 0.835938 22.788 0.835938 18.332C0.835938 13.876 0.969943 13.876 0.969943 9.42C0.969943 5.432 0.883797 5.012 0.864653 1.772C0.864653 1.08 1.54904 0.512 2.39614 0.512C11.1304 0.508 11.6425 0.452 21.3483 0.452C31.6045 0.46 31.6045 0.032 41.8463 0.032C52.0882 0.032 52.0882 0.024 62.3348 0.024C72.5814 0.024 72.5766 0.128 82.8232 0.128C93.0698 0.128 93.065 0.264 103.312 0.264C113.558 0.264 113.553 0.12 123.8 0.12C134.047 0.12 134.042 0 144.284 0C154.526 0 154.526 0.552 164.767 0.592C174.971 0.628 175.028 0.736 185.256 0.82C195.483 0.904 195.502 1.04 205.744 1.04C215.986 1.04 215.991 0.588 226.233 0.588C236.475 0.588 236.479 0.808 246.721 0.808C256.963 0.808 256.968 0.32 267.21 0.32C276.915 0.32 277.428 0.496 286.171 0.516C287.018 0.516 287.703 1.084 287.698 1.776C287.674 5.128 287.555 5.992 287.555 9.992C287.555 14.448 287.985 14.448 287.985 18.9C287.985 21.8707 287.99 24.84 288 27.808C288 32.264 287.866 32.264 287.866 36.716C287.866 37.364 287.741 43.556 287.708 46.268V46.272Z" fill="#D6FF00"/>
</svg>
