<svg width="53" height="53" viewBox="0 0 53 53" fill="none" xmlns="http://www.w3.org/2000/svg">
  <path d="M23.7803 1.5C24.4138 1.5 24.7231 1.51142 25.042 1.52344C25.3818 1.53625 25.7313 1.5498 26.415 1.5498C27.0101 1.5498 27.2895 1.57688 27.5928 1.60547C27.948 1.63896 28.3283 1.67382 29.0508 1.67383C29.7032 1.67383 30.0283 1.67681 30.3555 1.67969C30.6876 1.68261 31.0221 1.68555 31.6865 1.68555C32.2781 1.68555 32.5544 1.71318 32.8564 1.74316C33.2131 1.77857 33.5962 1.81641 34.3223 1.81641C34.9898 1.8164 35.3263 1.8118 35.6592 1.80762C35.985 1.80352 36.3074 1.79981 36.957 1.7998C37.6982 1.7998 38.0928 1.7527 38.4551 1.70898C38.7518 1.67319 39.0165 1.64062 39.5928 1.64062C40.2909 1.64062 40.6517 1.62055 40.9971 1.60059C41.3105 1.58247 41.6094 1.56445 42.2285 1.56445C42.8097 1.56447 43.0779 1.59579 43.376 1.62988C43.7365 1.67111 44.1271 1.71484 44.8633 1.71484C45.5534 1.71484 45.859 1.70057 46.1572 1.68555C46.418 1.67241 46.6716 1.65918 47.2998 1.65918H49.9355C50.5252 1.65918 50.9216 1.64386 51.2812 1.62695C51.3187 1.62519 51.3554 1.62284 51.3916 1.62109C51.3969 1.79827 51.4023 2.01897 51.4023 2.37012C51.4023 2.92934 51.3969 3.20554 51.3916 3.48633C51.3861 3.77752 51.3809 4.0737 51.3809 4.6582C51.3809 5.16443 51.3572 5.39877 51.332 5.6582C51.3017 5.97092 51.2695 6.3092 51.2695 6.94727C51.2695 7.65206 51.3433 8.04222 51.4092 8.37891C51.4552 8.61419 51.4932 8.79619 51.4932 9.23438C51.4932 9.77211 51.4806 10.031 51.4668 10.3027C51.4516 10.6027 51.4355 10.9157 51.4355 11.5215C51.4355 12.1318 51.4527 12.4483 51.4697 12.75C51.485 13.0204 51.5 13.2768 51.5 13.8105C51.5 14.2239 51.4593 14.3868 51.4062 14.6143C51.3259 14.9589 51.2334 15.3681 51.2334 16.0986C51.2334 16.7013 51.2473 17.0119 51.2607 17.3105C51.273 17.5841 51.2842 17.8461 51.2842 18.3877C51.2842 18.9519 51.2816 19.2318 51.2783 19.5146C51.275 19.804 51.2715 20.0967 51.2715 20.6768C51.2715 21.3391 51.3175 21.6966 51.3604 22.0186C51.3937 22.2686 51.4238 22.4834 51.4238 22.9648C51.4238 23.4521 51.3956 23.6717 51.3643 23.9238C51.3244 24.2437 51.2812 24.5971 51.2812 25.2539C51.2812 25.7896 51.2675 26.0472 51.2529 26.3184C51.2368 26.6192 51.2197 26.9347 51.2197 27.543C51.2198 28.2695 51.3096 28.6761 51.3877 29.0195C51.4396 29.248 51.4805 29.4138 51.4805 29.8311C51.4805 30.3658 51.4661 30.6228 51.4512 30.8936C51.4346 31.1949 51.417 31.5108 51.417 32.1201C51.417 32.5898 51.3846 32.7956 51.3477 33.041C51.2985 33.367 51.2451 33.7336 51.2451 34.4072C51.2451 34.9909 51.2498 35.2863 51.2549 35.5771C51.2598 35.8583 51.2646 36.1352 51.2646 36.6953C51.2646 37.3028 51.2812 37.6174 51.2969 37.918C51.311 38.1895 51.3242 38.4477 51.3242 38.9844C51.3242 39.5339 51.3159 39.8023 51.3066 40.0791C51.2968 40.3744 51.2861 40.6787 51.2861 41.2734C51.2861 41.9091 51.3173 42.2458 51.3467 42.5576C51.3712 42.8178 51.3935 43.0536 51.3936 43.5615C51.3936 44.0891 51.3778 44.3405 51.3604 44.6084C51.3405 44.9126 51.3193 45.2341 51.3193 45.8506C51.3193 46.5193 51.369 46.8818 51.415 47.2061C51.4502 47.4538 51.4814 47.6642 51.4814 48.1396C51.4814 48.6096 51.449 48.8171 51.4131 49.084C51.378 49.3449 51.3457 49.6203 51.3418 50.0264L51.3486 50.4805C51.3606 50.8351 51.3786 51.0928 51.3965 51.3057C51.3485 51.3108 51.3018 51.3157 51.2568 51.3203C50.9742 51.3494 50.6744 51.374 50.1758 51.374C49.567 51.374 49.277 51.3526 48.9678 51.3301C48.6181 51.3046 48.2488 51.2783 47.54 51.2783C46.8938 51.2783 46.5741 51.2717 46.25 51.2656C45.9155 51.2593 45.5761 51.2529 44.9053 51.2529C44.2085 51.2529 43.8487 51.2729 43.5039 51.292C43.1898 51.3094 42.8903 51.3262 42.2695 51.3262C41.5821 51.3262 41.2297 51.3403 40.8887 51.3545C40.5709 51.3677 40.2638 51.3809 39.6338 51.3809C39.0123 51.3809 38.7124 51.364 38.3984 51.3467C38.0538 51.3276 37.6948 51.3076 36.999 51.3076C36.3937 51.3076 36.1062 51.2851 35.7988 51.2607C35.4476 51.2329 35.0756 51.2031 34.3633 51.2031C33.6801 51.2031 33.3314 51.2156 32.9922 51.2275C32.6726 51.2388 32.362 51.25 31.7275 51.25C31.042 51.25 30.6909 51.2631 30.3506 51.2764C30.0322 51.2888 29.7241 51.3018 29.0928 51.3018H26.457C25.7696 51.3018 25.4172 51.3159 25.0762 51.3301C24.7584 51.3433 24.4513 51.3555 23.8213 51.3555C23.1886 51.3555 22.88 51.3435 22.5615 51.3311C22.2213 51.3178 21.8711 51.3047 21.1865 51.3047C20.4556 51.3047 20.0685 51.3455 19.71 51.3838C19.4099 51.4158 19.1374 51.4453 18.5508 51.4453C17.8633 51.4453 17.511 51.4595 17.1699 51.4736C16.8521 51.4868 16.5451 51.5 15.915 51.5C15.2995 51.5 15.0039 51.4809 14.6924 51.4609C14.3454 51.4387 13.9817 51.416 13.2803 51.416C12.7014 51.416 12.4348 51.3828 12.1377 51.3477C11.7762 51.3049 11.3833 51.2598 10.6445 51.2598C9.88616 51.2598 9.47804 51.3183 9.10938 51.3721C8.81913 51.4144 8.56777 51.4521 8.00879 51.4521C7.34622 51.4521 7.01343 51.4534 6.68262 51.4551C6.35483 51.4567 6.02841 51.459 5.37402 51.459C4.77718 51.459 4.49644 51.4322 4.19238 51.4043C3.83778 51.3718 3.45906 51.3379 2.73828 51.3379C2.23582 51.3379 1.96319 51.3152 1.7168 51.291C1.68442 51.2878 1.65106 51.2847 1.61719 51.2812C1.6209 51.059 1.62598 50.794 1.62598 50.4248C1.62598 49.8145 1.60785 49.498 1.59082 49.1963C1.57556 48.9259 1.56152 48.6695 1.56152 48.1357C1.56153 47.6317 1.5855 47.3992 1.61133 47.1406C1.64263 46.8272 1.67577 46.4874 1.67578 45.8477C1.67578 45.1977 1.63688 44.8494 1.60059 44.5322C1.57146 44.2777 1.54493 44.0536 1.54492 43.5605C1.54492 43.0199 1.55669 42.7583 1.56934 42.4854C1.58318 42.1867 1.59765 41.876 1.59766 41.2734C1.59766 40.7426 1.61352 40.4889 1.62988 40.2197C1.6483 39.9168 1.66699 39.5978 1.66699 38.9844C1.66699 38.4024 1.66338 38.1085 1.65918 37.8184C1.6551 37.5363 1.65039 37.2576 1.65039 36.6953C1.65041 36.2012 1.67692 35.9765 1.70605 35.7217C1.74233 35.4044 1.78124 35.057 1.78125 34.4072C1.78125 33.7594 1.74426 33.4132 1.70898 33.0967C1.68049 32.841 1.6543 32.6145 1.6543 32.1182C1.65429 31.4545 1.60688 31.0959 1.56348 30.7734C1.52988 30.5239 1.5 30.3095 1.5 29.8291C1.50003 29.4366 1.54315 29.2891 1.60156 29.0674C1.69386 28.717 1.80174 28.2924 1.80176 27.541C1.80176 26.9463 1.79108 26.642 1.78125 26.3467C1.77204 26.0699 1.76367 25.8015 1.76367 25.252C1.76367 24.6113 1.73003 24.2707 1.69824 23.957C1.67208 23.6988 1.64748 23.4668 1.64746 22.9639C1.64746 22.3418 1.62418 22.0154 1.60156 21.709C1.58195 21.4434 1.5625 21.1967 1.5625 20.6748C1.5625 20.0694 1.54796 19.7566 1.5332 19.457C1.5198 19.1848 1.50684 18.9255 1.50684 18.3877C1.50684 17.8815 1.52953 17.6471 1.55469 17.3877C1.58501 17.075 1.61719 16.7366 1.61719 16.0986C1.61719 15.582 1.63782 15.3396 1.65918 15.0762C1.68418 14.7677 1.70995 14.4376 1.70996 13.8105C1.70996 13.1695 1.67634 12.8285 1.64453 12.5146C1.61836 12.2564 1.59473 12.0247 1.59473 11.5215C1.59473 10.925 1.58298 10.6193 1.57227 10.3232C1.56228 10.0473 1.55273 9.77999 1.55273 9.23242C1.55275 8.76008 1.58503 8.55235 1.62109 8.30566C1.66865 7.98039 1.72069 7.61575 1.7207 6.94434C1.7207 6.29832 1.6837 5.95348 1.64941 5.6377C1.62158 5.38132 1.5957 5.15358 1.5957 4.65527C1.5957 4.1018 1.60367 3.83016 1.61133 3.55176C1.6194 3.25811 1.62793 2.95682 1.62793 2.36621C1.62793 2.05659 1.62069 1.80273 1.61328 1.58398C1.87978 1.58547 2.19265 1.58789 2.69629 1.58789C3.31456 1.58789 3.61219 1.60614 3.9248 1.625C4.27091 1.64588 4.63267 1.66699 5.33203 1.66699C6.03464 1.66699 6.39892 1.64432 6.74609 1.62207C7.05777 1.60209 7.35295 1.58301 7.96777 1.58301C8.62519 1.58301 8.95354 1.58316 9.28223 1.58398C9.61225 1.58481 9.94275 1.58594 10.6025 1.58594C11.1764 1.58594 11.4391 1.62012 11.7344 1.65723C12.0978 1.7029 12.4944 1.75195 13.2383 1.75195C13.9249 1.75195 14.2765 1.73733 14.6172 1.72363C14.9354 1.71084 15.2431 1.69922 15.874 1.69922C16.4759 1.69922 16.7603 1.72325 17.0664 1.74902C17.4189 1.77871 17.7934 1.80956 18.5088 1.80957C19.1935 1.80957 19.5439 1.79699 19.8838 1.78418C20.2027 1.77216 20.5118 1.75977 21.1445 1.75977C21.9377 1.75977 22.3723 1.67666 22.7529 1.60156C23.0314 1.54662 23.2562 1.5 23.7803 1.5ZM52.4033 51.2266C52.3991 51.2267 52.3948 51.2264 52.3906 51.2266C52.3967 51.2262 52.4031 51.2258 52.4092 51.2256L52.4033 51.2266Z" fill="#151435" stroke="white" stroke-width="3"/>
</svg>
