<svg width="300" height="160" viewBox="0 0 300 160" fill="none" xmlns="http://www.w3.org/2000/svg">
  <g clip-path="url(#clip0_571_2971)">
    <path d="M299.7 1.6551C299.7 0.80005 299 0.105007 298.13 0.110007C293.895 0.130008 293.375 0.235015 288.205 0.235015C282.455 0.235015 282.455 0.405025 276.71 0.405025C270.965 0.405025 270.965 0.205013 265.216 0.205013C259.466 0.205013 259.466 0.850053 253.721 0.850053C247.976 0.850053 247.971 0.16001 242.226 0.16001C236.476 0.16001 236.476 0.64004 230.731 0.64004C224.981 0.64004 224.981 0.855053 219.236 0.855053C213.486 0.855053 213.486 0.720045 207.742 0.720045C203.908 0.720045 200.077 0.715045 196.247 0.705044C190.497 0.705044 190.497 0.210013 184.752 0.210013C179.002 0.210013 179.002 0.360023 173.257 0.360023C167.507 0.360023 167.507 0.790049 161.762 0.790049C156.012 0.790049 156.012 0.16001 150.268 0.16001C144.518 0.16001 144.518 0.105007 138.773 0.105007C133.023 0.105007 133.023 0.380024 127.278 0.380024C121.528 0.380024 121.528 0.685043 115.783 0.685043C110.033 0.685043 110.033 0.32502 104.288 0.32502C98.5434 0.32502 98.5434 0.450028 92.7934 0.450028C87.0435 0.450028 87.0435 0 81.2986 0C75.5487 0 75.5487 0.0400025 69.8038 0.0400025C64.0539 0.0400025 64.0539 0.605038 58.304 0.605038C52.5541 0.605038 52.5541 0.205013 46.8042 0.205013C42.971 0.205013 39.1377 0.201679 35.3044 0.195012C29.5545 0.195012 29.5545 0.275017 23.8046 0.275017C18.0547 0.275017 18.0547 0.580036 12.3048 0.580036C7.12988 0.580036 6.61489 0.230014 2.37496 0.16001C1.51997 0.145009 0.809987 0.815051 0.789987 1.6551C0.679989 5.88537 0.154997 6.3854 0.154997 11.5207C0.154997 17.2111 0 17.2111 0 22.8964C0 28.5868 0.454992 28.5868 0.454992 34.2721C0.454992 38.0657 0.459992 41.8576 0.469992 45.6479C0.469992 51.3382 0.329994 51.3382 0.329994 57.0236C0.329994 62.7089 0.759987 62.7089 0.759987 68.3993C0.759987 74.0896 0.284995 74.0896 0.284995 79.775C0.284995 85.4653 0.664989 85.4653 0.664989 91.1507C0.664989 96.841 0.129998 96.841 0.129998 102.526C0.129998 108.217 0.654989 108.217 0.654989 113.907C0.654989 119.597 0.359994 119.597 0.359994 125.283C0.359994 130.973 0.869985 130.973 0.869985 136.664C0.869985 142.354 0.0199997 142.354 0.0199997 148.044C0.0199997 153.015 0.404993 153.645 0.504992 157.515C0.529991 158.485 1.44998 159.18 2.40996 158.97C9.64484 157.38 10.5298 159.285 19.1747 159.285C28.5145 159.285 28.5145 159.205 37.8544 159.205C47.1942 159.205 47.1942 158.66 56.5391 158.66C65.8839 158.66 65.8789 158.65 75.2187 158.65C84.5586 158.65 84.5586 158.785 93.9034 158.785C103.248 158.785 103.243 158.955 112.588 158.955C121.933 158.955 121.928 158.77 131.273 158.77C140.618 158.77 140.613 158.615 149.952 158.615C159.292 158.615 159.292 159.32 168.632 159.37C177.937 159.42 177.992 159.555 187.317 159.66C196.642 159.765 196.657 159.945 206.002 159.945C215.346 159.945 215.346 159.365 224.686 159.365C234.026 159.365 234.026 159.65 243.371 159.65C252.716 159.65 252.716 159.03 262.056 159.03C271.395 159.03 271.4 160 280.745 160C289.55 160 290.38 158.8 298.265 158.66C299.12 158.645 299.8 157.95 299.795 157.11C299.76 153.045 299.595 153.12 299.595 148.004C299.595 142.314 300 142.314 300 136.629C300 130.938 299.515 130.938 299.515 125.253C299.515 119.562 299.405 119.562 299.405 113.877C299.405 110.084 299.405 106.292 299.405 102.501C299.405 96.816 299.64 96.816 299.64 91.1257C299.64 85.4353 299.53 85.4353 299.53 79.75C299.53 74.0596 299.34 74.0596 299.34 68.3743C299.34 62.6839 299.4 62.6839 299.4 56.9986C299.4 51.3082 299.18 51.3082 299.18 45.6179C299.18 39.9275 299.32 39.9275 299.32 34.2421C299.32 28.5518 299.205 28.5518 299.205 22.8614C299.205 17.1711 299.585 17.1711 299.585 11.4807C299.585 6.3604 299.685 5.84537 299.71 1.6501L299.7 1.6551Z" fill="currentColor"/>
  </g>
  <defs>
    <clipPath id="clip0_571_2971">
      <rect width="300" height="160" fill="white"/>
    </clipPath>
  </defs>
</svg>
