<svg viewBox="0 0 241 53" fill="none" xmlns="http://www.w3.org/2000/svg" preserveAspectRatio="none">
  <path d="M120.388 1.5C124.637 1.5 126.747 1.65042 128.873 1.80664C131.038 1.96574 133.225 2.13098 137.57 2.15332H137.571C146.166 2.19321 146.087 2.31159 154.757 2.40527C163.254 2.4971 163.388 2.64844 171.968 2.64844C176.305 2.64844 178.486 2.52219 180.652 2.39648C182.786 2.27265 184.905 2.14941 189.163 2.14941C193.441 2.14942 195.576 2.21 197.718 2.27051C199.875 2.33146 202.041 2.39258 206.357 2.39258C210.698 2.39258 212.882 2.25592 215.049 2.12012C217.181 1.98651 219.297 1.85352 223.552 1.85352C227.609 1.85352 229.74 1.90201 231.774 1.95312C233.779 2.00351 235.698 2.05485 239.245 2.06738C239.235 3.83694 239.207 4.96599 239.18 6.19531C239.152 7.45602 239.127 8.81081 239.127 11.0332C239.127 13.543 239.22 14.8127 239.312 16.0625C239.4 17.2716 239.488 18.4614 239.488 20.8691C239.488 24.1502 239.492 27.4299 239.5 30.708C239.5 33.1502 239.472 34.3674 239.444 35.5898C239.416 36.8257 239.388 38.0676 239.388 40.541C239.388 41.2447 239.286 47.887 239.256 50.9629C237.367 50.9754 236.283 51.0105 235.124 51.043C233.933 51.0763 232.649 51.1064 230.28 51.1064C227.686 51.1064 226.395 51.0642 225.097 51.0215C223.78 50.9781 222.454 50.9346 219.816 50.9346C217.127 50.9346 215.761 51.0803 214.424 51.2236C213.145 51.3607 211.893 51.4951 209.35 51.4951C206.811 51.4951 205.563 51.3525 204.286 51.207C202.947 51.0544 201.577 50.8994 198.883 50.8994C196.212 50.8994 194.861 51.0058 193.53 51.1113C192.244 51.2134 190.978 51.3144 188.416 51.3145C185.775 51.3145 184.447 51.3615 183.129 51.4082C181.831 51.4542 180.542 51.5 177.952 51.5C175.351 51.5 174.055 51.4701 172.754 51.4404C171.44 51.4105 170.12 51.3809 167.489 51.3809C164.002 51.3809 160.514 51.376 157.026 51.3672H157.022C154.461 51.3672 153.197 51.2635 151.911 51.1582C150.58 51.0493 149.228 50.9395 146.556 50.9395C143.922 50.9395 142.6 50.9717 141.285 51.0039C139.984 51.0358 138.688 51.0674 136.088 51.0674C133.423 51.0674 132.077 51.1627 130.749 51.2568C129.46 51.3482 128.19 51.4385 125.621 51.4385C123.075 51.4385 121.822 51.3077 120.542 51.1748C119.205 51.0361 117.841 50.8945 115.154 50.8945C112.544 50.8945 111.24 50.8832 109.935 50.8711C108.624 50.8589 107.31 50.8467 104.687 50.8467C102.039 50.8467 100.706 50.9066 99.3848 50.9668C98.0892 51.0258 96.8053 51.085 94.2197 51.085C91.5686 51.085 90.2326 51.1528 88.9102 51.2197C87.616 51.2853 86.3349 51.3496 83.7529 51.3496C81.1772 51.3496 79.901 51.2727 78.6094 51.1953C77.2844 51.1159 75.9433 51.0361 73.2861 51.0361C70.6557 51.0361 69.3359 51.0632 68.0225 51.0898C66.7202 51.1162 65.4232 51.1426 62.8223 51.1426C60.2563 51.1426 58.9879 51.0478 57.7002 50.9521C56.3712 50.8535 55.0227 50.7539 52.3555 50.7539C49.7344 50.7539 48.4224 50.7626 47.1123 50.7715C45.8059 50.7803 44.5007 50.7891 41.8887 50.7891C39.209 50.7891 37.8504 50.9143 36.5166 51.0381C35.2338 51.1572 33.9745 51.2744 31.4209 51.2744C28.8498 51.2744 27.5769 51.1895 26.2871 51.1035C24.9604 51.0151 23.6159 50.9258 20.9541 50.9258C17.466 50.9258 13.9774 50.9229 10.4893 50.917H10.4873C5.87592 50.917 5.23464 50.945 1.5332 50.9502C1.56205 48.4996 1.62891 43.6479 1.62891 39.9219C1.62891 37.4687 1.64032 36.2438 1.65234 35.0166C1.66442 33.7839 1.67676 32.5486 1.67676 30.082C1.67676 27.5975 1.63146 26.3475 1.58691 25.1074C1.5431 23.8876 1.5 22.6765 1.5 20.2412C1.5 17.7969 1.5277 16.5791 1.55566 15.3555C1.58392 14.1191 1.6123 12.8768 1.6123 10.4014C1.6123 6.12365 1.54191 5.40291 1.52539 2.06445C5.05741 2.06173 6.96528 2.04598 8.96777 2.03027C11.007 2.01428 13.1471 1.99902 17.2148 1.99902V1.99805C21.5549 2.00247 23.7363 1.88645 25.9023 1.76855C28.0381 1.65231 30.1577 1.53516 34.418 1.53516C38.7159 1.53516 40.8652 1.53346 43.0146 1.53125C45.1637 1.52904 47.3134 1.52637 51.6123 1.52637C55.9027 1.52637 58.0445 1.55533 60.1895 1.58398C62.342 1.61274 64.4988 1.6416 68.8076 1.6416C73.0949 1.6416 75.2342 1.67837 77.3779 1.71582C79.5317 1.75345 81.6904 1.79102 86.002 1.79102C90.3141 1.79102 92.473 1.75176 94.627 1.71191C96.7705 1.67226 98.9095 1.63282 103.196 1.63281C107.506 1.63281 109.664 1.5996 111.816 1.56641C113.96 1.53335 116.1 1.5 120.388 1.5Z" fill="#006BD9" stroke="white" stroke-width="3"/>
</svg>
