<svg viewBox="0 0 712 1020" fill="none" xmlns="http://www.w3.org/2000/svg" preserveAspectRatio="none">
  <path d="M1.24508 1017.72C0.675067 1016.93 0.685067 1016 0.605066 1015.08C-1.32498 991.792 2.1151 965.832 0.605066 942.263C1.61509 909.514 1.06508 876.554 1.10508 843.725C1.17508 778.636 0.285059 713.417 1.14508 648.199C1.85509 594.76 1.00507 541.001 1.10508 487.462C1.23508 415.013 0.515064 342.315 1.14508 269.696C1.48508 230.317 0.295059 191.277 0.605066 151.908C0.925073 112.129 0.265058 72.3898 1.14508 32.6906C1.34508 23.8107 0.315059 13.4609 1.10508 4.8511C1.39508 1.66116 2.3051 1.32117 5.36517 1.06117C16.4654 0.121191 29.5957 1.28117 40.9859 1.10117C74.3667 0.581182 107.927 -0.298801 141.188 0.101191C226.06 1.11117 311.312 0.571182 396.344 0.561182C498.946 0.551182 601.768 0.971174 704.58 0.611181C706.54 0.611181 708.06 -0.538796 709.81 0.851177C711.56 2.24115 710.65 6.61106 710.8 8.95102C711.59 21.5108 711.26 34.3405 711.34 46.8103C711.88 125.379 711.17 203.857 711.84 282.296C712.49 357.404 710.88 433.033 711.84 508.191C712.33 546.811 711.41 585.28 711.34 623.959C711.17 717.947 712.12 812.355 711.3 906.454C711.04 936.073 711.48 965.742 711.85 995.352C711.94 1002.84 711.96 1010.37 711.57 1017.85C710.75 1019.17 710.01 1019.27 708.61 1019.41C688.89 1021.35 666.319 1017.73 646.409 1019.4C551.277 1016.74 455.995 1019.1 360.723 1018.9C275.441 1018.72 189.979 1019.16 104.657 1017.84C71.7866 1016.13 37.0159 1020.63 4.37515 1018.39C3.29512 1018.32 2.1951 1018.42 1.25508 1017.74L1.24508 1017.72Z" fill="#151435"/>
</svg>
