<svg viewBox="0 0 1272 1020" fill="none" xmlns="http://www.w3.org/2000/svg" preserveAspectRatio="none">
  <path d="M1269.18 1018.22C1268.19 1019.02 1267.04 1019.02 1265.89 1019.13C1236.84 1021.9 1204.47 1016.97 1175.08 1019.13C1134.24 1017.69 1093.13 1018.46 1052.19 1018.41C971.013 1018.3 889.689 1019.58 808.355 1018.35C741.713 1017.32 674.674 1018.55 607.9 1018.4C517.556 1018.21 426.891 1019.25 336.331 1018.35C287.217 1017.85 238.537 1019.57 189.442 1019.12C139.837 1018.67 90.2781 1019.61 40.767 1018.35C29.6962 1018.07 16.7819 1019.53 6.05151 1018.41C2.07133 1017.99 1.65535 1016.69 1.33391 1012.3C0.1616 996.408 1.60808 977.592 1.38118 961.265C0.719392 913.446 -0.36783 865.38 0.123783 817.723C1.38118 696.14 0.709938 574.02 0.700484 452.2C0.691029 305.212 1.21101 157.911 0.757208 10.6311C0.757208 7.82016 -0.670362 5.64463 1.05029 3.13522C2.77093 0.625816 8.2354 1.92898 11.1473 1.71358C26.8127 0.593506 42.8185 1.07815 58.3705 0.948915C156.353 0.184247 254.222 1.19662 352.043 0.227326C445.715 -0.698892 540.019 1.59511 633.747 0.227326C681.916 -0.472722 729.886 0.841215 778.111 0.948915C895.323 1.18585 1013.06 -0.171163 1130.4 1.01354C1167.34 1.39048 1204.34 0.744286 1241.26 0.227326C1250.59 0.0980867 1260 0.0657767 1269.32 0.636586C1270.97 1.81051 1271.09 2.86597 1271.27 4.87996C1273.69 33.1404 1269.17 65.4719 1271.26 93.9908C1267.94 230.274 1270.88 366.762 1270.63 503.25C1270.41 625.425 1270.95 747.847 1269.32 870.086C1267.18 917.173 1272.8 966.995 1270 1013.75C1269.9 1015.3 1270.04 1016.87 1269.2 1018.22H1269.18Z" fill="#006BD9"/>
</svg>
