<svg width="160" height="160" viewBox="0 0 160 160" fill="none" xmlns="http://www.w3.org/2000/svg">
  <g clip-path="url(#clip0_571_2974)">
    <path d="M157.955 0.259976C158.835 0.244977 159.565 0.944911 159.58 1.82483C159.615 3.81464 159.705 4.32459 159.705 7.15433C159.705 10.609 159.64 10.609 159.64 14.0637C159.64 17.5184 159.305 17.5184 159.305 20.973C159.305 24.4277 159.98 24.4277 159.98 27.8774C159.98 31.3321 159.805 31.3321 159.805 34.7817C159.805 38.2364 160 38.2364 160 41.6911C160 45.1458 159.195 45.1458 159.195 48.6004C159.195 52.0551 159.35 52.0551 159.35 55.5098C159.35 58.9645 159.31 58.9645 159.31 62.4191C159.31 65.8738 159.77 65.8738 159.77 69.3285C159.77 72.7832 159.34 72.7832 159.34 76.2379C159.34 79.6925 159.155 79.6925 159.155 83.1472C159.155 86.6019 159.94 86.6019 159.94 90.0566C159.94 93.5112 159.75 93.5112 159.75 96.9659C159.75 100.421 159.23 100.421 159.23 103.87C159.23 107.325 159.29 107.325 159.29 110.78C159.29 114.234 159.47 114.234 159.47 117.689C159.47 121.144 159.355 121.144 159.355 124.598C159.355 128.053 159.68 128.053 159.68 131.508C159.68 134.962 159.455 134.962 159.455 138.417C159.455 141.872 159.945 141.872 159.945 145.326C159.945 148.781 159.42 148.786 159.54 152.236C159.635 155.05 159.835 155.57 159.905 157.525C159.935 158.4 159.25 159.14 158.37 159.17C155.729 159.27 154.864 159.62 151.474 159.62C147.498 159.62 147.498 159.33 143.518 159.33C139.537 159.33 139.537 159.255 135.562 159.255C131.581 159.255 131.581 159.475 127.606 159.475C123.625 159.475 123.625 159.64 119.65 159.64C115.669 159.64 115.669 159.42 111.694 159.42C107.713 159.42 107.713 159.105 103.738 159.105C99.7575 159.105 99.7575 159.245 95.782 159.245C91.8015 159.245 91.8015 159.4 87.826 159.4C85.1723 159.4 82.5203 159.4 79.87 159.4C75.8895 159.4 75.8895 159.565 71.914 159.565C67.9335 159.565 67.9335 159.41 63.958 159.41C59.9825 159.41 59.9825 159.835 56.002 159.835C52.0215 159.835 52.0215 160 48.046 160C44.0655 160 44.0655 159.745 40.09 159.745C36.1095 159.745 36.1095 159.275 32.134 159.275C28.1535 159.275 28.1535 159.855 24.178 159.855C20.1975 159.855 20.1975 159.875 16.222 159.875C12.2415 159.875 12.2415 159.51 8.26603 159.51C4.88561 159.51 4.37555 159.2 1.86023 159.14C0.990124 159.12 0.300038 158.4 0.310039 157.535C0.330041 155.565 0.380048 155.045 0.380048 152.226C0.380048 148.771 0.185023 148.771 0.185023 145.316C0.185023 141.862 0.530066 141.862 0.530066 138.407C0.530066 134.952 0.135017 134.952 0.135017 131.503C0.135017 128.048 0.295037 128.048 0.295037 124.598C0.295037 121.144 0.505063 121.144 0.505063 117.689C0.505063 114.234 0.455057 114.234 0.455057 110.78C0.455057 107.325 0.850106 107.325 0.850106 103.87C0.850106 100.416 0.465058 100.416 0.465058 96.9609C0.465058 93.5062 0 93.5062 0 90.0516C0 86.5969 0.910114 86.5969 0.910114 83.1422C0.910114 79.6875 0.795099 79.6875 0.795099 76.2328C0.795099 72.7782 0.445056 72.7782 0.445056 69.3235C0.445056 65.8688 0.190024 65.8688 0.190024 62.4141C0.190024 58.9595 0.0200025 58.9595 0.0200025 55.5098C0.0200025 52.0551 0.355044 52.0551 0.355044 48.6004C0.355044 45.1458 0.635079 45.1458 0.635079 41.6911C0.635079 38.2364 0.285036 38.2364 0.285036 34.7817C0.285036 31.3271 0.16002 31.3271 0.16002 27.8724C0.16002 24.4177 0.665083 24.4177 0.665083 20.963C0.665083 17.5084 0.290036 17.5084 0.290036 14.0537C0.290036 10.599 0.385048 10.599 0.385048 7.14433C0.385048 4.33959 0.265033 3.80964 0.220028 1.86483C0.185023 0.979908 0.905113 0.244977 1.80023 0.244977C4.26553 0.244977 4.7906 0.264975 8.14102 0.264975C12.1215 0.264975 12.1215 0.504953 16.097 0.504953C20.0775 0.504953 20.0775 0.249977 24.053 0.249977C28.0335 0.249977 28.0335 0.259976 32.009 0.259976C35.9895 0.259976 35.9895 0.759929 39.965 0.759929C43.9455 0.759929 43.9455 0.599944 47.921 0.599944C51.9015 0.599944 51.9015 0.934912 55.877 0.934912C59.8575 0.934912 59.8575 0.784926 63.833 0.784926C67.8135 0.784926 67.8135 0 71.789 0C75.7695 0 75.7695 0.149986 79.745 0.149986C83.7255 0.149986 83.7255 0.524951 87.701 0.524951C91.6765 0.524951 91.6815 0.559947 95.657 0.559947C99.6375 0.559947 99.6375 0.95491 103.613 0.95491C107.593 0.95491 107.593 0.904915 111.569 0.904915C115.549 0.904915 115.549 0.42496 119.525 0.42496C123.505 0.42496 123.505 0.194982 127.481 0.194982C131.461 0.194982 131.461 0.649939 135.437 0.649939C139.417 0.649939 138.812 0.479955 142.793 0.479955C145.447 0.479955 148.099 0.479955 150.749 0.479955C154.129 0.479955 155.239 0.309971 157.935 0.259976H157.955Z" fill="currentColor"/>
  </g>
  <defs>
    <clipPath id="clip0_571_2974">
      <rect width="160" height="160" fill="white"/>
    </clipPath>
  </defs>
</svg>

