<svg width="84" height="58" viewBox="0 0 84 58" fill="none" xmlns="http://www.w3.org/2000/svg">
<title>Direct Debit</title>
  <path d="M0 4C0 1.79086 1.79086 0 4 0H80C82.2091 0 84 1.79086 84 4V54C84 56.2091 82.2091 58 80 58H4C1.79086 58 0 56.2091 0 54V4Z" fill="white"/>
<path fill-rule="evenodd" clip-rule="evenodd" d="M39.9304 22.3289H43.5609C43.5609 22.3289 47.1556 22.2553 47.1193 25.5722C47.0835 28.0421 43.6342 28.4104 43.6342 28.4104H39.9308L39.9304 22.3289ZM50.7916 34.2352C50.8936 34.7176 51.2373 35.2494 52.384 35.304C53.9087 35.3404 54.7802 34.7504 54.7802 34.7504V35.8931C54.7802 35.8931 53.1101 36.2991 52.3111 36.2991C51.4763 36.2991 49.0072 36.1143 49.0072 33.7925C49.0072 31.913 51.0406 31.323 52.202 31.323C54.2353 31.3966 55.2155 32.1342 55.1793 34.2348C55.1793 34.2652 51.834 34.2425 50.7916 34.2352ZM50.7964 33.3129H53.5821C53.5821 33.3129 53.5821 32.2442 52.2386 32.2442C51.2282 32.2442 50.8976 32.7973 50.7964 33.3129ZM59.6087 32.1589C60.0118 31.7149 60.6885 31.3594 61.8237 31.3594C64.0748 31.3594 64.4381 33.2761 64.4018 33.7921C64.3656 34.308 64.184 36.2615 61.5704 36.2615C60.583 36.2615 59.9788 35.9194 59.6091 35.4948V36.1139H57.8299V29.4792H59.6091V32.1589H59.6087ZM61.1342 35.2296C62.1869 35.1924 62.6589 34.2716 62.6589 33.8293C62.6589 33.3869 62.4044 32.4654 61.0609 32.4654C60.0186 32.4654 59.7011 33.2648 59.6087 33.6554V34.1362C59.7003 34.5345 60.0194 35.2296 61.1342 35.2296ZM76.4922 35.0456L76.528 36.0779C76.528 36.0779 75.6932 36.2619 75.1487 36.2619C74.6042 36.2619 73.1875 35.9303 73.1875 34.5292V32.3914H71.6995V31.4334H73.1875V30.2907H75.0033V31.4334H76.4922V32.3914H75.0033V34.2348C75.0033 34.2348 75.0033 35.1564 75.7298 35.1564C76.4555 35.1564 76.4922 35.0456 76.4922 35.0456ZM70.9734 23.324H73.0792V28.4472H74.8576V23.324H77V22.2549H70.9734V23.324ZM70.2469 23.582L70.4647 22.5129C70.4647 22.5129 69.557 22.1077 67.9598 22.1077C66.3985 22.1077 63.8936 22.9924 63.8936 25.3883C63.8936 27.7473 66.5439 28.558 68.1777 28.558C69.8115 28.558 70.356 28.3001 70.356 28.3001L70.1748 27.1205C70.1748 27.1205 69.4483 27.3417 68.2136 27.3417C67.0155 27.3049 65.782 26.3466 65.782 25.2779C65.8178 24.3195 66.9067 23.2504 68.3235 23.2504C69.412 23.2504 70.2469 23.582 70.2469 23.582ZM54.1991 22.2921C54.1991 22.2921 57.1763 22.1449 57.1763 23.914C57.1763 25.4255 55.4704 25.5358 55.4704 25.5358C55.4704 25.5358 55.942 25.6094 56.1603 25.941C56.3415 26.2358 57.5396 28.4476 57.5396 28.4476H55.7237C55.7237 28.4476 55.4334 28.0789 55.288 27.8213C55.1793 27.5633 54.8523 27.0101 54.8523 27.0101C54.8523 27.0101 54.5985 26.0886 53.7267 26.0886C53.7048 26.0886 53.3503 26.0749 53.0731 26.0643V28.4476H51.3305V22.2921H54.1991ZM53.0735 25.0567H54.0178C54.0178 25.0567 55.3246 24.9827 55.3971 24.1719C55.4338 23.398 54.127 23.2872 54.127 23.2872H53.0735V25.0567ZM60.3711 26.015H63.2759V24.8723H60.3711V23.4716H63.5304V22.2921H58.5931V28.4476H63.567V27.3417H60.3715V26.015H60.3711ZM67.4508 30.7327H69.23V29.4792H67.4508V30.7327ZM67.4508 36.1143H69.23V31.4334H67.4508V36.1143ZM48.0637 28.4476H49.8062V22.2921H48.0637V28.4476ZM39.9304 29.9959H43.5609C43.5609 29.9959 47.1556 29.9215 47.1193 33.2393C47.0835 35.7087 43.6342 36.0779 43.6342 36.0779H39.9308L39.9304 29.9959ZM41.7096 34.9352H42.8715C42.8715 34.9352 45.2676 34.7876 45.2676 32.9077C45.2676 31.0279 42.7261 30.8435 42.7261 30.8435H41.7096V34.9352ZM41.7096 27.2681H42.8715C42.8715 27.2681 45.2676 27.0837 45.2676 25.2407C45.2676 23.324 42.7261 23.1768 42.7261 23.1768H41.7096V27.2681ZM23.6285 25.9932V38.3262C23.6285 38.3262 16.5846 37.0358 16.5846 32.1338C16.585 28.224 21.7991 26.5007 23.6285 25.9932ZM23.6285 25.7631C19.395 25.4521 9.79565 27.4667 9.79565 31.8754C9.79565 34.75 14.8787 38.9525 23.1565 39.0629C23.4831 39.0629 32.8866 38.6941 32.7416 28.4472C32.6197 19.8408 26.2748 18.3334 24.2459 18.071V17.5465C32.3345 18.0677 38.6961 23.0062 38.6961 29C38.6961 35.34 31.5797 40.5 22.8299 40.5C14.0801 40.5 7 35.3396 7 29C7 22.6604 14.0797 17.5 22.8299 17.5C23.098 17.5 23.3645 17.5049 23.6289 17.5146L23.6285 25.7631Z" fill="black"/>
</svg>
