<svg aria-hidden="true" width="178" height="48" viewBox="0 0 178 48" fill="none" xmlns="http://www.w3.org/2000/svg">
<title>Registered Fundraising Regulator logo</title>
<path d="M21.5227 46.6612C9.89116 46.6612 0.430664 37.2007 0.430664 25.5691C0.430664 13.9375 9.89116 4.47705 21.5227 4.47705C33.1543 4.47705 42.6148 13.9375 42.6148 25.5691C42.6148 37.2007 33.1543 46.6612 21.5227 46.6612ZM21.5227 8.31299C12.006 8.31299 4.26661 16.0524 4.26661 25.5691C4.26661 35.0859 12.006 42.8252 21.5227 42.8252C31.0395 42.8252 38.7789 35.0859 38.7789 25.5691C38.7789 16.0524 31.0395 8.31299 21.5227 8.31299ZM9.71117 18.6397H9.3287V32.8248H13.0522V27.6277H19.4529V24.1742H13.0522V22.0819H20.3191V18.6284H9.71117V18.6397ZM34.2117 32.2286L31.197 27.8189C31.9169 27.4815 32.5469 27.009 33.0081 26.3791C33.5705 25.6141 33.8855 24.6467 33.8855 23.4993V23.4655C33.8855 21.9919 33.3793 20.777 32.4119 19.9221C31.4557 19.0784 30.0833 18.6509 28.4409 18.6509H21.9165V32.836H25.6399V28.5389H27.3723L30.1395 32.6673L30.252 32.836H34.6392L34.2342 32.2398L34.2117 32.2286ZM30.117 23.6455C30.117 24.1067 29.9483 24.478 29.6558 24.7254C29.3521 24.9842 28.8909 25.1529 28.2384 25.1529H25.6287V22.0706H28.1822C28.8459 22.0706 29.3296 22.2281 29.6446 22.4756C29.9371 22.7118 30.117 23.0718 30.117 23.6118V23.6455Z" fill="white"/>
<path d="M51.2314 8.99951V1.75509H54.3137C55.0899 1.75509 55.6523 1.82258 56.0011 1.94632C56.3498 2.08131 56.631 2.30629 56.8447 2.64377C57.0585 2.98124 57.1597 3.35246 57.1597 3.77993C57.1597 4.31988 57.0022 4.76985 56.676 5.12982C56.361 5.47854 55.8773 5.70352 55.2474 5.79352C55.5623 5.98475 55.8211 6.17598 56.0348 6.40097C56.2485 6.62595 56.5185 7.00842 56.8672 7.58212L57.7559 8.99951H56.0011L54.9436 7.42463C54.5724 6.86218 54.3137 6.50221 54.1675 6.35597C54.0325 6.20973 53.8862 6.10849 53.7287 6.05224C53.5713 5.996 53.3238 5.9735 52.9976 5.9735H52.7051V8.99951H51.2427H51.2314ZM52.6938 4.81484H53.7737C54.4712 4.81484 54.9099 4.7811 55.0899 4.72485C55.2699 4.6686 55.4049 4.56736 55.4949 4.42112C55.5848 4.27489 55.6411 4.0949 55.6411 3.88117C55.6411 3.63369 55.5736 3.44245 55.4499 3.28497C55.3149 3.13873 55.1349 3.03749 54.8987 3.00374C54.7749 2.99249 54.4262 2.98124 53.83 2.98124H52.6826V4.81484H52.6938ZM61.5694 7.32339L62.953 7.55962C62.773 8.06583 62.4918 8.4483 62.1093 8.71828C61.7269 8.98826 61.2431 9.112 60.6694 9.112C59.7583 9.112 59.0833 8.81952 58.6446 8.22332C58.2959 7.75086 58.1271 7.14341 58.1271 6.41222C58.1271 5.54603 58.3521 4.85984 58.8133 4.36488C59.2633 3.86992 59.8483 3.62244 60.5345 3.62244C61.3106 3.62244 61.9293 3.88117 62.3793 4.39863C62.8293 4.91609 63.043 5.70352 63.0318 6.77219H59.5558C59.5558 7.1884 59.6795 7.50338 59.8933 7.72836C60.107 7.95334 60.377 8.07708 60.6919 8.07708C60.9057 8.07708 61.0969 8.02084 61.2431 7.8971C61.3894 7.77336 61.5019 7.58212 61.5806 7.32339H61.5694ZM61.6481 5.9285C61.6481 5.52354 61.5356 5.21981 61.3331 5.00608C61.1307 4.79234 60.8944 4.6911 60.6132 4.6911C60.3095 4.6911 60.062 4.80359 59.8595 5.01733C59.657 5.23106 59.567 5.53479 59.567 5.91726H61.6481V5.9285ZM64.0329 9.34823L65.619 9.53947C65.6415 9.71945 65.709 9.85444 65.799 9.92194C65.934 10.0232 66.1365 10.0682 66.4177 10.0682C66.7777 10.0682 67.0477 10.0119 67.2389 9.91069C67.3627 9.83194 67.4526 9.71945 67.5201 9.56196C67.5651 9.44947 67.5876 9.23574 67.5876 8.92076V8.15583C67.1714 8.71828 66.654 9.01076 66.0128 9.01076C65.3041 9.01076 64.7529 8.71828 64.3366 8.12208C64.0104 7.64962 63.8529 7.06466 63.8529 6.36722C63.8529 5.48979 64.0667 4.81484 64.4829 4.35363C64.9104 3.89242 65.4278 3.65619 66.0578 3.65619C66.6877 3.65619 67.2389 3.93741 67.6664 4.51112V3.76868H68.9713V8.48205C68.9713 9.10075 68.915 9.56196 68.8138 9.86569C68.7125 10.1694 68.5663 10.4169 68.3863 10.5856C68.2063 10.7544 67.9589 10.9006 67.6439 10.9906C67.3289 11.0806 66.9464 11.1368 66.474 11.1368C65.5853 11.1368 64.9553 10.9794 64.5841 10.6756C64.2129 10.3719 64.0217 9.98943 64.0217 9.51697C64.0217 9.47197 64.0217 9.41573 64.0217 9.34823H64.0329ZM65.2703 6.26598C65.2703 6.82843 65.3828 7.2334 65.5965 7.49213C65.8103 7.75086 66.0803 7.8746 66.3952 7.8746C66.7327 7.8746 67.0252 7.73961 67.2502 7.48088C67.4864 7.2109 67.5989 6.82843 67.5989 6.29972C67.5989 5.77102 67.4864 5.3548 67.2614 5.08482C67.0364 4.82609 66.7552 4.6911 66.4065 4.6911C66.0578 4.6911 65.799 4.82609 65.5853 5.08482C65.3716 5.34355 65.2591 5.73727 65.2591 6.26598H65.2703ZM70.3437 3.03749V1.75509H71.7273V3.03749H70.3437ZM70.3437 8.99951V3.74618H71.7273V8.99951H70.3437ZM72.661 7.50338L74.0559 7.28965C74.1121 7.55962 74.2359 7.76211 74.4158 7.90835C74.5958 8.04334 74.8546 8.12208 75.1808 8.12208C75.5408 8.12208 75.8107 8.05458 75.9907 7.9196C76.1145 7.8296 76.1707 7.70586 76.1707 7.54838C76.1707 7.44713 76.137 7.35714 76.0695 7.28965C76.002 7.22215 75.8445 7.16591 75.6082 7.10966C74.4833 6.86218 73.7746 6.6372 73.4822 6.43471C73.066 6.15349 72.8635 5.75977 72.8635 5.25356C72.8635 4.80359 73.0435 4.42112 73.4034 4.10615C73.7634 3.79118 74.3146 3.64494 75.0795 3.64494C75.8445 3.64494 76.3282 3.75743 76.6769 3.99366C77.0256 4.22989 77.2619 4.57861 77.3969 5.02858L76.092 5.26481C76.0357 5.06232 75.9345 4.90484 75.777 4.79235C75.6195 4.67985 75.3945 4.63486 75.102 4.63486C74.7308 4.63486 74.4721 4.6911 74.3146 4.79235C74.2134 4.85984 74.1571 4.96108 74.1571 5.07357C74.1571 5.17481 74.2021 5.25356 74.2921 5.32105C74.4158 5.41105 74.8546 5.54603 75.5857 5.71477C76.3169 5.88351 76.8457 6.08599 77.1381 6.33347C77.4306 6.58095 77.5768 6.92967 77.5768 7.36839C77.5768 7.8521 77.3744 8.25707 76.9694 8.60579C76.5644 8.95451 75.9682 9.12325 75.1808 9.12325C74.4608 9.12325 73.8984 8.97701 73.4822 8.68453C73.066 8.39206 72.796 7.99834 72.661 7.50338ZM81.1878 3.74618V4.84859H80.2429V6.96342C80.2429 7.39089 80.2429 7.63837 80.2654 7.71711C80.2879 7.78461 80.3216 7.8521 80.3891 7.8971C80.4566 7.94209 80.5354 7.96459 80.6253 7.96459C80.7491 7.96459 80.9403 7.9196 81.1878 7.8296L81.3115 8.90952C80.9853 9.04451 80.6253 9.112 80.2091 9.112C79.9616 9.112 79.7367 9.067 79.5342 8.98826C79.3317 8.90952 79.1855 8.79703 79.0955 8.66204C79.0055 8.52705 78.938 8.34706 78.9042 8.12208C78.8705 7.96459 78.8592 7.63837 78.8592 7.14341V4.85984H78.218V3.75743H78.8592V2.71126L80.2541 1.90133V3.75743H81.1991L81.1878 3.74618ZM85.1925 7.32339L86.5761 7.55962C86.3961 8.06583 86.1149 8.4483 85.7324 8.71828C85.35 8.98826 84.8663 9.112 84.2926 9.112C83.3814 9.112 82.7064 8.81952 82.2677 8.22332C81.919 7.75086 81.7503 7.14341 81.7503 6.41222C81.7503 5.54603 81.9752 4.85984 82.4365 4.36488C82.8864 3.86992 83.4714 3.62244 84.1576 3.62244C84.9338 3.62244 85.5525 3.88117 86.0024 4.39863C86.4524 4.91609 86.6661 5.70352 86.6549 6.77219H83.1789C83.1789 7.1884 83.3026 7.50338 83.5164 7.72836C83.7301 7.95334 84.0001 8.07708 84.3151 8.07708C84.5288 8.07708 84.72 8.02084 84.8663 7.8971C85.0125 7.77336 85.125 7.58212 85.2037 7.32339H85.1925ZM85.2712 5.9285C85.2712 5.52354 85.1587 5.21981 84.9562 5.00608C84.7538 4.79234 84.5175 4.6911 84.2363 4.6911C83.9326 4.6911 83.6851 4.80359 83.4826 5.01733C83.2801 5.23106 83.1901 5.53479 83.1901 5.91726H85.2712V5.9285ZM89.1184 8.99951H87.7348V3.74618H89.0284V4.48862C89.2534 4.1399 89.4446 3.90367 89.6246 3.79117C89.8046 3.67868 89.9958 3.62244 90.2208 3.62244C90.5358 3.62244 90.8395 3.71243 91.132 3.88117L90.7045 5.09607C90.4683 4.94983 90.2546 4.87109 90.0521 4.87109C89.8496 4.87109 89.6921 4.92733 89.5571 5.02858C89.4221 5.14107 89.3209 5.3323 89.2422 5.61353C89.1634 5.89476 89.1297 6.47971 89.1297 7.36839V8.98826L89.1184 8.99951ZM94.7655 7.32339L96.1491 7.55962C95.9691 8.06583 95.6879 8.4483 95.3054 8.71828C94.923 8.98826 94.4392 9.112 93.8655 9.112C92.9544 9.112 92.2794 8.81952 91.8407 8.22332C91.492 7.75086 91.3232 7.14341 91.3232 6.41222C91.3232 5.54603 91.5482 4.85984 92.0094 4.36488C92.4594 3.86992 93.0444 3.62244 93.7306 3.62244C94.5067 3.62244 95.1254 3.88117 95.5754 4.39863C96.0254 4.91609 96.2391 5.70352 96.2279 6.77219H92.7519C92.7519 7.1884 92.8756 7.50338 93.0894 7.72836C93.3031 7.95334 93.5731 8.07708 93.888 8.07708C94.1018 8.07708 94.293 8.02084 94.4392 7.8971C94.5855 7.77336 94.698 7.58212 94.7767 7.32339H94.7655ZM94.8442 5.9285C94.8442 5.52354 94.7317 5.21981 94.5292 5.00608C94.3268 4.79234 94.0905 4.6911 93.8093 4.6911C93.5056 4.6911 93.2581 4.80359 93.0556 5.01733C92.8531 5.23106 92.7631 5.53479 92.7631 5.91726H94.8442V5.9285ZM102.179 8.99951H100.885V8.22332C100.671 8.52705 100.413 8.74078 100.131 8.89827C99.8388 9.04451 99.5463 9.12325 99.2539 9.12325C98.6464 9.12325 98.1289 8.87577 97.7015 8.39206C97.274 7.90835 97.0603 7.22215 97.0603 6.35597C97.0603 5.48979 97.274 4.79234 97.6902 4.33113C98.1064 3.86992 98.6352 3.63369 99.2764 3.63369C99.8613 3.63369 100.368 3.88117 100.795 4.36488V1.75509H102.19V8.99951H102.179ZM98.4664 6.26598C98.4664 6.82843 98.5452 7.2334 98.7027 7.48088C98.9276 7.84085 99.2426 8.02084 99.6363 8.02084C99.9513 8.02084 100.233 7.88585 100.458 7.61587C100.682 7.34589 100.795 6.94092 100.795 6.40097C100.795 5.79351 100.682 5.36605 100.469 5.09607C100.255 4.82609 99.9738 4.70235 99.6363 4.70235C99.2989 4.70235 99.0289 4.83734 98.8039 5.09607C98.5789 5.3548 98.4664 5.74852 98.4664 6.26598ZM110.75 7.70586V8.99951H105.88C105.936 8.5158 106.093 8.05458 106.352 7.61587C106.611 7.17715 107.139 6.60345 107.916 5.88351C108.546 5.29855 108.928 4.90484 109.063 4.70235C109.254 4.42112 109.344 4.12865 109.344 3.84742C109.344 3.53245 109.266 3.29621 109.097 3.13873C108.928 2.98124 108.703 2.89125 108.411 2.89125C108.118 2.89125 107.893 2.98124 107.713 3.14998C107.533 3.31871 107.443 3.61119 107.421 4.01616L106.037 3.88117C106.116 3.11623 106.375 2.56502 106.813 2.2388C107.252 1.91258 107.792 1.74384 108.444 1.74384C109.164 1.74384 109.727 1.93507 110.132 2.31754C110.537 2.70001 110.739 3.18372 110.739 3.75743C110.739 4.08365 110.683 4.39863 110.559 4.6911C110.447 4.98358 110.255 5.29855 110.008 5.61353C109.839 5.82726 109.536 6.13099 109.097 6.53596C108.658 6.94092 108.377 7.19965 108.264 7.33464C108.152 7.46963 108.051 7.59337 107.983 7.71711H110.739L110.75 7.70586ZM114.035 1.72134C114.733 1.72134 115.284 1.96882 115.678 2.47503C116.15 3.07123 116.386 4.0499 116.386 5.42229C116.386 6.79469 116.15 7.78461 115.678 8.38081C115.284 8.87577 114.733 9.12325 114.035 9.12325C113.338 9.12325 112.764 8.85327 112.325 8.31331C111.898 7.77336 111.673 6.80593 111.673 5.41105C111.673 4.01616 111.909 3.05998 112.382 2.46378C112.775 1.96882 113.315 1.72134 114.024 1.72134H114.035ZM114.035 2.86875C113.866 2.86875 113.72 2.92499 113.585 3.02624C113.45 3.12748 113.349 3.32996 113.281 3.59994C113.191 3.95991 113.135 4.56736 113.135 5.41105C113.135 6.25473 113.18 6.85093 113.27 7.16591C113.36 7.48088 113.461 7.69461 113.596 7.79585C113.731 7.8971 113.878 7.95334 114.046 7.95334C114.215 7.95334 114.361 7.8971 114.496 7.79585C114.631 7.68336 114.733 7.49213 114.8 7.22215C114.89 6.86218 114.946 6.26598 114.946 5.41105C114.946 4.55611 114.901 3.98241 114.823 3.65619C114.733 3.34121 114.631 3.12748 114.496 3.01499C114.361 2.9025 114.215 2.8575 114.046 2.8575L114.035 2.86875ZM122.011 7.70586V8.99951H117.14C117.196 8.5158 117.354 8.05458 117.612 7.61587C117.871 7.17715 118.4 6.60345 119.176 5.88351C119.806 5.29855 120.188 4.90484 120.323 4.70235C120.515 4.42112 120.605 4.12865 120.605 3.84742C120.605 3.53245 120.526 3.29621 120.357 3.13873C120.188 2.98124 119.963 2.89125 119.671 2.89125C119.379 2.89125 119.154 2.98124 118.974 3.14998C118.794 3.31871 118.704 3.61119 118.681 4.01616L117.297 3.88117C117.376 3.11623 117.635 2.56502 118.074 2.2388C118.512 1.91258 119.052 1.74384 119.705 1.74384C120.413 1.74384 120.976 1.93507 121.392 2.31754C121.797 2.70001 122 3.18372 122 3.75743C122 4.08365 121.943 4.39863 121.82 4.6911C121.707 4.98358 121.516 5.29855 121.268 5.61353C121.1 5.82726 120.796 6.13099 120.357 6.53596C119.918 6.94092 119.637 7.19965 119.525 7.33464C119.412 7.46963 119.311 7.59337 119.244 7.71711H122L122.011 7.70586ZM125.678 8.99951V7.53713H122.708V6.32222L125.847 1.72134H127.017V6.32222H127.917V7.53713H127.017V8.99951H125.667H125.678ZM125.678 6.32222V3.84742L124.013 6.32222H125.678ZM128.142 9.12325L129.93 1.63135H130.976L129.165 9.12325H128.142ZM136.083 7.70586V8.99951H131.213C131.269 8.5158 131.426 8.05458 131.685 7.61587C131.944 7.17715 132.472 6.60345 133.249 5.88351C133.879 5.29855 134.261 4.90484 134.396 4.70235C134.587 4.42112 134.677 4.12865 134.677 3.84742C134.677 3.53245 134.599 3.29621 134.43 3.13873C134.261 2.96999 134.036 2.89125 133.744 2.89125C133.451 2.89125 133.226 2.98124 133.046 3.14998C132.866 3.31871 132.776 3.61119 132.754 4.01616L131.37 3.88117C131.449 3.11623 131.708 2.56502 132.146 2.2388C132.585 1.91258 133.125 1.74384 133.777 1.74384C134.497 1.74384 135.06 1.93507 135.465 2.31754C135.87 2.70001 136.072 3.18372 136.072 3.75743C136.072 4.08365 136.016 4.39863 135.892 4.6911C135.78 4.98358 135.588 5.29855 135.341 5.61353C135.172 5.82726 134.869 6.13099 134.43 6.53596C133.991 6.94092 133.71 7.19965 133.597 7.33464C133.474 7.46963 133.384 7.59337 133.316 7.71711H136.072L136.083 7.70586ZM137.04 7.13216L138.423 6.98592C138.468 7.30089 138.581 7.54838 138.772 7.72836C138.963 7.90835 139.188 7.99834 139.447 7.99834C139.739 7.99834 139.987 7.88585 140.178 7.64962C140.381 7.41339 140.482 7.05341 140.482 6.58095C140.482 6.14224 140.381 5.80476 140.178 5.57978C139.976 5.3548 139.717 5.24231 139.402 5.24231C139.008 5.24231 138.648 5.42229 138.333 5.77102L137.208 5.60228L137.917 1.83383H141.584V3.13873H138.963L138.749 4.36488C139.064 4.20739 139.379 4.12865 139.694 4.12865C140.313 4.12865 140.831 4.35363 141.258 4.80359C141.685 5.25356 141.899 5.83851 141.899 6.5472C141.899 7.14341 141.73 7.67211 141.382 8.14458C140.909 8.78578 140.257 9.10075 139.413 9.10075C138.749 9.10075 138.198 8.92076 137.782 8.56079C137.366 8.20082 137.107 7.71711 137.028 7.10966L137.04 7.13216Z" fill="white"/>
<path d="M152.451 0C149.504 0 147.085 2.41856 147.085 5.36582C147.085 8.31309 149.504 10.7316 152.451 10.7316C155.398 10.7316 157.817 8.31309 157.817 5.36582C157.817 2.41856 155.398 0 152.451 0ZM151.371 8.05436L148.682 5.36582L149.436 4.61213L151.36 6.53573L155.432 2.46355L156.185 3.22849L151.36 8.06561L151.371 8.05436Z" fill="white"/>
<path d="M51.5132 28.7419V15.3217H60.9624V16.2441H52.5031V21.7449H60.0963V22.6673H52.5031V28.7419H51.502H51.5132ZM68.4319 28.9443C65.2146 28.9443 62.931 26.9083 62.931 23.1511V15.3104H63.9322V23.0611C63.9322 26.2671 65.6196 28.0444 68.4768 28.0444C71.1766 28.0444 72.9427 26.3908 72.9427 23.1511V15.3104H73.9439V23.0386C73.9439 26.8745 71.7053 28.9443 68.4431 28.9443H68.4319ZM76.7449 28.7419V15.3217H77.6899L86.9479 26.9982V15.3217H87.904V28.7419H87.1616L77.7124 16.8178V28.7419H76.7562H76.7449ZM90.9413 28.7419V15.3217H95.4072C99.6256 15.3217 102.539 18.2127 102.539 21.9924V22.0261C102.539 25.8058 99.6256 28.7419 95.4072 28.7419H90.9413ZM95.4072 16.2329H91.9312V27.8194H95.4072C99.1419 27.8194 101.504 25.2659 101.504 22.0711V22.0374C101.504 18.8764 99.1419 16.2441 95.4072 16.2441V16.2329ZM104.98 28.7419V15.3217H110.616C112.281 15.3217 113.563 15.8166 114.396 16.6491C115.026 17.279 115.408 18.1677 115.408 19.1464V19.1801C115.408 21.4187 113.721 22.7123 111.482 23.0161L115.914 28.7531H114.654L110.38 23.1961H105.993V28.7531H104.991L104.98 28.7419ZM105.97 22.2736H110.492C112.731 22.2736 114.407 21.1262 114.407 19.2026V19.1689C114.407 17.3465 113.012 16.2329 110.548 16.2329H105.97V22.2736ZM116.724 28.7419L122.979 15.2204H123.935L130.189 28.7419H129.098L127.388 24.9847H119.469L117.759 28.7419H116.724ZM119.885 24.0735H126.961L123.429 16.3116L119.885 24.0735ZM132.203 28.7419V15.3217H133.204V28.7419H132.203ZM140.91 28.9331C138.761 28.9331 137.108 28.2244 135.499 26.7845L136.151 26.0421C137.625 27.4257 138.986 28.0332 140.966 28.0332C142.946 28.0332 144.363 26.897 144.363 25.3671V25.3334C144.363 23.916 143.621 23.0948 140.561 22.4761C137.321 21.8012 136.039 20.755 136.039 18.6964V18.6627C136.039 16.6716 137.861 15.1304 140.347 15.1304C142.282 15.1304 143.587 15.6704 144.948 16.7616L144.318 17.549C143.036 16.4578 141.787 16.0304 140.314 16.0304C138.323 16.0304 137.04 17.1778 137.04 18.5614V18.5952C137.04 20.0351 137.771 20.8562 140.955 21.5312C144.082 22.1611 145.364 23.2523 145.364 25.2321V25.2659C145.364 27.437 143.508 28.9331 140.921 28.9331H140.91ZM147.806 28.7419V15.3217H148.807V28.7419H147.806ZM151.979 28.7419V15.3217H152.913L162.171 26.9982V15.3217H163.127V28.7419H162.384L152.935 16.8178V28.7419H151.979ZM172.317 28.9668C168.076 28.9668 165.568 25.8396 165.568 22.0599V22.0261C165.568 18.4039 168.2 15.0854 172.205 15.0854C174.387 15.0854 175.771 15.7154 177.109 16.8516L176.457 17.594C175.4 16.6716 174.151 15.9854 172.137 15.9854C168.864 15.9854 166.592 18.7414 166.592 21.9924V22.0261C166.592 25.5021 168.763 28.0894 172.34 28.0894C174.027 28.0894 175.636 27.3807 176.614 26.5595V22.7011H172.126V21.7787H177.571V26.9532C176.344 28.0219 174.5 28.9668 172.295 28.9668H172.317Z" fill="white"/>
<path d="M63.2568 47.7525H59.6683L56.6761 43.2866H54.2575V47.7525H51.1865V33.7924H57.5648C60.8608 33.7924 62.8293 35.5247 62.8293 38.3933V38.4383C62.8293 40.6881 61.6144 42.1055 59.8371 42.7692L63.2456 47.7525H63.2568ZM59.7246 38.607V38.562C59.7246 37.2459 58.8022 36.5709 57.306 36.5709H54.2575V40.5756H57.3735C58.8697 40.5756 59.7246 39.7769 59.7246 38.5958V38.607ZM76.227 47.7525H65.5966V33.7924H76.1258V36.5259H68.6451V39.3607H75.2259V42.0942H68.6451V45.0302H76.227V47.7638V47.7525ZM91.6495 45.7839C90.2097 46.9988 88.2411 48 85.6875 48C81.3454 48 78.3531 44.9515 78.3531 40.8231V40.7781C78.3531 36.8071 81.4466 33.5562 85.6763 33.5562C88.1848 33.5562 89.7035 34.2311 91.1658 35.4685L89.231 37.7971C88.1511 36.8971 87.1949 36.3797 85.5863 36.3797C83.3477 36.3797 81.5816 38.3595 81.5816 40.7218V40.7668C81.5816 43.3204 83.3365 45.199 85.8113 45.199C86.9249 45.199 87.9261 44.9177 88.7023 44.3665V42.3754H85.6088V39.7207H91.672V45.7839H91.6495ZM106.543 41.678C106.543 45.9077 104.17 47.9775 100.424 47.9775C96.6779 47.9775 94.3831 45.8852 94.3831 41.7792V33.8036H97.4541V41.7005C97.4541 43.9728 98.5902 45.154 100.469 45.154C102.347 45.154 103.484 44.0178 103.484 41.8017V33.8036H106.555V41.678H106.543ZM119.705 47.7525H109.671V33.7924H112.742V44.9627H119.705V47.7525ZM135.622 47.7525H132.416L131.145 44.6253H125.239L123.957 47.7525H120.83L126.814 33.6911H129.649L135.634 47.7525H135.622ZM130.031 41.9142L128.175 37.3921L126.319 41.9142H130.031ZM146.556 36.6272H142.315V47.7525H139.244V36.6272H134.992V33.7924H146.556V36.6272ZM162.53 40.7781C162.53 44.749 159.403 48 155.094 48C150.786 48 147.693 44.794 147.693 40.8231V40.7781C147.693 36.8071 150.82 33.5562 155.128 33.5562C159.437 33.5562 162.53 36.7621 162.53 40.7331V40.7781ZM159.313 40.8231V40.7781C159.313 38.382 157.558 36.3909 155.083 36.3909C152.608 36.3909 150.899 38.3483 150.899 40.7331V40.7781C150.899 43.1741 152.653 45.1652 155.128 45.1652C157.603 45.1652 159.313 43.2079 159.313 40.8231ZM177.323 47.7525H173.734L170.742 43.2866H168.335V47.7525H165.264V33.7924H171.642C174.938 33.7924 176.907 35.5247 176.907 38.3933V38.4383C176.907 40.6881 175.692 42.1055 173.914 42.7692L177.323 47.7525ZM173.79 38.607V38.562C173.79 37.2459 172.868 36.5709 171.372 36.5709H168.323V40.5756H171.428C172.924 40.5756 173.779 39.7769 173.779 38.5958L173.79 38.607Z" fill="white"/>
</svg>
