<svg width="24" height="24" viewBox="0 0 24 24" fill="none" xmlns="http://www.w3.org/2000/svg">
  <path d="M9.54991 14.6695L17.7707 6.44905C18.0365 6.18305 18.3498 6.05005 18.7107 6.05005C19.0717 6.05005 19.3851 6.18305 19.6509 6.44905C19.9169 6.71488 20.0499 7.03005 20.0499 7.39455C20.0499 7.75905 19.9169 8.0743 19.6509 8.3403L10.4902 17.512C10.2242 17.778 9.91074 17.911 9.54991 17.911C9.18908 17.911 8.87566 17.778 8.60966 17.512L4.33791 13.2403C4.07191 12.9743 3.94074 12.659 3.94441 12.2945C3.94808 11.93 4.08291 11.6149 4.34891 11.349C4.61474 11.083 4.92991 10.95 5.29441 10.95C5.65891 10.95 5.97416 11.083 6.24016 11.349L9.54991 14.6695Z" fill="white"/>
</svg>
