<svg width="84" height="58" viewBox="0 0 84 58" fill="none" xmlns="http://www.w3.org/2000/svg">
<title>Google Pay</title>
  <path d="M0 4C0 1.79086 1.79086 0 4 0H80C82.2091 0 84 1.79086 84 4V54C84 56.2091 82.2091 58 80 58H4C1.79086 58 0 56.2091 0 54V4Z" fill="white"/>
<path d="M31.6507 27.1748C31.6507 26.4578 31.5887 25.7718 31.4727 25.1118H22.0938V28.9868H27.4777C27.3675 29.5995 27.1343 30.1836 26.7923 30.7038C26.4503 31.224 26.0065 31.6697 25.4878 32.0138V34.4908H28.6817C30.5617 32.7578 31.6518 30.2068 31.6518 27.1748H31.6507Z" fill="#4285F4"/>
<path d="M22.1 36.9C24.786 36.9 27.038 36.01 28.682 34.49L25.488 32.014C24.592 32.616 23.446 32.972 22.094 32.972C19.497 32.972 17.292 31.218 16.502 28.856H13.208V31.412C14.852 34.663 18.208 36.9 22.1 36.9Z" fill="#34A853"/>
<path d="M16.5071 28.8558C16.0881 27.6197 16.0881 26.2799 16.5071 25.0438V22.4878H13.2131C12.5142 23.8713 12.1505 25.3998 12.1514 26.9499C12.1522 28.4999 12.5176 30.028 13.2181 31.4108L16.5071 28.8558Z" fill="#FBBC05"/>
<path d="M22.0998 20.928C23.5708 20.928 24.8858 21.436 25.9228 22.42L28.7558 19.592C27.0328 17.985 24.7858 17 22.0998 17C18.2088 17 14.8518 19.236 13.2178 22.488L16.5118 25.044C17.2978 22.682 19.5018 20.928 22.0998 20.928Z" fill="#EA4335"/>
<path d="M40.0155 28.9448V35.8518H37.8105V18.5708H43.6605C45.1475 18.5708 46.4095 19.0738 47.4465 20.0788C48.4985 21.0848 49.0275 22.3098 49.0275 23.7548C49.0275 25.2318 48.4985 26.4678 47.4465 27.4578C46.4255 28.4478 45.1635 28.9398 43.6605 28.9398L40.0155 28.9448ZM40.0155 20.7128V26.7978H43.7075C44.5875 26.7978 45.3145 26.4988 45.8905 25.8978C46.4825 25.2948 46.7765 24.5828 46.7765 23.7548C46.7765 22.9438 46.4825 22.2368 45.8905 21.6348C45.3145 21.0168 44.5875 20.7078 43.7075 20.7078L40.0155 20.7128ZM54.5305 23.5088C56.1605 23.5088 57.4475 23.9488 58.3905 24.8338C59.3335 25.7188 59.8045 26.9338 59.8045 28.4738V35.8518H57.6945V34.1708H57.5995C56.6895 35.5328 55.4735 36.2188 53.9555 36.2188C52.6615 36.2188 51.5775 35.8308 50.7085 35.0508C49.8385 34.2708 49.4045 33.2968 49.4045 32.1288C49.4045 30.8928 49.8645 29.9138 50.7815 29.1858C51.6985 28.4578 52.9235 28.0908 54.4575 28.0908C55.7675 28.0908 56.8455 28.3318 57.6945 28.8188V28.3058C57.6945 27.5258 57.3905 26.8658 56.7835 26.3208C56.203 25.7867 55.4404 25.4945 54.6515 25.5038C53.4215 25.5038 52.4475 26.0338 51.7295 27.0858L49.7865 25.8448C50.8555 24.2888 52.4355 23.5088 54.5305 23.5088ZM51.6825 32.1758C51.6825 32.7618 51.9285 33.2488 52.4155 33.6358C52.9006 34.0245 53.506 34.2321 54.1275 34.2228C55.0545 34.2228 55.8825 33.8728 56.6105 33.1758C57.3385 32.4798 57.6995 31.6568 57.6995 30.7198C57.0135 30.1698 56.0555 29.8928 54.8245 29.8928C53.9295 29.8928 53.1805 30.1128 52.5835 30.5528C51.9805 30.9868 51.6825 31.5258 51.6825 32.1758ZM71.8495 23.8078L64.4905 40.9998H62.2125L64.9465 34.9828L60.1075 23.8078H62.5055L66.0045 32.3798H66.0515L69.4555 23.8078H71.8495Z" fill="#3C4043"/>
</svg>
