<svg width="240" height="240" viewBox="0 0 240 240" fill="none" xmlns="http://www.w3.org/2000/svg">
  <path d="M159.359 139.607C156.488 139.607 156.488 139.971 153.617 139.971C152.733 139.971 151.866 139.184 151.695 138.316C150.937 134.471 151.013 134.458 150.255 130.613C149.497 126.769 149.595 126.751 148.837 122.907C148.079 119.062 148.146 119.051 147.388 115.207C146.883 112.644 146.376 110.081 145.868 107.52C145.111 103.676 145.051 103.687 144.293 99.8444C144.026 98.4933 142.775 97.3755 141.399 97.3755C140.599 97.3755 139.919 96.7378 139.906 97.5378C139.844 101.364 140.642 101.271 141.382 105.024C142.119 108.778 141.915 108.818 142.653 112.573C143.391 116.327 143.453 116.316 144.191 120.069C144.928 123.824 145.177 123.776 145.915 127.529C146.653 131.284 146.248 131.362 146.986 135.118C147.724 138.873 148.044 138.809 148.784 142.564C149.522 146.32 149.417 146.34 150.157 150.093C150.895 153.849 150.993 153.829 151.733 157.584C152.471 161.34 152.519 161.329 153.259 165.084C153.808 167.873 152.746 170.518 151.104 172.513C149.462 174.509 147.073 175.929 144.231 175.929C142.439 175.929 142.439 175.804 140.648 175.802C140.182 175.802 139.811 176.264 139.811 176.733C139.811 181.078 139.704 181.078 139.704 185.424C139.704 189.769 139.595 189.769 139.595 194.116C139.595 196.664 138.742 198.947 137.077 200.62C135.419 202.273 133.157 203.176 130.633 203.191C128.246 203.204 126.142 202.296 124.573 200.693C123.011 199.098 121.831 196.969 121.831 194.593C121.831 189.658 122.144 189.658 122.144 184.722C122.144 180.409 121.808 180.409 121.808 176.093C121.808 175.529 121.839 175.529 121.839 174.962C121.839 173.902 121.175 173.002 120.117 172.936C118.959 172.862 118.128 173.753 118.128 174.893C118.128 175.493 118.033 175.493 118.033 176.091C118.033 180.404 118.048 180.404 118.048 184.72C118.048 189.656 117.913 189.656 117.913 194.591C117.913 196.967 117.153 199.278 115.591 200.873C114.022 202.476 111.731 203.32 109.346 203.307C106.822 203.291 104.628 202.207 102.971 200.551C101.304 198.88 100.262 196.664 100.262 194.116C100.262 189.758 100.093 189.758 100.093 185.4C100.093 181.042 100.224 181.042 100.224 176.684C100.224 176.244 99.8216 175.838 99.3816 175.838C97.5616 175.838 97.5616 176.073 95.7416 176.071C92.8994 176.071 90.2816 174.689 88.6416 172.693C87.0016 170.698 86.3039 167.893 86.8527 165.104C87.5905 161.351 87.8372 161.398 88.575 157.644C89.3127 153.891 88.9727 153.824 89.7105 150.071C90.4483 146.318 90.655 146.358 91.3927 142.604C91.8846 140.102 92.3772 137.599 92.8705 135.096C93.6083 131.342 93.4105 131.302 94.1505 127.549C94.8883 123.793 95.215 123.858 95.955 120.104C96.6927 116.351 96.6194 116.336 97.3594 112.582C98.0972 108.827 98.0283 108.813 98.7683 105.06C99.5061 101.304 99.6972 101.34 99.9705 97.5222C100.004 97.0555 99.7105 97.3466 99.2416 97.3466C97.4794 97.3466 95.9683 98.7844 95.6283 100.513C94.8972 104.224 95.0616 104.258 94.3305 107.969C93.5994 111.68 93.2439 111.611 92.5127 115.322C91.7816 119.033 91.8172 119.04 91.0861 122.751C90.355 126.462 90.4194 126.476 89.6861 130.187C88.955 133.898 89.1061 133.929 88.375 137.64C88.1261 138.898 86.9616 139.62 85.6794 139.62C83.1505 139.62 83.1505 139.6 80.6239 139.6C77.8794 139.6 75.0794 138.764 73.1039 137.011C71.0483 135.187 69.6794 132.536 70.2816 129.613C70.5527 128.296 71.2861 125.722 72.055 122.509C72.5727 120.351 73.0439 117.884 73.6594 115.369C74.235 113.016 75.135 110.667 75.7105 108.336C76.3394 105.787 76.6661 103.278 77.1905 101.162C78.2305 96.9778 79.115 94.1022 79.115 94.1022C79.3016 92.6178 79.4505 92.64 79.6816 91.1622C80.2261 88.2711 81.0638 85.7778 82.7261 83.9733C84.4661 82.0844 86.9127 80.9378 89.5661 80.1089C91.9061 79.38 94.5283 78.9311 97.3438 78.9311C101.117 78.9311 101.117 79.1244 104.893 79.1244C108.668 79.1244 108.666 78.9955 112.442 78.9955C116.217 78.9955 116.217 78.8933 119.991 78.8933C123.764 78.8933 123.764 78.8933 127.539 78.8933C131.315 78.8933 131.315 79.0378 135.088 79.0378C138.862 79.0378 138.864 79.1066 142.637 79.1066C145.502 79.1066 148.235 79.3178 150.622 80.1978C153.251 81.1689 155.602 82.6822 157.335 84.6955C159.006 86.6355 159.864 89.1978 160.406 92.08C160.573 93.1022 160.628 93.0933 160.826 94.1111C161.526 97.7022 161.717 96.9911 162.735 101.178C163.251 103.296 163.751 105.76 164.371 108.309C164.937 110.642 165.248 113.136 165.819 115.489C166.433 118.011 167.028 120.449 167.551 122.6C168.346 125.873 169.119 128.449 169.417 129.676C170.077 132.387 169.026 135.131 166.893 137.031C164.913 138.793 162.051 139.613 159.355 139.613L159.359 139.607Z" fill="currentColor"/>
  <path d="M120.01 36.6578C121.165 36.6578 122.299 36.7867 123.396 36.9889C124.525 37.1956 125.614 37.5222 126.665 37.9222C127.73 38.3289 128.772 38.7956 129.739 39.3822C130.71 39.9711 131.599 40.6867 132.45 41.4356C133.299 42.1844 134.123 42.9733 134.834 43.8622C135.541 44.7422 136.141 45.7133 136.694 46.7133C137.236 47.6978 137.665 48.7489 138.039 49.8311C138.408 50.8911 138.723 51.98 138.912 53.1133C139.096 54.2155 139.161 55.3467 139.161 56.5022C139.161 57.6578 139.072 58.7844 138.888 59.8867C138.699 61.02 138.434 62.1244 138.068 63.1822C137.692 64.2644 137.283 65.3311 136.739 66.3178C136.188 67.3178 135.528 68.2533 134.823 69.1355C134.112 70.0244 133.31 70.8356 132.461 71.5844C131.61 72.3356 130.692 73.0111 129.721 73.6C128.754 74.1867 127.728 74.6755 126.663 75.0822C125.612 75.4844 124.53 75.8533 123.403 76.0622C122.305 76.2644 121.163 76.3689 120.008 76.3689C118.852 76.3689 117.723 76.2 116.623 76C115.494 75.7933 114.403 75.4778 113.354 75.0778C112.29 74.6711 111.288 74.1422 110.321 73.5555C109.35 72.9667 108.414 72.3267 107.563 71.5756C106.714 70.8267 105.921 70.0111 105.21 69.1222C104.505 68.2422 103.879 67.2889 103.33 66.2911C102.785 65.3067 102.301 64.2755 101.925 63.1933C101.556 62.1333 101.248 61.0333 101.059 59.9C100.874 58.8 100.816 57.66 100.816 56.5044C100.816 55.3489 100.965 54.2244 101.148 53.1244C101.339 51.9911 101.554 50.8756 101.921 49.8156C102.296 48.7333 102.756 47.6889 103.301 46.7022C103.852 45.7044 104.499 44.7622 105.203 43.88C105.914 42.9933 106.721 42.1867 107.57 41.44C108.421 40.6889 109.354 40.0489 110.325 39.4578C111.292 38.8711 112.272 38.2911 113.339 37.8822C114.39 37.48 115.499 37.22 116.628 37.0133C117.725 36.8111 118.854 36.6867 120.01 36.6867" fill="currentColor"/>
</svg>
