<svg width="240" height="240" viewBox="0 0 240 240" fill="none" xmlns="http://www.w3.org/2000/svg">
  <path d="M164.571 64.4823C162.924 64.4823 161.271 64.2156 159.68 64.4178C158.053 64.6267 156.707 64.8356 155.153 65.2445C154.575 63.6067 153.804 62.3289 153.038 60.7934C152.264 59.2445 151.335 57.7712 150.382 56.3356C149.427 54.8956 148.458 53.4423 147.335 52.1334C146.211 50.8223 145.111 49.4378 143.835 48.2756C142.562 47.1134 141.155 46.04 139.747 45.04C138.342 44.0445 136.611 43.5445 135.087 42.7245C133.573 41.9089 132.098 41.0134 130.48 40.3845C128.882 39.7645 127.193 39.4 125.507 38.9778C123.847 38.5623 122.153 38.3867 120.422 38.1734C118.729 37.9667 117.042 37.5289 115.293 37.5289C113.544 37.5289 111.729 37.6445 109.993 37.8623C108.22 38.0845 106.444 38.3 104.747 38.7378C103.02 39.1823 101.464 40.1045 99.8287 40.7556C98.1932 41.4067 96.5487 42.0623 95.0065 42.9156C93.4532 43.7756 91.9221 44.6489 90.4976 45.6934C89.0732 46.7378 87.431 47.5778 86.1465 48.7934C84.8621 50.0089 83.6221 51.34 82.4976 52.7089C81.3776 54.0756 80.7799 55.8445 79.8354 57.3467C78.8954 58.84 77.7265 60.2223 76.9776 61.8334C76.2354 63.4289 76.1776 65.2912 75.6376 66.9889C75.1065 68.6623 74.6398 70.3178 74.3198 72.0756C74.0065 73.7978 73.371 75.4489 73.2754 77.2378C71.9043 77.0556 70.5576 76.9267 69.1332 76.9267C67.2598 76.9267 65.4221 77.1089 63.6376 77.42C61.8532 77.7312 60.0865 78.4045 58.3754 79.0267C56.6354 79.66 54.9421 80.3467 53.3598 81.2623C51.7776 82.1778 50.1198 83.0689 48.7154 84.2489C47.311 85.4289 45.8132 86.6112 44.6287 88.02C43.4487 89.4245 42.6087 91.1356 41.6843 92.7334C40.7687 94.3156 39.791 95.9289 39.1576 97.6689C38.5354 99.38 38.3265 101.256 38.0043 103.091C37.691 104.876 37.8154 106.709 37.8154 108.58C37.8154 110.451 37.8776 112.253 38.1887 114.038C38.511 115.871 39.1754 117.547 39.7976 119.258C40.431 120.998 40.5576 122.967 41.4732 124.549C42.3976 126.147 43.9265 127.333 45.1065 128.738C46.291 130.147 47.4487 131.558 48.8576 132.742C50.2621 133.922 51.8021 134.907 53.3976 135.831C54.9798 136.747 56.6043 137.58 58.3443 138.213C60.0554 138.836 61.8776 138.98 63.711 139.302C65.5443 139.624 67.2554 140.618 69.1287 140.618C71.7798 140.618 71.7799 139.762 74.431 139.762C77.0821 139.762 77.0821 139.958 79.7332 139.958C82.3843 139.958 82.3843 140.262 85.0354 140.262C87.6865 140.262 87.6865 140.349 90.3376 140.349C92.9887 140.349 92.9887 140.18 95.6399 140.18C98.291 140.18 98.291 139.956 100.942 139.956C103.593 139.956 103.593 140.371 106.244 140.371C108.895 140.371 108.895 140.004 111.547 140.004C114.198 140.004 114.198 140.049 116.849 140.049C119.5 140.049 119.5 140.302 122.151 140.302C124.802 140.302 124.802 139.753 127.453 139.753C130.104 139.753 130.104 140.564 132.755 140.564C135.407 140.564 135.407 140.593 138.058 140.593C140.709 140.593 140.709 139.802 143.36 139.802C146.011 139.802 146.011 140.507 148.662 140.507C151.313 140.507 151.313 139.94 153.964 139.94C156.615 139.94 156.615 139.78 159.269 139.78C161.922 139.78 161.92 140.607 164.573 140.607C166.404 140.607 168.224 140.178 169.987 139.927C171.793 139.669 173.664 139.582 175.378 139.08C177.122 138.569 178.595 137.307 180.227 136.56C181.858 135.813 183.455 134.991 184.967 134.018C186.478 133.044 187.869 131.92 189.229 130.74C190.593 129.558 191.824 128.287 193.007 126.922C194.187 125.56 195.411 124.253 196.391 122.731C197.364 121.22 198.267 119.664 199.02 118.016C199.767 116.384 200.813 114.82 201.324 113.076C201.827 111.36 202.038 109.516 202.295 107.709C202.547 105.947 202.578 104.116 202.578 102.284C202.578 100.453 202.515 98.6267 202.264 96.8645C202.007 95.0578 201.849 93.2023 201.347 91.4867C200.835 89.7423 199.538 88.2889 198.791 86.6578C198.038 85.0089 197.495 83.2645 196.522 81.7534C195.542 80.2334 194.4 78.8245 193.22 77.4645C192.038 76.1 190.653 74.9445 189.291 73.7623C187.929 72.5823 186.629 71.3156 185.107 70.3356C183.595 69.3623 181.942 68.62 180.293 67.8645C178.662 67.1178 176.969 66.5289 175.224 66.0156C173.509 65.5134 171.778 65.0112 169.971 64.7534C168.209 64.5023 166.407 64.4823 164.573 64.4823H164.571Z" fill="currentColor"/>
  <path d="M117.7 149.287C117.904 151.245 117.868 153.18 117.933 155.045C118.002 157.045 118.002 158.951 117.76 160.778C117.497 162.756 116.94 164.533 116.126 166.227C115.313 167.913 114.548 169.733 112.995 171.051C111.671 172.178 109.893 173.016 107.893 173.816C106.368 174.422 104.248 174.449 102.22 174.165C100.16 173.873 98.1106 173.26 96.8817 172.218C95.4439 170.996 94.1151 169.1 93.1328 167.113C92.1195 165.065 91.3328 162.831 91.5039 160.982C91.7595 158.222 92.464 156.033 93.3973 154.351C94.5617 152.262 96.2751 150.731 98.6328 149.953C100.491 149.342 102.822 149.251 105.515 149.236C107.515 149.225 109.513 149.34 111.593 149.342C113.531 149.342 115.537 149.316 117.671 149.316" fill="currentColor"/>
  <path d="M182.527 149.278C182.731 151.236 182.909 153.169 182.973 155.036C183.042 157.036 183.011 158.987 182.769 160.813C182.507 162.791 181.671 164.527 180.858 166.22C180.045 167.907 179.162 169.576 177.609 170.893C176.285 172.02 174.58 172.86 172.58 173.66C171.056 174.267 168.989 174.513 166.962 174.227C164.902 173.936 162.738 173.407 161.509 172.364C160.071 171.142 158.798 169.133 157.816 167.149C156.802 165.1 156.322 162.856 156.496 161.004C156.751 158.244 157.389 156.129 158.322 154.447C159.487 152.358 161.025 150.727 163.382 149.949C165.24 149.338 167.571 149.107 170.265 149.091C172.265 149.08 174.265 149.391 176.342 149.393C178.28 149.393 180.287 149.116 182.422 149.116" fill="currentColor"/>
  <path d="M87.1627 149.367C86.7227 151.46 86.4183 153.484 86.0849 155.435C85.7271 157.538 85.4405 159.575 85.0138 161.518C84.5627 163.571 83.836 165.495 83.0738 167.375C82.2849 169.313 80.8271 170.902 79.1316 172.18C77.4094 173.48 75.4316 174.289 73.436 174.607C71.236 174.96 69.0605 174.858 67.376 173.638C65.5383 172.304 63.5516 170.367 62.0871 168.207C60.5316 165.915 59.4071 163.318 59.4005 161.127C59.3916 158.609 60.1182 156.562 61.0116 154.893C62.0582 152.931 63.6227 151.535 65.6805 150.642C67.476 149.858 69.5916 149.244 71.9827 149.193C74.376 149.142 76.776 149.22 79.5427 149.231C81.7605 149.24 84.216 149.371 87.1005 149.371" fill="currentColor"/>
  <path d="M150.805 150.298C150.365 152.391 150.885 153.48 150.551 155.431C150.194 157.533 149.711 159.527 149.285 161.469C148.834 163.522 148.503 165.564 147.738 167.444C146.949 169.382 145.467 171.091 143.771 172.369C142.049 173.669 139.958 174.464 137.963 174.782C135.763 175.136 133.556 174.864 131.871 173.644C130.034 172.311 128.151 170.3 126.687 168.14C125.131 165.849 123.989 163.32 123.983 161.127C123.974 158.609 124.54 156.52 125.431 154.851C126.478 152.889 128.147 151.596 130.203 150.7C131.998 149.916 134.087 149.2 136.478 149.147C138.871 149.096 141.271 149.242 144.038 149.253C146.256 149.262 147.923 150.42 150.807 150.42" fill="currentColor"/>
  <path d="M97.2296 177.667C97.434 179.624 97.8629 181.536 97.9274 183.4C97.9963 185.4 97.7363 187.324 97.494 189.153C97.2318 191.131 96.774 192.98 95.9629 194.673C95.1496 196.36 94.0096 197.851 92.4585 199.171C91.134 200.298 89.5007 201.218 87.5029 202.018C85.9785 202.624 83.914 202.902 81.8851 202.616C79.8251 202.324 77.7607 201.662 76.5296 200.618C75.0918 199.396 73.8807 197.422 72.8985 195.436C71.8851 193.387 71.1807 191.213 71.3518 189.364C71.6074 186.604 72.0807 184.367 73.014 182.684C74.1785 180.596 75.9829 179.198 78.3407 178.422C80.1985 177.811 82.4963 177.84 85.1896 177.824C87.1896 177.813 89.1874 177.489 91.2651 177.491C93.2029 177.491 95.2096 177.587 97.3429 177.587" fill="currentColor"/>
  <path d="M162.107 177.653C162.311 179.611 162.603 181.536 162.667 183.4C162.736 185.4 162.643 187.344 162.4 189.173C162.138 191.151 161.418 192.927 160.607 194.62C159.794 196.307 158.82 197.918 157.269 199.238C155.945 200.364 154.343 201.44 152.343 202.238C150.818 202.844 148.658 202.938 146.629 202.653C144.569 202.362 142.52 201.647 141.291 200.604C139.854 199.382 138.509 197.482 137.527 195.496C136.514 193.447 135.734 191.196 135.907 189.347C136.163 186.587 136.758 184.324 137.691 182.642C138.856 180.553 140.771 179.304 143.129 178.527C144.987 177.916 147.249 177.742 149.943 177.727C151.943 177.716 153.94 177.68 156.018 177.682C157.956 177.682 159.963 177.651 162.096 177.651" fill="currentColor"/>
  <path d="M130.832 177.715C130.392 179.809 131.101 181.84 130.77 183.789C130.412 185.891 129.91 187.878 129.481 189.82C129.03 191.873 128.499 193.822 127.735 195.7C126.946 197.638 125.699 199.413 124.003 200.691C122.281 201.991 120.23 202.884 118.237 203.204C116.037 203.558 113.943 203.06 112.259 201.84C110.421 200.507 108.363 198.7 106.901 196.54C105.346 194.249 104.141 191.684 104.137 189.491C104.128 186.973 104.768 184.864 105.659 183.196C106.706 181.233 108.377 179.873 110.435 178.98C112.23 178.195 114.361 177.749 116.752 177.696C119.146 177.644 121.541 177.656 124.31 177.667C126.528 177.676 127.977 178.002 130.861 178.002" fill="currentColor"/>
</svg>
