<svg width="19" height="19" viewBox="0 0 19 19" fill="none" xmlns="http://www.w3.org/2000/svg">
  <path d="M6.825 13.65C4.9235 13.65 3.31058 12.9878 1.98625 11.6635C0.662083 10.3393 0 8.7265 0 6.825C0 4.9235 0.662083 3.31067 1.98625 1.9865C3.31058 0.662167 4.9235 0 6.825 0C8.7265 0 10.3393 0.662167 11.6635 1.9865C12.9878 3.31067 13.65 4.9235 13.65 6.825C13.65 7.57717 13.5428 8.27117 13.3282 8.907C13.1138 9.54283 12.8253 10.1013 12.463 10.5825L17.95 16.0838C18.1993 16.3424 18.324 16.6534 18.324 17.0168C18.324 17.3803 18.1946 17.6867 17.9358 17.936C17.6866 18.1852 17.3779 18.3098 17.0098 18.3098C16.6416 18.3098 16.3329 18.1852 16.0838 17.936L10.6107 12.463C10.1202 12.8253 9.55233 13.1138 8.907 13.3283C8.26167 13.5428 7.56767 13.65 6.825 13.65ZM6.825 11C7.99017 11 8.97725 10.5955 9.78625 9.7865C10.5954 8.97733 11 7.99017 11 6.825C11 5.65983 10.5954 4.67267 9.78625 3.8635C8.97725 3.0545 7.99017 2.65 6.825 2.65C5.65983 2.65 4.67267 3.0545 3.8635 3.8635C3.0545 4.67267 2.65 5.65983 2.65 6.825C2.65 7.99017 3.0545 8.97733 3.8635 9.7865C4.67267 10.5955 5.65983 11 6.825 11Z" fill="#006BD9"/>
</svg>
