<svg width="240" height="240" viewBox="0 0 240 240" fill="none" xmlns="http://www.w3.org/2000/svg">
  <path d="M164.711 62.2289C163.471 60.9889 162.076 59.9266 160.762 58.8111C159.427 57.6777 158.169 56.4489 156.767 55.4444C155.345 54.4266 153.782 53.6222 152.298 52.7378C150.798 51.8422 149.178 51.1977 147.625 50.4377C146.071 49.6777 144.505 48.9133 142.891 48.2844C141.267 47.6511 139.636 47.0711 137.976 46.5777C136.316 46.0844 134.7 45.3133 133 44.96C131.296 44.6044 129.536 44.5089 127.814 44.2955C126.087 44.0822 124.347 43.9866 122.611 43.9155C120.874 43.8444 119.14 43.9955 117.402 44.0689C115.667 44.14 113.909 43.9977 112.182 44.2111C110.46 44.4244 108.818 45.1244 107.114 45.48C105.416 45.8355 103.598 45.7377 101.927 46.2333C100.265 46.7266 98.7936 47.7933 97.1669 48.4266C95.5402 49.06 93.998 49.78 92.4313 50.5466C90.878 51.3066 89.098 51.6644 87.598 52.56C86.1136 53.4466 84.8469 54.6911 83.4247 55.7089C82.0224 56.7133 80.7869 57.9266 79.4513 59.06C78.138 60.1755 76.8691 61.3266 75.6291 62.5666C74.3891 63.8066 73.0891 64.9489 71.9735 66.2622C70.8402 67.5977 69.7024 68.9066 68.698 70.3111C67.6802 71.7333 66.8469 73.2555 65.9602 74.74C65.0647 76.24 64.3824 77.8244 63.6224 79.38C62.8558 80.9489 61.7713 82.3622 61.1424 83.9755C60.5091 85.6 60.2202 87.3355 59.7269 88.9977C59.2313 90.6666 58.8202 92.3422 58.4669 94.04C58.1113 95.7444 57.6491 97.4222 57.4358 99.1444C57.2224 100.871 56.9202 102.596 56.8491 104.331C56.778 106.069 56.6358 107.824 56.7069 109.562C56.778 111.298 57.1513 113.027 57.3669 114.753C57.5802 116.476 58.0624 118.156 58.418 119.86C58.7735 121.558 59.2335 123.222 59.7291 124.891C60.2224 126.553 60.5802 128.262 61.2135 129.887C61.8424 131.5 62.7647 132.987 63.5313 134.553C64.2913 136.107 64.6713 137.882 65.5669 139.382C66.4535 140.867 67.4824 142.296 68.5002 143.718C69.5047 145.12 70.9424 146.202 72.0758 147.538C73.1913 148.851 74.3469 150.122 75.5869 151.362C77.4802 153.256 77.138 153.598 79.0291 155.489C80.9224 157.382 81.1247 157.18 83.018 159.073C84.9113 160.967 84.7535 161.124 86.6447 163.016C88.5358 164.907 88.5513 164.893 90.4447 166.787C91.7069 168.049 92.9691 169.31 94.2313 170.569C96.1247 172.462 96.1402 172.447 98.0336 174.34C99.9269 176.233 100.131 176.027 102.025 177.92C103.287 179.182 104.551 180.442 105.818 181.7C107.711 183.593 107.467 183.838 109.36 185.731C111.254 187.624 111.182 187.696 113.076 189.589C114.969 191.482 115.116 191.336 117.009 193.229C118.638 194.858 121.547 195.033 123.176 193.404C125.069 191.511 124.614 191.058 126.507 189.164C128.4 187.271 128.509 187.38 130.4 185.487C132.291 183.593 132.476 183.778 134.367 181.884C136.258 179.991 136.018 179.749 137.909 177.858C139.8 175.967 139.96 176.124 141.854 174.231C143.747 172.338 143.798 172.389 145.689 170.496C147.582 168.602 147.336 168.358 149.229 166.464C151.122 164.571 151.322 164.771 153.216 162.878C155.109 160.984 154.954 160.829 156.847 158.936C158.74 157.042 159.069 157.371 160.962 155.478C162.856 153.584 162.894 153.622 164.787 151.729C166.027 150.489 167.069 149.067 168.185 147.751C169.318 146.416 170.065 144.807 171.069 143.402C172.087 141.98 173.18 140.642 174.067 139.158C174.962 137.658 175.669 136.082 176.429 134.529C177.196 132.96 178.289 131.547 178.918 129.933C179.551 128.309 180.14 126.658 180.634 124.996C181.129 123.324 181.247 121.56 181.6 119.862C181.954 118.164 182.354 116.469 182.567 114.744C182.78 113.02 182.958 111.289 183.029 109.553C183.1 107.816 182.96 106.082 182.889 104.344C182.818 102.609 182.647 100.889 182.434 99.1644C182.22 97.4422 182.147 95.6955 181.791 93.9911C181.436 92.2933 180.829 90.6555 180.334 88.9866C179.84 87.3244 179.129 85.7489 178.496 84.1244C177.867 82.5111 177.362 80.8511 176.596 79.2844C175.836 77.7311 175.114 76.1466 174.218 74.6466C173.331 73.1622 172.167 71.8577 171.149 70.4355C170.145 69.0333 169.516 67.3133 168.382 65.9777C167.267 64.6644 165.96 63.4755 164.72 62.2355L164.711 62.2289ZM120.022 139.187C118.296 139.187 116.6 139.218 114.947 138.958C113.249 138.691 111.656 138.109 110.056 137.589C108.427 137.06 106.8 136.582 105.298 135.816C103.778 135.04 102.209 134.316 100.84 133.318C99.4647 132.318 98.198 131.14 96.998 129.94C95.798 128.74 94.6958 127.42 93.6958 126.042C92.7002 124.673 92.1135 123.049 91.338 121.529C90.5713 120.024 89.7469 118.551 89.2202 116.922C88.7024 115.322 88.2602 113.684 87.9936 111.987C87.7336 110.333 87.4491 108.64 87.4491 106.911C87.4491 105.196 87.8758 103.531 88.1447 101.882C88.4202 100.198 88.4224 98.4422 88.9558 96.8489C89.4935 95.2355 90.6513 93.8844 91.4291 92.3889C92.2113 90.8844 92.658 89.1644 93.658 87.8022C94.6602 86.4377 95.7647 85.0911 96.9602 83.8955C98.1558 82.7 99.7935 81.9933 101.158 80.9911C102.52 79.9911 103.769 78.8044 105.274 78.02C106.778 77.2355 108.285 76.3822 109.898 75.8444C111.491 75.3133 113.189 74.9022 114.874 74.6266C116.525 74.3577 118.262 74.3955 119.978 74.3933C121.705 74.3933 123.407 74.6178 125.06 74.8778C126.758 75.1444 128.46 75.4133 130.06 75.9311C131.689 76.46 133.356 76.9844 134.86 77.7511C136.38 78.5266 137.622 79.7889 138.991 80.7866C140.367 81.7866 141.854 82.68 143.054 83.88C144.254 85.08 145.387 86.3911 146.389 87.7666C147.391 89.1422 148.131 90.6955 148.907 92.2155C149.674 93.72 150.178 95.3422 150.705 96.9711C151.222 98.5711 151.476 100.224 151.742 101.922C152.002 103.576 152.362 105.227 152.362 106.953C152.362 108.669 152.418 110.38 152.149 112.031C151.874 113.716 151.498 115.396 150.965 116.989C150.427 118.602 149.56 120.089 148.782 121.584C148 123.089 147.305 124.671 146.307 126.033C145.305 127.398 143.816 128.349 142.62 129.544C141.425 130.74 140.218 131.88 138.854 132.884C137.491 133.884 136.298 135.182 134.794 135.964C133.298 136.742 131.698 137.413 130.085 137.951C128.491 138.482 126.729 138.424 125.045 138.7C123.394 138.969 121.745 139.178 120.029 139.178L120.022 139.187Z" fill="currentColor"/>
</svg>
