<svg width="240" height="240" viewBox="0 0 240 240" fill="none" xmlns="http://www.w3.org/2000/svg">
  <path d="M195.638 75.0422C194.604 73.9511 193.278 72.7244 191.882 71.3044C190.72 70.1222 189.498 68.8178 188.189 67.5067C186.969 66.2844 185.706 65.0267 184.438 63.7667C183.173 62.5133 181.811 61.3556 180.575 60.1378C179.264 58.8467 177.878 57.7067 176.687 56.5378C175.286 55.1644 174.035 53.8711 172.935 52.7956C170.631 50.5467 169.435 48.8044 169.435 48.8044C168.391 47.76 166.849 47.1956 165.471 47.1956C164.093 47.1956 162.578 47.7867 161.533 48.8311C159.469 50.8956 159.435 50.86 157.371 52.9244C155.306 54.9889 155.489 55.1689 153.424 57.2311C151.36 59.2956 151.193 59.1289 149.131 61.1933C147.066 63.2578 147.264 63.4556 145.202 65.52C144.486 66.2356 143.342 66.3356 142.471 65.82C141.144 65.0333 139.686 64.3378 138.195 63.7311C136.7 63.1222 135.151 62.6822 133.655 62.3244C131.995 61.9267 130.402 61.8022 128.96 61.8022C126.211 61.8022 126.693 61.9089 123.464 61.9067C121.824 61.9067 119.935 61.7889 117.969 61.7889C116.158 61.7889 114.282 61.5178 112.471 61.5178C110.504 61.5178 108.613 61.38 106.973 61.38C103.744 61.38 101.478 61.6711 101.478 61.6711C99.6509 61.6711 97.8154 62.2933 96.0087 63.1356C94.2843 63.94 92.6932 65.0089 91.3332 66.3378C89.9065 67.7333 88.4598 69.16 87.8176 70.8711C86.822 73.52 87.0798 73.6156 86.0843 76.2644C85.0887 78.9133 84.9576 78.8644 83.962 81.5111C82.9665 84.16 83.2065 84.2489 82.2109 86.8978C81.2154 89.5467 80.8331 89.4022 79.8376 92.0511C78.842 94.7 79.2354 94.8489 78.2398 97.4978C77.2443 100.147 77.1887 100.127 76.1931 102.776C75.7843 103.86 75.1598 105.304 74.6354 106.68C73.8487 108.751 73.1465 110.491 73.1465 110.491C74.9198 111.616 74.8176 111.691 76.6687 112.778C78.0732 113.602 79.5287 114.469 80.3576 114.791C81.8487 115.373 83.4354 115.269 84.9509 114.869C86.4043 114.484 87.7865 113.749 88.9576 112.62C90.0309 111.587 91.0443 110.344 91.642 108.813C92.4709 106.687 92.4554 106.682 93.2843 104.556C94.1132 102.429 94.2954 102.5 95.1243 100.373C95.9532 98.2467 95.762 98.1733 96.5909 96.0467C97.1798 94.5378 98.1554 93.1933 99.2754 91.8867C100.346 90.6378 101.491 89.4111 102.882 88.46C104.273 87.5089 105.831 86.8867 107.384 86.3422C109.009 85.7733 110.615 85.3556 112.235 85.3556C115.151 85.3556 115.151 85.2067 118.069 85.2067C120.986 85.2067 120.984 85.0067 123.902 85.0067C126.82 85.0067 126.818 85.1533 129.735 85.1533C131.355 85.1533 133.158 85.4422 134.989 85.88C136.655 86.28 138.382 86.82 140.033 87.5044C141.686 88.1889 143.142 89.2667 144.602 90.1622C146.206 91.1467 147.733 92.0778 148.878 93.2222C150.738 95.0822 150.651 95.1711 152.513 97.0311C154.375 98.8933 154.573 98.6933 156.435 100.553C157.675 101.793 158.913 103.036 160.149 104.282C162.011 106.144 161.971 106.182 163.833 108.044C165.695 109.907 165.589 110.011 167.451 111.873C169.313 113.736 169.489 113.56 171.351 115.42C173.213 117.282 173.255 117.24 175.115 119.102C176.28 120.267 178.809 122.678 180.602 124.32C181.642 125.273 183.264 125.413 184.178 124.336C185.871 122.34 185.729 122.218 187.422 120.222C189.115 118.227 189.218 118.311 190.911 116.316C192.604 114.318 192.426 114.169 194.122 112.171C195.815 110.173 195.938 110.278 197.649 108.296C198.826 107.002 199.66 105.484 200.433 103.951C201.206 102.416 201.64 100.771 202.024 99.0756C202.402 97.4067 202.942 95.7378 202.96 93.9933C202.978 92.28 202.646 90.5622 202.331 88.8511C202.02 87.16 201.495 85.5244 200.875 83.9044C200.258 82.2933 199.409 80.8156 198.5 79.3489C197.591 77.88 196.826 76.2956 195.64 75.04L195.638 75.0422Z" fill="currentColor"/>
  <path d="M123.082 174.131C123.242 171.767 122.431 169.767 120.902 168.238C119.509 166.844 117.742 165.982 115.625 165.982C115.42 165.982 115.216 166.013 115.007 166.027C112.585 166.191 110.149 167.147 108.322 168.973C106.682 170.613 106.702 170.636 105.062 172.276C103.422 173.916 103.382 173.88 101.74 175.522C100.098 177.164 100.398 177.464 98.7557 179.107C97.5957 180.267 96.618 181.442 96.1024 182.84C95.5402 184.367 95.3468 185.931 95.578 187.418C95.8091 188.904 96.5735 190.3 97.7068 191.433C98.8402 192.564 100.158 193.418 101.707 193.66C103.194 193.891 104.745 193.518 106.269 192.958C107.667 192.442 109.098 191.771 110.258 190.611C111.898 188.971 111.88 188.951 113.522 187.311C115.165 185.671 115.062 185.567 116.705 183.924C118.347 182.282 118.616 182.551 120.256 180.909C122.082 179.082 122.918 176.553 123.082 174.131Z" fill="currentColor"/>
  <path d="M96.4838 176.967C98.1238 175.327 98.3638 175.564 100.004 173.924C101.646 172.282 101.715 172.353 103.357 170.711C104.999 169.069 104.895 168.967 106.537 167.324C108.364 165.498 109.273 163.113 109.437 160.691C109.597 158.327 109.024 156.171 107.495 154.642C106.048 153.196 104.084 152.313 102.044 152.313C100.748 152.313 99.4327 152.844 98.1615 153.407C96.9838 153.929 95.8482 154.651 94.8571 155.642C93.2171 157.282 93.3371 157.404 91.6971 159.047C90.0549 160.689 89.926 160.56 88.2838 162.202C86.6415 163.844 86.626 163.829 84.9838 165.471C83.8238 166.631 83.2149 168.069 82.6993 169.469C82.1371 170.996 81.8926 172.482 82.1238 173.969C82.366 175.518 82.9882 176.889 84.1193 178.02C85.2527 179.153 86.6104 179.844 88.1593 180.087C89.646 180.318 91.2571 180.313 92.7838 179.751C94.1815 179.236 95.2749 178.142 96.4371 176.982C96.5104 176.884 96.4815 176.971 96.4815 176.971L96.4838 176.967Z" fill="currentColor"/>
  <path d="M83.2422 163.909C85.1155 162.54 84.5689 161.898 86.2089 160.256C87.8511 158.613 87.9044 158.667 89.5467 157.024C91.1889 155.382 91.2067 155.4 92.8489 153.758C94.6756 151.931 95.8289 149.682 95.9933 147.26C96.1533 144.896 95.2622 142.931 93.7333 141.402C92.2867 139.956 90.5222 138.924 88.4822 138.924C87.1867 138.924 85.84 139.331 84.5667 139.896C83.3889 140.418 82.38 141.309 81.3889 142.3C79.7489 143.94 79.8 143.993 78.16 145.636C76.5178 147.278 76.3622 147.122 74.72 148.762C73.0778 150.404 72.9978 150.322 71.3556 151.964C69.5289 153.791 68.4667 156.209 68.3022 158.629C68.1422 160.993 68.7489 163.329 70.2778 164.858C71.6533 166.233 74.3911 166.267 76.8133 165.84C80.0489 165.271 80.5711 165.86 83.2422 163.907V163.909Z" fill="currentColor"/>
  <path d="M69.5843 150.336C71.3665 148.851 71.0665 148.524 72.7065 146.882C74.3487 145.24 74.3776 145.269 76.0199 143.627C77.6621 141.985 77.6354 141.958 79.2776 140.316C80.4376 139.156 81.211 137.849 81.7265 136.451C82.2887 134.925 82.5532 133.409 82.3221 131.922C82.0799 130.373 81.4287 128.973 80.2954 127.84C78.8487 126.396 76.9576 125.376 74.9176 125.376C73.6221 125.376 72.1976 125.722 70.9265 126.287C69.7487 126.809 68.7399 127.796 67.7487 128.787C66.1087 130.427 66.1843 130.505 64.5421 132.145C62.8999 133.787 62.911 133.798 61.2687 135.438C60.1739 136.533 59.0791 137.627 57.9843 138.722C56.1576 140.549 54.9843 142.778 54.8199 145.2C54.6599 147.565 55.5154 149.564 57.0443 151.093C58.5732 152.622 60.5776 153.529 62.9399 153.371C65.3621 153.207 66.7643 152.687 69.5843 150.338V150.336Z" fill="currentColor"/>
  <path d="M147.173 94.931C146.137 93.8955 144.795 93.0044 143.31 92.1022C141.975 91.2888 140.721 90.1266 139.206 89.4999C137.69 88.8733 136.09 88.3644 134.573 87.9955C132.886 87.5844 131.199 87.7222 129.733 87.7222C126.817 87.7222 126.817 87.3088 123.899 87.3088C120.984 87.3088 120.984 87.5977 118.066 87.5977C115.148 87.5977 115.15 87.2999 112.233 87.2999C110.401 87.2999 108.373 87.8266 106.553 88.6688C104.733 89.5111 103.11 90.6355 101.735 91.9599C100.288 93.3511 99.4303 95.1933 98.7659 96.8999C97.937 99.0266 97.9659 99.0377 97.137 101.164C96.3081 103.291 96.0459 103.189 95.217 105.315C94.3881 107.442 94.4437 107.464 93.6148 109.591C92.8681 111.507 91.6681 113.035 90.2948 114.311C88.8103 115.689 87.1614 116.753 85.3103 117.2C83.4125 117.658 81.3792 117.72 79.5014 116.987C78.4859 116.591 76.677 115.438 74.9103 114.378C72.6059 112.995 70.2037 111.489 70.2037 111.489C71.0592 109.073 71.0526 109.238 71.9748 106.678C72.5748 105.015 73.2437 103.235 73.757 101.869C74.7726 99.1688 75.137 99.3066 76.1503 96.6066C77.1659 93.9066 76.757 93.7533 77.7726 91.0533C78.7881 88.3533 78.9526 88.4155 79.9659 85.7155C80.9814 83.0155 81.0326 83.0377 81.9526 80.3044C82.7659 77.8866 82.557 77.8222 83.3748 75.4066C84.2814 72.7266 84.4326 72.7777 85.437 70.1311C85.9592 68.7399 87.0148 67.5977 87.9903 66.3755C88.9259 65.2022 89.8659 64.0066 91.0926 63.0755C92.3103 62.1511 93.5926 61.2844 94.9792 60.6799C95.6348 60.3866 96.0837 60.2688 96.5259 60.0733C94.8592 58.0955 94.6881 58.2444 92.8503 56.4244C91.0125 54.6022 90.937 54.6777 89.0992 52.8577C87.2614 51.0355 87.337 50.9577 85.4992 49.1377C83.6614 47.3155 83.4348 47.5444 81.5992 45.7199C80.5548 44.6755 79.357 44.2333 77.9792 44.2333C76.6014 44.2333 75.1259 44.3955 74.0814 45.4399C72.8696 46.6518 71.6592 47.8651 70.4503 49.0799C68.6325 50.8977 68.8748 51.1399 67.057 52.9577C65.2392 54.7755 65.077 54.6133 63.2592 56.4311C61.4414 58.2488 61.6259 58.4333 59.8081 60.2511C57.9903 62.0688 57.7348 61.8133 55.917 63.6311C54.0992 65.4488 54.1348 65.4844 52.317 67.2999C50.4992 69.1177 50.3726 68.9911 48.5548 70.8088C46.737 72.6266 46.9481 72.8399 45.1303 74.6577C43.3126 76.4755 43.3703 76.5333 41.5526 78.3533C39.7348 80.1711 39.797 80.2355 37.9792 82.0533C36.9348 83.0977 36.1992 84.3177 36.1992 85.6955C36.1992 87.0733 36.6103 88.6155 37.6548 89.6599C39.6681 91.6733 39.9703 91.3711 41.9837 93.3844C43.997 95.3977 43.9703 95.4266 45.9837 97.4399C47.3259 98.7822 48.6703 100.123 50.017 101.462C50.037 101.482 50.017 101.678 50.037 101.695C48.7348 103.084 47.6548 104.642 47.2326 106.389C46.7992 108.178 46.9348 110.104 47.4259 111.882C47.9037 113.609 48.9659 115.115 50.317 116.467C52.3192 118.469 52.2237 118.564 54.2259 120.564C56.2281 122.567 56.4014 122.391 58.4037 124.393C60.4059 126.396 60.237 126.564 62.237 128.567C62.9148 129.244 63.9548 129.229 64.6326 128.551C65.3503 127.833 65.377 127.858 66.097 127.14C67.5503 125.687 69.2525 124.644 71.0237 124.027C72.937 123.36 74.9548 123.122 76.8281 123.458C78.7503 123.802 80.5326 124.751 81.9592 126.178C83.257 127.475 83.9148 129.122 84.3148 130.849C84.7081 132.544 84.6148 134.262 84.1614 136.04C83.9903 136.713 84.897 137.513 85.5659 137.318C87.3792 136.787 89.2103 136.407 90.9414 136.773C92.6503 137.135 94.1814 138.122 95.4814 139.655C96.5014 140.675 97.5525 141.771 98.0237 143.122C98.4748 144.422 98.3281 145.929 98.2281 147.415C98.1814 148.102 97.9926 148.749 97.8281 149.418C97.6526 150.118 98.4059 150.638 99.1059 150.458C100.25 150.164 101.464 149.976 102.599 150.031C102.779 150.04 103.844 150.329 104.03 150.364C104.126 150.382 105.155 150.524 105.184 150.533C105.457 150.616 106.15 150.915 106.228 150.949C106.413 151.029 106.95 151.342 107.039 151.393C107.201 151.482 107.653 151.689 107.741 151.749C107.906 151.86 108.141 152.069 108.299 152.191C108.373 152.249 108.926 152.802 109.135 153.011C110.155 154.031 110.659 155.369 111.128 156.722C111.579 158.022 112.144 159.387 112.044 160.871C111.975 161.889 111.439 163.011 110.975 164.002C110.799 164.378 110.913 164.484 111.328 164.484C111.397 164.484 114.264 163.827 117.286 164.076C119.248 164.235 121.395 164.829 122.775 166.387C123.728 167.46 124.575 168.704 125.061 170.033C125.533 171.324 125.321 172.789 125.221 174.28C125.119 175.784 124.779 177.2 124.128 178.578C123.495 179.92 122.797 181.262 121.704 182.355C120.781 183.278 119.297 182.995 119.806 184.198C121.061 187.164 122.081 186.498 124.359 188.773C126.637 191.051 126.595 191.093 128.87 193.371C130.175 194.675 131.866 195.284 133.453 195.849C135.17 196.46 136.904 197.049 138.584 196.767C140.321 196.475 141.857 195.482 143.133 194.207C144.408 192.931 145.446 191.402 145.737 189.664C146.019 187.984 145.701 186.131 145.09 184.413C144.526 182.827 143.415 181.436 142.11 180.131C140.244 178.264 140.297 178.211 138.43 176.344C136.564 174.478 136.513 174.529 134.648 172.662C132.781 170.795 132.753 170.824 130.886 168.955C129.019 167.089 129.068 167.038 127.201 165.171C125.335 163.304 125.37 163.269 123.504 161.402C121.637 159.535 120.375 160.215 119.579 157.698C119.166 156.389 120.433 155.313 121.744 155.727C124.261 156.52 123.764 157.409 125.63 159.275C127.497 161.142 127.424 161.215 129.29 163.08C131.157 164.947 131.188 164.915 133.055 166.782C134.921 168.649 134.895 168.675 136.761 170.544C138.628 172.411 138.435 172.604 140.301 174.473C142.168 176.34 142.264 176.244 144.133 178.111C145.437 179.415 146.961 180.393 148.548 180.958C150.266 181.569 152.068 181.578 153.748 181.296C155.428 181.013 157.253 180.462 158.528 179.187C159.804 177.911 160.581 176.184 160.873 174.447C161.155 172.767 161.024 170.887 160.413 169.169C159.848 167.582 158.859 165.993 157.555 164.689C155.71 162.875 155.695 162.891 153.846 161.082C151.997 159.273 151.757 159.52 149.908 157.711C148.059 155.902 148.121 155.838 146.273 154.029C144.424 152.22 144.641 151.998 142.793 150.187C140.944 148.378 140.855 148.469 139.004 146.66C137.155 144.851 136.941 145.058 135.204 143.14C134.961 142.871 135.126 142.862 135.275 142.533C136.248 141.56 137.413 141.609 138.388 142.582C140.45 144.644 140.57 144.527 142.633 146.589C144.697 148.653 144.921 148.427 146.986 150.491C149.05 152.555 148.864 152.742 150.926 154.807C152.99 156.871 152.83 157.029 154.895 159.093C156.959 161.158 156.944 161.173 159.008 163.238C160.313 164.542 162.053 165.198 163.637 165.762C165.355 166.373 167.126 166.711 168.804 166.429C170.541 166.138 172.048 165.202 173.326 163.924C174.597 162.653 175.248 161.151 175.544 159.482C175.833 157.842 176.021 156.082 175.395 154.4C174.828 152.88 173.906 151.307 172.613 150.013C170.533 147.96 170.246 148.249 168.161 146.2C166.075 144.149 166.008 144.218 163.924 142.167C161.837 140.115 162.015 139.935 159.928 137.887C157.841 135.835 157.799 135.88 155.713 133.829C153.626 131.778 153.844 131.558 151.757 129.507C150.693 128.462 150.646 126.7 151.699 125.647C154.004 126.935 153.428 127.742 155.295 129.609C156.539 130.853 157.784 132.096 159.03 133.338C160.897 135.204 160.761 135.34 162.628 137.209C164.495 139.075 164.835 138.738 166.701 140.604C168.568 142.471 168.406 142.635 170.273 144.502C172.139 146.369 172.17 146.34 174.037 148.207C175.341 149.511 176.779 150.589 178.366 151.153C180.084 151.764 181.921 151.927 183.601 151.644C185.339 151.353 186.761 150.324 188.039 149.049C189.315 147.773 190.239 146.331 190.53 144.593C190.813 142.913 190.488 141.191 189.877 139.471C189.313 137.884 188.715 136.142 187.41 134.838C185.593 133.013 185.241 133.364 183.424 131.54C181.606 129.715 181.981 129.342 180.164 127.518C178.348 125.693 178.255 125.784 176.437 123.96C174.621 122.135 174.508 122.247 172.693 120.422C170.875 118.598 171.07 118.402 169.255 116.578C167.437 114.753 167.121 115.067 165.306 113.24C163.49 111.415 163.775 111.131 161.959 109.307C160.144 107.482 160.141 107.482 158.324 105.655C156.506 103.829 156.259 104.075 154.444 102.249C152.626 100.422 152.595 100.46 150.744 98.6688C148.89 96.8755 148.999 96.7644 147.181 94.9377L147.173 94.931Z" fill="currentColor"/>
</svg>
