<svg width="240" height="240" viewBox="0 0 240 240" fill="none" xmlns="http://www.w3.org/2000/svg">
  <path d="M160.998 134.402C160.998 136.651 159.96 138.589 158.116 139.996C156.476 141.247 154.353 142.156 151.956 142.156C149.584 142.156 149.584 142.12 147.213 142.12C145.32 142.12 143.907 140.56 143.907 138.667C143.907 134.784 143.616 134.784 143.616 130.902C143.616 128.314 143.615 125.726 143.613 123.138C143.613 119.256 143.924 119.256 143.924 115.373C143.924 111.491 143.66 111.491 143.66 107.609C143.66 103.727 143.727 103.727 143.727 99.8445C143.727 99.8445 143.782 99.8423 143.78 99.8423C143.336 99.8423 143.336 99.7289 142.891 99.7289C141.191 99.7289 139.796 101.222 139.796 102.924C139.796 106.82 139.882 106.82 139.882 110.716C139.882 114.611 139.8 114.611 139.8 118.507C139.8 122.402 139.996 122.402 139.996 126.298C139.996 130.193 139.976 130.193 139.976 134.089C139.976 137.984 139.791 137.984 139.791 141.88C139.791 145.776 139.811 145.776 139.811 149.671C139.811 153.567 139.827 153.567 139.827 157.462C139.827 161.358 139.809 161.358 139.809 165.253C139.809 169.149 139.789 169.149 139.789 173.047C139.789 176.942 139.684 176.942 139.684 180.84C139.684 184.736 139.836 184.736 139.836 188.633C139.836 192.531 139.791 192.529 139.791 196.427C139.791 198.976 138.702 201.207 137.031 202.878C135.362 204.547 133.129 205.68 130.58 205.68C128.209 205.68 126.029 204.725 124.471 203.169C122.916 201.611 122.129 199.431 122.129 197.06C122.129 192.889 121.969 192.889 121.969 188.72C121.969 184.549 121.909 184.549 121.909 180.38C121.909 176.209 122.18 176.209 122.18 172.04C122.18 167.869 122.193 167.869 122.193 163.7C122.193 159.529 121.989 159.529 121.989 155.358C121.989 151.187 121.873 151.187 121.873 147.016C121.873 145.893 121.076 144.944 119.953 144.944V144.911C118.88 144.911 117.873 145.851 117.873 146.927C117.873 151.093 117.916 151.093 117.916 155.262C117.916 159.429 118.058 159.429 118.058 163.598C118.058 167.764 118.042 167.764 118.042 171.933C118.042 176.1 117.996 176.1 117.996 180.269C117.996 184.438 118.218 184.438 118.218 188.604C118.218 192.773 118.084 192.773 118.084 196.94C118.084 199.26 117.013 201.316 115.527 202.893C114.033 204.478 112.047 205.684 109.718 205.76C107.049 205.847 104.5 204.813 102.762 203.08C101.093 201.409 100.378 198.982 100.378 196.433C100.378 192.536 100.284 192.536 100.284 188.636C100.284 184.738 100.2 184.738 100.2 180.838C100.2 176.938 100.34 176.938 100.34 173.04C100.34 169.14 100.087 169.14 100.087 165.242C100.087 161.344 100.187 161.344 100.187 157.444C100.187 153.547 100.136 153.547 100.136 149.647C100.136 145.747 100.12 145.747 100.12 141.849C100.12 137.949 100.202 137.949 100.202 134.051C100.202 130.151 100.042 130.151 100.042 126.253C100.042 123.653 100.04 121.054 100.036 118.456C100.036 114.556 100.376 114.556 100.376 110.656C100.376 106.756 100.122 106.756 100.122 102.856C100.122 101.196 98.8356 99.9867 97.1756 99.9867C96.6934 99.9867 96.6934 99.9112 96.2134 99.9112L96.34 99.8534C96.34 103.86 96.2911 103.86 96.2911 107.869C96.2911 111.876 96.1645 111.876 96.1645 115.884C96.1645 118.556 96.1659 121.227 96.1689 123.9C96.1689 127.909 96.3978 127.909 96.3978 131.916C96.3978 135.924 96.2134 135.924 96.2134 139.931C96.2134 141.133 95.2356 141.971 94.0356 141.971C91.0378 141.971 91.0378 142.084 88.0422 142.084C85.6422 142.084 83.3334 141.507 81.6934 140.256C79.8489 138.849 78.9089 136.662 78.9089 134.413C78.9089 131.533 78.9111 128.653 78.9156 125.773C78.9156 121.453 78.6289 121.453 78.6289 117.133C78.6289 112.813 78.8489 112.813 78.8489 108.493C78.8489 104.173 78.7045 104.173 78.7045 99.8534C78.7045 97.34 79.1556 94.8778 80.0622 92.6912C81.0022 90.4267 82.4022 88.3178 84.1089 86.6112C85.8156 84.9045 88.0711 83.8556 90.3356 82.9156C92.52 82.0089 94.8378 81.3778 97.3511 81.3778C101.124 81.3778 101.124 81.1045 104.9 81.1045C108.676 81.1045 108.673 81.3045 112.449 81.3045C116.224 81.3045 116.224 81.3178 119.998 81.3178C123.771 81.3178 123.771 81.2845 127.547 81.2845C131.322 81.2845 131.322 81.1534 135.096 81.1534C138.869 81.1534 138.871 81.1423 142.644 81.1423C145.158 81.1423 147.596 81.7134 149.782 82.62C152.047 83.56 154.064 85.0178 155.771 86.7267C157.478 88.4334 158.687 90.5556 159.624 92.82C160.531 95.0045 161.2 97.34 161.2 99.8534C161.2 104.173 161.249 104.173 161.249 108.493C161.249 112.813 161.213 112.813 161.213 117.133C161.213 121.453 161.449 121.458 161.389 125.778C161.327 130.1 160.993 130.096 160.993 134.416L160.998 134.402Z" fill="currentColor"/>
  <path d="M120.011 39.2667C121.149 39.2667 122.267 39.3934 123.349 39.5912C124.46 39.7956 125.536 40.1156 126.571 40.5112C127.622 40.9134 128.649 41.3712 129.6 41.9489C130.556 42.5289 131.433 43.2334 132.273 43.9734C133.111 44.7112 133.922 45.4889 134.625 46.3645C135.32 47.2334 135.913 48.1889 136.458 49.1734C136.993 50.1445 137.413 51.1801 137.785 52.2467C138.147 53.2912 138.46 54.3645 138.647 55.4823C138.829 56.5667 138.893 57.6823 138.893 58.8223C138.893 59.9623 138.807 61.0734 138.625 62.1578C138.438 63.2756 138.178 64.3623 137.816 65.4067C137.447 66.4734 137.042 67.5245 136.507 68.4978C135.965 69.4823 135.313 70.4067 134.618 71.2756C133.916 72.1512 133.125 72.9512 132.289 73.6889C131.449 74.4289 130.547 75.0956 129.589 75.6756C128.638 76.2534 127.622 76.7356 126.573 77.1356C125.538 77.5312 124.471 77.8956 123.36 78.1001C122.278 78.3001 121.151 78.4023 120.013 78.4023C118.876 78.4023 117.76 78.2378 116.678 78.0378C115.567 77.8334 114.491 77.5245 113.456 77.1289C112.405 76.7267 111.418 76.2067 110.465 75.6267C109.509 75.0467 108.585 74.4156 107.747 73.6756C106.909 72.9378 106.127 72.1356 105.427 71.2578C104.731 70.3889 104.116 69.4512 103.573 68.4667C103.038 67.4956 102.56 66.4801 102.189 65.4134C101.827 64.3689 101.52 63.2845 101.333 62.1667C101.151 61.0823 101.096 59.9578 101.096 58.8201C101.096 57.6823 101.242 56.5734 101.422 55.4867C101.609 54.3689 101.822 53.2689 102.185 52.2245C102.556 51.1578 103.009 50.1289 103.545 49.1556C104.087 48.1712 104.725 47.2423 105.42 46.3734C106.12 45.4978 106.916 44.7045 107.753 43.9689C108.593 43.2289 109.513 42.5978 110.469 42.0156C111.422 41.4378 112.389 40.8645 113.438 40.4623C114.473 40.0667 115.569 39.8112 116.68 39.6067C117.762 39.4067 118.876 39.2845 120.013 39.2845" fill="currentColor"/>
</svg>
