<svg width="240" height="240" viewBox="0 0 240 240" fill="none" xmlns="http://www.w3.org/2000/svg">
  <path d="M125.86 52.8689C125.86 51.2748 125.86 49.6808 125.86 48.0867C125.86 46.2156 125.612 44.4067 124.738 42.8956C123.836 41.3356 122.46 40.0578 120.903 39.1556C119.345 38.2534 117.62 37.6711 115.749 37.6711C113.878 37.6711 111.889 38.1823 110.316 39.0911C108.694 40.0311 107.314 41.4667 106.376 43.0911C105.467 44.6645 105.278 46.5578 105.278 48.5045C105.278 50.6867 106.843 51.6089 105.109 52.9334C102.838 54.6667 102.2 52.8867 99.3426 52.8867C96.4849 52.8867 96.4849 52.9556 93.6271 52.9556C90.7693 52.9556 90.7693 52.6911 87.9115 52.6911C85.9738 52.6911 84.1026 53.3267 82.5182 54.24C80.8871 55.18 79.6293 56.6356 78.6871 58.2511C77.7449 59.8667 77.0849 61.6245 77.1226 63.5734C77.1604 65.4534 77.7715 67.2223 78.6737 68.7334C79.576 70.2445 80.9804 71.5045 82.5582 72.4045C84.0871 73.2756 85.8138 73.8067 87.6982 73.8067C90.5915 73.8067 90.5915 73.7667 93.4849 73.7667C96.3782 73.7667 96.3782 73.7134 99.2715 73.7134C102.165 73.7134 102.165 73.6689 105.058 73.6689C107.678 73.6689 107.678 73.94 110.298 73.94C112.918 73.94 112.918 73.8911 115.538 73.8911C118.158 73.8911 118.158 73.8423 120.778 73.8423C123.398 73.8423 123.398 73.9267 126.018 73.9267C129.074 73.9267 129.074 74.0623 132.127 74.0623C135.18 74.0623 135.183 74.0489 138.238 74.0489C141.294 74.0489 141.292 74.0267 144.347 74.0623C146.643 74.1623 148.52 73.7023 149.923 72.9978C151.832 72.0378 152.736 70.2711 153.463 68.7334C154.74 66.0356 155.072 66.1689 155.005 63.3467C155.005 61.4378 154.429 59.5845 153.538 58.0423C152.618 56.4511 151.112 55.3023 149.523 54.3823C147.983 53.4889 146.256 52.7423 144.347 52.7423L125.856 52.8667L125.86 52.8689ZM115.243 53.1067C113.149 53.1067 111.969 51.5956 111.969 49.5023C111.969 47.6067 110.863 47.1267 112.203 45.7867C113.543 44.4467 114.02 45.7445 115.916 45.7445C118.009 45.7445 119.565 47.4067 119.565 49.5023C119.565 51.5978 118.009 53.1223 115.916 53.1223" fill="currentColor"/>
  <path d="M161.412 58.1222C160.172 58.1222 160.172 58.1445 158.934 58.1445C158.438 58.1445 157.956 58.7445 158.149 59.1978C158.825 60.7867 159.249 62.4689 159.249 64.3C159.249 66.1311 159.061 67.8445 158.414 69.4089C157.743 71.0311 156.552 72.3289 155.332 73.5533C154.109 74.7778 152.841 76.0311 151.221 76.7067C149.601 77.3822 147.885 77.5556 146.087 77.5556C143.385 77.5556 143.385 77.62 140.685 77.62C137.983 77.62 137.983 77.6978 135.283 77.6978C132.583 77.6978 132.583 77.7289 129.881 77.7289C127.181 77.7289 127.181 77.5156 124.478 77.5156C121.778 77.5156 121.778 77.5 119.076 77.5C116.374 77.5 116.374 77.4467 113.674 77.4467C110.972 77.4467 110.972 77.7445 108.272 77.7445C105.569 77.7445 105.569 77.4422 102.869 77.4422C100.167 77.4422 100.167 77.5689 97.4672 77.5689C94.765 77.5689 94.765 77.6933 92.0628 77.6933C89.3605 77.6933 89.3605 77.5111 86.6583 77.5111C84.905 77.5111 83.2361 77.1045 81.6272 76.4778C80.0161 75.8489 78.4628 75.0756 77.2005 73.8533C75.9361 72.6267 74.8983 71.2067 74.2139 69.6378C73.5294 68.0689 72.9805 66.3445 72.9472 64.5845C72.9094 62.6889 73.6761 60.9156 74.4161 59.2178C74.6139 58.7645 74.1072 58.0311 73.6117 58.0311C71.425 58.0311 71.425 58.1222 69.2383 58.1222C67.2628 58.1222 65.3472 58.4956 63.6316 59.2089C61.9161 59.9222 60.3939 61.2178 59.0517 62.56C57.7117 63.9022 56.4872 65.3822 55.7494 67.1622C55.0383 68.88 54.8428 70.7778 54.8428 72.7511C54.8428 75.3578 54.7472 75.3578 54.7472 77.9645C54.7472 80.5711 54.6672 80.5711 54.6672 83.1778C54.6672 85.7845 54.7028 85.7845 54.7028 88.3911C54.7028 90.9978 54.6028 90.9978 54.6028 93.6045C54.6028 96.2111 54.7561 96.2111 54.7561 98.8178C54.7561 101.424 54.5205 101.424 54.5205 104.031C54.5205 106.638 54.8428 106.638 54.8428 109.244C54.8428 111.851 54.7517 111.851 54.7517 114.458C54.7517 117.064 54.4961 117.064 54.4961 119.671C54.4961 122.278 54.745 122.278 54.745 124.884C54.745 127.491 54.6516 127.491 54.6516 130.098C54.6516 132.704 54.7561 132.704 54.7561 135.311C54.7561 137.918 54.5628 137.918 54.5628 140.524C54.5628 143.131 54.845 143.131 54.845 145.738C54.845 148.344 54.7561 148.344 54.7561 150.951C54.7561 153.558 54.6316 153.558 54.6316 156.164C54.6316 158.771 54.7116 158.771 54.7116 161.378C54.7116 163.984 54.8739 163.984 54.8739 166.591C54.8739 169.198 54.8805 169.198 54.8805 171.804C54.8805 174.411 54.5072 174.411 54.5072 177.018C54.5072 179.624 54.6872 179.624 54.6872 182.233C54.6872 184.842 54.8116 184.84 54.8116 187.449C54.8116 189.424 54.9139 191.373 55.625 193.089C56.3628 194.869 57.5317 196.476 58.8717 197.818C60.2117 199.16 61.9317 200.058 63.7117 200.796C65.4917 201.533 67.2628 201.907 69.2383 201.907C71.845 201.907 71.845 202.198 74.4517 202.198C77.0583 202.198 77.0583 201.802 79.665 201.802C82.2716 201.802 82.2717 201.949 84.8783 201.949C87.485 201.949 87.485 201.896 90.0917 201.896C92.6983 201.896 92.6983 202.022 95.305 202.022C97.9116 202.022 97.9116 202.2 100.518 202.2C103.125 202.2 103.125 202.122 105.732 202.122C108.338 202.122 108.338 202.222 110.945 202.222C113.552 202.222 113.552 202.096 116.158 202.096C118.765 202.096 118.765 201.898 121.372 201.898C123.978 201.898 123.978 202.049 126.585 202.049C129.192 202.049 129.192 201.984 131.798 201.984C134.405 201.984 134.405 201.884 137.014 201.884C139.623 201.884 139.621 202.016 142.229 202.016C144.838 202.016 144.836 202.231 147.445 202.231C150.054 202.231 150.052 202.042 152.661 202.042C155.269 202.042 155.269 202.093 157.876 202.093C160.483 202.093 160.485 202.113 163.092 202.113C165.067 202.113 166.958 201.649 168.676 200.936C170.456 200.196 172.094 199.138 173.436 197.796C174.776 196.453 175.776 194.791 176.514 193.009C177.252 191.227 177.829 189.422 177.829 187.447C177.829 184.84 177.772 184.84 177.772 182.233C177.772 179.627 177.845 179.627 177.845 177.02C177.845 174.413 177.478 174.413 177.478 171.807C177.478 169.2 177.676 169.2 177.676 166.593C177.676 163.987 177.721 163.987 177.721 161.38C177.721 158.773 177.576 158.773 177.576 156.167C177.576 153.56 177.523 153.56 177.523 150.953C177.523 148.347 177.454 148.347 177.454 145.74C177.454 143.133 177.827 143.133 177.827 140.527C177.827 137.92 177.492 137.92 177.492 135.313C177.492 132.707 177.476 132.707 177.476 130.1C177.476 127.493 177.543 127.493 177.543 124.887C177.543 122.28 177.721 122.28 177.721 119.673C177.721 117.067 177.727 117.067 177.727 114.46C177.727 111.853 177.443 111.853 177.443 109.247C177.443 106.64 177.476 106.64 177.476 104.033C177.476 101.427 177.485 101.427 177.485 98.82C177.485 96.2133 177.576 96.2133 177.576 93.6067C177.576 91 177.661 91 177.661 88.3933C177.661 85.7867 177.747 85.7867 177.747 83.18C177.747 80.5733 177.583 80.5733 177.583 77.9645C177.583 75.3556 177.621 75.3578 177.621 72.7489C177.621 70.7733 177.323 68.8645 176.612 67.1467C175.874 65.3667 174.765 63.7556 173.425 62.4133C172.085 61.0711 170.389 60.1667 168.609 59.4289C166.892 58.7156 165.069 58.3333 163.094 58.3333M151.874 156.613C149.223 156.613 149.223 156.636 146.572 156.636C143.921 156.636 143.921 156.504 141.269 156.504C138.618 156.504 138.618 156.569 135.967 156.569C133.316 156.569 133.316 156.744 130.665 156.744C128.014 156.744 128.014 156.478 125.363 156.478C122.712 156.478 122.712 156.811 120.063 156.811C117.412 156.811 117.412 156.638 114.761 156.638C112.109 156.638 112.109 156.702 109.458 156.702C106.807 156.702 106.807 156.78 104.156 156.78C101.505 156.78 101.505 156.811 98.8539 156.811C96.2028 156.811 96.2028 156.598 93.5517 156.598C90.9005 156.598 90.9005 156.582 88.2494 156.582C85.5983 156.582 85.5983 156.529 82.9472 156.529C80.2961 156.529 80.2961 156.827 77.645 156.827C76.6094 156.827 75.8494 155.878 75.7828 154.844C75.7094 153.711 76.4605 152.798 77.5783 152.798C80.1561 152.798 80.1561 152.673 82.7339 152.673C85.3116 152.673 85.3117 152.856 87.8894 152.856C90.4672 152.856 90.4672 152.951 93.045 152.951C95.6228 152.951 95.6228 152.776 98.2005 152.776C100.778 152.776 100.778 152.729 103.356 152.729C105.934 152.729 105.934 152.562 108.512 152.562C111.089 152.562 111.089 152.973 113.667 152.973C116.245 152.973 116.245 152.929 118.823 152.929C121.401 152.929 121.401 152.838 123.978 152.838C126.556 152.838 126.556 152.864 129.134 152.864C131.712 152.864 131.712 152.624 134.289 152.624C136.867 152.624 136.867 152.816 139.445 152.816C142.023 152.816 142.023 152.616 144.601 152.616C147.178 152.616 147.178 152.711 149.758 152.711C152.338 152.711 152.336 152.791 154.916 152.791C155.987 152.791 156.883 153.651 156.883 154.724C156.883 155.798 155.989 156.593 154.916 156.593M152.432 131.984C149.758 131.984 149.758 132.007 147.085 132.007C144.412 132.007 144.412 131.876 141.738 131.876C139.065 131.876 139.065 131.94 136.392 131.94C133.718 131.94 133.718 132.116 131.045 132.116C128.372 132.116 128.372 131.849 125.698 131.849C123.025 131.849 123.025 132.182 120.354 132.182C117.681 132.182 117.681 132.009 115.007 132.009C112.334 132.009 112.334 132.073 109.661 132.073C106.987 132.073 106.987 132.151 104.314 132.151C101.641 132.151 101.641 132.182 98.9672 132.182C96.2939 132.182 96.2939 131.969 93.6205 131.969C90.9472 131.969 90.9472 131.953 88.2739 131.953C85.6005 131.953 85.6005 131.9 82.9272 131.9C80.2539 131.9 80.2539 132.198 77.5805 132.198C76.5072 132.198 75.7805 131.169 75.7805 130.098C75.7805 129.027 76.505 128.171 77.5805 128.171C80.1583 128.171 80.1583 128.047 82.7361 128.047C85.3139 128.047 85.3139 128.229 87.8917 128.229C90.4694 128.229 90.4694 128.324 93.0472 128.324C95.625 128.324 95.625 128.149 98.2028 128.149C100.781 128.149 100.781 128.102 103.358 128.102C105.936 128.102 105.936 127.936 108.514 127.936C111.092 127.936 111.092 128.347 113.669 128.347C116.247 128.347 116.247 128.302 118.825 128.302C121.403 128.302 121.403 128.211 123.981 128.211C126.558 128.211 126.558 128.238 129.136 128.238C131.714 128.238 131.714 127.998 134.292 127.998C136.869 127.998 136.869 128.189 139.447 128.189C142.025 128.189 142.025 127.989 144.603 127.989C147.181 127.989 147.181 128.084 149.761 128.084C152.341 128.084 152.338 128.164 154.918 128.164C155.989 128.164 156.885 129.022 156.885 130.098C156.885 131.173 155.992 131.964 154.918 131.964M156.812 106.271C156.812 107.344 155.996 107.378 154.923 107.378C152.163 107.378 152.163 107.247 149.403 107.247C146.643 107.247 146.643 107.311 143.883 107.311C141.123 107.311 141.123 107.487 138.363 107.487C135.603 107.487 135.603 107.22 132.843 107.22C130.083 107.22 130.083 107.553 127.323 107.553C124.563 107.553 124.563 107.38 121.805 107.38C119.045 107.38 119.045 107.444 116.285 107.444C113.525 107.444 113.525 107.522 110.765 107.522C108.005 107.522 108.005 107.553 105.245 107.553C102.485 107.553 102.485 107.34 99.725 107.34C96.965 107.34 96.965 107.324 94.205 107.324C91.445 107.324 91.445 107.271 88.685 107.271C85.925 107.271 85.925 107.569 83.165 107.569C80.405 107.569 80.405 107.267 77.645 107.267C76.6094 107.267 75.725 106.629 75.6605 105.598C75.5872 104.467 76.465 103.42 77.5828 103.42C80.1605 103.42 80.1605 103.602 82.7383 103.602C85.3161 103.602 85.3161 103.698 87.8939 103.698C90.4716 103.698 90.4716 103.522 93.0494 103.522C95.6272 103.522 95.6272 103.476 98.205 103.476C100.783 103.476 100.783 103.309 103.361 103.309C105.938 103.309 105.938 103.72 108.516 103.72C111.094 103.72 111.094 103.676 113.672 103.676C116.249 103.676 116.249 103.584 118.827 103.584C121.405 103.584 121.405 103.611 123.983 103.611C126.561 103.611 126.561 103.371 129.138 103.371C131.716 103.371 131.716 103.562 134.294 103.562C136.872 103.562 136.872 103.362 139.449 103.362C142.027 103.362 142.027 103.458 144.605 103.458C147.183 103.458 147.183 103.538 149.763 103.538C152.343 103.538 152.341 103.502 154.921 103.502C155.992 103.502 156.787 104.396 156.787 105.471" fill="currentColor"/>
</svg>
