<svg width="60" height="60" viewBox="0 0 60 60" fill="none" xmlns="http://www.w3.org/2000/svg">
<path d="M39.8778 0C37.4532 0 35.4876 1.96554 35.4876 4.39011V19.7555C35.4876 20.159 35.1602 20.4875 34.7556 20.4875C34.351 20.4875 34.0235 20.159 34.0235 19.7555V4.39011C34.0235 1.96554 32.058 0 29.6334 0C27.2088 0 25.2433 1.96554 25.2433 4.39011V19.7555C25.2433 20.159 24.9159 20.4875 24.5112 20.4875C24.1066 20.4875 23.7792 20.159 23.7792 19.7555V4.39011C23.7792 1.96554 21.8136 0 19.389 0C16.9645 0 15 1.96554 15 4.39119V24.8787C15 27.3033 16.9655 29.2688 19.3901 29.2688H39.8778C42.3024 29.2688 44.2679 27.3033 44.2679 24.8787V4.39119C44.2679 1.96663 42.3024 0.0010888 39.8778 0.0010888" fill="#006BD9"/>
<path d="M39.8778 30.7314H15.731C15.3274 30.7314 15 31.0589 15 31.4635V35.1215C15 37.545 16.9655 39.5106 19.3901 39.5106H34.7556C35.1602 39.5106 35.4876 39.839 35.4876 40.2426V48.2918C35.4876 51.5246 32.8673 54.1449 29.6345 54.1449C26.4017 54.1449 23.7814 51.5246 23.7814 48.2918C23.7814 45.8869 25.0475 43.7973 26.7868 42.2593C27.2948 41.81 26.988 40.9747 26.3093 40.9747H19.3901C16.9655 40.9747 15 42.9402 15 45.3647V55.6079C15 58.0325 16.9655 59.9981 19.389 59.9981H39.8756C42.3002 59.9981 44.2657 58.0325 44.2657 55.6079V38.7785V35.1215C44.2657 32.697 42.3002 30.7314 39.8756 30.7314" fill="#006BD9"/>
</svg>
