<svg width="24" height="24" viewBox="0 0 24 24" fill="none" xmlns="http://www.w3.org/2000/svg">
  <path d="M4.16953 20.4805C3.4312 20.4805 2.80495 20.2234 2.29078 19.7093C1.77661 19.1951 1.51953 18.5689 1.51953 17.8305V6.16953C1.51953 5.4312 1.77661 4.80495 2.29078 4.29078C2.80495 3.77661 3.4312 3.51953 4.16953 3.51953H19.8305C20.5689 3.51953 21.1951 3.77661 21.7093 4.29078C22.2234 4.80495 22.4805 5.4312 22.4805 6.16953V17.8305C22.4805 18.5689 22.2234 19.1951 21.7093 19.7093C21.1951 20.2234 20.5689 20.4805 19.8305 20.4805H4.16953ZM12 13.362C12.121 13.362 12.2415 13.3448 12.3615 13.3103C12.4814 13.2759 12.5971 13.2244 12.7088 13.1555L19.3458 8.91428C19.4884 8.83095 19.6049 8.71261 19.695 8.55928C19.7854 8.40611 19.8305 8.23561 19.8305 8.04778C19.8305 7.65795 19.6582 7.35853 19.3135 7.14953C18.969 6.94053 18.6138 6.9512 18.2478 7.18153L12 11.1695L5.75228 7.18153C5.39578 6.96053 5.04286 6.94928 4.69353 7.14778C4.3442 7.34645 4.16953 7.64645 4.16953 8.04778C4.16953 8.25228 4.2147 8.42878 4.30503 8.57728C4.3952 8.72578 4.51161 8.83811 4.65428 8.91428L11.2913 13.1555C11.4029 13.2244 11.5187 13.2759 11.6385 13.3103C11.7585 13.3448 11.879 13.362 12 13.362Z" fill="currentColor"/>
</svg>
