<svg width="84" height="58" viewBox="0 0 84 58" fill="none" xmlns="http://www.w3.org/2000/svg">
<title>Mastercard</title>
  <path d="M0 4C0 1.79086 1.79086 0 4 0H80C82.2091 0 84 1.79086 84 4V54C84 56.2091 82.2091 58 80 58H4C1.79086 58 0 56.2091 0 54V4Z" fill="white"/>
<path d="M49.4952 42.3884H34.5039V15.6152H49.4952V42.3884Z" fill="#FF5F00"/>
<path d="M35.4642 28.9997C35.4642 23.5686 38.0231 18.7308 42.0079 15.6131C39.0939 13.3333 35.4162 11.9725 31.4194 11.9725C21.9573 11.9725 14.2871 19.5957 14.2871 28.9997C14.2871 38.4037 21.9573 46.0269 31.4194 46.0269C35.4162 46.0269 39.0939 44.6661 42.0079 42.3863C38.0231 39.2686 35.4642 34.4308 35.4642 28.9997Z" fill="#EB001B"/>
<path d="M69.7141 28.9997C69.7141 38.4037 62.0439 46.0269 52.5818 46.0269C48.585 46.0269 44.9073 44.6661 41.9922 42.3863C45.9781 39.2686 48.537 34.4308 48.537 28.9997C48.537 23.5686 45.9781 18.7308 41.9922 15.6131C44.9073 13.3333 48.585 11.9725 52.5818 11.9725C62.0439 11.9725 69.7141 19.5957 69.7141 28.9997Z" fill="#F79E1B"/>
</svg>
