<svg width="32" height="16" viewBox="0 0 32 16" fill="none" xmlns="http://www.w3.org/2000/svg">
<path d="M0 0.000234375C0.25 0.270234 0.31 0.380234 0.69 0.770234C1.17 1.25023 1.12 1.30023 1.59 1.78023C2.06 2.26023 2.09 2.24023 2.56 2.72023C3.04 3.20023 3.07 3.16023 3.55 3.64023C4.03 4.12023 4.07 4.07023 4.55 4.55023C5.03 5.03023 5.04 5.01023 5.52 5.49023C6 5.97023 5.87 6.10023 6.35 6.58023C6.83 7.06023 6.89 7.00023 7.36 7.48023C7.84 7.96023 7.89 7.91023 8.36 8.39023C8.84 8.87023 8.78 8.92023 9.26 9.40023C9.74 9.88023 9.74 9.87023 10.22 10.3502C10.7 10.8302 10.67 10.8602 11.14 11.3402C11.61 11.8202 11.59 11.8402 12.07 12.3202C12.54 12.8002 12.6 12.7402 13.07 13.2202C13.55 13.7002 13.5 13.7502 13.97 14.2302C14.44 14.7102 14.47 14.6802 14.95 15.1602C15.34 15.5502 15.4 15.6302 15.67 15.9102C15.79 16.0302 15.98 16.0402 16.1 15.9102C16.45 15.5702 16.57 15.5402 17.03 15.0702C17.58 14.5202 17.63 14.5702 18.18 14.0202C18.5467 13.6536 18.91 13.2836 19.27 12.9102C19.82 12.3602 19.74 12.2802 20.28 11.7202C20.83 11.1702 20.89 11.2302 21.44 10.6802C21.99 10.1302 22.02 10.1602 22.57 9.61023C23.12 9.06023 23.09 9.03023 23.64 8.48023C24.19 7.93023 24.13 7.87023 24.68 7.32023C25.23 6.77023 25.25 6.79023 25.8 6.24023C26.35 5.69023 26.32 5.66023 26.87 5.11023C27.23 4.74023 27.6 4.37023 27.96 4.00023C28.51 3.45023 28.49 3.43023 29.03 2.87023C29.58 2.32023 29.56 2.30023 30.11 1.75023C30.66 1.20023 30.7 1.24023 31.25 0.690234C31.63 0.310234 31.76 0.200234 31.99 -0.00976562H0V0.000234375Z" fill="#D6FF00"/>
</svg>
