<svg width="10" height="15" viewBox="0 0 10 15" fill="none" xmlns="http://www.w3.org/2000/svg">
<path d="M5.67965 -2.02656e-05C6.34632 -2.02656e-05 6.99298 0.0799799 7.61965 0.23998C8.24632 0.386647 8.81298 0.573313 9.31965 0.79998L8.39965 3.03998C7.94632 2.85331 7.51298 2.70665 7.09965 2.59998C6.69965 2.47998 6.32632 2.41998 5.97965 2.41998C5.64632 2.41998 5.35298 2.54665 5.09965 2.79998C4.84632 3.03998 4.71965 3.47331 4.71965 4.09998V5.97998H8.01965V8.11998H4.71965V9.51998C4.71965 9.98665 4.64632 10.38 4.49965 10.7C4.35298 11.02 4.17298 11.28 3.95965 11.48C3.74632 11.6666 3.52632 11.82 3.29965 11.94H9.67965V14.48H-0.000351533V12.06C0.346315 11.9 0.632982 11.7266 0.859648 11.54C1.09965 11.34 1.27965 11.0866 1.39965 10.78C1.51965 10.46 1.57965 10.0466 1.57965 9.53998V8.11998H-0.000351533V5.97998H1.57965V4.07998C1.57965 3.09331 1.75298 2.30665 2.09965 1.71998C2.45965 1.11998 2.94632 0.686647 3.55965 0.41998C4.18632 0.13998 4.89298 -2.02656e-05 5.67965 -2.02656e-05Z" fill="#006BD9"/>
</svg>
