<svg width="84" height="58" viewBox="0 0 84 58" fill="none" xmlns="http://www.w3.org/2000/svg">
<title>PayPal</title>
  <path d="M0 4C0 1.79086 1.79086 0 4 0H80C82.2091 0 84 1.79086 84 4V54C84 56.2091 82.2091 58 80 58H4C1.79086 58 0 56.2091 0 54V4Z" fill="white"/>
<path fill-rule="evenodd" clip-rule="evenodd" d="M18.6724 20.7231H13.8899C13.5626 20.7231 13.2843 20.9619 13.2332 21.2864L11.2989 33.5992C11.2606 33.8423 11.448 34.0612 11.6934 34.0612H13.9765C14.3038 34.0612 14.5822 33.8226 14.6333 33.4976L15.1549 30.1765C15.2052 29.8514 15.4841 29.6126 15.8109 29.6126H17.3248C20.475 29.6126 22.2931 28.082 22.768 25.049C22.9819 23.7219 22.7771 22.6794 22.1581 21.9492C21.4784 21.1474 20.2728 20.7231 18.6724 20.7231ZM19.2238 25.2203C18.9623 26.9433 17.6512 26.9433 16.3835 26.9433H15.6617L16.168 23.7254C16.1982 23.5309 16.3658 23.3878 16.5617 23.3878H16.8925C17.7561 23.3878 18.5708 23.3878 18.9917 23.882C19.2428 24.1768 19.3196 24.615 19.2238 25.2203Z" fill="#28356A"/>
<path fill-rule="evenodd" clip-rule="evenodd" d="M33.0897 25.0718H30.7995C30.6044 25.0718 30.4358 25.215 30.4058 25.4095L30.3044 26.0526L30.1443 25.8195C29.6486 25.097 28.5429 24.8555 27.4395 24.8555C24.9087 24.8555 22.7472 26.78 22.3263 29.4797C22.1075 30.8262 22.4185 32.114 23.1795 33.012C23.8774 33.8376 24.876 34.1818 26.0639 34.1818C28.1031 34.1818 29.2337 32.8653 29.2337 32.8653L29.1317 33.5042C29.0933 33.7485 29.2807 33.9676 29.5248 33.9676H31.5875C31.9156 33.9676 32.1926 33.7288 32.2443 33.4037L33.482 25.5338C33.5212 25.2915 33.3343 25.0718 33.0897 25.0718ZM29.8973 29.5471C29.6764 30.8607 28.6381 31.7425 27.3136 31.7425C26.6486 31.7425 26.1172 31.5283 25.7758 31.1226C25.4373 30.7196 25.3088 30.146 25.4163 29.507C25.6228 28.2047 26.6786 27.2939 27.9829 27.2939C28.6332 27.2939 29.1618 27.511 29.5101 27.9201C29.8589 28.3337 29.9974 28.9109 29.8973 29.5471Z" fill="#28356A"/>
<path fill-rule="evenodd" clip-rule="evenodd" d="M45.1106 25.269H42.8091C42.5895 25.269 42.3833 25.3786 42.2589 25.5619L39.0848 30.2561L37.7394 25.745C37.6547 25.4628 37.3954 25.269 37.1016 25.269H34.8403C34.5652 25.269 34.3745 25.5387 34.4618 25.7985L36.9968 33.2674L34.6136 36.6454C34.4262 36.9115 34.615 37.2772 34.9388 37.2772H37.2373C37.4555 37.2772 37.6596 37.1705 37.7834 36.9909L45.4377 25.8974C45.6211 25.6321 45.4328 25.269 45.1106 25.269Z" fill="#28356A"/>
<path fill-rule="evenodd" clip-rule="evenodd" d="M52.7825 20.7231H47.9995C47.673 20.7231 47.3947 20.9619 47.3435 21.2864L45.4093 33.5992C45.3709 33.8423 45.5584 34.0612 45.8024 34.0612H48.2569C48.4847 34.0612 48.6798 33.8942 48.7154 33.6667L49.2645 30.1765C49.3148 29.8514 49.5939 29.6126 49.9204 29.6126H51.4337C54.5845 29.6126 56.402 28.082 56.8776 25.049C57.0923 23.7219 56.886 22.6794 56.2671 21.9492C55.588 21.1474 54.3832 20.7231 52.7825 20.7231ZM53.3344 25.2203C53.0735 26.9433 51.7623 26.9433 50.4938 26.9433H49.773L50.2799 23.7254C50.3099 23.5309 50.4764 23.3878 50.6728 23.3878H51.0037C51.8665 23.3878 52.6819 23.3878 53.1028 23.882C53.3539 24.1768 53.4301 24.615 53.3344 25.2203Z" fill="#298FC2"/>
<path fill-rule="evenodd" clip-rule="evenodd" d="M67.1969 25.0718H64.9082C64.7117 25.0718 64.5446 25.215 64.5152 25.4095L64.4138 26.0526L64.253 25.8195C63.7572 25.097 62.6523 24.8555 61.5488 24.8555C59.0181 24.8555 56.8574 26.78 56.4365 29.4797C56.2183 30.8262 56.528 32.114 57.2887 33.012C57.9882 33.8376 58.9852 34.1818 60.1734 34.1818C62.2124 34.1818 63.3432 32.8653 63.3432 32.8653L63.2411 33.5042C63.2027 33.7485 63.39 33.9676 63.6356 33.9676H65.6977C66.0242 33.9676 66.3026 33.7288 66.3537 33.4037L67.592 25.5338C67.6298 25.2915 67.4424 25.0718 67.1969 25.0718ZM64.0047 29.5471C63.7851 30.8607 62.7452 31.7425 61.4207 31.7425C60.7571 31.7425 60.2243 31.5283 59.8829 31.1226C59.5447 30.7196 59.4174 30.146 59.5235 29.507C59.7313 28.2047 60.7857 27.2939 62.09 27.2939C62.7403 27.2939 63.269 27.511 63.6172 27.9201C63.9675 28.3337 64.1059 28.9109 64.0047 29.5471Z" fill="#298FC2"/>
<path fill-rule="evenodd" clip-rule="evenodd" d="M69.7061 21.0616L67.7433 33.5998C67.7049 33.8429 67.8922 34.0618 68.1362 34.0618H70.1096C70.4377 34.0618 70.7158 33.8232 70.7662 33.4982L72.7018 21.1859C72.7404 20.9428 72.5529 20.7231 72.3089 20.7231H70.0992C69.9042 20.7237 69.7363 20.8671 69.7061 21.0616Z" fill="#298FC2"/>
</svg>
