<svg width="353" height="49" viewBox="0 0 353 49" fill="none" xmlns="http://www.w3.org/2000/svg">
  <path d="M0.938216 7.33865C0.790988 8.25088 0.727523 9.18043 0.695768 10.0869C0.60339 12.61 0.525491 15.1331 0.453321 17.659C0.291659 23.3605 0.16752 29.0619 0.0866891 34.7634C0.0462737 37.5579 0.00288682 41.8592 0 44.6565C0 49.5901 0.638009 49.1773 8.46706 48.6403C23.4901 47.6069 38.4467 46.4781 53.5102 46.4348C66.0245 46.3944 78.4754 46.2241 90.9724 46.5618C106.195 46.9718 121.295 46.5936 136.492 46.4319C183.004 45.9383 229.557 46.1346 276.043 47.7945C299.357 48.6259 322.694 48.9377 346.026 48.9839C350.659 48.9983 352.954 49.5555 352.934 44.2755C352.896 33.7299 352.183 23.2566 351.502 12.7399C350.974 6.18103 351.664 4.71741 349.296 3.89466C347.608 3.30864 345.079 3.121 343.295 2.92181C307.891 -1.04179 272.08 0.107164 236.517 0.309241C223.31 0.384299 210.103 0.459358 196.896 0.537302C165.579 0.698964 134.263 0.886604 102.947 1.13776C91.1803 1.13776 79.4078 1.33406 67.644 1.44376C55.8167 1.55634 43.9894 1.68048 32.1621 1.81905C23.8914 1.91432 15.6438 1.73822 6.94288 1.99514C3.14672 2.10773 1.48101 3.95241 0.935397 7.33865" fill="currentColor"/>
</svg>
