<svg width="302" height="283" viewBox="0 0 302 283" fill="none" xmlns="http://www.w3.org/2000/svg">
  <path d="M299.041 104.922C274.483 6.92334 131.167 -36.4222 49.0661 36.4584C-19.7816 97.5723 -18.4219 213.539 67.435 281.572C74.7098 287.337 91.7131 272.505 84.7068 266.041C72.3829 254.679 58.5782 242.958 48.4166 222.973C-43.5863 46.1841 208.794 -70.2557 282.65 124.532C284.411 128.837 302.312 125.557 301.85 119.137C301.541 114.844 299.714 107.232 299.044 104.919" fill="currentColor"/>
  <path d="M173.856 206.264C175.325 206.815 178.411 205.522 180.729 204.826C232.404 189.275 235.261 107.627 182.184 90.7245C159.872 83.008 133.363 87.9531 115.984 104.154C112.852 107.055 110.075 110.32 107.603 113.802C106.394 115.505 104.491 118.715 103.778 120.733C102.543 124.235 108.651 127.234 112.373 128.556C115.043 129.333 116.12 129.388 118.62 126.319C121.278 123.051 124.298 120.086 127.517 117.37C131.509 113.966 136.154 111.166 140.978 109.007C144.76 107.439 148.7 106.328 152.756 105.739C156.645 105.248 160.551 105.248 164.433 105.722C168.417 106.296 172.329 107.367 176.047 108.906C179.699 110.482 183.149 112.549 186.336 114.93C189.352 117.318 192.063 120.003 194.453 123.028C196.665 125.935 198.509 129.047 199.967 132.393C201.278 135.554 202.216 138.992 202.704 142.396C202.496 141.278 202.701 142.393 202.733 142.69C203.05 145.597 203.05 148.542 202.736 151.449C202.704 151.737 202.505 152.878 202.698 151.792C202.219 155.17 201.295 158.475 200.019 161.636C198.42 165.432 196.269 168.966 193.781 172.24C187.871 179.699 181.009 185.582 172.485 190.224C170.195 191.469 167.063 192.566 167.626 195.588C168.333 199.387 169.918 204.783 173.856 206.264Z" fill="currentColor"/>
  <path d="M165.552 140.219C165.267 139.913 165.371 140 165.552 140.219V140.219Z" fill="currentColor"/>
  <path d="M168.018 149.691C168 149.774 167.975 149.916 167.969 150.017C167.983 149.95 167.995 149.878 168.003 149.832C168.009 149.789 168.012 149.74 168.018 149.691Z" fill="currentColor"/>
  <path d="M168.012 145.88C168.012 145.88 168.038 146.019 168.053 146.189C168.024 146.033 168.001 145.88 168.012 145.88ZM157.851 160.99C157.634 161.045 157.415 161.088 157.348 161.042C157.322 161.024 157.66 161.004 157.851 160.99ZM168.018 149.691C168.038 149.598 168.047 149.593 168.004 149.832C167.986 149.997 167.975 150.127 167.98 150.129C167.966 150.124 167.966 150.077 167.969 150.02C167.767 151.137 167.438 152.228 167.048 153.293C166.54 154.362 165.954 155.447 165.258 156.4C164.586 157.219 163.826 158.031 163.009 158.703C162.221 159.281 161.378 159.78 160.504 160.213C159.629 160.536 158.832 160.741 157.914 160.978C156.846 161.065 155.772 161.05 154.701 160.99C150.12 160.233 146.174 157.676 142.057 155.115C140.891 154.39 140.59 154.082 139.404 153.302C137.334 151.942 137.421 151.068 132.932 155.831C128.795 160.222 129.56 161.605 131.823 164.081C140.408 173.64 153.829 178.975 166.228 173.813C176.566 169.506 184.574 159.237 183.991 147.655C183.667 141.27 180.925 135.482 176.664 130.779C174.204 128.066 171.26 125.684 168.093 123.865C165.631 122.451 162.839 121.126 161.015 121.316C158.844 121.544 158.012 123.527 156.367 126.253C155.039 128.753 154.043 130.597 155.201 131.761C157.721 134.289 160.558 135.828 163.255 137.881C164.106 138.643 164.915 139.454 165.651 140.332C165.61 140.288 165.582 140.259 165.55 140.225C166.078 140.906 166.517 141.674 166.915 142.439C167.172 142.944 167.368 143.556 167.06 142.67C167.513 143.828 167.862 145.026 168.056 146.255C168.139 147.537 168.159 148.42 168.018 149.696" fill="currentColor"/>
  <path d="M76.9983 159.486C76.9868 159.402 76.981 159.365 76.9781 159.347C76.981 159.373 76.9896 159.437 76.9983 159.494C76.9983 159.492 76.9983 159.489 76.9983 159.486ZM219.893 204.356C218.239 203.905 217.283 204.46 215.947 205.476C214.353 206.685 212.737 207.866 211.094 209.009C199.905 216.804 187.792 222.883 174.579 226.151C168.609 227.626 163.513 228.371 157.434 228.582C154.665 228.677 151.891 228.634 149.128 228.449C147.723 228.354 146.319 228.218 144.919 228.054C144.818 228.042 144.466 227.996 144.377 227.987C144.12 227.953 143.86 227.915 143.606 227.877C142.893 227.771 142.183 227.655 141.475 227.531C136.265 226.61 131.149 225.164 126.23 223.215C125.953 223.106 125.676 222.996 125.402 222.88C125.312 222.843 124.934 222.684 124.81 222.635C124.256 222.395 123.701 222.153 123.153 221.902C121.943 221.347 120.748 220.764 119.567 220.149C117.307 218.972 115.101 217.69 112.962 216.304C111.857 215.588 110.768 214.846 109.697 214.076C109.224 213.735 108.75 213.389 108.283 213.039C108.199 212.976 107.824 212.69 107.76 212.644C107.532 212.465 107.301 212.283 107.073 212.101C105.061 210.496 103.121 208.798 101.268 207.014C99.4491 205.268 97.7112 203.438 96.06 201.535C95.2026 200.548 94.3683 199.54 93.5571 198.516C93.4965 198.438 93.2569 198.132 93.1789 198.034C93.1039 197.932 92.8671 197.621 92.8065 197.543C92.3995 197 91.9982 196.454 91.6027 195.903C88.6466 191.772 86.0572 187.375 83.8863 182.78C83.6178 182.211 83.355 181.639 83.0981 181.065C82.9798 180.799 82.8643 180.534 82.7488 180.268C82.6911 180.135 82.6334 180.002 82.5757 179.867C82.5612 179.829 82.5554 179.818 82.541 179.789C82.5352 179.772 82.5208 179.74 82.4977 179.682C82.0185 178.516 81.5624 177.344 81.1323 176.16C80.2575 173.741 79.4954 171.284 78.8516 168.796C78.2165 166.348 77.694 163.871 77.287 161.374C77.1888 160.765 77.0965 160.153 77.0128 159.544C76.9983 159.419 76.981 159.292 76.9665 159.168C76.9203 158.781 76.8742 158.392 76.8309 158.005C76.6923 156.738 76.5855 155.47 76.5105 154.2C76.3546 151.593 76.3228 148.981 76.4267 146.374C76.4758 145.083 76.5567 143.796 76.6721 142.511C76.7241 141.917 76.7847 141.319 76.8511 140.724C76.8886 140.378 76.9319 140.029 76.9752 139.682C76.9867 139.575 77.0012 139.469 77.0156 139.362C77.0214 139.316 77.03 139.258 77.0416 139.18C78.6842 127.996 82.3678 118.135 88.2569 108.721C94.8446 98.1871 103.924 89.0417 114.189 81.6659C121.273 76.5764 128.785 72.0499 137.111 69.3334C141.305 67.965 145.606 66.9662 149.922 66.0597C152.033 65.6152 154.149 65.1908 156.256 64.7347C157.797 64.3998 159.128 64.0332 160.217 62.815C162.275 60.5084 161.905 56.9951 161.418 54.1516C160.944 51.3745 159.844 48.4935 157.939 46.3803C155.312 43.4617 152.203 44.3105 148.744 44.8734C144.712 45.5287 140.702 46.3543 136.735 47.3503C121.978 51.0569 107.694 57.1683 95.1015 65.7566C83.3175 73.7935 73.0087 83.9118 65.1277 95.8315C57.6306 107.174 52.4719 120.147 50.3501 133.591C48.0666 148.051 49.077 162.832 53.0233 176.919C56.5943 189.67 62.9193 201.452 71.3806 211.61C79.4694 221.319 89.5242 229.405 100.523 235.579C111.594 241.798 123.736 246.206 136.21 248.547C148.655 250.883 161.351 251.238 173.88 249.37C185.901 247.577 197.688 243.521 208.06 237.138C213.152 234.003 217.915 230.297 222.211 226.131C224.65 223.897 227.179 221.134 229.183 218.475C232.176 214.503 229.373 212.11 227.387 209.67C225.626 207.508 222.65 205.115 219.907 204.364" fill="currentColor"/>
</svg>
