<svg width="24" height="24" viewBox="0 0 24 24" fill="none" xmlns="http://www.w3.org/2000/svg">
  <path d="M19.3669 11.9751C19.3669 10.6106 19.0026 9.35986 18.2739 8.22286C17.5453 7.08603 16.5737 6.22953 15.3592 5.65336C15.0903 5.52736 14.8976 5.32936 14.7809 5.05936C14.6643 4.78936 14.657 4.51528 14.7592 4.23711C14.8687 3.94211 15.0643 3.73161 15.3462 3.60561C15.628 3.47944 15.9117 3.47944 16.1972 3.60561C17.8327 4.35994 19.1385 5.48636 20.1147 6.98486C21.0908 8.48336 21.5789 10.1468 21.5789 11.9751C21.5789 13.8034 21.0908 15.4669 20.1147 16.9654C19.1385 18.4639 17.8327 19.5903 16.1972 20.3446C15.9117 20.4708 15.628 20.4708 15.3462 20.3446C15.0643 20.2186 14.8687 20.0081 14.7592 19.7131C14.657 19.4349 14.6643 19.1609 14.7809 18.8909C14.8976 18.6209 15.0903 18.4229 15.3592 18.2969C16.5737 17.7207 17.5453 16.8642 18.2739 15.7274C19.0026 14.5904 19.3669 13.3396 19.3669 11.9751ZM6.70267 15.4806H3.74517C3.37701 15.4806 3.06409 15.3518 2.80642 15.0941C2.54876 14.8364 2.41992 14.5236 2.41992 14.1556V9.84461C2.41992 9.47661 2.54876 9.16378 2.80642 8.90611C3.06409 8.64845 3.37701 8.51961 3.74517 8.51961H6.70267L10.1017 5.12061C10.5218 4.70045 11.0044 4.60378 11.5494 4.83061C12.0944 5.05728 12.3669 5.46628 12.3669 6.05761V17.9426C12.3669 18.5339 12.0944 18.9429 11.5494 19.1696C11.0044 19.3964 10.5218 19.2998 10.1017 18.8796L6.70267 15.4806ZM17.0789 12.0001C17.0789 12.7189 16.9111 13.3979 16.5754 14.0371C16.2399 14.6763 15.795 15.2099 15.2407 15.6381C15.0458 15.7569 14.8515 15.7611 14.6577 15.6506C14.4638 15.5401 14.3669 15.3708 14.3669 15.1426V8.80761C14.3669 8.57945 14.4638 8.41245 14.6577 8.30661C14.8515 8.20078 15.0458 8.20728 15.2407 8.32611C15.795 8.77111 16.2399 9.31495 16.5754 9.95761C16.9111 10.6004 17.0789 11.2813 17.0789 12.0001Z" fill="currentColor"/>
</svg>
