<svg width="24" height="24" viewBox="0 0 24 24" fill="none" xmlns="http://www.w3.org/2000/svg">
  <path d="M10.7598 17.8445C8.75328 17.8445 7.04495 17.1489 5.63478 15.7578C4.22461 14.3664 3.51953 12.6722 3.51953 10.675V4.97178C3.51953 4.28995 3.75778 3.71078 4.23428 3.23428C4.71078 2.75778 5.28995 2.51953 5.97178 2.51953H18.6273C19.6974 2.51953 20.6072 2.89828 21.3565 3.65578C22.1059 4.41328 22.4805 5.32778 22.4805 6.39928C22.4805 7.47078 22.1059 8.37886 21.3565 9.12353C20.6072 9.86803 19.6974 10.2403 18.6273 10.2403H18.113V10.675C18.066 12.6815 17.3304 14.3781 15.906 15.7648C14.4817 17.1513 12.7663 17.8445 10.7598 17.8445ZM6.16953 7.59028H15.463V5.16953H6.16953V7.59028ZM18.113 7.59028H18.5708C18.9119 7.59028 19.2072 7.47736 19.4565 7.25153C19.7059 7.02586 19.8305 6.74211 19.8305 6.40028C19.8305 6.05845 19.7059 5.76786 19.4565 5.52853C19.2072 5.2892 18.9119 5.16953 18.5708 5.16953H18.113V7.59028ZM4.83053 21.4805C4.45903 21.4805 4.1477 21.3517 3.89653 21.094C3.6452 20.8364 3.51953 20.5224 3.51953 20.152C3.51953 19.7815 3.64836 19.471 3.90603 19.2205C4.1637 18.9699 4.47653 18.8445 4.84453 18.8445H18.576C18.9475 18.8445 19.2589 18.9734 19.51 19.231C19.7614 19.4887 19.887 19.8027 19.887 20.173C19.887 20.5435 19.7582 20.854 19.5005 21.1045C19.2429 21.3552 18.93 21.4805 18.562 21.4805H4.83053Z" fill="currentColor"/>
</svg>
