<svg width="24" height="24" viewBox="0 0 24 24" fill="none" xmlns="http://www.w3.org/2000/svg">
  <path d="M4.84453 19.8305H19.1555C19.5235 19.8305 19.8364 19.9593 20.094 20.2168C20.3517 20.4744 20.4805 20.7874 20.4805 21.1555C20.4805 21.5235 20.3517 21.8364 20.094 22.094C19.8364 22.3517 19.5235 22.4805 19.1555 22.4805H4.84453C4.47653 22.4805 4.1637 22.3517 3.90603 22.094C3.64836 21.8364 3.51953 21.5235 3.51953 21.1555C3.51953 20.7874 3.64836 20.4744 3.90603 20.2168C4.1637 19.9593 4.47653 19.8305 4.84453 19.8305ZM12 17.0218C11.8029 17.0218 11.6146 16.9814 11.4353 16.9005C11.2559 16.8197 11.0974 16.6938 10.9598 16.5228L5.65653 9.81953C5.31236 9.38253 5.2602 8.91536 5.50003 8.41803C5.73986 7.92053 6.13878 7.67178 6.69678 7.67178H8.35003V2.84453C8.35003 2.47653 8.47886 2.1637 8.73653 1.90603C8.99403 1.64836 9.30686 1.51953 9.67503 1.51953H14.325C14.6932 1.51953 15.006 1.64836 15.2635 1.90603C15.5212 2.1637 15.65 2.47653 15.65 2.84453V7.67178H17.3033C17.8613 7.67178 18.2602 7.92053 18.5 8.41803C18.7399 8.91536 18.6877 9.38253 18.3435 9.81953L13.0403 16.5228C12.9026 16.6938 12.7441 16.8197 12.5648 16.9005C12.3854 16.9814 12.1972 17.0218 12 17.0218Z" fill="currentColor"/>
</svg>
