<svg width="20" height="22" viewBox="0 0 20 22" fill="none" xmlns="http://www.w3.org/2000/svg">
  <path d="M3.16953 21.4805C2.4312 21.4805 1.80495 21.2234 1.29078 20.7093C0.776615 20.1951 0.519531 19.5689 0.519531 18.8305V5.16953C0.519531 4.4312 0.776615 3.80495 1.29078 3.29078C1.80495 2.77661 2.4312 2.51953 3.16953 2.51953H4.00003V1.67503C4.00003 1.35403 4.1147 1.0812 4.34403 0.856531C4.57336 0.631864 4.84853 0.519531 5.16953 0.519531C5.49053 0.519531 5.76336 0.631864 5.98803 0.856531C6.2127 1.0812 6.32503 1.35403 6.32503 1.67503V2.51953H13.675V1.67503C13.675 1.35403 13.7897 1.0812 14.019 0.856531C14.2484 0.631864 14.5235 0.519531 14.8445 0.519531C15.1655 0.519531 15.4384 0.631864 15.663 0.856531C15.8877 1.0812 16 1.35403 16 1.67503V2.51953H16.8305C17.5689 2.51953 18.1951 2.77661 18.7093 3.29078C19.2234 3.80495 19.4805 4.4312 19.4805 5.16953V18.8305C19.4805 19.5689 19.2234 20.1951 18.7093 20.7093C18.1951 21.2234 17.5689 21.4805 16.8305 21.4805H3.16953ZM3.16953 18.8305H16.8305V9.00003H3.16953V18.8305ZM10 13.113C9.6847 13.113 9.42036 13.0064 9.20703 12.793C8.9937 12.5797 8.88703 12.3154 8.88703 12C8.88703 11.6847 8.9937 11.4204 9.20703 11.207C9.42036 10.9937 9.6847 10.887 10 10.887C10.3154 10.887 10.5797 10.9937 10.793 11.207C11.0064 11.4204 11.113 11.6847 11.113 12C11.113 12.3154 11.0064 12.5797 10.793 12.793C10.5797 13.0064 10.3154 13.113 10 13.113ZM6.00003 13.113C5.6847 13.113 5.42036 13.0064 5.20703 12.793C4.9937 12.5797 4.88703 12.3154 4.88703 12C4.88703 11.6847 4.9937 11.4204 5.20703 11.207C5.42036 10.9937 5.6847 10.887 6.00003 10.887C6.31536 10.887 6.5797 10.9937 6.79303 11.207C7.00636 11.4204 7.11303 11.6847 7.11303 12C7.11303 12.3154 7.00636 12.5797 6.79303 12.793C6.5797 13.0064 6.31536 13.113 6.00003 13.113ZM14 13.113C13.6979 13.113 13.4368 13.0064 13.2168 12.793C12.9969 12.5797 12.887 12.3154 12.887 12C12.887 11.6847 12.9969 11.4204 13.2168 11.207C13.4368 10.9937 13.7002 10.887 14.007 10.887C14.314 10.887 14.5751 10.9937 14.7903 11.207C15.0054 11.4204 15.113 11.6847 15.113 12C15.113 12.3154 15.0064 12.5797 14.793 12.793C14.5797 13.0064 14.3154 13.113 14 13.113ZM10 17.113C9.6847 17.113 9.42036 17.0031 9.20703 16.7833C8.9937 16.5633 8.88703 16.2999 8.88703 15.993C8.88703 15.686 8.9937 15.4249 9.20703 15.2098C9.42036 14.9946 9.6847 14.887 10 14.887C10.3154 14.887 10.5797 14.9937 10.793 15.207C11.0064 15.4204 11.113 15.6847 11.113 16C11.113 16.3022 11.0064 16.5633 10.793 16.7833C10.5797 17.0031 10.3154 17.113 10 17.113ZM6.00003 17.113C5.6847 17.113 5.42036 17.0031 5.20703 16.7833C4.9937 16.5633 4.88703 16.2999 4.88703 15.993C4.88703 15.686 4.9937 15.4249 5.20703 15.2098C5.42036 14.9946 5.6847 14.887 6.00003 14.887C6.31536 14.887 6.5797 14.9937 6.79303 15.207C7.00636 15.4204 7.11303 15.6847 7.11303 16C7.11303 16.3022 7.00636 16.5633 6.79303 16.7833C6.5797 17.0031 6.31536 17.113 6.00003 17.113ZM14 17.113C13.6979 17.113 13.4368 17.0031 13.2168 16.7833C12.9969 16.5633 12.887 16.2999 12.887 15.993C12.887 15.686 12.9969 15.4249 13.2168 15.2098C13.4368 14.9946 13.7002 14.887 14.007 14.887C14.314 14.887 14.5751 14.9937 14.7903 15.207C15.0054 15.4204 15.113 15.6847 15.113 16C15.113 16.3022 15.0064 16.5633 14.793 16.7833C14.5797 17.0031 14.3154 17.113 14 17.113Z" fill="currentColor"/>
</svg>
