<svg width="24" height="24" viewBox="0 0 24 24" fill="none" xmlns="http://www.w3.org/2000/svg">
  <path d="M9.68545 14.0855C9.79461 14.2275 10.0013 14.2442 10.1319 14.1217C10.9627 13.3415 11.7154 12.4822 12.4131 11.5806C12.8093 11.0685 13.1876 10.5427 13.5526 10.0098C14.5988 8.48151 15.4806 6.85262 16.4206 5.25935C16.455 5.20122 16.4893 5.1431 16.5239 5.08498C16.6379 4.89374 17.0329 5.07685 17.1752 5.13498C17.6103 5.31268 18.032 5.5235 18.4509 5.73579C18.6745 5.84912 19.1436 5.99473 18.9572 6.31868C18.3551 7.3651 17.7595 8.41526 17.1527 9.45876C16.5479 10.4985 15.9315 11.5314 15.2875 12.5474C14.6175 13.604 13.9176 14.6415 13.1801 15.6518C12.376 16.7533 11.5279 17.8222 10.639 18.8563C10.335 19.2098 10.0742 19.5609 9.55192 19.39C9.15818 19.2613 8.91757 18.8988 8.68007 18.5842C7.61887 17.1791 6.80369 15.5946 5.91748 14.078C5.60957 13.5511 5.30896 13.0197 5.00793 12.4886C4.99231 12.4611 5.00043 12.4264 5.02647 12.4086L7.36429 10.8233C7.39179 10.8045 7.42929 10.8116 7.44804 10.8389L9.68524 14.0857L9.68545 14.0855Z" fill="currentColor"/>
</svg>
