<svg width="18" height="19" viewBox="0 0 18 19" fill="none" xmlns="http://www.w3.org/2000/svg">
  <path d="M9.00003 9.75974C7.7587 9.75974 6.70161 9.32332 5.82878 8.45049C4.95595 7.57766 4.51953 6.52057 4.51953 5.27924C4.51953 4.0379 4.95595 2.98324 5.82878 2.11524C6.70161 1.24707 7.7587 0.812988 9.00003 0.812988C10.2414 0.812988 11.2984 1.24707 12.1713 2.11524C13.0441 2.98324 13.4805 4.0379 13.4805 5.27924C13.4805 6.52057 13.0441 7.57766 12.1713 8.45049C11.2984 9.32332 10.2414 9.75974 9.00003 9.75974ZM0.519531 16.0707V15.412C0.519531 14.7605 0.688948 14.1596 1.02778 13.6092C1.36645 13.0589 1.81986 12.6399 2.38803 12.3522C3.4497 11.8261 4.5327 11.4292 5.63703 11.1615C6.74136 10.8937 7.86236 10.7597 9.00003 10.7597C10.1565 10.7597 11.2869 10.8912 12.3913 11.1542C13.4956 11.4174 14.5692 11.812 15.612 12.338C16.1802 12.6257 16.6336 13.0423 16.9723 13.588C17.3111 14.1337 17.4805 14.7417 17.4805 15.412V16.0707C17.4805 16.8091 17.2234 17.4353 16.7093 17.9495C16.1951 18.4637 15.5689 18.7207 14.8305 18.7207H3.16953C2.4312 18.7207 1.80495 18.4637 1.29078 17.9495C0.776615 17.4353 0.519531 16.8091 0.519531 16.0707Z" fill="currentColor"/>
</svg>
