<svg width="24" height="24" viewBox="0 0 24 24" fill="none" xmlns="http://www.w3.org/2000/svg">
  <path d="M12.0005 2.51953C13.5802 2.51953 15.1308 2.79311 16.6523 3.34028C18.1736 3.88728 19.5741 4.62495 20.8538 5.55328C21.1581 5.79095 21.3911 6.07503 21.5528 6.40553C21.7143 6.73586 21.795 7.07928 21.795 7.43578C21.795 7.66628 21.7612 7.89386 21.6935 8.11853C21.6257 8.3432 21.524 8.56128 21.3885 8.77278L14.2125 19.5425C13.9465 19.9367 13.6165 20.2347 13.2223 20.4365C12.8281 20.6384 12.4209 20.7393 12.0005 20.7393C11.5802 20.7393 11.173 20.6384 10.7788 20.4365C10.3846 20.2347 10.0545 19.9367 9.78855 19.5425L2.61255 8.77278C2.47705 8.56128 2.37721 8.34503 2.31305 8.12403C2.24888 7.90303 2.2168 7.68195 2.2168 7.46078C2.2168 7.10428 2.29763 6.75845 2.4593 6.42328C2.6208 6.08828 2.85371 5.80186 3.15805 5.56403C4.43788 4.64303 5.83663 3.90536 7.3543 3.35103C8.87213 2.7967 10.4209 2.51953 12.0005 2.51953ZM9.33105 10.1555C9.78538 10.1555 10.1655 10.0003 10.4713 9.68978C10.777 9.37928 10.9298 8.99686 10.9298 8.54253C10.9298 8.08803 10.777 7.70553 10.4713 7.39503C10.1655 7.08453 9.78538 6.92928 9.33105 6.92928C8.87671 6.92928 8.4943 7.08453 8.1838 7.39503C7.8733 7.70553 7.71805 8.08803 7.71805 8.54253C7.71805 8.99686 7.8733 9.37928 8.1838 9.68978C8.4943 10.0003 8.87671 10.1555 9.33105 10.1555ZM12.0005 14.887C12.4549 14.887 12.8373 14.7341 13.1478 14.4283C13.4583 14.1224 13.6135 13.7424 13.6135 13.288C13.6135 12.8337 13.4583 12.4513 13.1478 12.1408C12.8373 11.8303 12.4549 11.675 12.0005 11.675C11.5462 11.675 11.1638 11.8303 10.8533 12.1408C10.5428 12.4513 10.3875 12.8337 10.3875 13.288C10.3875 13.7424 10.5428 14.1224 10.8533 14.4283C11.1638 14.7341 11.5462 14.887 12.0005 14.887Z" fill="currentColor"/>
</svg>
