<svg width="24" height="24" viewBox="0 0 24 24" fill="none" xmlns="http://www.w3.org/2000/svg">
  <path d="M4.16953 20.4805C3.4312 20.4805 2.80495 20.2234 2.29078 19.7093C1.77661 19.1951 1.51953 18.5689 1.51953 17.8305V14.3708C1.51953 14.1874 1.57553 14.0314 1.68753 13.9028C1.79953 13.7741 1.9472 13.6931 2.13053 13.6598C2.52103 13.5453 2.8502 13.3389 3.11803 13.0408C3.3857 12.7426 3.51953 12.3957 3.51953 12C3.51953 11.595 3.3857 11.2434 3.11803 10.945C2.8502 10.6469 2.52103 10.4453 2.13053 10.3403C1.9472 10.3069 1.79953 10.2259 1.68753 10.0973C1.57553 9.96861 1.51953 9.81261 1.51953 9.62928V6.16953C1.51953 5.4312 1.77661 4.80495 2.29078 4.29078C2.80495 3.77661 3.4312 3.51953 4.16953 3.51953H19.8305C20.5689 3.51953 21.1951 3.77661 21.7093 4.29078C22.2234 4.80495 22.4805 5.4312 22.4805 6.16953V9.64353C22.4805 9.82686 22.4245 9.98045 22.3125 10.1043C22.2005 10.2283 22.0529 10.3069 21.8695 10.3403C21.479 10.4453 21.1499 10.6469 20.882 10.945C20.6144 11.2434 20.4805 11.595 20.4805 12C20.4805 12.3957 20.6144 12.7426 20.882 13.0408C21.1499 13.3389 21.479 13.5453 21.8695 13.6598C22.0529 13.6931 22.2005 13.7718 22.3125 13.8958C22.4245 14.0196 22.4805 14.1732 22.4805 14.3565V17.8305C22.4805 18.5689 22.2234 19.1951 21.7093 19.7093C21.1951 20.2234 20.5689 20.4805 19.8305 20.4805H4.16953ZM12 16.887C12.3117 16.887 12.5751 16.7794 12.7903 16.564C13.0054 16.3489 13.113 16.0902 13.113 15.788C13.113 15.4765 13.0054 15.2131 12.7903 14.9978C12.5751 14.7826 12.3117 14.675 12 14.675C11.6979 14.675 11.4368 14.7826 11.2168 14.9978C10.9969 15.2131 10.887 15.4765 10.887 15.788C10.887 16.0902 10.9969 16.3489 11.2168 16.564C11.4368 16.7794 11.6979 16.887 12 16.887ZM12 13.113C12.3117 13.113 12.5751 13.0031 12.7903 12.7833C13.0054 12.5633 13.113 12.3022 13.113 12C13.113 11.6884 13.0054 11.4249 12.7903 11.2098C12.5751 10.9946 12.3117 10.887 12 10.887C11.6979 10.887 11.4368 10.9946 11.2168 11.2098C10.9969 11.4249 10.887 11.6884 10.887 12C10.887 12.3022 10.9969 12.5633 11.2168 12.7833C11.4368 13.0031 11.6979 13.113 12 13.113ZM12 9.32503C12.3117 9.32503 12.5751 9.21503 12.7903 8.99503C13.0054 8.7752 13.113 8.5142 13.113 8.21203C13.113 7.90036 13.0054 7.63928 12.7903 7.42878C12.5751 7.21828 12.3117 7.11303 12 7.11303C11.6979 7.11303 11.4368 7.21828 11.2168 7.42878C10.9969 7.63928 10.887 7.90036 10.887 8.21203C10.887 8.5142 10.9969 8.7752 11.2168 8.99503C11.4368 9.21503 11.6979 9.32503 12 9.32503Z" fill="currentColor"/>
</svg>
