<svg width="24" height="24" viewBox="0 0 24 24" fill="none" xmlns="http://www.w3.org/2000/svg">
  <path d="M8.83171 19.9783C8.70092 20.0849 8.49928 19.7719 8.38531 19.6301C8.01566 19.1707 7.60253 18.7471 7.23843 18.2833C7.18726 18.2192 7.2048 18.1244 7.27368 18.0809C12.9934 14.4577 13.9082 13.7438 12.2598 13.7486C10.9222 13.7525 7.89667 14.1924 4.38108 14.2317C4.23687 14.2333 4.11557 14.1221 4.10806 13.9755C4.06744 13.1971 3.80371 10.6051 4.28805 10.6053C8.20532 10.6077 9.9097 10.9583 13.3031 10.7152C13.6629 10.5494 13.0977 10.1014 12.9631 9.9922C12.4951 9.61225 11.97 9.30128 11.45 9.00205C10.0197 8.17922 8.51198 7.49967 7.04305 6.75261C6.72905 6.59299 6.41612 6.43118 6.10497 6.26606C5.90333 6.15892 6.15775 5.57331 6.20606 5.43773C6.31878 5.1218 6.45029 4.81358 6.58269 4.50592C6.67144 4.29989 6.76376 3.90086 7.07061 4.02267C11.6517 5.8419 15.7777 7.57177 19.8578 11.5472C20.0052 11.7131 20.0273 11.9633 19.9729 12.1721C19.8991 12.4546 19.6789 12.6814 19.4653 12.8639C18.6438 13.5661 17.7253 14.1695 16.8364 14.7786C15.9252 15.4031 15.0048 16.0142 14.0812 16.6196C13.1943 17.2008 12.3038 17.7762 11.411 18.3477C10.9768 18.6256 10.5474 18.9109 10.1147 19.1914C9.89861 19.3318 9.68176 19.471 9.46312 19.6075C9.26774 19.7297 9.24895 19.7501 8.8378 19.9759C8.83601 19.977 8.83332 19.9764 8.83171 19.9779" fill="currentColor"/>
</svg>
