<svg width="84" height="58" viewBox="0 0 84 58" fill="none" xmlns="http://www.w3.org/2000/svg">
<title>Visa</title>
  <path d="M0 4C0 1.79086 1.79086 0 4 0H80C82.2091 0 84 1.79086 84 4V54C84 56.2091 82.2091 58 80 58H4C1.79086 58 0 56.2091 0 54V4Z" fill="white"/>
<path d="M37.3972 39.1829H31.8047L35.3026 18.8818H40.8948L37.3972 39.1829Z" fill="#1434CB"/>
<path d="M57.6705 19.3785C56.5674 18.9677 54.8178 18.5142 52.6545 18.5142C47.1317 18.5142 43.2426 21.2784 43.2187 25.2305C43.1729 28.1463 46.0032 29.7658 48.1201 30.738C50.2838 31.7315 51.0193 32.3799 51.0193 33.2654C50.9972 34.6255 49.2709 35.2524 47.6608 35.2524C45.428 35.2524 44.2316 34.9292 42.4135 34.1725L41.6771 33.8481L40.8945 38.4053C42.2062 38.9662 44.6228 39.4639 47.1317 39.4857C52.9997 39.4857 56.82 36.7642 56.8653 32.5527C56.8876 30.2417 55.3931 28.4709 52.171 27.0239C50.215 26.095 49.0171 25.4687 49.0171 24.5183C49.04 23.6543 50.0302 22.7693 52.2382 22.7693C54.0563 22.726 55.3921 23.1362 56.4041 23.5466L56.9099 23.7622L57.6705 19.3785Z" fill="#1434CB"/>
<path fill-rule="evenodd" clip-rule="evenodd" d="M67.6811 18.8818H72.0069L76.5187 39.1826H71.3405C71.3405 39.1826 70.8338 36.85 70.6732 36.1373H63.4929C63.2853 36.677 62.3192 39.1826 62.3192 39.1826H56.4512L64.7581 20.5662C65.3337 19.2487 66.3471 18.8818 67.6811 18.8818ZM67.3366 26.3109C67.3366 26.3109 65.5644 30.8247 65.1038 31.9909H69.7522C69.5223 30.9759 68.4632 26.1165 68.4632 26.1165L68.0724 24.3673C67.9078 24.8177 67.6698 25.437 67.5092 25.8547C67.4004 26.1379 67.3272 26.3284 67.3366 26.3109Z" fill="#1434CB"/>
<path d="M16.5713 18.8818C17.7908 18.9246 18.7804 19.2916 19.1025 20.5879L21.0576 29.916L21.0586 29.918L21.6572 32.7256L27.1338 18.8818H33.0479L24.2568 39.1611H18.3438L13.3574 21.5215C11.6378 20.578 9.67558 19.8186 7.48145 19.292L7.57324 18.8818H16.5713Z" fill="#1434CB"/>
</svg>
