<svg xmlns="http://www.w3.org/2000/svg" version="1.1" viewBox="0 0 1785.8 551.6">
  <path d="M228.7,0C206.4,0,188.3,18.1,188.3,40.4v141.3c0,3.7-3,6.7-6.7,6.7s-6.7-3-6.7-6.7V40.4C174.9,18.1,156.8,0,134.5,0s-40.4,18.1-40.4,40.4v141.3c0,3.7-3,6.7-6.7,6.7s-6.7-3-6.7-6.7V40.4C80.7,18.1,62.6,0,40.4,0S0,18.1,0,40.4v188.3C0,251,18.1,269.1,40.4,269.1h188.3c22.3,0,40.4-18.1,40.4-40.4V40.4C269.1,18.1,251,0,228.7,0"></path>
  <path d="M228.7,282.5H6.7C3,282.5,0,285.5,0,289.3v33.6c0,22.3,18.1,40.4,40.4,40.4h141.3c3.7,0,6.7,3,6.7,6.7v74c0,29.7-24.1,53.8-53.8,53.8s-53.8-24.1-53.8-53.8h0c0-22.1,11.6-41.3,27.6-55.5,4.7-4.1,1.9-11.8-4.4-11.8h-63.6C18.1,376.7,0,394.8,0,417.1v94.2c0,22.3,18.1,40.4,40.4,40.4h188.3c22.3,0,40.4-18.1,40.4-40.4v-154.7s0-33.6,0-33.6c0-22.3-18.1-40.4-40.4-40.4"></path>
  <path d="M134.5,484.3c22.3,0,40.4-18.1,40.4-40.4v-60.5c0-3.7-3-6.7-6.7-6.7-26.9,0-74,26.9-74,67.3,0,22.3,18.1,40.4,40.4,40.4"></path>
  <path d="M1084,427.7c0-12.3-12.1-33.9-36.3-33.9s-40.4,20.2-40.4,33.9h76.7ZM1128.7,466.7h-121.4c3.5,23,29.5,36.1,53.1,36.1s23.1-1.7,37.2-6.8c3.7-1.4,7.7.4,9.4,3.8l12,29.8c1.6,3.6,0,7.7-3.7,9.5-19.5,9.4-37.7,12.6-60.3,12.6-73.5,0-103-47.5-103-101.1s35.3-103.9,94.5-103.9,90.8,31.8,90.8,89.2-.3,15.4-1.1,24.2c-.3,3.7-3.6,6.7-7.5,6.7M1195.2,350h-31.3c-4.1,0-7.3,3.3-7.3,7.3v176c0,8.2,6.7,14.9,15,14.9h38.8c4,0,7.3-3.3,7.3-7.3v-93.5c0-26.8,18.4-47,42.7-47s11.1.3,15.1,1.1c3.7.8,7.3-1.4,8.4-5l11.6-37.2c1.2-3.8-1-7.9-4.8-9.1-5.4-1.7-14.4-3.7-26.7-3.7-20.2,0-40.4,10.6-53.8,29.1v-10.7c0-8.3-6.7-15-15-15M1550.3,282.5c-18.4,0-30.7,11.5-30.7,28.7s12.4,28.7,30.7,28.7,30.7-11.5,30.7-28.7-12.3-28.7-30.7-28.7M1527,356.3c-4,0-7.3,3.3-7.3,7.3v169.7c0,8.3,6.7,14.9,15,14.9h38.8c4,0,7.3-3.3,7.3-7.3v-169.6c0-8.3-6.7-15-15-15h-38.8ZM1355.3,449.4h54.6l-27.1-92.6-27.4,92.6ZM1265,531.7l80.8-236.6c1-3,3.8-4.9,6.9-4.9h53.9c6.4,0,12.1,4.1,14.2,10.1l81.7,238.4c1.6,4.7-1.9,9.7-7,9.7h-42.4c-8.3,0-15.7-5.5-18.1-13.5l-12-40.6h-81.1l-14.2,48c-1.1,3.6-4.4,6.1-8.2,6.1h-42.8c-8.6,0-14.7-8.4-11.9-16.6M739.6,463.1s-9-1.8-20.8-1.8c-21.3,0-37.3,11.5-37.3,26.5s14,24.1,33.3,24.1,18-.6,24.7-1.9v-46.9ZM739.6,426.2v-6.5c0-17.9-18.2-25.6-35.2-25.6s-32.4,5.7-43.7,10.6c-3.6,1.6-8.4-.1-9.9-4.3-2.6-7.3-10.1-29.5-10.1-29.5-1.2-3.6.5-7.4,3.9-9,22.9-10.4,46-15.4,70.6-15.4,56.2,0,84.6,23.9,84.6,71.1v109.7c0,6.6-4.8,12.3-12.6,14.7-21.4,6.7-42.2,9.5-69.6,9.5-60,0-93.7-21.3-93.7-61.3s39-64.9,91.9-64.9,23.6.8,23.6.8M1723.5,405.2c-7.5-4.9-13.9-7.8-24.2-7.8-27.4,0-43.1,18.1-43.1,49.7s18.5,53.9,52.1,53.9,9.2-.5,15.2-1.7v-94.2ZM1785.8,305.1v214.9c0,5.1-2.9,9.9-8,13.2-20.2,13.1-40.7,18.5-70.7,18.5-64.3,0-107.6-35.1-107.6-102.1s41.8-103,88-103,26,2.3,35.5,7.6l.5.3v-57c0-4,3.4-7.3,7.5-7.3h39.6c8.4,0,15.2,6.7,15.2,14.9M625.2,290.1h-39.7c-3.5,0-6.6,2.3-7.4,5.7l-37.9,161.9-41-156.3c-1.7-6.6-7.9-11.2-15-11.2h-42c-3.5,0-6.5,2.2-7.3,5.5l-42.5,160.3-36.7-154.2c-1.6-6.8-7.8-11.6-15.1-11.6h-43.2c-4.9,0-8.4,4.6-7.2,9.3l62,237.6c1.7,6.6,7.9,11.3,15,11.3h52.2c3.5,0,6.5-2.2,7.3-5.5l39.3-148.7,38.2,143c1.7,6.6,7.9,11.2,15,11.2h52.4c3.4,0,6.5-2.3,7.3-5.5l60.8-233.9c2.5-9.5-4.7-18.7-14.5-18.7M886.6,327.1v23h43.7c4.1,0,7.3,3.3,7.3,7.3v27.6c0,8.2-6.7,15-15,15h-36v73.7c0,19,5.7,25.7,21.6,25.7s14.4-2,20.7-6c3.6-2.2,7.9-1.1,9.6,2.8,3.1,7.4,12.2,29.8,12.2,29.8,1.5,3.5.6,6.6-2.7,9.1-13.4,10-36.9,16.5-59.8,16.5-42.2,0-62.8-22.1-62.8-67.6v-164.6c0-4,3.3-7.3,7.3-7.3h38.8c8.3,0,15,6.7,15,14.9"></path>
</svg>
