<svg width="204" height="64" viewBox="0 0 204 64" fill="none" xmlns="http://www.w3.org/2000/svg">
<path d="M26.1273 0C23.5809 0 21.5167 2.06427 21.5167 4.61061V20.7477C21.5167 21.1715 21.1728 21.5165 20.7478 21.5165C20.3229 21.5165 19.979 21.1715 19.979 20.7477V4.61061C19.979 2.06427 17.9147 0 15.3684 0C12.822 0 10.7578 2.06427 10.7578 4.61061V20.7477C10.7578 21.1715 10.4139 21.5165 9.98894 21.5165C9.56398 21.5165 9.22012 21.1715 9.22012 20.7477V4.61061C9.22012 2.06427 7.15585 0 4.60949 0C2.06313 0 0 2.06427 0 4.61175V26.1283C0 28.6746 2.06427 30.7389 4.61063 30.7389H26.1273C28.6736 30.7389 30.7379 28.6746 30.7379 26.1283V4.61175C30.7379 2.06541 28.6736 0.00114349 26.1273 0.00114349" fill="white"/>
<path d="M26.1273 32.2749H0.767677C0.343855 32.2749 0 32.6188 0 33.0437V36.8855C0 39.4307 2.06427 41.495 4.61063 41.495H20.7478C21.1728 41.495 21.5167 41.84 21.5167 42.2638V50.7173C21.5167 54.1124 18.7647 56.8644 15.3695 56.8644C11.9744 56.8644 9.2224 54.1124 9.2224 50.7173C9.2224 48.1915 10.5521 45.997 12.3788 44.3817C12.9123 43.9099 12.5901 43.0326 11.8773 43.0326H4.61063C2.06427 43.0326 0 45.0969 0 47.6432V58.4009C0 60.9472 2.06427 63.0115 4.60949 63.0115H26.125C28.6714 63.0115 30.7356 60.9472 30.7356 58.4009V40.7262V36.8855C30.7356 34.3392 28.6714 32.2749 26.125 32.2749" fill="white"/>
<path d="M15.3686 55.3277C17.915 55.3277 19.9781 53.2634 19.9781 50.7182V43.8035C19.9781 43.3785 19.6342 43.0347 19.2093 43.0347C16.1363 43.0347 10.7568 46.1076 10.7568 50.7182C10.7568 53.2646 12.8211 55.3277 15.3675 55.3277" fill="white"/>
<path d="M123.831 48.8587C123.831 47.4524 122.445 44.9906 119.689 44.9906C116.932 44.9906 115.071 47.3028 115.071 48.8587H123.831ZM128.94 53.3162H115.067C115.467 55.9425 118.44 57.4402 121.137 57.4402C122.819 57.4402 123.772 57.2425 125.385 56.6599C125.809 56.5046 126.269 56.701 126.456 57.0917L127.829 60.496C128.007 60.9038 127.826 61.3779 127.412 61.5778C125.179 62.6517 123.108 63.0138 120.526 63.0138C112.131 63.0138 108.76 57.5932 108.76 51.4633C108.76 44.0287 112.792 39.5906 119.551 39.5906C125.542 39.5906 129.922 43.2268 129.922 49.7851C129.922 50.6933 129.883 51.549 129.798 52.5543C129.763 52.9804 129.386 53.3173 128.94 53.3173M136.531 39.9882H132.955C132.491 39.9882 132.116 40.3652 132.116 40.8232V60.9244C132.116 61.8657 132.884 62.6322 133.829 62.6322H138.264C138.727 62.6322 139.101 62.2598 139.101 61.7972V51.1206C139.101 48.0545 141.2 45.7469 143.983 45.7469C144.795 45.7469 145.247 45.7811 145.708 45.8771C146.126 45.9651 146.539 45.7195 146.667 45.3048L147.991 41.0529C148.126 40.6142 147.882 40.147 147.443 40.0122C146.828 39.818 145.794 39.5906 144.392 39.5906C142.087 39.5906 139.773 40.805 138.243 42.9172V41.6995C138.243 40.7559 137.476 39.9905 136.53 39.9905M177.098 32.2749C174.997 32.2749 173.585 33.5932 173.585 35.5546C173.585 37.5161 174.997 38.8367 177.098 38.8367C179.199 38.8367 180.608 37.5184 180.608 35.5546C180.608 33.5909 179.199 32.2749 177.098 32.2749ZM174.442 40.7079C173.981 40.7079 173.607 41.0837 173.607 41.5429V60.9244C173.607 61.868 174.373 62.6322 175.318 62.6322H179.754C180.214 62.6322 180.589 62.2598 180.589 61.7972V42.4169C180.589 41.4733 179.821 40.7079 178.88 40.7079H174.443H174.442ZM154.828 51.3376H161.065L157.964 40.757L154.828 51.3376ZM144.51 60.7382L153.74 33.7086C153.855 33.3704 154.174 33.1465 154.53 33.1465H160.693C161.424 33.1465 162.077 33.6092 162.313 34.298L171.645 61.5276C171.834 62.0691 171.425 62.6334 170.851 62.6334H166.011C165.058 62.6334 164.214 62.0074 163.946 61.0923L162.578 56.4554H153.316L151.694 61.9354C151.569 62.3466 151.189 62.6322 150.759 62.6322H145.871C144.89 62.6322 144.196 61.6681 144.513 60.737M84.49 52.905C84.49 52.905 83.4653 52.7028 82.1184 52.7028C79.6908 52.7028 77.8585 54.0176 77.8585 55.7323C77.8585 57.3156 79.4601 58.4809 81.666 58.4809C82.3651 58.4809 83.7177 58.418 84.49 58.2627V52.905ZM84.49 48.6896V47.9436C84.49 45.8942 82.4074 45.0226 80.4745 45.0226C78.5416 45.0226 76.7755 45.6783 75.4812 46.2392C75.0676 46.4209 74.5204 46.2232 74.3548 45.7457C74.0601 44.9061 73.2021 42.378 73.2021 42.378C73.0616 41.9702 73.2547 41.5292 73.6522 41.3476C76.266 40.1641 78.9072 39.5895 81.7163 39.5895C88.1319 39.5895 91.3808 42.322 91.3808 47.7117V60.2435C91.3808 61.0009 90.8302 61.6475 89.9459 61.924C87.5013 62.6882 85.124 63.0138 81.9984 63.0138C75.143 63.0138 71.2989 60.5851 71.2989 56.0122C71.2989 51.4393 75.7519 48.6005 81.7928 48.6005C82.404 48.6005 84.4911 48.6896 84.4911 48.6896M196.886 46.2941C196.035 45.7377 195.295 45.4064 194.117 45.4064C190.985 45.4064 189.191 47.4764 189.191 51.0886C189.191 55.0606 191.306 57.2494 195.149 57.2494C195.507 57.2494 196.2 57.1945 196.886 57.0597V46.2941ZM204 34.8532V59.3993C204 59.9797 203.667 60.528 203.087 60.9027C200.783 62.4049 198.442 63.0138 195.009 63.0138C187.663 63.0138 182.718 59.0029 182.718 51.3502C182.718 43.6975 187.498 39.5849 192.775 39.5849C194.535 39.5849 195.749 39.8431 196.83 40.452L196.885 40.4851V33.9782C196.885 33.5178 197.269 33.1454 197.736 33.1454H202.259C203.216 33.1454 203.999 33.9108 203.999 34.8532M71.4189 33.1454H66.8814C66.477 33.1454 66.1297 33.4127 66.0406 33.7931L61.7087 52.2847L57.0227 34.4283C56.8239 33.672 56.119 33.1442 55.3137 33.1442H50.5157C50.1204 33.1442 49.7766 33.4013 49.676 33.7703L44.8209 52.0859L40.6296 34.4682C40.4422 33.6903 39.7328 33.1454 38.908 33.1454H33.9695C33.4132 33.1454 33.0076 33.6709 33.1481 34.2067L40.2252 61.3471C40.4251 62.1045 41.1299 62.6322 41.9387 62.6322H47.8974C48.2949 62.6322 48.6365 62.3752 48.737 62.0062L53.2277 45.0135L57.5939 61.3528C57.7926 62.1067 58.4963 62.6322 59.3028 62.6322H65.2866C65.6796 62.6322 66.0257 62.3729 66.1217 62.0051L73.0731 35.2805C73.3541 34.2009 72.5373 33.1454 71.4166 33.1454M101.281 37.3642V39.9882H106.274C106.737 39.9882 107.114 40.3629 107.114 40.8255V43.9808C107.114 44.9221 106.344 45.6898 105.399 45.6898H101.282V54.1113C101.282 56.2795 101.929 57.0472 103.753 57.0472C104.659 57.0472 105.395 56.821 106.12 56.364C106.528 56.1082 107.024 56.2338 107.212 56.6805C107.571 57.5304 108.608 60.0893 108.608 60.0893C108.778 60.4891 108.673 60.8444 108.299 61.1266C106.77 62.2735 104.089 63.0127 101.469 63.0127C96.6448 63.0127 94.2995 60.4891 94.2995 55.2937V36.4914C94.2995 36.031 94.672 35.6563 95.1346 35.6563H99.5693C100.514 35.6563 101.281 36.424 101.281 37.363" fill="white"/>
</svg>
