<svg viewBox="0 0 300 60" fill="none" xmlns="http://www.w3.org/2000/svg" preserveAspectRatio="none">
<path d="M299.695 57.84C299.685 58.695 298.975 59.385 298.1 59.39C293.12 59.415 292.595 59.555 286.655 59.555C280.141 59.555 280.141 59.36 273.631 59.36C267.116 59.36 267.116 59.995 260.601 59.995C254.087 59.995 254.087 59.32 247.572 59.32C241.057 59.32 241.057 59.79 234.542 59.79C228.027 59.79 228.027 60 221.518 60C215.003 60 215.003 59.865 208.493 59.865C204.15 59.865 199.807 59.86 195.463 59.85C188.949 59.85 188.949 59.365 182.434 59.365C175.919 59.365 175.919 59.51 169.404 59.51C162.89 59.51 162.89 59.93 156.375 59.93C149.86 59.93 149.86 59.315 143.345 59.315C136.83 59.315 136.83 59.26 130.316 59.26C123.801 59.26 123.801 59.53 117.286 59.53C110.771 59.53 110.771 59.83 104.257 59.83C97.7417 59.83 97.7417 59.475 91.227 59.475C84.7122 59.475 84.7122 59.595 78.2024 59.595C71.6876 59.595 71.6876 59.155 65.1728 59.155C58.658 59.155 58.658 59.195 52.1433 59.195C45.6285 59.195 45.6285 59.745 39.1137 59.745C32.5989 59.745 32.5989 59.35 26.0841 59.35C21.7409 59.35 17.3978 59.3467 13.0546 59.34C7.12976 59.34 6.59478 59.375 1.63995 59.38C0.749975 59.38 0.029999 58.67 0.0399987 57.795C0.0749975 55.06 0.159995 49.47 0.159995 45.195C0.159995 39.625 0.219993 39.625 0.219993 34.055C0.219993 28.485 0 28.485 0 22.915C0 17.345 0.139995 17.345 0.139995 11.775C0.139995 6.79 0.0499983 6.265 0.029999 2.215C0.029999 1.35 0.744975 0.64 1.62995 0.64C10.7546 0.635 11.2896 0.565 21.4293 0.565C32.1439 0.575 32.1439 0.04 42.8436 0.04C53.5432 0.04 53.5432 0.03 64.2479 0.03C74.9525 0.03 74.9475 0.16 85.6521 0.16C96.3568 0.16 96.3518 0.33 107.056 0.33C117.761 0.33 117.756 0.15 128.461 0.15C139.165 0.15 139.16 0 149.86 0C160.56 0 160.56 0.69 171.259 0.74C181.919 0.785 181.979 0.92 192.664 1.025C203.348 1.13 203.368 1.3 214.068 1.3C224.767 1.3 224.772 0.735 235.472 0.735C246.172 0.735 246.177 1.01 256.876 1.01C267.576 1.01 267.581 0.4 278.281 0.4C288.42 0.4 288.955 0.62 298.09 0.645C298.975 0.645 299.69 1.355 299.685 2.22C299.66 6.41 299.535 7.49 299.535 12.49C299.535 18.06 299.985 18.06 299.985 23.625C299.985 27.3383 299.99 31.05 300 34.76C300 40.33 299.86 40.33 299.86 45.895C299.86 46.705 299.73 54.445 299.695 57.835V57.84Z" fill="#006BD9"/>
</svg>
