<svg width="48" height="48" viewBox="0 0 48 48" fill="none" xmlns="http://www.w3.org/2000/svg">
  <path d="M22.1484 1.57617C29.1662 1.01804 34.1168 3.55626 39.5361 8.35352C42.4581 10.9404 44.5869 14.3886 45.6865 18.166L45.8926 18.9258C46.1413 19.9146 46.3088 20.9021 46.4033 21.8877V21.8887C46.8415 26.4491 45.7458 31.4533 43.8711 35.75C41.2942 41.6553 36.3395 44.9361 30.6387 46.0586C24.8994 47.1886 18.4534 46.1094 13.1611 43.2871C12.5427 42.9573 11.9391 42.6006 11.3545 42.2188C5.32581 38.2779 1.79921 31.6156 1.52051 24.4258C1.38241 20.8636 1.95029 16.8821 3.34766 13.3291C4.74558 9.7747 6.93347 6.74218 9.97168 4.91016C13.2916 2.9088 17.2866 2.03145 21.3379 1.64648L22.1484 1.57617Z" fill="#151435" stroke="white" stroke-width="3"/>
</svg>
