<svg width="160" height="300" viewBox="0 0 160 300" fill="none" xmlns="http://www.w3.org/2000/svg">
  <path d="M2.28554 299.46C1.4206 299.44 0.725649 298.735 0.72065 297.875C0.685652 292.945 0.375673 292.77 0.395671 286.825C0.42067 280.306 0.0556943 280.306 0.0806926 273.786C0.105691 267.266 0.450668 267.266 0.475666 260.746C0.500664 254.227 0.0856923 254.232 0.110691 247.712C0.135689 241.192 0.580659 241.187 0.605657 234.672C0.630656 228.152 -0.0243003 228.157 0.000697981 221.638C0.0256963 215.118 0.395671 215.113 0.42067 208.593C0.445668 202.073 0.815643 202.068 0.840642 195.549C0.86564 189.029 0.955634 189.029 0.975633 182.509C0.995631 175.989 1.16562 175.989 1.19062 169.469C1.21562 162.95 0.970633 162.95 0.995631 156.43C1.02063 149.91 0.330676 149.915 0.355674 143.395C0.380672 136.875 0.925636 136.87 0.945635 130.351C0.970633 123.831 0.825643 123.831 0.850641 117.311C0.875639 110.791 0.41067 110.796 0.435669 104.277C0.460667 97.7567 1.22062 97.7517 1.24561 91.232C1.27061 84.7122 0.705651 84.7172 0.730649 78.1924C0.755647 71.6726 0.57066 71.6726 0.595658 65.1528C0.620656 58.633 1.56059 58.6281 1.58559 52.1033C1.61059 45.5835 1.25561 45.5835 1.28061 39.0637C1.30561 32.5439 0.910637 32.5439 0.935635 26.0241C0.960634 19.4994 0.875639 19.5044 0.900638 12.9796C0.920636 7.04477 0.745648 6.99977 0.730649 2.12493C0.730649 1.24996 1.4306 0.529982 2.31054 0.514983C5.46533 0.464985 5.9853 0.259991 10.045 0.259991C14.6997 0.259991 14.6997 0.269991 19.3544 0.269991C24.0091 0.269991 24.0091 0.794974 28.6638 0.794974C33.3185 0.794974 33.3185 0.629979 37.9781 0.629979C42.6328 0.629979 42.6328 0.974968 47.2875 0.974968C51.9422 0.974968 51.9422 0.819973 56.5969 0.819973C61.2516 0.819973 61.2516 0 65.9063 0C70.561 0 70.561 0.154995 75.2156 0.154995C79.8703 0.154995 79.8703 0.544982 84.525 0.544982C89.1797 0.544982 89.1797 0.584981 93.8394 0.584981C98.4941 0.584981 98.4941 0.994967 103.149 0.994967C107.803 0.994967 107.803 0.944969 112.458 0.944969C117.113 0.944969 117.113 0.444985 121.768 0.444985C126.422 0.444985 126.422 0.204993 131.082 0.204993C135.737 0.204993 135.737 0.679977 140.396 0.679977C145.051 0.679977 145.051 0.779974 149.711 0.779974C153.755 0.779974 154.285 0.779974 157.415 0.779974C158.305 0.779974 159.025 1.50495 159.02 2.39492C158.98 7.56975 158.805 7.75474 158.795 13.9745C158.78 20.7843 158.82 20.7843 158.81 27.5941C158.795 34.4039 159.19 34.4039 159.18 41.2136C159.165 48.0234 158.705 48.0234 158.695 54.8332C158.68 61.643 160.01 61.6429 160 68.4477C159.985 75.2575 159.085 75.2575 159.07 82.0673C159.055 88.877 159.575 88.877 159.56 95.6868C159.545 102.497 158.75 102.497 158.735 109.306C158.72 116.116 158.765 116.116 158.755 122.926C158.74 129.736 159.31 129.736 159.295 136.545C159.28 143.355 158.99 143.355 158.975 150.165C158.96 156.975 159.24 156.975 159.225 163.785C159.21 170.594 158.45 170.594 158.435 177.404C158.42 184.214 158.5 184.214 158.485 191.024C158.47 197.833 159.275 197.833 159.265 204.643C159.255 211.453 158.57 211.453 158.56 218.263C158.545 225.073 158.43 225.073 158.415 231.882C158.4 238.692 158.955 238.692 158.945 245.502C158.93 252.312 159.5 252.312 159.49 259.121C159.475 265.931 158.6 265.931 158.59 272.746C158.575 279.556 159.215 279.556 159.205 286.37C159.195 292.605 159.07 293.135 159.04 298.395C159.035 299.28 158.315 299.995 157.43 299.99C154.3 299.975 153.77 299.91 149.726 299.91C145.071 299.91 145.071 299.77 140.416 299.77C135.762 299.77 135.762 299.955 131.107 299.955C126.452 299.955 126.452 299.36 121.793 299.36C117.138 299.36 117.138 299.01 112.483 299.01C107.828 299.01 107.828 299.165 103.174 299.165C98.5191 299.165 98.5191 299.335 93.8644 299.335C90.7613 299.335 87.6581 299.335 84.555 299.335C79.9003 299.335 79.9003 299.52 75.2456 299.52C70.591 299.52 70.591 299.345 65.9313 299.345C61.2716 299.345 61.2766 299.815 56.6219 299.815C51.9672 299.815 51.9672 300 47.3125 300C42.6578 300 42.6578 299.72 38.0031 299.72C33.3485 299.72 33.3485 299.2 28.6888 299.2C24.0341 299.2 24.0341 299.84 19.3744 299.84C14.7197 299.84 14.7197 299.865 10.06 299.865C5.9903 299.865 5.48033 299.56 2.31054 299.48L2.28554 299.46Z" fill="currentColor"/>
</svg>

