<svg width="240" height="240" viewBox="0 0 240 240" fill="none" xmlns="http://www.w3.org/2000/svg">
  <path d="M119.954 58.6422C118.185 58.7289 116.469 58.9911 114.736 59.2066C113.002 59.4222 111.178 59.2222 109.465 59.5666C107.731 59.9155 105.967 60.1466 104.28 60.6177C104.276 60.6177 104.118 60.8044 104.118 60.8089C103.798 62.2089 103.838 62.2177 103.518 63.6177C103.131 65.3066 102.702 66.96 102.151 68.5822C101.596 70.22 101.396 72.0066 100.678 73.5666C99.9558 75.1333 98.778 76.4755 97.898 77.9555C97.018 79.4355 95.898 80.7333 94.8647 82.1155C93.8381 83.4911 92.6669 84.7111 91.4936 85.9822C90.3314 87.2422 89.5114 88.8466 88.2114 89.9933C86.9114 91.14 85.578 92.26 84.1847 93.2555C82.778 94.2622 81.1869 94.9844 79.6936 95.8333C78.1936 96.6844 76.6892 97.5266 75.1114 98.2155C73.5336 98.9044 71.9536 99.6244 70.3092 100.147C68.6714 100.664 67.0336 101.322 65.3403 101.671C63.6625 102.016 61.8625 101.693 60.138 101.867C59.9158 101.889 59.9136 101.876 59.6914 101.898C58.6714 102 57.4203 102.753 57.0603 103.713C56.4669 105.289 56.0025 106.944 55.5203 108.571C55.0425 110.184 54.638 111.849 54.2758 113.509C53.9158 115.151 54.2247 116.924 53.9825 118.607C53.7425 120.269 52.8803 121.878 52.758 123.576C52.638 125.249 52.818 126.964 52.818 128.669C52.818 130.422 52.7936 132.176 52.918 133.896C53.0447 135.642 53.1692 137.396 53.4203 139.104C53.6736 140.836 54.4092 142.473 54.7847 144.16C55.1647 145.864 55.2314 147.649 55.7314 149.304C56.2358 150.976 57.0847 152.531 57.7069 154.147C58.3336 155.773 59.2758 157.247 60.018 158.813C60.7647 160.389 61.1247 162.153 61.9825 163.66C62.8425 165.173 63.9403 166.544 64.9069 167.987C65.8758 169.431 66.8336 170.884 67.9047 172.251C68.978 173.62 70.4358 174.647 71.6047 175.931C72.7758 177.216 73.7692 178.649 75.0314 179.844C76.2936 181.04 77.7025 182.044 79.0514 183.144C80.4003 184.244 81.818 185.204 83.2447 186.202C84.6669 187.196 85.9269 188.422 87.4247 189.311C88.9158 190.196 90.3336 191.24 91.8936 192.016C93.4447 192.787 94.9825 193.66 96.598 194.318C98.2136 194.976 99.8536 195.598 101.514 196.136C103.16 196.667 104.885 197.047 106.582 197.458C108.262 197.864 110.082 197.629 111.809 197.913C113.514 198.196 115.16 199.002 116.905 199.16C118.622 199.316 120.385 199.038 122.138 199.069C123.889 199.1 125.616 199.044 127.336 198.951C129.082 198.856 130.825 198.871 132.536 198.649C134.269 198.424 136.04 198.411 137.731 198.062C139.44 197.711 141.109 197.14 142.771 196.667C144.449 196.189 146.091 195.591 147.714 194.996C149.349 194.396 150.845 193.469 152.42 192.753C154.005 192.033 155.707 191.556 157.227 190.727C158.754 189.893 160.216 188.938 161.671 187.996C163.127 187.053 164.58 186.08 165.965 185.033C167.351 183.984 168.669 182.842 169.971 181.698C171.276 180.551 172.522 179.336 173.738 178.096C174.954 176.858 176.2 175.633 177.322 174.309C178.445 172.984 179.18 171.362 180.202 169.956C181.222 168.553 182.411 167.273 183.329 165.796C184.242 164.322 184.889 162.704 185.696 161.162C186.498 159.627 187.156 158.042 187.845 156.442C188.534 154.842 189.714 153.453 190.283 151.807C190.847 150.173 191.367 148.496 191.811 146.809C192.251 145.138 192.2 143.344 192.52 141.629C192.836 139.933 193.051 138.224 193.243 136.487C193.431 134.773 193.918 133.071 193.982 131.322C194.047 129.54 193.871 127.767 193.805 126.013C193.736 124.233 193.82 122.447 193.62 120.702C193.42 118.958 193.356 117.131 193.025 115.404C192.689 113.658 191.691 112.067 191.229 110.369C190.762 108.656 190.131 107.02 189.54 105.362C188.945 103.691 188.527 101.969 187.811 100.358C187.091 98.7377 186.378 97.12 185.542 95.5666C184.705 94.0066 184.047 92.3289 183.098 90.84C182.145 89.3466 180.909 88.0377 179.851 86.6244C178.791 85.2066 177.625 83.8777 176.463 82.5466C175.3 81.2133 173.969 80.0511 172.711 78.8089C171.454 77.5666 170.249 76.28 168.902 75.1333C167.556 73.9889 166.467 72.4933 165.038 71.4511C163.611 70.4089 161.998 69.6 160.494 68.6666C158.994 67.7355 157.245 67.24 155.674 66.42C154.109 65.6044 152.751 64.3377 151.122 63.6377C149.502 62.9422 147.625 62.9044 145.945 62.3311C144.278 61.7622 142.72 60.8333 141 60.3889C139.296 59.9466 137.5 59.9066 135.751 59.5933C134.02 59.2822 132.291 59.0177 130.52 58.8377C128.774 58.66 127.042 57.8889 125.262 57.8444C123.509 57.8 121.745 58.5577 119.963 58.6444L119.954 58.6422ZM132.178 111.009C133.169 108.713 133.018 108.844 135.027 106.762C136.045 105.707 137.698 104.976 139.347 104.118C140.696 103.416 142.282 103.056 144.1 102.791C145.594 102.573 147.189 102.531 149.025 102.773C150.962 103.029 152.782 103.502 154.511 104.287C156.24 105.071 157.871 106.093 159.274 107.407C160.66 108.704 162.231 109.991 163.12 111.749C163.638 112.916 163.309 114.351 162.887 115.556C162.467 116.762 161.547 117.524 160.416 118.118C159.722 118.496 159.087 118.529 158.296 118.513C157.367 118.509 156.374 118.802 155.582 118.313C154.791 117.824 154.054 117.087 153.636 116.256C152.549 114.071 150.591 112.469 148.16 112.242C145.731 112.018 143.989 112.618 142.518 114.564C142.518 114.564 142.085 115.442 141.554 116.258L140.783 117.187C139.645 118.302 137.82 118.329 136.247 118.08C134.674 117.831 133.482 116.962 132.745 115.549C132.007 114.138 132.174 111.004 132.174 111.004L132.178 111.009ZM98.6958 112.869C96.2669 113.096 94.4869 114.436 93.4003 116.618C92.9825 117.449 91.9247 117.907 91.1336 118.396C90.3425 118.884 89.458 118.947 88.5292 118.951C87.738 118.964 87.0647 118.816 86.3692 118.438C85.1758 117.844 84.3358 116.942 83.9114 115.676C83.4869 114.411 83.538 113.153 84.1336 111.958C84.958 110.231 85.4869 108.429 86.5492 107.131C87.7158 105.707 89.3558 104.847 90.9403 104.018C92.418 103.244 94.098 102.967 96.0514 102.78C96.9136 102.689 96.9203 102.784 97.7825 102.7C99.7603 102.533 101.714 102.147 103.576 102.64C105.465 103.14 107.327 103.944 108.938 105.049C110.527 106.138 111.789 107.696 112.951 109.302C113.629 110.236 113.689 110.191 114.376 111.118C115.454 112.556 115.798 114.538 115.091 116.191C114.385 117.844 112.758 119.307 110.971 119.522C109.187 119.738 107.554 118.482 106.476 117.044C105.791 116.118 105.814 116.098 105.127 115.173C103.656 113.227 101.125 112.64 98.6958 112.864V112.869ZM169.536 165.036C168.749 166.378 167.102 167.547 165.109 168.124C163.629 168.553 161.751 168.324 159.802 168.42C158.171 168.5 156.422 168.287 154.571 168.18C152.887 168.082 151.147 167.936 149.356 167.718C147.645 167.511 145.905 167.298 144.162 167.009C142.42 166.72 140.696 166.442 138.994 166.104C137.236 165.756 135.409 165.853 133.756 165.482C131.956 165.076 130.331 164.256 128.74 163.86C126.838 163.387 125.176 162.731 123.716 162.336C120.6 161.491 118.662 160.776 118.662 160.776C118.658 160.776 115.958 164.98 114.138 166.347C113.211 167.033 113.231 167.06 112.305 167.744C111.434 168.398 110.256 168.542 109.167 168.542C107.582 168.542 106.067 167.864 105.116 166.596C104.316 165.527 103.847 164.147 104.036 162.824C104.225 161.502 104.462 160.578 105.894 159.258C106.74 158.476 107.214 159.036 108.14 158.349C110.085 156.891 111.236 154.329 111.011 151.909C110.922 150.711 110.629 149.34 109.949 148.349C109.269 147.358 108.136 146.504 107.049 145.993C105.851 145.389 105.087 144.536 104.671 143.26C104.256 141.984 103.796 140.547 104.407 139.353C105.011 138.167 106.454 137.764 107.718 137.349C108.982 136.933 110.187 136.8 111.376 137.396C113.109 138.249 114.547 139.32 115.836 140.527C117.2 141.804 118.189 143.242 118.98 144.909C119.771 146.576 120.607 148.142 120.769 150.087C120.769 150.087 122.722 150.773 125.998 151.438C127.582 151.76 129.487 151.844 131.482 152.249C133.205 152.6 135.096 152.693 136.965 153.073C138.762 153.438 140.496 154.296 142.294 154.66C144.162 155.04 146.038 155.204 147.76 155.556C149.756 155.96 151.587 156.413 153.169 156.736C156.445 157.402 155.967 156.86 158.682 157.396C159.529 157.549 160.227 157.631 160.874 157.062C161.72 156.258 161.807 155.233 161.402 154.138C160.996 153.042 160.265 152.584 159.098 152.524C156.58 152.5 156.585 152.176 154.069 152.176C152.271 152.176 150.776 151.073 149.876 149.513C148.978 147.956 149.118 146.311 150.018 144.753C150.918 143.196 152.271 142.438 154.069 142.438C156.587 142.438 156.587 142.336 159.103 142.336C160.82 142.336 162.625 142.104 164.182 142.749C165.74 143.393 166.858 144.827 168.076 146.04C169.298 147.258 170.489 148.462 171.116 150.024C171.736 151.576 172.111 153.28 172.214 154.989C172.327 156.869 171.9 158.547 171.405 160.129C170.887 161.782 170.436 163.502 169.54 165.029L169.536 165.036Z" fill="currentColor"/>
  <path d="M94.8133 59.9178C95.9111 60.3778 96.2355 61.8667 95.9111 63.0111C95.38 64.8867 95.0622 66.8489 94.2733 68.6178C93.4822 70.3934 92.4889 72.1022 91.4555 73.7445C90.4222 75.3867 89.1555 76.8889 87.8955 78.3711C86.6422 79.8445 85.5244 81.52 84.0622 82.8111C82.6689 84.04 81.1511 85.1978 79.6155 86.22C78.0711 87.2467 76.2489 87.8534 74.5866 88.6578C72.9222 89.4645 71.2644 90.36 69.5044 90.9334C67.7489 91.5045 65.92 91.9622 64.0933 92.2911C62.3177 92.6111 60.7466 91.2134 60.2711 89.4711C59.5533 86.84 59.3644 86.8911 58.6466 84.2622C58.1681 82.5082 57.6881 80.7548 57.2066 79.0022C56.7252 77.2497 56.2444 75.4963 55.7644 73.7422C55.0466 71.1111 55.2355 71.06 54.5155 68.4289C53.7977 65.7978 53.4111 65.9022 52.6911 63.2711C51.9733 60.64 51.92 60.6556 51.2 58.0245C50.4822 55.3933 51.1533 55.2089 50.4333 52.5778C49.7155 49.9467 49.0422 50.1289 48.3244 47.4978C47.6066 44.8667 47.44 44.9111 46.72 42.28C46.4866 41.4289 47.8422 40.3422 48.6577 40.6756C49.3777 40.9711 51.1133 41.9978 53.68 43.0711C55.1711 43.6934 56.9155 44.3934 58.8155 45.1889C60.42 45.8622 62.1911 46.4756 63.9844 47.2267C65.6444 47.9222 67.1777 49.0889 68.92 49.82C70.6177 50.5311 72.3333 51.2622 74.0422 51.9778C75.7511 52.6934 77.6555 53.0445 79.3266 53.7467C81.1044 54.4934 82.8955 55.0489 84.52 55.7311C86.3755 56.5111 87.9933 57.5022 89.5311 58.1467C91.6644 59.0422 93.5889 59.4022 94.8133 59.9156V59.9178Z" fill="currentColor"/>
</svg>
