<svg width="240" height="240" viewBox="0 0 240 240" fill="none" xmlns="http://www.w3.org/2000/svg">
  <path d="M186.606 114.284C185.733 112.771 183.784 112.322 182.273 113.196C179.94 114.544 179.835 114.362 177.502 115.711C175.169 117.058 175.324 117.329 172.991 118.678C170.658 120.024 170.52 119.787 168.186 121.136C165.853 122.482 165.829 122.442 163.495 123.789C161.982 124.662 161.295 126.884 162.169 128.4C163.409 130.549 163.426 130.54 164.669 132.689C165.911 134.838 166.358 134.58 167.598 136.731C168.84 138.882 168.42 139.122 169.662 141.273C170.904 143.424 171.224 143.238 172.464 145.389C173.533 147.24 174.111 149.071 174.102 150.624C174.089 152.987 173.093 154.973 172.551 155.911C172.009 156.849 170.495 158.207 168.458 159.4C167.118 160.184 165.533 160.849 163.395 160.849C160.731 160.849 160.731 160.671 158.064 160.671C156.286 160.671 154.509 160.67 152.733 160.667C150.066 160.667 150.066 161.224 147.402 161.224C146.698 161.224 146.311 160.389 146.331 159.684C146.386 157.582 146.238 157.58 146.293 155.478C146.349 153.376 146.273 153.376 146.329 151.273C146.4 148.56 143.115 146.82 141.024 148.551C139.018 150.213 139.064 150.269 137.058 151.931C135.051 153.593 135.089 153.64 133.082 155.302C131.075 156.964 130.958 156.822 128.951 158.484C126.944 160.147 127.266 160.536 125.26 162.198C123.253 163.86 123.038 163.6 121.031 165.262C119.024 166.924 118.929 166.811 116.922 168.476C114.915 170.14 115.151 170.424 113.144 172.089C111.671 173.311 111.7 175.347 113.106 176.647C115.022 178.413 114.931 178.511 116.846 180.278C118.762 182.044 118.509 182.32 120.424 184.087C121.701 185.264 122.978 186.442 124.255 187.618C126.171 189.384 126.34 189.202 128.255 190.969C129.532 192.147 130.809 193.325 132.084 194.504C134 196.271 133.944 196.333 135.86 198.1C137.775 199.867 137.824 199.816 139.74 201.582C141.735 203.424 144.826 202 144.898 199.282C144.962 196.884 145.051 196.887 145.113 194.489C145.178 192.091 145.042 192.087 145.104 189.689C145.118 189.216 145.746 188.544 146.22 188.544C149.082 188.544 149.082 188.973 151.944 188.973C154.806 188.973 154.806 189.064 157.669 189.064C160.531 189.064 160.531 188.669 163.393 188.669C165.102 188.669 166.831 189.064 168.486 188.851C170.175 188.633 171.755 187.842 173.375 187.411C175.015 186.973 176.729 186.751 178.282 186.104C179.844 185.453 181.229 184.427 182.684 183.573C184.14 182.72 185.513 181.762 186.844 180.718C188.166 179.68 189.344 178.498 190.529 177.28C191.713 176.062 192.711 174.767 193.729 173.4C194.726 172.06 195.92 170.842 196.758 169.351C197.586 167.876 198.08 166.262 198.691 164.713C199.311 163.144 199.702 161.542 200.1 159.92C200.5 158.287 201.342 156.733 201.522 155.067C201.702 153.4 201.813 151.687 201.775 150.009C201.74 148.333 201.053 146.704 200.804 145.042C200.555 143.387 200.311 141.749 199.853 140.127C199.4 138.518 199.284 136.767 198.629 135.213C197.98 133.676 196.978 132.273 196.135 130.811M69.2109 142.533C70.9064 139.844 70.822 139.791 72.5176 137.102C74.2131 134.413 74.3887 134.524 76.0842 131.836C76.4598 131.24 77.1953 130.84 77.7953 131.209C79.6198 132.329 79.4753 132.562 81.2998 133.682C83.1242 134.802 83.0976 134.842 84.922 135.962C87.2376 137.382 90.5198 135.224 90.0642 132.547C89.6287 129.978 89.6087 129.982 89.1709 127.413C88.7353 124.844 88.2264 124.931 87.7887 122.362C87.3531 119.793 87.8287 119.711 87.3931 117.142C86.9576 114.573 86.5931 114.636 86.1553 112.067C85.7198 109.498 85.5264 109.531 85.0887 106.96C84.6531 104.391 84.7464 104.373 84.3109 101.804C83.8753 99.2356 84.3487 99.1534 83.9109 96.5845C83.5887 94.6978 81.3998 93.4556 79.5731 94.0245C77.0864 94.8 77.0331 94.6312 74.5442 95.4067C72.885 95.9237 71.2257 96.4393 69.5664 96.9534C67.0776 97.7289 67.2442 98.26 64.7553 99.0356C62.2664 99.8112 62.1376 99.3912 59.6487 100.167C57.1598 100.942 57.2042 101.084 54.7176 101.858C52.2309 102.631 52.2509 102.704 49.762 103.48C47.2731 104.256 47.182 103.962 44.6931 104.738C42.0998 105.547 41.6442 109.451 43.9598 110.869C47.0909 112.791 47.122 112.74 50.2531 114.662C51.6576 115.524 51.9131 117.078 51.0909 118.504C49.8087 120.727 50.2442 120.98 48.962 123.202C47.6798 125.424 47.3864 125.256 46.102 127.48C44.8198 129.702 44.6909 129.629 43.4087 131.853C42.4598 133.496 41.9687 135.36 41.2798 137.078C40.5776 138.831 40.1376 140.64 39.7064 142.447C39.2709 144.278 38.8442 146.089 38.6864 147.949C38.5287 149.818 38.1353 151.707 38.2576 153.576C38.3798 155.438 38.6487 157.34 39.0509 159.178C39.4464 160.996 40.2242 162.747 40.8931 164.513C41.5487 166.244 42.3376 167.956 43.2553 169.616C44.102 171.147 44.9887 172.66 46.0242 174.033C47.0753 175.424 48.2798 176.7 49.502 177.92C50.7331 179.149 52.2131 180.08 53.5953 181.127C54.9776 182.173 56.3664 183.189 57.8776 184.042C59.3864 184.893 60.9887 185.516 62.602 186.164C64.2153 186.813 65.8398 187.289 67.5242 187.729C69.1953 188.164 70.8087 188.913 72.5376 189.133C74.2487 189.351 75.9976 189.556 77.7442 189.556C80.1042 189.556 80.1042 189.16 82.4664 189.16C84.8287 189.16 84.8264 189.667 87.1887 189.667C89.5509 189.667 89.5509 189.196 91.9109 189.196C94.2709 189.196 94.2731 189.536 96.6331 189.536C98.3776 189.536 99.6909 187.918 99.6909 186.171C99.6909 183.478 99.6687 183.478 99.6687 180.782C99.6687 178.087 99.5753 178.087 99.5753 175.393C99.5753 172.698 99.4931 172.698 99.4931 170.004C99.4931 167.311 99.8309 167.309 99.8309 164.616C99.8309 162.869 98.3776 161.66 96.6331 161.66C94.1509 161.66 94.1509 161.771 91.6687 161.771C89.1864 161.771 89.1864 161.209 86.7042 161.209C84.222 161.209 84.222 161.171 81.7376 161.171C79.2553 161.171 79.2553 161.716 76.7709 161.716C74.5064 161.716 72.4442 160.747 70.8287 159.662C68.5976 158.164 67.4509 156.009 66.7864 155.113C66.5198 153.618 66.4998 153.649 66.4842 152.131C66.4642 150.429 66.8842 148.809 67.342 147.187C67.7998 145.567 68.2998 143.969 69.2087 142.531L69.2109 142.533ZM100.733 87.8578C99.8598 89.3711 97.9398 89.9578 96.4287 89.0845C94.0953 87.7378 94.1998 87.5578 91.8642 86.2112C89.5309 84.8645 89.3731 85.1356 87.0398 83.7867C84.7064 82.44 84.842 82.2 82.5087 80.8534C80.1753 79.5067 80.1998 79.4623 77.8642 78.1156C76.3509 77.2445 76.002 75.5956 76.8753 74.0845C78.1176 71.9356 78.0998 71.9245 79.3398 69.7734C80.582 67.6223 80.1331 67.3645 81.3753 65.2156C82.6176 63.0645 83.0353 63.3067 84.2776 61.1578C85.5198 59.0067 85.2931 58.8823 86.4376 56.6778C87.022 55.0667 87.6464 53.4645 88.5753 52.1089C89.5242 50.7245 90.742 49.4823 91.962 48.3423C93.1798 47.2023 94.8042 46.5534 96.202 45.6356C97.6042 44.7134 98.9887 43.7934 100.48 43.0712C102.013 42.3267 103.62 41.8534 105.149 41.2978C106.795 40.6978 108.386 40.2112 109.906 39.7978C111.7 39.3112 113.233 38.4 114.662 38.1223C117.651 37.5445 119.664 37.8089 119.664 37.8089C121.346 37.8089 123.006 37.7712 124.649 37.9867C126.311 38.2045 127.964 38.4578 129.566 38.8889C131.182 39.3223 132.651 40.1445 134.189 40.78C135.731 41.42 137.233 42.08 138.678 42.9134C140.12 43.7467 141.526 44.6112 142.851 45.6289C144.171 46.6423 145.282 47.8623 146.466 49.0445C147.64 50.2178 149.115 51.1334 150.135 52.4645C151.142 53.7778 151.793 55.3556 152.633 56.8112C154.022 59.2156 153.893 59.2889 155.282 61.6912C156.671 64.0956 156.993 63.9089 158.38 66.3134C159.769 68.7178 159.878 68.6534 161.266 71.0578C161.626 71.6823 162.213 71.9467 162.846 71.6023C164.722 70.5845 164.902 70.9134 166.778 69.8956C168.028 69.2171 169.278 68.5378 170.529 67.8578C172.918 66.56 175.518 68.4023 174.924 71.0512C174.543 72.746 174.161 74.4408 173.775 76.1356C173.202 78.6778 173.122 78.66 172.549 81.2023C171.975 83.7445 172.044 83.76 171.473 86.3023C170.902 88.8445 171.162 88.9045 170.589 91.4467C170.015 93.9889 169.931 93.9689 169.358 96.5134C168.784 99.0556 168.918 99.0867 168.344 101.629C167.771 104.171 167.829 104.184 167.255 106.727C166.835 108.593 164.615 109.478 162.822 108.811C160.38 107.904 160.411 107.82 157.966 106.913C155.524 106.007 155.386 106.378 152.942 105.471C150.498 104.564 150.675 104.089 148.231 103.182C145.789 102.276 145.624 102.716 143.18 101.809C140.735 100.902 140.855 100.582 138.411 99.6756C135.966 98.7689 135.862 99.0534 133.418 98.1467C130.973 97.24 130.966 97.26 128.522 96.3534C125.975 95.4089 125.666 91.5978 128.055 90.3023C130.058 89.2156 130.02 89.1423 132.022 88.0556C134.024 86.9689 134.186 87.2645 136.189 86.1778C136.76 85.8667 136.764 85.22 136.44 84.6556C135.106 82.3445 135.011 82.4 133.675 80.0867C132.34 77.7756 132.829 77.4934 131.493 75.1823C130.158 72.8712 130.191 72.8512 128.855 70.54C127.786 68.6889 126.066 67.8645 124.718 67.0934C122.664 65.9223 120.749 65.6667 119.666 65.6667C116.991 65.8178 116.964 65.4378 114.418 66.7956C112.971 67.5667 111.64 68.9689 110.664 70.6578C109.424 72.8067 109.249 72.7067 108.009 74.8556C106.769 77.0045 106.798 77.0223 105.558 79.1712C104.318 81.3223 104.282 81.3 103.029 83.4423C101.773 85.5845 101.973 85.7 100.731 87.8512L100.733 87.8578Z" fill="currentColor"/>
</svg>
