<svg width="240" height="240" viewBox="0 0 240 240" fill="none" xmlns="http://www.w3.org/2000/svg">
  <path d="M170.089 192.622C169.905 194.522 169.285 196.111 168.294 197.64C167.285 199.2 166.112 200.489 164.507 201.429C162.936 202.349 161.256 202.718 159.349 202.818C157.549 202.913 155.763 203.262 154.209 202.629C152.589 201.969 151.212 200.764 150.047 199.498C148.885 198.238 147.649 196.829 147.123 195.151C146.101 192.242 146.529 192.091 145.478 189.193C144.429 186.296 144.612 186.229 143.563 183.329C142.514 180.431 142.641 180.384 141.592 177.484C141.092 176.104 139.392 175.558 137.925 175.558C135.198 175.558 135.198 175.598 132.474 175.598C129.747 175.598 129.747 175.662 127.021 175.662C124.294 175.662 124.294 175.313 121.567 175.313C118.841 175.313 118.841 174.918 116.114 174.918C113.387 174.918 113.387 175.638 110.661 175.638C107.934 175.638 107.934 175.687 105.207 175.687C102.481 175.687 102.481 175.373 99.7539 175.373C98.5561 175.373 97.6606 176.54 98.0694 177.664C98.985 180.187 99.0806 180.153 99.9983 182.676C100.916 185.198 100.794 185.242 101.698 187.769C102.227 189.309 102.634 190.964 102.463 192.718C102.278 194.618 101.912 196.616 100.923 198.144C99.9139 199.704 98.0561 200.567 96.4517 201.507C94.8806 202.427 93.2272 203.576 91.3183 203.676C91.3006 203.676 89.1983 202.867 85.965 202.869C84.4183 202.869 82.6072 203.031 80.6317 203.033C78.9517 203.033 77.1539 203 75.2983 203.002C73.5539 203.002 71.7583 203.509 69.965 203.509C68.1694 203.509 66.3739 203.724 64.6294 203.724C62.7739 203.724 60.9739 203.398 59.2961 203.398C57.3206 203.398 55.5094 203.751 53.9628 203.751C50.7139 203.751 48.6294 203.458 48.6294 203.458C46.9717 203.458 45.4606 202.824 44.0206 202.229C42.5806 201.633 40.8917 201.089 39.7672 199.962C38.6428 198.836 38.1917 197.173 37.5739 195.678C36.9761 194.238 36.7961 192.756 36.7961 191.098C36.7961 189.556 36.5828 188.027 37.1383 186.684C37.7139 185.293 38.9917 184.393 40.0383 183.344C41.0872 182.298 41.9517 180.933 43.3406 180.356C44.6828 179.798 46.2472 179.651 47.7894 179.651C50.2272 179.651 50.2272 179.689 52.6672 179.689C55.1072 179.689 55.105 179.522 57.545 179.522C59.985 179.522 59.9828 179.338 62.4228 179.338C64.8628 179.338 64.8606 179.551 67.3006 179.551C70.0606 179.551 72.0828 176.851 71.0294 174.3C69.8917 171.544 70.0806 171.464 68.9428 168.709C67.805 165.953 67.3317 166.149 66.1961 163.391C66.1961 163.389 66.3228 163.342 66.3206 163.34C65.7561 162.071 65.5294 160.684 65.2339 159.296C64.9472 157.947 64.7494 156.591 64.7494 155.158C64.7494 152.742 64.4561 152.742 64.4561 150.324C64.4561 147.907 64.7494 147.907 64.7494 145.491C64.7494 143.076 64.9094 143.073 64.9094 140.658C64.9094 138.853 64.825 137.098 65.2717 135.433C65.7317 133.711 66.7472 132.267 67.6183 130.758C68.4894 129.249 69.4228 127.798 70.665 126.556C71.9072 125.313 73.1406 124.053 74.6695 123.169C76.1783 122.296 77.8383 121.693 79.5606 121.231C81.225 120.787 82.9606 120.742 84.765 120.742C87.1361 120.742 87.1361 120.171 89.5072 120.171C91.8783 120.171 91.8783 120.271 94.2517 120.271C96.625 120.271 96.6228 120.52 98.9961 120.52C101.369 120.52 101.367 120.647 103.741 120.649C106.483 120.649 106.483 120.887 109.227 120.889C111.972 120.891 111.972 120.722 114.714 120.727C117.456 120.731 117.458 120.104 120.201 120.109C122.943 120.113 122.943 120.433 125.687 120.436C128.432 120.44 128.432 120.193 131.174 120.198C133.916 120.202 133.916 120.609 136.661 120.611C138.378 120.611 139.907 121.131 141.401 121.7C142.969 122.298 144.594 122.793 145.756 123.96C146.918 125.127 147.707 126.589 148.305 128.211C149.207 130.687 149.221 130.682 150.118 133.16C151.018 135.636 150.743 135.736 151.643 138.213C152.543 140.691 152.783 140.602 153.683 143.08C154.583 145.556 154.641 145.536 155.538 148.013C156.438 150.491 156.109 150.609 157.009 153.087C157.909 155.564 158.154 155.476 159.054 157.951C159.954 160.429 159.712 160.516 160.612 162.993C161.512 165.471 161.674 165.411 162.574 167.889C163.474 170.367 163.518 170.349 164.418 172.827C165.318 175.304 165.094 175.384 165.994 177.862C166.894 180.34 167.092 180.269 167.989 182.747C168.889 185.224 169.129 185.138 170.021 187.62C170.549 189.16 170.261 190.86 170.089 192.616V192.622Z" fill="currentColor"/>
  <path d="M176.829 93.5289C178.349 93.5289 179.842 93.6978 181.287 93.9644C182.771 94.2378 184.207 94.6666 185.589 95.1933C186.991 95.7289 188.362 96.3422 189.636 97.1133C190.913 97.8889 192.084 98.8289 193.204 99.8178C194.322 100.802 195.407 101.842 196.344 103.013C197.273 104.173 198.067 105.451 198.793 106.764C199.509 108.062 200.071 109.444 200.564 110.869C201.049 112.262 201.467 113.698 201.716 115.189C201.958 116.638 202.044 118.129 202.044 119.649C202.044 121.169 201.927 122.653 201.684 124.104C201.436 125.596 201.089 127.049 200.604 128.444C200.111 129.869 199.571 131.273 198.856 132.571C198.131 133.887 197.262 135.12 196.333 136.28C195.396 137.449 194.34 138.518 193.222 139.502C192.1 140.489 190.896 141.38 189.616 142.158C188.344 142.929 186.991 143.573 185.589 144.109C184.204 144.638 182.782 145.124 181.298 145.398C179.851 145.664 178.349 145.802 176.829 145.802C175.309 145.802 173.82 145.582 172.376 145.316C170.891 145.042 169.453 144.629 168.071 144.1C166.669 143.564 165.351 142.869 164.078 142.096C162.8 141.32 161.569 140.478 160.447 139.489C159.329 138.504 158.284 137.431 157.349 136.26C156.42 135.1 155.598 133.847 154.873 132.533C154.158 131.236 153.52 129.88 153.027 128.456C152.542 127.06 152.136 125.613 151.884 124.12C151.642 122.671 151.564 121.171 151.564 119.651C151.564 118.131 151.76 116.651 152 115.2C152.251 113.709 152.533 112.238 153.018 110.844C153.513 109.42 154.118 108.044 154.833 106.747C155.558 105.431 156.409 104.193 157.338 103.033C158.273 101.864 159.336 100.804 160.453 99.8222C161.576 98.8355 162.802 97.9889 164.08 97.2133C165.353 96.4422 166.644 95.6755 168.047 95.14C169.429 94.6111 170.891 94.2689 172.376 93.9955C173.822 93.7289 175.307 93.5644 176.829 93.5644" fill="currentColor"/>
</svg>
