<svg width="240" height="240" viewBox="0 0 240 240" fill="none" xmlns="http://www.w3.org/2000/svg">
  <path d="M90.3994 163.222C88.8816 162.933 87.5838 162.231 86.4949 161.271C85.3816 160.291 84.3727 159.129 83.886 157.713C83.4171 156.351 83.5327 154.835 83.8149 153.313C84.2016 151.211 84.2816 151.227 84.6683 149.124C85.0549 147.022 83.5794 146.264 85.3349 145.044C87.0616 143.842 87.2994 145.211 89.3682 145.604C91.4371 145.998 91.4527 145.915 93.5194 146.309C95.0349 146.598 96.4105 147.364 97.4971 148.322C98.6127 149.302 99.5149 150.593 100.002 152.007C100.47 153.371 100.588 154.931 100.308 156.453C100.028 157.973 99.4327 159.444 98.5127 160.542C97.5527 161.684 96.086 162.244 94.6949 162.747C93.3394 163.238 91.8682 163.758 90.3527 163.467M203.793 169.122C203.799 166.7 203.835 166.7 203.842 164.278C203.848 161.855 203.65 161.853 203.655 159.431C203.662 157.009 203.922 157.009 203.928 154.587C203.933 152.162 204.015 152.162 204.022 149.74C204.028 147.318 204.002 147.318 204.008 144.893C204.015 142.469 203.75 142.469 203.757 140.044C203.764 137.62 203.679 137.62 203.686 135.195C203.693 132.773 203.755 132.773 203.759 130.349C203.766 127.927 203.73 127.927 203.737 125.502C203.744 123.078 203.766 123.078 203.77 120.653C203.777 118.229 203.664 118.229 203.668 115.804C203.675 113.382 204.073 113.382 204.079 110.96C204.086 108.535 203.695 108.535 203.702 106.111C203.706 103.687 204.055 103.689 204.062 101.264C204.066 98.8399 203.762 98.8399 203.768 96.4155C203.775 93.991 203.939 93.991 203.946 91.5666C203.953 89.1444 204.159 89.1444 204.166 86.7199C204.173 84.2933 204.044 84.2933 204.05 81.8688C204.057 79.4422 203.726 79.4422 203.733 77.0155C203.737 74.5888 203.988 74.5888 203.995 72.1622C204.004 70.7466 202.875 69.4488 201.486 69.4399C198.746 69.4311 198.746 69.5466 196.006 69.5377C193.264 69.5288 193.264 69.7955 190.522 69.7888C187.779 69.7799 187.782 69.4733 185.039 69.4644C183.65 69.4622 182.497 70.6777 182.493 72.0955C182.484 75.1533 184.397 75.8088 182.635 78.3088C181.208 80.3333 180.068 78.7088 177.628 79.1288C175.186 79.5488 175.157 79.3688 172.715 79.7888C170.275 80.2088 170.333 80.551 167.893 80.971C165.453 81.391 165.439 81.3088 162.997 81.7288C160.555 82.1488 160.533 82.0244 158.093 82.4444C155.653 82.8644 155.662 82.9133 153.219 83.3333C150.777 83.7533 150.766 83.6866 148.324 84.1066C145.882 84.5266 145.87 84.4533 143.428 84.8711C140.986 85.2911 141.017 85.4711 138.577 85.8911C136.135 86.3111 136.128 86.2755 133.688 86.6955C131.246 87.1155 131.255 87.171 128.815 87.5888C126.373 88.0088 126.377 88.0266 123.935 88.4466C122.307 88.7266 120.679 89.0088 119.053 89.2933C116.61 89.7133 116.602 89.6644 114.159 90.0844C111.717 90.5044 111.702 90.4111 109.259 90.8333C106.817 91.2533 106.844 91.4088 104.404 91.8288C101.962 92.2488 101.926 92.0466 99.4838 92.4666C97.0416 92.8866 97.0594 92.9977 94.6171 93.4177C92.1749 93.8377 92.1505 93.6933 89.7105 94.1133C87.2682 94.5333 87.3171 94.8155 84.8749 95.2355C82.4327 95.6555 82.4171 95.5666 79.9749 95.9866C77.5327 96.4066 77.5149 96.291 75.0705 96.7133C72.6283 97.1333 72.6571 97.3088 70.2149 97.7266C67.7727 98.1466 67.7616 98.0733 65.3194 98.4933C63.6897 98.7733 62.0608 99.0555 60.4327 99.3399C57.9883 99.7599 57.9438 99.4999 55.4971 99.9199C53.0527 100.342 53.1105 101 50.6371 100.787C50.0082 100.733 50.7327 100.262 50.7371 99.6333C50.7416 98.1933 49.4927 97.2644 48.0794 97.2622C45.986 97.2555 45.986 97.2133 43.8927 97.2088C41.7994 97.2022 41.7994 96.9399 39.706 96.9311C38.2905 96.9266 36.8994 98.1533 36.8949 99.5888C36.8882 102.135 37.0794 102.138 37.0727 104.684C37.0638 107.233 36.9994 107.233 36.9905 109.78C36.9838 112.329 37.2216 112.329 37.2127 114.878C37.2038 117.427 37.3127 117.427 37.306 119.975C37.3001 121.675 37.2964 123.375 37.2949 125.076C37.286 127.624 37.1238 127.624 37.1171 130.173C37.1105 132.722 36.8238 132.722 36.8149 135.273C36.806 137.822 36.9282 137.824 36.9194 140.373C36.9149 141.811 38.1571 142.953 39.5705 142.96C41.6638 142.967 41.6638 142.742 43.7594 142.749C45.8527 142.755 45.8527 143.029 47.946 143.035C49.3594 143.04 50.3505 141.853 50.3571 140.415C50.3616 139.329 49.5105 138.693 50.5705 138.458C53.1794 137.88 53.1838 138.56 55.8105 139.062C58.4371 139.564 58.4282 139.609 61.0549 140.111C63.6794 140.613 63.6149 140.958 66.2416 141.46C67.9927 141.795 69.7445 142.13 71.4971 142.467C74.1238 142.969 74.966 141.309 76.7082 143.338C78.1016 144.962 76.5705 145.402 76.1838 147.507C75.7949 149.611 75.4994 149.555 75.1127 151.662C74.7749 153.482 74.6527 155.338 74.8727 157.082C75.0994 158.891 75.826 160.6 76.5749 162.213C77.3327 163.851 78.2371 165.449 79.4549 166.769C80.666 168.084 82.0683 169.322 83.6549 170.207C85.1905 171.064 86.9905 171.515 88.8083 171.862C90.6216 172.209 92.4482 172.404 94.1838 172.173C95.9794 171.933 97.7883 171.444 99.3883 170.664C100.997 169.88 102.53 168.789 103.824 167.54C105.097 166.309 106.044 164.715 106.902 163.111C107.724 161.569 108.164 159.838 108.497 158.02C108.775 156.52 108.868 155.064 108.762 153.607C108.653 152.1 108.479 150.591 107.999 149.198C110.508 148.947 110.455 149.822 112.93 150.296C115.406 150.769 115.417 150.715 117.893 151.189C120.368 151.662 120.359 151.704 122.835 152.178C125.31 152.651 125.328 152.555 127.804 153.031C130.279 153.504 130.248 153.664 132.724 154.138C135.199 154.611 135.277 154.211 137.753 154.684C140.226 155.158 140.195 155.324 142.67 155.798C145.146 156.271 145.113 156.447 147.588 156.92C150.064 157.393 150.068 157.371 152.544 157.842C154.194 158.158 155.845 158.476 157.495 158.796C159.97 159.269 159.975 159.249 162.45 159.724C164.926 160.198 164.933 160.16 167.41 160.633C169.886 161.107 169.939 160.824 172.415 161.298C174.893 161.771 174.806 162.22 177.284 162.693C179.762 163.167 180.59 161.544 182.104 163.562C183.795 165.813 182.406 166.247 182.399 169.062C182.395 170.476 183.39 171.642 184.777 171.651C187.517 171.66 187.517 171.556 190.257 171.562C192.999 171.571 192.997 171.875 195.739 171.884C198.482 171.893 198.482 171.604 201.224 171.611C202.613 171.615 203.564 170.542 203.568 169.129" fill="currentColor"/>
</svg>
