<svg width="240" height="240" viewBox="0 0 240 240" fill="none" xmlns="http://www.w3.org/2000/svg">
  <path d="M200.737 184.324C200.871 185.602 200.931 186.867 200.973 188.084C201.017 189.391 201.011 190.651 200.853 191.844C200.682 193.136 200.357 194.347 199.829 195.453C199.297 196.556 198.575 197.567 197.56 198.429C196.693 199.164 195.617 199.791 194.311 200.313C193.315 200.711 191.944 200.776 190.62 200.589C189.273 200.4 187.969 199.951 187.166 199.271C186.226 198.473 185.32 197.276 184.677 195.978C184.015 194.64 183.657 193.191 183.771 191.982C183.937 190.178 184.275 188.749 184.884 187.651C185.644 186.287 186.782 185.402 188.322 184.893C189.535 184.493 191.015 184.358 192.775 184.349C194.082 184.342 195.386 184.302 196.744 184.302C198.009 184.302 199.322 184.331 200.715 184.331" fill="currentColor"/>
  <path d="M201.773 163.944C201.487 165.311 201.242 166.629 201.025 167.902C200.791 169.276 200.565 170.593 200.285 171.862C199.989 173.204 199.656 174.498 199.158 175.724C198.642 176.989 197.689 178.058 196.582 178.893C195.458 179.742 194.147 180.322 192.845 180.529C191.407 180.76 190.002 180.556 188.902 179.758C187.702 178.887 186.447 177.616 185.489 176.204C184.471 174.707 183.762 173.06 183.758 171.629C183.751 169.984 184.091 168.627 184.673 167.538C185.356 166.256 186.413 165.356 187.756 164.773C188.929 164.262 190.318 163.98 191.878 163.944C193.44 163.911 195.007 163.933 196.813 163.94C198.262 163.947 199.867 163.947 201.751 163.947" fill="currentColor"/>
  <path d="M133.249 69.6489C133.249 71.5578 132.778 71.5578 132.778 73.4667C132.778 75.3756 132.891 75.3778 132.891 77.2867C132.891 79.1956 133.247 79.2 133.247 81.1111C133.247 83.0223 132.051 83.2689 132.829 85.0156C134.527 85.0156 136.358 84.6956 138 84.7334C139.333 84.7645 140.665 84.8534 141.998 84.8712C143.331 84.8889 144.662 85.2511 145.993 85.2623C147.327 85.2734 148.662 85.1111 149.996 85.12C151.331 85.1311 152.662 85.2645 153.996 85.28C155.329 85.2934 156.665 85.1245 157.998 85.1467C159.331 85.1712 160.669 85.0378 162.002 85.08C163.338 85.1178 164.662 85.3645 165.993 85.4267C167.327 85.4889 168.673 85.3156 170.005 85.4045C171.336 85.4956 172.66 85.7112 173.987 85.8356C175.318 85.96 176.627 86.2156 177.898 86.52C179.191 86.8267 180.351 87.5134 181.571 87.9934C182.805 88.48 184.071 88.8511 185.218 89.4978C186.369 90.1489 187.602 90.7023 188.649 91.5C189.7 92.3 190.518 93.3867 191.449 94.3178C192.382 95.2489 193.465 96.0689 194.267 97.12C195.065 98.1667 195.725 99.34 196.38 100.489C197.031 101.629 197.329 102.947 197.827 104.173C198.32 105.389 198.762 106.609 199.091 107.893C199.416 109.162 199.665 110.436 199.818 111.758C199.971 113.084 200.125 114.404 200.225 115.736C200.32 117.067 200.598 118.387 200.653 119.724C200.709 121.058 200.882 122.391 200.911 123.727C200.942 125.062 200.867 126.398 200.887 127.736C200.905 129.071 200.693 130.409 200.718 131.744C200.742 133.08 200.993 134.411 201.036 135.744C201.08 137.1 200.578 137.922 199.9 138.496C199.251 139.044 198.358 139.511 197.031 139.487C195.753 139.464 194.482 139.093 193.205 139.078C191.927 139.06 190.649 139.193 189.371 139.187C188.093 139.178 186.816 139.12 185.538 139.12C184.26 139.12 182.985 139.298 181.707 139.304C180.429 139.313 179.149 139.076 177.873 139.096C176.596 139.113 175.32 139.256 174.045 139.282C172.516 139.316 171.56 139.082 170.978 138.438C170.373 137.767 170.033 136.729 170.102 135.291C170.185 133.596 170.322 131.904 170.318 130.202C170.311 128.504 170.165 126.809 170.129 125.111C170.096 123.591 170.018 122.344 169.593 121.344C169.056 120.087 168.265 119.047 167.02 118.527C166.016 118.104 164.696 118.138 163.176 118.133C161.822 118.131 160.467 118.249 159.111 118.247C157.76 118.247 156.407 117.971 155.047 117.971C153.687 117.971 152.342 118.28 150.98 118.28C149.618 118.28 148.28 117.864 146.913 117.864C145.547 117.864 144.216 117.96 142.849 117.96C141.482 117.96 139.969 118.016 138.6 118.016C137.942 120.271 138.96 120.418 138.96 122.767C138.96 124.104 138.996 125.44 138.996 126.778C138.996 128.116 138.847 129.451 138.845 130.789C138.845 132.124 138.647 133.462 138.645 134.798C138.645 136.136 138.585 137.473 138.585 138.809C138.585 140.147 138.722 141.482 138.722 142.82C138.722 144.158 138.796 145.493 138.793 146.831C138.793 148.167 138.689 149.504 138.689 150.842C138.689 152.178 138.662 153.516 138.662 154.851C138.662 156.189 138.869 157.527 138.869 158.862C138.869 160.198 138.613 161.538 138.613 162.873C138.613 164.209 139.002 165.547 139.002 166.884C139.002 168.22 138.769 169.558 138.771 170.896C138.771 172.231 138.882 173.569 138.887 174.904C138.887 176.242 138.78 177.58 138.782 178.916C138.785 180.253 138.662 181.591 138.665 182.927C138.669 184.264 139.038 185.6 139.042 186.936C139.047 188.273 138.662 189.611 138.669 190.949C138.676 192.284 138.945 193.62 138.951 194.958C138.958 196.533 138.593 197.707 138.345 198.642C137.991 199.969 137.429 200.707 135.949 201.062C135.022 201.285 133.818 201.576 132.222 201.536C130.758 201.5 129.296 201.249 127.829 201.224C126.365 201.2 124.896 201.289 123.429 201.278C121.965 201.267 120.498 201.376 119.031 201.378C117.565 201.378 116.098 201.14 114.631 201.151C113.167 201.164 111.698 201.113 110.231 201.14C108.765 201.164 107.298 201.249 105.831 201.285C103.789 201.338 102.52 201.004 101.667 200.144C100.813 199.278 100.587 197.987 100.598 195.973C100.605 194.629 100.378 193.282 100.385 191.938C100.391 190.593 100.202 189.247 100.207 187.902C100.211 186.558 100.445 185.213 100.449 183.869C100.451 182.522 100.207 181.178 100.211 179.833C100.213 178.489 100.322 177.144 100.327 175.8C100.327 174.456 100.598 173.111 100.6 171.767C100.6 170.422 100.236 169.078 100.236 167.733C100.236 166.389 100.258 165.044 100.258 163.7C100.258 162.356 100.611 161.011 100.611 159.664C100.611 158.318 100.242 156.976 100.242 155.631C100.242 154.287 100.325 152.942 100.322 151.598C100.322 150.253 100.491 148.909 100.489 147.564C100.489 146.22 100.478 144.876 100.478 143.531C100.478 142.187 100.573 140.842 100.571 139.498C100.571 138.153 100.549 136.809 100.549 135.462C100.549 134.118 100.58 132.773 100.58 131.429C100.58 130.084 100.576 128.74 100.576 127.396C100.576 126.051 100.378 124.707 100.378 123.362C100.378 120.809 101.991 120.296 100.396 118.302C99.1179 116.707 98.409 118.396 96.3667 118.396C94.3245 118.396 94.3223 118.411 92.2801 118.411C90.2379 118.411 90.2356 118.218 88.1934 118.218C86.1512 118.218 86.1512 118.047 84.1067 118.047C82.0623 118.047 82.0645 118.456 80.0201 118.456C77.9756 118.456 77.9756 118.096 75.9334 118.096C73.8912 118.096 73.8912 118.449 71.849 118.449C69.8067 118.449 69.8045 118.231 67.7623 118.231C65.7201 118.231 65.7201 118.28 63.6756 118.28C61.6312 118.28 61.6312 118.267 59.589 118.267C57.5467 118.267 57.5445 118.151 55.5023 118.151C53.4601 118.151 53.4579 118.489 51.4156 118.489C49.3734 118.489 49.3712 118.264 47.3267 118.264C45.2823 118.264 45.2823 118.187 43.2356 118.187C41.189 118.187 41.1623 118.656 39.2134 118.038C39.2134 116.747 39.2379 115.678 39.2356 114.398C39.2334 113.107 39.1267 111.82 39.1267 110.54C39.1245 109.249 39.0801 107.962 39.0801 106.682C39.0801 105.393 39.2223 104.107 39.2245 102.824C39.2245 101.536 39.3023 100.251 39.3112 98.9689C39.3201 97.6823 39.3156 96.3956 39.3334 95.1134C39.349 93.8267 39.409 92.5445 39.4356 91.26C39.4623 89.9734 39.2601 88.6845 39.3001 87.4C39.3267 86.5378 42.1912 84.9334 43.7312 84.9112C45.1356 84.8889 46.5401 84.9845 47.9445 84.9689C49.3467 84.9556 50.7512 85.1178 52.1556 85.1067C53.5601 85.0978 54.9601 84.7045 56.3645 84.6978C57.769 84.6912 59.1712 85.0889 60.5756 85.0867C61.9801 85.0845 63.3823 84.9223 64.7845 84.9223C66.1867 84.9223 67.5912 85.0578 68.9934 85.0578C70.3979 85.0578 71.8001 85.1045 73.2045 85.1067C74.6067 85.1089 76.0112 85.02 77.4134 85.02C78.8179 85.02 80.2201 84.8578 81.6245 84.8578C82.9356 84.8578 84.249 85.1667 85.5645 85.1667C86.8801 85.1667 88.189 84.9956 89.5045 84.9956C90.8201 84.9956 92.129 84.8178 93.4467 84.8178C94.7645 84.8178 96.069 84.9067 97.3867 84.9067C98.7045 84.9067 100.009 85.0489 101.329 85.0489C102.649 85.0489 104.073 84.9823 105.396 84.9823C106.02 83.1778 105.402 83.0289 105.402 81.12C105.402 79.2112 105.482 79.2089 105.482 77.3C105.482 75.3912 105.318 75.3867 105.318 73.4756C105.318 71.5645 105.9 71.4578 105.256 69.6578C103.889 69.6578 102.54 69.4689 101.182 69.4689C99.8245 69.4689 98.4534 69.5134 97.0956 69.5134C95.7379 69.5134 94.369 69.6067 93.0067 69.6067C91.5045 69.6067 90.1445 69.5 88.9223 69.1689C87.529 68.7912 86.3645 68.1156 85.289 67.3045C84.2334 66.5067 83.2823 65.56 82.4867 64.34C81.7934 63.2734 80.9912 62.1245 80.4645 60.7311C79.9623 59.3978 80.1334 57.9156 80.269 56.4934C80.4023 55.1045 80.4667 53.6089 81.0956 52.32C81.7179 51.0511 82.8201 50.0378 83.8179 49.04C84.8312 48.0267 85.8667 46.9534 87.1556 46.4C88.4445 45.8467 89.909 45.9734 91.3645 46.06C92.7801 46.1445 94.2134 46.0711 95.6356 46.0578C97.0534 46.0467 98.4734 45.9023 99.8912 45.8911C101.356 45.8778 102.747 45.7689 104.111 45.6489C105.502 45.5267 106.836 45.2911 108.176 44.6734C109.32 44.1445 110.658 43.6045 111.8 42.4578C112.74 41.5111 113.74 40.7645 114.98 40.2956C116.18 39.8423 117.445 39.6 118.805 39.5845C120.08 39.5711 121.385 39.6756 122.698 40.0356C123.933 40.3756 125.107 40.9556 126.289 41.6156C127.409 42.2445 128.698 42.7378 129.698 43.6467C130.876 44.72 132.569 45.6734 134.153 45.7734C135.562 45.8645 136.982 45.9667 138.405 46.0334C139.825 46.1 141.251 46.2889 142.665 46.2556C144.093 46.22 145.52 46.0423 146.913 45.8223C148.169 45.6245 149.473 45.5134 150.671 45.9334C151.822 46.3378 152.838 47.1934 153.845 47.9934C154.818 48.7689 155.849 49.5689 156.609 50.5623C157.398 51.5911 158.107 52.7156 158.578 53.8134C159.122 55.0778 159.476 56.4156 159.473 57.5334C159.469 58.7423 159.091 60.0245 158.607 61.2134C158.151 62.3356 157.391 63.38 156.607 64.3778C155.845 65.3489 155.018 66.3334 154.033 67.0934C153.036 67.8645 151.887 68.4467 150.753 68.9023C149.576 69.3756 148.331 69.6956 147.107 69.7223C145.547 69.7534 143.987 69.8756 142.405 69.8778C140.862 69.88 139.305 69.4689 137.705 69.46C136.178 69.4534 134.613 69.4823 133.002 69.4823" fill="currentColor"/>
</svg>
