<svg width="384" height="205" viewBox="0 0 384 205" fill="none" xmlns="http://www.w3.org/2000/svg">
  <path d="M78.2924 75.8036C72.1983 71.2915 65.9457 66.9902 59.6149 62.8476C41.4568 50.9741 22.1611 41.0521 3.26977 30.4373C2.57982 30.0504 1.88982 29.6607 1.20276 29.271C-1.06628 27.9835 0.980465 23.3126 1.62423 21.6296C3.59881 16.491 5.96319 11.4968 8.34482 6.54017C9.61791 3.89585 11.2056 -1.6353 15.0451 0.466306C27.4498 7.25899 39.895 13.9708 52.2679 20.8213C64.5946 27.6428 76.8461 34.6058 88.9014 41.8979C101.442 49.4816 113.766 57.4203 125.784 65.8094C138.881 74.952 151.609 84.6171 163.941 94.7729C168.156 98.2428 172.333 101.213 170.463 107.371C169.054 112.016 164.865 114.923 161.242 117.784C145.05 130.561 126.696 140.503 109.153 151.253C102.871 155.105 96.5344 158.866 90.2036 162.633C70.9716 174.071 51.6299 185.315 32.3373 196.649C27.9608 199.218 23.5988 201.715 19.0492 203.967C19.0232 203.978 18.9913 203.973 18.9683 203.99C17.1842 205.321 14.6498 201.143 13.1977 199.244C8.40271 192.956 5.11745 185.67 0.354195 179.38C-0.295339 178.519 -0.0183624 177.293 0.91408 176.756C42.0859 153.098 93.9882 118.624 108.307 107.126C109.941 105.812 110.088 103.387 108.619 101.889C99.274 92.3537 89.0284 83.751 78.2924 75.8036Z" fill="currentColor"/>
  <path d="M290.89 75.8036C284.796 71.2915 278.543 66.9902 272.212 62.8476C254.054 50.9741 234.759 41.0521 215.868 30.4373C215.178 30.0504 214.488 29.6607 213.801 29.271C211.532 27.9835 213.578 23.3126 214.222 21.6296C216.197 16.491 218.561 11.4968 220.943 6.54017C222.216 3.89585 223.803 -1.6353 227.643 0.466306C240.048 7.25899 252.493 13.9708 264.865 20.8213C277.192 27.6428 289.444 34.6058 301.499 41.8979C314.04 49.4816 326.363 57.4203 338.381 65.8094C351.479 74.952 364.207 84.6171 376.539 94.7729C380.754 98.2428 384.931 101.213 383.061 107.371C381.652 112.016 377.463 114.923 373.84 117.784C357.648 130.561 339.293 140.503 321.75 151.253C315.468 155.105 309.132 158.866 302.801 162.633C283.569 174.071 264.227 185.315 244.935 196.649C240.558 199.218 236.197 201.715 231.647 203.967C231.621 203.978 231.589 203.973 231.566 203.99C229.782 205.321 227.247 201.143 225.795 199.244C221 192.956 217.715 185.67 212.952 179.38C212.302 178.519 212.579 177.293 213.512 176.756C254.684 153.098 306.586 118.624 320.904 107.126C322.538 105.812 322.686 103.387 321.216 101.889C311.872 92.3537 301.626 83.751 290.89 75.8036Z" fill="currentColor"/>
  <path d="M181.914 75.8036C175.82 71.2915 169.567 66.9902 163.236 62.8476C145.078 50.9741 125.782 41.0521 106.891 30.4373C106.201 30.0504 105.511 29.6607 104.824 29.271C102.555 27.9835 104.602 23.3126 105.246 21.6296C107.22 16.491 109.584 11.4968 111.966 6.54017C113.239 3.89585 114.827 -1.6353 118.666 0.466306C131.071 7.25899 143.516 13.9708 155.889 20.8213C168.216 27.6428 180.467 34.6058 192.523 41.8979C205.063 49.4816 217.387 57.4203 229.405 65.8094C242.502 74.952 255.23 84.6171 267.563 94.7729C271.777 98.2428 275.955 101.213 274.084 107.371C272.675 112.016 268.486 114.923 264.863 117.784C248.671 130.561 230.317 140.503 212.774 151.253C206.492 155.105 200.155 158.866 193.825 162.633C174.593 174.071 155.251 185.315 135.958 196.649C131.582 199.218 127.22 201.715 122.67 203.967C122.644 203.978 122.613 203.973 122.59 203.99C120.805 205.321 118.271 201.143 116.819 199.244C112.024 192.956 108.738 185.67 103.975 179.38C103.326 178.519 103.603 177.293 104.535 176.756C145.707 153.098 197.609 118.624 211.928 107.126C213.562 105.812 213.709 103.387 212.24 101.889C202.895 92.3537 192.65 83.751 181.914 75.8036Z" fill="currentColor"/>
</svg>
