<svg width="480" height="135" viewBox="0 0 480 135" fill="none" xmlns="http://www.w3.org/2000/svg">
  <path d="M15.6667 16.8161C13.5073 17.1625 11.3422 17.5638 9.17133 17.8322C7.29489 18.0632 3.73545 18.8831 1.62518 19.4979C1.13154 19.6423 0.819761 20.0002 0.574381 20.3236C-0.392703 21.6024 0.115377 23.5597 0.288586 25.2225C0.519532 27.4367 0.701401 29.6567 0.978536 31.8651C3.16674 49.1918 5.0807 63.8568 10.0258 79.3503C14.0385 91.9196 19.9478 104.105 28.8883 113.929C32.7422 118.164 37.1042 121.784 41.8645 124.953C58.1404 135.736 80.6576 138.181 97.2048 127.82C110.011 119.8 117.265 105.993 123.377 92.6759C126.728 85.3723 129.774 77.9329 133.036 70.5917C133.691 69.0848 134.713 67.3268 136.359 67.3614C137.897 67.3903 138.865 68.9867 139.508 70.3868C148.079 89.076 153.486 111.013 170.345 122.785C187.314 134.633 211.783 131.57 228.307 119.111C236.453 112.967 242.854 104.89 247.597 95.8947C249.978 91.3797 251.959 86.6598 253.665 81.8503C255.925 75.4878 256.872 68.4815 260.827 62.8637C261.621 61.7321 262.646 60.5831 264.017 60.4099C265.957 60.1646 267.516 61.9399 268.526 63.6143C271.367 68.3285 272.628 73.7009 274.282 78.8913C276.606 86.1921 280.434 92.7394 285.151 98.7411C292.591 108.204 302.198 116.022 313.295 120.779C335.506 130.303 352.423 126.27 369.172 108.854C376.513 101.218 381.637 91.6511 387.177 82.624C390.009 78.0109 392.994 73.4699 396.499 69.3331C399.562 65.7188 403.037 61.7927 407.751 60.459C408.791 60.1645 409.862 59.9913 410.936 59.8961C418.6 59.2235 423.987 71.2413 426.793 76.5934C434.371 91.0506 438.744 106.602 441.576 122.777C441.608 122.964 441.651 123.449 441.804 123.565C441.934 123.663 442.11 123.669 442.272 123.669C447.047 123.669 457.431 123.747 462.205 123.732C464.694 123.724 467.177 123.868 469.662 123.854C471.796 123.842 474.607 123.923 476.781 123.856C481.186 123.721 479.899 116.55 479.573 113.421C476.588 84.7516 467.009 55.1877 445.228 36.3137C423.444 17.4368 387.281 13.4299 366.525 33.4268C358.852 40.8171 355.526 51.8563 349.582 62.653C344.446 71.9861 341.499 80.557 330.847 80.557C318.837 80.557 311.485 71.9601 305.529 62.8608C297.925 51.2443 297.972 36.5504 293.041 23.8686C288.849 13.0834 282.031 5.3814 269.386 3.92644C256.95 2.49169 247.793 10.6037 241.349 20.338C233.471 32.2404 227.53 45.436 220.045 57.6097C214.369 66.836 208.027 81.7146 195.524 82.4508C183.619 83.0599 176.232 70.0548 171.737 59.0156C166.719 46.6889 161.702 34.3651 156.685 22.0383C153.099 13.2307 148.429 3.39527 139.315 0.68455C128.065 -2.66127 117.176 6.84213 110.504 16.4985C103.943 25.9933 98.6714 36.7236 95.1639 47.8523C92.2626 57.0526 90.0917 68.2245 83.1403 75.5628C77.3407 81.6829 66.1283 85.2164 59.1652 78.9837C55.2738 75.5022 53.8968 70.0808 52.7103 64.9971C48.6457 47.7628 44.6936 30.4996 40.6463 13.2595C40.6203 13.1469 40.5886 13.0286 40.4991 12.9622C40.4067 12.8929 40.2826 12.8987 40.17 12.9044C38.0597 13.0401 36.0101 13.3115 33.9402 13.7503L15.6667 16.8103V16.8161Z" fill="currentColor"/>
</svg>
