<svg width="259" height="252" viewBox="0 0 259 252" fill="none" xmlns="http://www.w3.org/2000/svg">
  <path d="M77.9583 251.42C75.848 253.098 72.5946 248.173 70.7557 245.941C64.7916 238.713 58.1259 232.047 52.2512 224.749C51.4256 223.742 51.7085 222.249 52.82 221.565C145.106 164.553 159.866 153.321 133.27 153.396C111.688 153.456 62.8718 160.379 6.14866 160.997C3.82189 161.023 1.86469 159.273 1.74345 156.967C1.08814 144.718 -3.16701 103.933 4.6476 103.936C67.8516 103.973 95.3514 109.49 150.103 105.665C155.908 103.055 146.789 96.0058 144.618 94.2881C137.066 88.3095 128.593 83.4163 120.204 78.7079C97.1268 65.7606 72.7996 55.0678 49.0988 43.3126C44.0325 40.8011 38.9834 38.2549 33.9632 35.6568C30.7097 33.9709 34.8148 24.7562 35.5942 22.6228C37.4129 17.6517 39.5348 12.8019 41.671 7.96068C43.1029 4.71878 44.5925 -1.56005 49.5434 0.356793C123.457 28.9825 190.03 56.2023 255.861 118.757C258.24 121.366 258.595 125.304 257.718 128.589C256.528 133.035 252.975 136.603 249.528 139.475C236.274 150.523 221.453 160.018 207.112 169.602C192.409 179.429 177.559 189.045 162.658 198.572C148.348 207.717 133.98 216.77 119.575 225.762C112.568 230.136 105.64 234.625 98.6598 239.039C95.1725 241.247 91.6735 243.438 88.1459 245.586C84.9934 247.509 84.6904 247.829 78.0565 251.383C78.0276 251.4 77.9842 251.392 77.9583 251.415" fill="currentColor"/>
</svg>
