<svg width="24" height="24" viewBox="0 0 24 24" fill="none" xmlns="http://www.w3.org/2000/svg">
  <path d="M5.16953 21.4805C4.4312 21.4805 3.80495 21.2234 3.29078 20.7093C2.77661 20.1951 2.51953 19.5689 2.51953 18.8305V5.16953C2.51953 4.4312 2.77661 3.80495 3.29078 3.29078C3.80495 2.77661 4.4312 2.51953 5.16953 2.51953H10.675C11.0432 2.51953 11.356 2.64836 11.6135 2.90603C11.8712 3.1637 12 3.47653 12 3.84453C12 4.2127 11.8712 4.52561 11.6135 4.78328C11.356 5.04078 11.0432 5.16953 10.675 5.16953H5.16953V18.8305H18.8305V13.325C18.8305 12.9569 18.9593 12.644 19.2168 12.3865C19.4744 12.1289 19.7874 12 20.1555 12C20.5235 12 20.8364 12.1289 21.094 12.3865C21.3517 12.644 21.4805 12.9569 21.4805 13.325V18.8305C21.4805 19.5689 21.2234 20.1951 20.7093 20.7093C20.1951 21.2234 19.5689 21.4805 18.8305 21.4805H5.16953ZM18.8305 7.00778L11.05 14.788C10.8007 15.0374 10.4967 15.1597 10.138 15.155C9.77936 15.1502 9.47537 15.0232 9.22603 14.774C8.97686 14.5247 8.85228 14.2183 8.85228 13.8548C8.85228 13.4914 8.97686 13.1851 9.22603 12.9358L16.9923 5.16953H15.325C14.9569 5.16953 14.644 5.04078 14.3865 4.78328C14.1289 4.52561 14 4.2127 14 3.84453C14 3.47653 14.1289 3.1637 14.3865 2.90603C14.644 2.64836 14.9569 2.51953 15.325 2.51953H20.1555C20.5235 2.51953 20.8364 2.64836 21.094 2.90603C21.3517 3.1637 21.4805 3.47653 21.4805 3.84453V8.67503C21.4805 9.0432 21.3517 9.35603 21.094 9.61353C20.8364 9.8712 20.5235 10 20.1555 10C19.7874 10 19.4744 9.8712 19.2168 9.61353C18.9593 9.35603 18.8305 9.0432 18.8305 8.67503V7.00778Z" fill="currentColor"/>
</svg>
