<svg width="24" height="24" viewBox="0 0 24 24" fill="none" xmlns="http://www.w3.org/2000/svg">
  <path d="M13.212 11.487V8.28253C13.212 7.9392 13.0959 7.65136 12.8635 7.41903C12.6312 7.18686 12.3434 7.07078 12 7.07078C11.6567 7.07078 11.3689 7.18686 11.1365 7.41903C10.9042 7.65136 10.788 7.9392 10.788 8.28253V11.9325C10.788 12.113 10.8201 12.2826 10.8843 12.4413C10.9484 12.5999 11.0446 12.7427 11.1728 12.8695L14.2468 15.9435C14.4773 16.174 14.7577 16.2893 15.088 16.2893C15.4185 16.2893 15.7037 16.174 15.9435 15.9435C16.1834 15.713 16.3033 15.4279 16.3033 15.088C16.3033 14.7482 16.1834 14.4584 15.9435 14.2185L13.212 11.487ZM12 22.4805C10.5414 22.4805 9.17545 22.2059 7.90228 21.6565C6.62928 21.1072 5.52195 20.3616 4.58028 19.4198C3.63845 18.4781 2.89286 17.3708 2.34353 16.0978C1.7942 14.8246 1.51953 13.4587 1.51953 12C1.51953 10.5414 1.7942 9.17545 2.34353 7.90228C2.89286 6.62928 3.63845 5.52195 4.58028 4.58028C5.52195 3.63845 6.62928 2.89286 7.90228 2.34353C9.17545 1.7942 10.5414 1.51953 12 1.51953C13.4587 1.51953 14.8246 1.7942 16.0978 2.34353C17.3708 2.89286 18.4781 3.63845 19.4198 4.58028C20.3616 5.52195 21.1072 6.62928 21.6565 7.90228C22.2059 9.17545 22.4805 10.5414 22.4805 12C22.4805 13.4587 22.2059 14.8246 21.6565 16.0978C21.1072 17.3708 20.3616 18.4781 19.4198 19.4198C18.4781 20.3616 17.3708 21.1072 16.0978 21.6565C14.8246 22.2059 13.4587 22.4805 12 22.4805Z" fill="currentColor"/>
</svg>
