<svg width="24" height="24" viewBox="0 0 24 24" fill="none" xmlns="http://www.w3.org/2000/svg">
  <path d="M10.6743 19.1131V15.3806C9.08083 15.0907 7.77608 14.3392 6.76008 13.1261C5.74424 11.9131 5.23633 10.5377 5.23633 9.00006V3.56206C5.23633 3.19389 5.36508 2.88098 5.62258 2.62331C5.88024 2.36581 6.19316 2.23706 6.56133 2.23706H17.4373C17.8055 2.23706 18.1184 2.36581 18.3761 2.62331C18.6336 2.88098 18.7623 3.19389 18.7623 3.56206V9.00006C18.7623 10.5377 18.2544 11.9131 17.2386 13.1261C16.2226 14.3392 14.9178 15.0907 13.3243 15.3806V19.1131H15.4373C15.8055 19.1131 16.1184 19.2419 16.3761 19.4996C16.6336 19.7572 16.7623 20.0701 16.7623 20.4381C16.7623 20.8062 16.6336 21.1191 16.3761 21.3768C16.1184 21.6343 15.8055 21.7631 15.4373 21.7631H8.56133C8.19316 21.7631 7.88024 21.6343 7.62258 21.3768C7.36508 21.1191 7.23633 20.8062 7.23633 20.4381C7.23633 20.0701 7.36508 19.7572 7.62258 19.4996C7.88024 19.2419 8.19316 19.1131 8.56133 19.1131H10.6743ZM7.88633 7.67506H16.1123V4.88706H7.88633V7.67506Z" fill="currentColor"/>
</svg>
