<svg width="24" height="25" viewBox="0 0 24 25" fill="none" xmlns="http://www.w3.org/2000/svg">
  <path
    d="M6.16953 22.9379C5.44086 22.9379 4.81703 22.6784 4.29803 22.1594C3.77903 21.6406 3.51953 21.0168 3.51953 20.2879V10.6272C3.51953 9.89837 3.77903 9.27445 4.29803 8.75545C4.81703 8.23661 5.44086 7.9772 6.16953 7.9772H6.78803V6.38695C6.78803 4.92828 7.29436 3.68786 8.30703 2.6657C9.3197 1.64353 10.5507 1.13245 12 1.13245C13.4494 1.13245 14.6804 1.64353 15.693 2.6657C16.7057 3.68786 17.212 4.92828 17.212 6.38695V7.9772H17.8305C18.5592 7.9772 19.183 8.23661 19.702 8.75545C20.221 9.27445 20.4805 9.89837 20.4805 10.6272V20.2879C20.4805 21.0168 20.221 21.6406 19.702 22.1594C19.183 22.6784 18.5592 22.9379 17.8305 22.9379H6.16953ZM12 17.4574C12.55 17.4574 13.0209 17.2616 13.4125 16.8699C13.8042 16.4783 14 16.0074 14 15.4574C14 14.9074 13.8042 14.4366 13.4125 14.0449C13.0209 13.6533 12.55 13.4574 12 13.4574C11.45 13.4574 10.9792 13.6533 10.5875 14.0449C10.1959 14.4366 10 14.9074 10 15.4574C10 16.0074 10.1959 16.4783 10.5875 16.8699C10.9792 17.2616 11.45 17.4574 12 17.4574ZM9.43803 7.9772H14.562V6.38695C14.562 5.66345 14.3151 5.04853 13.8213 4.5422C13.3274 4.0357 12.7204 3.78245 12 3.78245C11.2797 3.78245 10.6726 4.0357 10.1788 4.5422C9.68495 5.04853 9.43803 5.66345 9.43803 6.38695V7.9772Z"
    fill="currentColor"/>
</svg>
