<svg width="24" height="24" viewBox="0 0 24 24" fill="none" xmlns="http://www.w3.org/2000/svg">
  <path d="M12.5098 10.0105C12.8119 10.0035 13.1163 9.96342 13.417 10.1003C13.4322 10.1073 13.4533 10.1145 13.4678 10.1345C13.4879 10.1625 13.4819 10.2133 13.4863 10.4402C13.4922 10.8042 13.4988 19.4682 13.499 19.8357C13.4993 20.0186 13.4797 19.9988 13.4404 19.9988C13.2422 19.9978 13.0439 19.9867 12.8457 19.9578C12.4506 19.9008 12.0545 19.8939 11.6592 19.9109C11.5299 19.9159 11.4017 19.9288 11.2725 19.9148C11.1663 19.9038 11.0602 19.9099 10.9541 19.9109C10.8263 19.9119 10.6988 19.9511 10.5713 19.9871C10.5048 20.0061 10.499 20.0194 10.499 19.8484C10.499 19.7277 10.4998 11.3248 10.5 11.2039C10.5007 11.0058 10.5015 10.8071 10.5029 10.6101C10.5034 10.5232 10.5041 10.4353 10.5049 10.3484L10.5068 10.2546C10.5115 10.1377 10.5255 10.0731 10.5576 10.0691C10.6317 10.0601 10.7023 10.0662 10.7725 10.0632C10.873 10.0582 10.9737 10.0545 11.0742 10.0505C11.1742 10.0465 11.2741 10.0398 11.374 10.0398C11.64 10.0308 11.9066 10.0243 12.1729 10.0183C12.2851 10.0153 12.3975 10.0135 12.5098 10.0105ZM11.8359 4.00659C12.4662 3.95656 12.9108 4.18978 13.377 4.60229C13.6564 4.84967 13.854 5.18396 13.9453 5.54663C13.9676 5.6353 13.9827 5.72399 13.9912 5.81226C14.0302 6.21853 13.9328 6.657 13.7705 7.02905C13.3031 8.1002 11.9672 8.21288 11.0381 7.71753C10.9834 7.68835 10.9298 7.65669 10.8779 7.6228C10.3393 7.27077 10.0267 6.67737 10.002 6.04077C9.97774 5.41613 10.2003 4.64395 10.7666 4.30249C11.0862 4.10989 11.4681 4.03581 11.8359 4.00659Z" fill="currentColor"/>
</svg>
