<svg width="24" height="24" viewBox="0 0 24 24" fill="none" xmlns="http://www.w3.org/2000/svg">
  <path d="M19.5939 10.5079C19.5427 10.5066 19.4915 10.5062 19.4419 10.5059C19.3027 10.5052 19.1619 10.5045 19.0227 10.504C18.7074 10.5025 18.3906 10.5015 18.0738 10.5008C17.9186 10.5006 4.39625 10.5007 4.24104 10.5007C3.96743 10.5007 3.98983 10.5061 4.02023 10.5726C4.07784 10.7002 4.14024 10.8276 4.14184 10.9554C4.14344 11.0617 4.15304 11.1677 4.13544 11.274C4.11304 11.4033 4.13384 11.5316 4.14184 11.6609C4.16904 12.0563 4.15784 12.4521 4.06664 12.8472C4.02023 13.0455 4.00263 13.2438 4.00103 13.4421C4.00103 13.4813 3.96903 13.501 4.26185 13.5007C4.84588 13.5004 18.7122 13.4937 19.2947 13.4878C19.6579 13.4833 19.7395 13.4892 19.7843 13.4691C19.8163 13.4546 19.8275 13.4333 19.8387 13.418C20.0579 13.1172 19.9939 12.8126 19.9827 12.5103C19.9779 12.3979 19.9747 12.2858 19.9699 12.1734C19.9603 11.9071 19.9507 11.6409 19.9363 11.3748C19.9363 11.2747 19.9251 11.1748 19.9187 11.0747C19.9123 10.9741 19.9059 10.8737 19.8979 10.7731C19.8931 10.7029 19.9027 10.6328 19.8883 10.5587C19.8819 10.5265 19.7795 10.5123 19.5923 10.5076" fill="currentColor"/>
</svg>
