<svg width="24" height="24" viewBox="0 0 24 24" fill="none" xmlns="http://www.w3.org/2000/svg">
  <path d="M12.5107 4.01733C12.8128 4.0061 13.1173 3.94201 13.418 4.16089C13.4331 4.17206 13.4543 4.18379 13.4688 4.21558C13.4889 4.26038 13.4829 4.34259 13.4873 4.70581C13.4898 4.95296 13.49 7.53952 13.4922 10.5007C15.9817 10.5009 18.0146 10.5016 18.0742 10.5017C18.3908 10.5025 18.7074 10.5032 19.0225 10.5046C19.1617 10.5051 19.3032 10.5059 19.4424 10.5066L19.5928 10.5085C19.7797 10.5132 19.8823 10.5272 19.8887 10.5593C19.903 10.6334 19.8936 10.704 19.8984 10.7742C19.9064 10.8745 19.9126 10.9746 19.9189 11.075C19.9253 11.1751 19.9365 11.2756 19.9365 11.3757C19.9509 11.6415 19.9601 11.9076 19.9697 12.1736C19.9745 12.2858 19.9776 12.3982 19.9824 12.5105C19.9936 12.8128 20.0581 13.1178 19.8389 13.4187C19.8277 13.4339 19.8161 13.455 19.7842 13.4695C19.7393 13.4895 19.6575 13.4836 19.2949 13.488C19.0502 13.4905 16.4593 13.4899 13.4941 13.4919C13.4961 16.6376 13.4999 19.4792 13.5 19.738C13.5003 20.0309 13.4807 19.9988 13.4414 19.9988C13.2432 19.9972 13.0449 19.9797 12.8467 19.9333C12.4516 19.8422 12.0554 19.831 11.6602 19.8582C11.531 19.8662 11.4026 19.8874 11.2734 19.865C11.1672 19.8474 11.0613 19.8566 10.9551 19.8582C10.8272 19.8598 10.6999 19.9226 10.5723 19.9802C10.5059 20.0106 10.5 20.0319 10.5 19.7585C10.5 19.6757 10.4999 16.6782 10.5 13.4949C7.35687 13.4967 4.51912 13.4997 4.26172 13.4998C3.96923 13.5 4.00098 13.4804 4.00098 13.4412C4.00259 13.243 4.02004 13.0446 4.06641 12.8464C4.15753 12.4515 4.16877 12.056 4.1416 11.6609C4.1336 11.5316 4.11334 11.4025 4.13574 11.2732C4.15328 11.167 4.1432 11.061 4.1416 10.9548C4.13997 10.827 4.0781 10.6996 4.02051 10.572C3.99011 10.5055 3.96761 10.4997 4.24121 10.4998C4.31516 10.4998 7.3137 10.4995 10.5 10.4998C10.5001 8.01821 10.5009 5.99274 10.501 5.92651C10.5017 5.6097 10.5024 5.29251 10.5039 4.97729C10.5044 4.83818 10.5051 4.69747 10.5059 4.55835L10.5078 4.40796C10.5125 4.221 10.5265 4.11871 10.5586 4.11206C10.6327 4.09766 10.7033 4.10709 10.7734 4.10229C10.874 4.09431 10.9747 4.0872 11.0752 4.08081C11.1752 4.07441 11.275 4.06323 11.375 4.06323C11.641 4.04884 11.9076 4.03962 12.1738 4.03003C12.2861 4.02524 12.3985 4.02213 12.5107 4.01733Z" fill="currentColor"/>
</svg>
