<svg width="24" height="24" viewBox="0 0 24 24" fill="none" xmlns="http://www.w3.org/2000/svg">
  <path d="M12.0008 22.3251C10.5703 22.3251 9.22786 22.0555 7.97353 21.5164C6.7192 20.9772 5.62553 20.2412 4.69253 19.3084C3.7597 18.3754 3.0237 17.2817 2.48453 16.0274C1.94536 14.773 1.67578 13.4306 1.67578 12.0001C1.67578 10.5183 1.97611 9.11861 2.57678 7.80111C3.17761 6.48377 3.99503 5.34411 5.02903 4.38211C6.06303 3.42011 7.27986 2.69619 8.67953 2.21036C10.0792 1.72452 11.5769 1.56744 13.1725 1.73911C13.5355 1.77244 13.8214 1.90019 14.03 2.12236C14.2389 2.34452 14.3469 2.65269 14.354 3.04686C14.3685 4.07586 14.7102 4.93186 15.379 5.61486C16.0479 6.29769 16.8932 6.66994 17.915 6.73161C18.3215 6.75777 18.6376 6.88602 18.8633 7.11636C19.0889 7.34686 19.2289 7.68202 19.2833 8.12186C19.3449 8.72769 19.5434 9.23202 19.8785 9.63486C20.2137 10.0377 20.6747 10.3417 21.2615 10.5469C21.6174 10.6867 21.8837 10.8688 22.0605 11.0931C22.2374 11.3173 22.3211 11.6073 22.3118 11.9631C22.3168 13.3748 22.0562 14.709 21.53 15.9659C21.004 17.2227 20.2793 18.323 19.3558 19.2669C18.4321 20.2107 17.3395 20.9564 16.078 21.5039C14.8164 22.0514 13.4573 22.3251 12.0008 22.3251ZM10.5008 10.0001C10.9174 10.0001 11.2716 9.85427 11.5633 9.56261C11.8549 9.27094 12.0008 8.91677 12.0008 8.50011C12.0008 8.08344 11.8549 7.72927 11.5633 7.43761C11.2716 7.14594 10.9174 7.00011 10.5008 7.00011C10.0841 7.00011 9.72995 7.14594 9.43828 7.43761C9.14661 7.72927 9.00078 8.08344 9.00078 8.50011C9.00078 8.91677 9.14661 9.27094 9.43828 9.56261C9.72995 9.85427 10.0841 10.0001 10.5008 10.0001ZM8.50078 15.0001C8.91745 15.0001 9.27161 14.8543 9.56328 14.5626C9.85495 14.2709 10.0008 13.9168 10.0008 13.5001C10.0008 13.0834 9.85495 12.7293 9.56328 12.4376C9.27161 12.1459 8.91745 12.0001 8.50078 12.0001C8.08411 12.0001 7.72995 12.1459 7.43828 12.4376C7.14661 12.7293 7.00078 13.0834 7.00078 13.5001C7.00078 13.9168 7.14661 14.2709 7.43828 14.5626C7.72995 14.8543 8.08411 15.0001 8.50078 15.0001ZM15.0008 16.0001C15.2841 16.0001 15.5216 15.9043 15.7133 15.7126C15.9049 15.5209 16.0008 15.2834 16.0008 15.0001C16.0008 14.7168 15.9049 14.4793 15.7133 14.2876C15.5216 14.0959 15.2841 14.0001 15.0008 14.0001C14.7174 14.0001 14.4799 14.0959 14.2883 14.2876C14.0966 14.4793 14.0008 14.7168 14.0008 15.0001C14.0008 15.2834 14.0966 15.5209 14.2883 15.7126C14.4799 15.9043 14.7174 16.0001 15.0008 16.0001Z" fill="currentColor"/>
</svg>
