<svg width="24" height="24" viewBox="0 0 24 24" fill="none" xmlns="http://www.w3.org/2000/svg">
  <path
    d="M16.5586 5.40308C16.6212 5.4453 16.6638 5.50235 16.7168 5.54858C16.7936 5.61407 16.8696 5.68021 16.9453 5.74683C17.0206 5.81305 17.0992 5.87627 17.1699 5.94702C17.368 6.12473 17.563 6.30579 17.7578 6.48706C17.8407 6.56314 17.923 6.64047 18.0059 6.71655C18.2275 6.92234 18.4882 7.09305 18.5459 7.46069C18.5488 7.4793 18.5553 7.50228 18.543 7.53491C18.5255 7.58081 18.4636 7.63441 18.21 7.89429C18.0385 8.06923 16.207 9.90031 14.1123 11.9978C16.3384 14.2211 18.35 16.2288 18.5322 16.4109C18.7393 16.6176 18.7026 16.6087 18.6748 16.6365C18.5335 16.7754 18.3809 16.9032 18.208 17.0105C17.8642 17.2254 17.5767 17.4979 17.3164 17.7966C17.2307 17.8937 17.1541 17.9984 17.0469 18.074C16.9594 18.1366 16.8913 18.2185 16.8174 18.2947C16.7281 18.3862 16.6823 18.5211 16.6328 18.6521C16.6074 18.7204 16.619 18.7398 16.4258 18.5466C16.3744 18.4953 14.2511 16.372 11.9961 14.1169C9.77615 16.3393 7.77333 18.3474 7.58887 18.532C7.38205 18.7391 7.39003 18.7033 7.3623 18.6755C7.22332 18.5343 7.09563 18.3816 6.98828 18.2087C6.77345 17.865 6.50182 17.5764 6.20312 17.3162C6.10616 17.2305 6.00039 17.1547 5.9248 17.0476C5.86213 16.96 5.78036 16.8911 5.7041 16.8171C5.61256 16.7279 5.47765 16.6821 5.34668 16.6326C5.27848 16.6072 5.25907 16.6186 5.45215 16.4255C5.50351 16.3742 7.62395 14.2524 9.87793 11.9988C8.1218 10.2426 6.68872 8.8097 6.64453 8.76538C6.42102 8.54085 6.19745 8.31548 5.97559 8.09155C5.87767 7.99295 5.77841 7.89345 5.68066 7.79468L5.5752 7.68628C5.44636 7.55085 5.38416 7.46839 5.40234 7.44116C5.44449 7.37871 5.5007 7.33584 5.54688 7.28296C5.61236 7.20616 5.67948 7.13011 5.74609 7.05444C5.81224 6.97923 5.87463 6.90052 5.94531 6.82983C6.12316 6.63163 6.30491 6.43693 6.48633 6.24194C6.56237 6.15912 6.63978 6.0777 6.71582 5.99487C6.9216 5.77325 7.09151 5.5127 7.45898 5.45483C7.47766 5.452 7.50131 5.4444 7.53418 5.45679C7.58004 5.47436 7.63404 5.53653 7.89355 5.78979C8.0689 5.96163 9.89818 7.79074 11.9941 9.88354C13.7541 8.12388 15.1916 6.68787 15.2344 6.64526C15.4589 6.42177 15.6843 6.19816 15.9082 5.97632C16.0069 5.87837 16.1072 5.77917 16.2061 5.6814L16.3135 5.5769C16.4489 5.4481 16.5312 5.38525 16.5586 5.40308Z"
    fill="currentColor"/>
</svg>
