<svg width="24" height="24" viewBox="0 0 24 24" fill="none" xmlns="http://www.w3.org/2000/svg">
  <path d="M12.1138 21.438C11.7739 21.438 11.4846 21.3219 11.2458 21.0898C11.0071 20.8574 10.8878 20.5695 10.8878 20.226V16.212C10.8878 15.8687 11.0071 15.5808 11.2458 15.3485C11.4846 15.1162 11.7739 15 12.1138 15C12.4536 15 12.7406 15.1162 12.9748 15.3485C13.2088 15.5808 13.3258 15.8687 13.3258 16.212V17H20.1138C20.4573 17 20.7451 17.1162 20.9773 17.3485C21.2096 17.5808 21.3258 17.8687 21.3258 18.212C21.3258 18.5518 21.2096 18.8412 20.9773 19.08C20.7451 19.3187 20.4573 19.438 20.1138 19.438H13.3258V20.226C13.3258 20.5695 13.2096 20.8574 12.9773 21.0898C12.7451 21.3219 12.4573 21.438 12.1138 21.438ZM3.88778 19.438C3.54428 19.438 3.25645 19.3187 3.02428 19.08C2.79195 18.8412 2.67578 18.5518 2.67578 18.212C2.67578 17.8722 2.79195 17.5852 3.02428 17.351C3.25645 17.117 3.54428 17 3.88778 17H7.90178C8.24528 17 8.53311 17.1162 8.76528 17.3485C8.99761 17.5808 9.11378 17.8687 9.11378 18.212C9.11378 18.5518 8.99761 18.8412 8.76528 19.08C8.53311 19.3187 8.24528 19.438 7.90178 19.438H3.88778ZM7.90178 15.212C7.56195 15.212 7.2727 15.0926 7.03403 14.8538C6.7952 14.6151 6.67578 14.3258 6.67578 13.9858V13.212H3.88778C3.54428 13.212 3.25645 13.0958 3.02428 12.8635C2.79195 12.6312 2.67578 12.3433 2.67578 12C2.67578 11.6567 2.79195 11.3688 3.02428 11.1365C3.25645 10.9042 3.54428 10.788 3.88778 10.788H6.67578V10C6.67578 9.65668 6.7952 9.36885 7.03403 9.13651C7.2727 8.90418 7.56195 8.78801 7.90178 8.78801C8.24161 8.78801 8.52861 8.90418 8.76278 9.13651C8.99678 9.36885 9.11378 9.65668 9.11378 10V14C9.11378 14.3433 8.99761 14.6312 8.76528 14.8635C8.53311 15.0958 8.24528 15.212 7.90178 15.212ZM12.0998 13.212C11.7563 13.212 11.4684 13.0958 11.2363 12.8635C11.0039 12.6312 10.8878 12.3433 10.8878 12C10.8878 11.6567 11.0039 11.3688 11.2363 11.1365C11.4684 10.9042 11.7563 10.788 12.0998 10.788H20.1138C20.4573 10.788 20.7451 10.9042 20.9773 11.1365C21.2096 11.3688 21.3258 11.6567 21.3258 12C21.3258 12.3433 21.2096 12.6312 20.9773 12.8635C20.7451 13.0958 20.4573 13.212 20.1138 13.212H12.0998ZM16.1138 9.00001C15.7739 9.00001 15.4846 8.88385 15.2458 8.65151C15.0071 8.41918 14.8878 8.13135 14.8878 7.78801V3.77401C14.8878 3.43051 15.0071 3.14259 15.2458 2.91026C15.4846 2.67809 15.7739 2.56201 16.1138 2.56201C16.4536 2.56201 16.7406 2.67809 16.9748 2.91026C17.2088 3.14259 17.3258 3.43051 17.3258 3.77401V4.56201H20.1138C20.4573 4.56201 20.7451 4.67809 20.9773 4.91026C21.2096 5.14259 21.3258 5.43051 21.3258 5.77401C21.3258 6.11385 21.2096 6.4031 20.9773 6.64176C20.7451 6.8806 20.4573 7.00001 20.1138 7.00001H17.3258V7.78801C17.3258 8.13135 17.2096 8.41918 16.9773 8.65151C16.7451 8.88385 16.4573 9.00001 16.1138 9.00001ZM3.88778 7.00001C3.54428 7.00001 3.25645 6.8806 3.02428 6.64176C2.79195 6.4031 2.67578 6.11385 2.67578 5.77401C2.67578 5.43401 2.79195 5.14701 3.02428 4.91301C3.25645 4.67901 3.54428 4.56201 3.88778 4.56201H11.9018C12.2453 4.56201 12.5331 4.67809 12.7653 4.91026C12.9976 5.14259 13.1138 5.43051 13.1138 5.77401C13.1138 6.11385 12.9976 6.4031 12.7653 6.64176C12.5331 6.8806 12.2453 7.00001 11.9018 7.00001H3.88778Z" fill="currentColor"/>
</svg>
