<svg width="24" height="24" viewBox="0 0 24 24" fill="none" xmlns="http://www.w3.org/2000/svg">
  <path d="M9.05575 12.6736C8.63664 13.2439 8.23633 13.8305 7.84946 14.4224C6.74527 16.1226 5.82107 17.9281 4.8324 19.6985C4.79748 19.7634 4.75987 19.8283 4.72494 19.8931C4.60404 20.1067 4.1715 19.9148 4.01299 19.8526C3.53477 19.6688 3.06999 19.4472 2.6079 19.2228C2.36073 19.1039 1.84759 18.9552 2.04371 18.5957C2.67506 17.4335 3.30104 16.2685 3.93776 15.1117C4.5718 13.9575 5.22196 12.8115 5.89899 11.6816C6.60556 10.5086 7.34438 9.35442 8.12349 8.2273C8.97515 7.00017 9.87516 5.80818 10.8182 4.65403C11.1405 4.2594 11.4173 3.86748 11.9895 4.04317C12.4221 4.17561 12.6934 4.56753 12.9594 4.9054C14.1495 6.42174 15.0737 8.14081 16.0732 9.78148C16.4305 10.3707 16.7824 10.9627 17.1317 11.5546C18.1956 13.3548 19.2433 15.1657 20.2965 16.9713C20.5356 17.3821 20.7667 17.7903 20.9762 18.2146L20.9762 18.2227C21.0998 18.3903 20.7102 18.6282 20.5356 18.7633C19.9499 19.212 19.2729 19.5201 18.6872 19.9661C18.6066 20.0283 18.4938 20.0013 18.4427 19.9148C16.2397 16.0604 13.0319 11.2005 11.9627 9.85987C11.8418 9.7058 11.6134 9.69229 11.4764 9.83014C10.5898 10.7059 9.78919 11.6654 9.04769 12.6682" fill="currentColor"/>
</svg>
