<svg width="24" height="24" viewBox="0 0 24 24" fill="none" xmlns="http://www.w3.org/2000/svg">
<path d="M19.9783 8.83171C20.0849 8.70092 19.7719 8.49928 19.6301 8.38531C19.1707 8.01566 18.7471 7.60253 18.2833 7.23843C18.2192 7.18726 18.1244 7.2048 18.0809 7.27368C14.4577 12.9934 13.7438 13.9082 13.7486 12.2598C13.7525 10.9222 14.1924 7.89667 14.2317 4.38108C14.2333 4.23687 14.1221 4.11557 13.9755 4.10806C13.1971 4.06744 10.6051 3.80371 10.6053 4.28805C10.6077 8.20531 10.9583 9.9097 10.7152 13.3031C10.5494 13.6629 10.1014 13.0977 9.9922 12.9631C9.61225 12.4951 9.30128 11.97 9.00205 11.45C8.17922 10.0197 7.49967 8.51198 6.75261 7.04305C6.59299 6.72905 6.43118 6.41612 6.26606 6.10497C6.15892 5.90333 5.57331 6.15775 5.43773 6.20606C5.1218 6.31878 4.81358 6.45029 4.50592 6.58269C4.29989 6.67144 3.90086 6.76376 4.02268 7.07061C5.8419 11.6517 7.57177 15.7777 11.5472 19.8578C11.7131 20.0052 11.9633 20.0272 12.1721 19.9729C12.4546 19.8991 12.6814 19.6789 12.8639 19.4653C13.5661 18.6438 14.1695 17.7253 14.7786 16.8364C15.4031 15.9252 16.0142 15.0048 16.6196 14.0812C17.2008 13.1943 17.7762 12.3038 18.3477 11.411C18.6256 10.9768 18.9109 10.5474 19.1914 10.1147C19.3318 9.89861 19.471 9.68175 19.6075 9.46311C19.7297 9.26773 19.7501 9.24895 19.9759 8.8378C19.977 8.83601 19.9764 8.83332 19.9779 8.83171" fill="#006BD9"/>
</svg>
