<svg width="240" height="240" viewBox="0 0 240 240" fill="none" xmlns="http://www.w3.org/2000/svg">
<path d="M78.759 88.1777C80.7812 87.5733 82.6857 86.5733 84.7079 85.9689C86.7301 85.3644 88.8345 85.0355 90.859 84.4311C92.6145 83.9066 94.579 83.62 96.539 83.0333C98.3523 82.4911 100.192 81.7977 102.099 81.2266C103.952 80.6711 105.868 80.2289 107.735 79.6711C109.626 79.1066 111.292 77.8355 113.121 77.2911C115.059 76.7133 116.928 76.1244 118.708 75.5955C119.11 75.4466 119.652 75.7577 120.077 75.6577C120.101 75.6511 121.706 75.5133 122.53 75.5133C124.497 75.5133 126.219 76.0066 127.808 76.9266C129.397 77.8466 130.735 79.1466 131.681 80.7844C132.628 82.4222 133.466 84.1 133.466 86.0666C133.466 87.8444 132.783 88.52 131.839 90.8955C130.881 93.3066 131.53 93.5711 130.537 95.9666C129.543 98.3622 129.29 98.2578 128.297 100.653C127.303 103.049 126.83 102.853 125.837 105.249C124.843 107.644 125.148 107.771 124.152 110.167C123.157 112.562 123.381 112.656 122.386 115.051C121.39 117.447 121.301 117.411 120.308 119.807C119.312 122.202 119.839 122.524 118.161 124.504C116.692 123.796 115.261 123.191 113.71 122.647C112.175 122.109 110.508 122.038 108.901 121.671C107.319 121.311 105.801 120.522 104.157 120.34C102.548 120.16 100.892 120.636 99.2368 120.636C98.1545 120.636 97.859 120.976 97.1123 120.193C97.719 118.569 98.0057 116.867 98.619 115.238C99.2323 113.609 99.8368 111.976 100.452 110.358C101.068 108.74 102.075 107.24 102.688 105.631C103.41 103.733 103.995 102.731 104.717 100.833C104.79 100.638 105.423 99.3178 105.523 99.0311C105.561 98.9222 104.763 99.0778 104.652 99.1111C101.543 100.004 101.401 99.5111 98.2923 100.404C95.1834 101.298 95.3768 101.971 92.2657 102.864C91.4901 103.087 90.7479 103.631 90.9145 104.42C91.4723 107.062 91.5034 107.056 92.0612 109.698C92.619 112.34 92.4457 112.378 93.0034 115.02C93.5612 117.662 93.6945 117.633 94.2457 120.278C94.8101 122.984 95.1568 122.511 95.799 125.604C96.1434 127.267 96.4434 129.169 96.839 131.036C97.119 132.104 97.239 133.267 97.1123 134.38C96.9257 136.009 96.4434 137.698 95.5279 138.929C94.5857 140.198 92.9345 140.793 91.4879 141.427C90.0834 142.04 88.5412 142.824 86.9101 142.638C84.9168 142.409 83.0968 141.236 81.7079 139.913C80.319 138.591 79.8057 136.696 79.4812 134.716C78.9901 132.384 77.839 130.631 77.439 128.647C77.0634 126.787 77.2479 124.736 76.7434 122.309C76.2368 119.882 75.6879 119.998 75.1812 117.571C74.6745 115.144 74.8723 115.104 74.3634 112.678C73.6812 109.427 73.5901 109.613 72.8701 106.204C72.3812 103.898 71.9234 101.433 71.5523 99.6933C71.1501 97.8089 71.1612 96.0377 71.4857 94.5466C71.8612 92.8266 72.9323 91.4822 74.2523 90.3244C75.4012 89.3177 76.9212 88.7289 78.7679 88.1777H78.759Z" fill="#006BD9"/>
<path d="M98.9869 203.66C97.2447 203.656 95.5714 202.916 93.8892 202.687C92.1692 202.453 90.4314 202.458 88.7892 202.007C87.1203 201.549 85.4603 201.051 83.8869 200.384C82.298 199.711 80.7536 198.916 79.2803 198.044C77.7981 197.169 76.6403 195.838 75.2892 194.78C73.9358 193.72 72.4936 192.789 71.2892 191.564C70.0869 190.34 68.7669 189.196 67.7292 187.822C66.6958 186.456 65.8092 184.956 64.9558 183.46C64.1092 181.973 63.0447 180.54 62.3914 178.942C61.7381 177.344 61.3914 175.622 60.9492 173.949C60.5136 172.302 60.6336 170.529 60.4114 168.809C60.1936 167.124 60.1981 165.44 60.1981 163.7C60.1981 161.096 59.498 161.096 59.498 158.491C59.498 155.887 59.8958 155.887 59.8958 153.282C59.8958 150.678 60.1669 150.678 60.1669 148.073C60.1669 145.469 59.5714 145.469 59.5714 142.864C59.5714 140.26 59.8358 140.26 59.8358 137.656C59.8358 135.051 60.0803 135.051 60.0803 132.447C60.0803 129.842 59.6514 129.842 59.6514 127.238C59.6514 125.898 60.918 125.242 62.258 125.242C64.0773 125.242 65.8973 125.243 67.7181 125.244C70.4469 125.244 70.4536 124.42 73.0847 125.144C73.4114 126.736 74.0203 127.742 74.2914 129.084C74.7047 131.129 74.9803 133.087 75.4825 135.476C75.8003 137.329 76.498 138.996 77.518 140.487C78.558 142.002 79.8647 143.264 81.438 144.218C82.9825 145.153 84.7292 145.429 86.598 145.642C86.7936 145.664 88.9581 146.269 91.5514 145.547C93.0269 145.136 94.378 144.031 95.838 143C97.1269 142.089 98.7336 141.307 99.5914 139.709C100.3 138.391 100.476 136.684 100.647 134.782C100.787 133.229 100.809 131.7 100.429 130.2C99.8914 127.66 99.7958 126.409 99.5092 125.007C101.238 125.016 102.789 124.696 104.46 124.924C106.131 125.153 107.771 125.887 109.402 126.333C111.034 126.78 112.64 127.38 114.205 128.038C115.785 128.702 117.311 129.424 118.778 130.282C120.256 131.147 121.734 131.993 123.08 133.036C124.431 134.082 125.836 135.087 127.038 136.298C128.24 137.507 129.578 138.658 130.618 140.013C131.654 141.367 132.107 143.133 132.963 144.616C133.811 146.089 134.414 147.658 135.069 149.242C135.718 150.809 136.609 152.289 137.054 153.949C137.489 155.582 137.64 157.284 137.865 158.996C138.082 160.667 138.243 162.349 138.243 164.08C138.243 165.811 137.934 167.491 137.714 169.173C137.494 170.856 137.258 172.562 136.816 174.204C136.367 175.873 135.882 177.498 135.227 179.073C134.565 180.664 133.562 182.044 132.702 183.522C131.838 185.011 131.254 186.653 130.209 188.011C129.16 189.371 127.809 190.447 126.596 191.658C125.382 192.869 124.289 194.198 122.925 195.244C121.565 196.287 120.274 197.473 118.782 198.333C117.291 199.193 115.589 199.616 113.994 200.273C112.398 200.931 110.807 201.471 109.136 201.916C107.494 202.351 105.8 202.504 104.08 202.724C102.4 202.94 100.722 203.667 98.9825 203.662L98.9869 203.66Z" fill="#006BD9"/>
<path d="M180.403 186.976C180.196 189.098 178.663 190.684 177.2 192.084C175.738 193.484 174.083 194.924 171.954 195.036C169.932 195.142 167.985 194.376 166.458 193.316C164.889 192.224 163.912 190.5 163.329 188.638C162.427 186.053 162.554 186.004 161.62 183.429C160.687 180.853 160.063 181.08 159.132 178.504C158.198 175.929 158.82 175.704 157.889 173.129C156.956 170.553 156.805 170.609 155.872 168.033C154.938 165.458 155.114 165.396 154.18 162.82C153.247 160.244 152.656 160.46 151.723 157.884C150.789 155.309 150.885 155.276 149.949 152.7C149.532 151.564 148.612 150.8 147.4 150.8C144.218 150.8 144.043 151.867 140.945 151.131C140.425 149.496 139.694 147.613 138.994 146.067C138.287 144.507 137.776 142.853 136.898 141.396C136.016 139.931 134.652 138.816 133.609 137.467C132.565 136.116 131.865 134.887 130.674 133.667C133.009 132.9 133.032 133.567 135.489 133.567C137.947 133.567 137.947 133.389 140.407 133.389C142.867 133.389 142.865 133.682 145.325 133.682C147.785 133.682 147.785 133.771 150.243 133.771C152.7 133.771 152.703 133.696 155.16 133.696C157.078 133.696 158.665 134.278 160.167 135.327C161.669 136.373 163.189 137.507 163.852 139.307C164.74 141.744 164.487 141.838 165.374 144.278C166.26 146.718 166.792 146.524 167.676 148.964C168.563 151.404 168.14 151.558 169.027 153.998C169.914 156.438 170.007 156.404 170.894 158.844C171.78 161.284 171.589 161.353 172.474 163.796C173.36 166.236 173.716 166.107 174.603 168.547C175.489 170.987 175.434 171.007 176.32 173.447C177.207 175.887 176.84 176.02 177.727 178.462C178.614 180.902 178.809 180.831 179.687 183.276C180.078 184.413 180.532 185.68 180.405 186.976H180.403Z" fill="#006BD9"/>
<path d="M134.924 36.0333C136.078 36.0333 137.211 36.1622 138.309 36.3644C139.436 36.5711 140.527 36.8978 141.576 37.2978C142.64 37.7044 143.682 38.1689 144.647 38.7555C145.616 39.3444 146.507 40.0578 147.356 40.8089C148.204 41.5578 149.029 42.3467 149.738 43.2333C150.444 44.1133 151.044 45.0844 151.596 46.0822C152.138 47.0667 152.564 48.1178 152.94 49.1978C153.307 50.2555 153.624 51.3444 153.813 52.4778C153.998 53.5778 154.062 54.7089 154.062 55.8622C154.062 57.0156 153.973 58.1444 153.789 59.2444C153.6 60.3778 153.338 61.48 152.969 62.5378C152.593 63.6178 152.184 64.6867 151.642 65.6711C151.091 66.6711 150.433 67.6044 149.727 68.4867C149.016 69.3755 148.213 70.1844 147.364 70.9333C146.513 71.6822 145.598 72.36 144.627 72.9489C143.662 73.5355 142.633 74.0222 141.571 74.4289C140.52 74.8289 139.44 75.2 138.313 75.4067C137.216 75.6089 136.076 75.7133 134.92 75.7133C133.764 75.7133 132.638 75.5467 131.54 75.3444C130.413 75.1378 129.322 74.8244 128.273 74.4222C127.209 74.0155 126.209 73.4867 125.242 72.9C124.273 72.3111 123.338 71.6711 122.487 70.9222C121.638 70.1733 120.844 69.36 120.133 68.4711C119.429 67.5911 118.804 66.64 118.253 65.6422C117.709 64.6578 117.227 63.6289 116.851 62.5467C116.484 61.4867 116.173 60.3889 115.984 59.2555C115.8 58.1555 115.742 57.0178 115.742 55.8622C115.742 54.7067 115.891 53.5844 116.073 52.4844C116.264 51.3511 116.478 50.2355 116.844 49.1778C117.22 48.0978 117.68 47.0533 118.222 46.0667C118.773 45.0689 119.418 44.1267 120.124 43.2467C120.836 42.36 121.64 41.5555 122.489 40.8089C123.34 40.06 124.273 39.4178 125.242 38.8289C126.209 38.2422 127.189 37.6622 128.253 37.2555C129.302 36.8555 130.413 36.5956 131.54 36.3867C132.638 36.1844 133.767 36.06 134.92 36.06" fill="#006BD9"/>
</svg>
