<svg width="240" height="240" viewBox="0 0 240 240" fill="none" xmlns="http://www.w3.org/2000/svg">
<path d="M161.226 64.5244C161.226 62.7378 161.097 61.0222 160.888 59.4533C160.653 57.6822 159.766 56.1489 159.302 54.6333C158.779 52.9333 158.273 51.3578 157.517 49.9511C156.684 48.4 155.622 47.1289 154.575 45.9022C153.444 44.5778 152.533 43.0867 151.244 42.0933C149.866 41.0311 148.382 40.1311 146.939 39.3933C145.366 38.5889 143.717 38.06 142.213 37.5667C140.442 36.9867 138.786 36.4267 137.339 36.1644C134.362 35.6244 134.802 35.9733 132.282 35.9733C129.864 35.9733 129.864 35.6089 127.444 35.6089C125.368 35.6089 125.368 36.1533 123.293 36.1533C121.217 36.1533 121.217 35.7 119.142 35.7C116.724 35.7 116.724 35.6511 114.304 35.6511C114.304 35.6511 112.273 35.9067 109.295 36.4467C107.848 36.7089 106.086 36.8178 104.315 37.3956C102.81 37.8889 101.366 38.88 99.7926 39.6844C98.3504 40.4222 96.966 41.3556 95.5882 42.4156C94.2993 43.4089 93.0971 44.5378 91.966 45.8644C90.9193 47.0911 89.586 48.2289 88.7526 49.78C87.9971 51.1844 87.4771 52.8289 86.9571 54.5311C86.4926 56.0467 85.9238 57.6756 85.6882 59.4489C85.4793 61.02 85.5638 62.7378 85.5638 64.5244C85.5638 66.3111 85.7837 67.98 85.8793 69.6156C85.9815 71.3755 85.7971 73.1044 85.9971 74.7289C86.2104 76.48 86.9482 78.0867 87.2549 79.6933C87.586 81.4267 87.4949 83.1911 87.9104 84.7733C88.3571 86.48 89.3504 87.9578 89.8638 89.5111C90.4171 91.1844 90.5749 92.9311 91.1682 94.4556C91.8082 96.0978 92.9415 97.4667 93.5815 98.9756C94.2704 100.598 94.5082 102.338 95.1415 103.849C95.8215 105.471 96.3571 107.064 96.9015 108.613C97.4793 110.26 98.1126 111.809 98.4504 113.438C98.7949 115.102 98.8593 116.749 98.8593 118.469C98.8593 120.189 98.9726 121.873 98.6282 123.538C98.2904 125.167 97.646 126.738 97.066 128.382C96.5215 129.931 95.7193 131.424 95.0393 133.047C94.406 134.558 93.9326 136.196 93.2438 137.818C92.6038 139.324 91.9082 140.876 91.2682 142.518C90.6726 144.044 89.8971 145.578 89.3437 147.251C88.8304 148.804 88.6993 150.544 88.2526 152.249C87.8371 153.831 87.5415 155.498 87.2104 157.231C86.9038 158.838 86.5882 160.498 86.3726 162.249C86.1749 163.873 86.0726 165.56 85.9704 167.32C85.8749 168.956 85.8215 170.642 85.8215 172.407C85.8215 174.171 85.9726 175.844 86.1815 177.416C86.4171 179.187 86.3682 180.922 86.8326 182.438C87.3549 184.14 87.9704 185.76 88.726 187.164C89.5593 188.716 90.7415 189.993 91.7882 191.22C92.9193 192.547 94.2104 193.642 95.4993 194.636C96.8771 195.698 98.3949 196.429 99.8371 197.167C101.41 197.971 102.913 198.742 104.417 199.236C106.188 199.816 107.875 200.104 109.322 200.367C112.299 200.907 111.786 201.34 114.306 201.34C116.826 201.34 116.724 201.258 119.144 201.258C121.219 201.258 121.219 200.702 123.295 200.702C125.37 200.702 125.37 200.976 127.446 200.976C129.864 200.976 129.864 201.144 132.284 201.144C134.704 201.144 134.328 201.109 137.308 200.567C138.755 200.304 140.428 199.887 142.197 199.307C143.702 198.813 145.239 198.084 146.813 197.28C148.255 196.542 149.753 195.744 151.13 194.68C152.419 193.687 153.862 192.704 154.993 191.378C156.039 190.151 157.002 188.698 157.835 187.147C158.59 185.742 158.937 184.044 159.459 182.344C159.924 180.829 160.35 179.211 160.586 177.438C160.795 175.867 160.904 174.191 160.904 172.404C160.904 170.618 160.719 168.953 160.624 167.32C160.522 165.56 160.35 163.88 160.15 162.256C159.937 160.504 159.93 158.789 159.624 157.182C159.293 155.449 158.928 153.784 158.513 152.202C158.066 150.496 157.642 148.842 157.128 147.289C156.575 145.616 155.67 144.138 155.077 142.611C154.437 140.969 153.67 139.456 153.03 137.949C152.342 136.327 151.904 134.671 151.27 133.16C150.59 131.538 150.082 129.922 149.537 128.373C148.959 126.727 148.27 125.169 147.933 123.54C147.588 121.876 147.604 120.187 147.604 118.467C147.604 116.747 147.399 115.018 147.744 113.353C148.082 111.724 148.993 110.216 149.57 108.569C150.115 107.02 150.513 105.36 151.193 103.738C151.826 102.227 152.277 100.578 152.966 98.9556C153.606 97.4489 154.666 96.0533 155.306 94.4111C155.902 92.8844 156.224 91.2 156.777 89.5289C157.29 87.9756 158.25 86.4844 158.697 84.78C159.113 83.1978 159.35 81.4956 159.682 79.7622C159.988 78.1556 160.262 76.4689 160.475 74.7178C160.673 73.0933 160.459 71.3711 160.564 69.6111C160.659 67.9756 161.226 66.2911 161.226 64.5289V64.5244ZM111.568 158.873C110.219 158.873 109.444 158.109 109.444 156.764C109.444 155.42 110.217 154.102 111.568 154.102C112.919 154.102 114.088 155.416 114.088 156.764C114.088 158.113 112.917 158.873 111.568 158.873ZM111.568 151.547C110.219 151.547 109.444 150.787 109.444 149.438C109.444 148.089 110.217 146.771 111.568 146.771C112.919 146.771 114.088 148.084 114.088 149.438C114.088 150.791 112.917 151.547 111.568 151.547ZM111.568 144.22C110.219 144.22 109.444 143.46 109.444 142.107C109.444 140.753 110.217 139.444 111.568 139.444C112.919 139.444 114.088 140.762 114.088 142.107C114.088 143.451 112.917 144.22 111.568 144.22ZM111.568 136.893C110.219 136.893 109.444 136.129 109.444 134.78C109.444 133.431 110.217 132.113 111.568 132.113C112.919 132.113 114.088 133.431 114.088 134.78C114.088 136.129 112.917 136.893 111.568 136.893ZM111.568 129.567C110.219 129.567 109.444 128.802 109.444 127.453C109.444 126.104 110.217 124.787 111.568 124.787C112.919 124.787 114.088 126.104 114.088 127.453C114.088 128.802 112.917 129.567 111.568 129.567ZM111.568 122.236C110.219 122.236 109.444 121.471 109.444 120.127C109.444 118.782 110.217 117.46 111.568 117.46C112.919 117.46 114.088 118.778 114.088 120.127C114.088 121.476 112.917 122.236 111.568 122.236ZM111.568 114.911C110.219 114.911 109.444 114.147 109.444 112.802C109.444 111.458 110.217 110.136 111.568 110.136C112.919 110.136 114.088 111.449 114.088 112.802C114.088 114.156 112.917 114.911 111.568 114.911ZM111.568 107.584C110.219 107.584 109.444 106.824 109.444 105.471C109.444 104.118 110.217 102.809 111.568 102.809C112.919 102.809 114.088 104.127 114.088 105.471C114.088 106.816 112.917 107.584 111.568 107.584ZM111.568 100.258C110.219 100.258 109.444 99.4933 109.444 98.1444C109.444 96.7955 110.217 95.4778 111.568 95.4778C112.919 95.4778 114.088 96.7955 114.088 98.1444C114.088 99.4933 112.917 100.258 111.568 100.258ZM111.568 92.9311C110.219 92.9311 109.444 92.1667 109.444 90.8178C109.444 89.4689 110.217 88.1511 111.568 88.1511C112.919 88.1511 114.088 89.4689 114.088 90.8178C114.088 92.1667 112.917 92.9311 111.568 92.9311ZM111.568 85.6C110.219 85.6 109.444 84.8356 109.444 83.4911C109.444 82.1467 110.217 80.8244 111.568 80.8244C112.919 80.8244 114.088 82.1422 114.088 83.4911C114.088 84.84 112.917 85.6 111.568 85.6ZM111.568 78.2733C110.219 78.2733 109.444 77.5089 109.444 76.1644C109.444 74.82 110.217 73.4978 111.568 73.4978C112.919 73.4978 114.088 74.8111 114.088 76.1644C114.088 77.5178 112.917 78.2733 111.568 78.2733ZM117.43 162.88C116.082 162.88 115.306 162.116 115.306 160.771C115.306 159.427 116.079 158.1 117.43 158.1C118.782 158.1 119.95 159.418 119.95 160.771C119.95 162.124 118.779 162.88 117.43 162.88ZM117.43 155.553C116.082 155.553 115.306 154.789 115.306 153.44C115.306 152.091 116.079 150.773 117.43 150.773C118.782 150.773 119.95 152.091 119.95 153.44C119.95 154.789 118.779 155.553 117.43 155.553ZM117.43 148.222C116.082 148.222 115.306 147.458 115.306 146.113C115.306 144.769 116.079 143.451 117.43 143.451C118.782 143.451 119.95 144.764 119.95 146.113C119.95 147.462 118.779 148.222 117.43 148.222ZM117.43 140.898C116.082 140.898 115.306 140.138 115.306 138.789C115.306 137.44 116.079 136.122 117.43 136.122C118.782 136.122 119.95 137.44 119.95 138.789C119.95 140.138 118.779 140.898 117.43 140.898ZM117.43 133.576C116.082 133.576 115.306 132.811 115.306 131.458C115.306 130.104 116.079 128.796 117.43 128.796C118.782 128.796 119.95 130.113 119.95 131.458C119.95 132.802 118.779 133.576 117.43 133.576ZM117.43 126.244C116.082 126.244 115.306 125.48 115.306 124.136C115.306 122.791 116.079 121.464 117.43 121.464C118.782 121.464 119.95 122.782 119.95 124.136C119.95 125.489 118.779 126.244 117.43 126.244ZM117.43 118.918C116.082 118.918 115.306 118.153 115.306 116.804C115.306 115.456 116.079 114.138 117.43 114.138C118.782 114.138 119.95 115.456 119.95 116.804C119.95 118.153 118.779 118.918 117.43 118.918ZM117.43 111.587C116.082 111.587 115.306 110.822 115.306 109.478C115.306 108.133 116.079 106.816 117.43 106.816C118.782 106.816 119.95 108.129 119.95 109.478C119.95 110.827 118.779 111.587 117.43 111.587ZM117.43 104.26C116.082 104.26 115.306 103.5 115.306 102.151C115.306 100.802 116.079 99.4844 117.43 99.4844C118.782 99.4844 119.95 100.802 119.95 102.151C119.95 103.5 118.779 104.26 117.43 104.26ZM117.43 96.94C116.082 96.94 115.306 96.1756 115.306 94.8222C115.306 93.4689 116.079 92.16 117.43 92.16C118.782 92.16 119.95 93.4778 119.95 94.8222C119.95 96.1667 118.779 96.94 117.43 96.94ZM117.43 89.6089C116.082 89.6089 115.306 88.8444 115.306 87.4956C115.306 86.1467 116.079 84.8289 117.43 84.8289C118.782 84.8289 119.95 86.1467 119.95 87.4956C119.95 88.8444 118.779 89.6089 117.43 89.6089ZM117.43 82.2822C116.082 82.2822 115.306 81.5178 115.306 80.1689C115.306 78.82 116.079 77.5022 117.43 77.5022C118.782 77.5022 119.95 78.82 119.95 80.1689C119.95 81.5178 118.779 82.2822 117.43 82.2822ZM123.293 158.873C121.944 158.873 121.168 158.109 121.168 156.764C121.168 155.42 121.942 154.102 123.293 154.102C124.644 154.102 125.813 155.416 125.813 156.764C125.813 158.113 124.642 158.873 123.293 158.873ZM123.293 151.547C121.944 151.547 121.168 150.787 121.168 149.438C121.168 148.089 121.942 146.771 123.293 146.771C124.644 146.771 125.813 148.084 125.813 149.438C125.813 150.791 124.642 151.547 123.293 151.547ZM123.293 144.22C121.944 144.22 121.168 143.46 121.168 142.107C121.168 140.753 121.942 139.444 123.293 139.444C124.644 139.444 125.813 140.762 125.813 142.107C125.813 143.451 124.642 144.22 123.293 144.22ZM123.293 136.893C121.944 136.893 121.168 136.129 121.168 134.78C121.168 133.431 121.942 132.113 123.293 132.113C124.644 132.113 125.813 133.431 125.813 134.78C125.813 136.129 124.642 136.893 123.293 136.893ZM123.293 129.567C121.944 129.567 121.168 128.802 121.168 127.453C121.168 126.104 121.942 124.787 123.293 124.787C124.644 124.787 125.813 126.104 125.813 127.453C125.813 128.802 124.642 129.567 123.293 129.567ZM123.293 122.236C121.944 122.236 121.168 121.471 121.168 120.127C121.168 118.782 121.942 117.46 123.293 117.46C124.644 117.46 125.813 118.778 125.813 120.127C125.813 121.476 124.642 122.236 123.293 122.236ZM123.293 114.911C121.944 114.911 121.168 114.147 121.168 112.802C121.168 111.458 121.942 110.136 123.293 110.136C124.644 110.136 125.813 111.449 125.813 112.802C125.813 114.156 124.642 114.911 123.293 114.911ZM123.293 107.584C121.944 107.584 121.168 106.824 121.168 105.471C121.168 104.118 121.942 102.809 123.293 102.809C124.644 102.809 125.813 104.127 125.813 105.471C125.813 106.816 124.642 107.584 123.293 107.584ZM123.293 100.258C121.944 100.258 121.168 99.4933 121.168 98.1444C121.168 96.7955 121.942 95.4778 123.293 95.4778C124.644 95.4778 125.813 96.7955 125.813 98.1444C125.813 99.4933 124.642 100.258 123.293 100.258ZM123.293 92.9311C121.944 92.9311 121.168 92.1667 121.168 90.8178C121.168 89.4689 121.942 88.1511 123.293 88.1511C124.644 88.1511 125.813 89.4689 125.813 90.8178C125.813 92.1667 124.642 92.9311 123.293 92.9311ZM123.293 85.6C121.944 85.6 121.168 84.8356 121.168 83.4911C121.168 82.1467 121.942 80.8244 123.293 80.8244C124.644 80.8244 125.813 82.1422 125.813 83.4911C125.813 84.84 124.642 85.6 123.293 85.6ZM123.293 78.2733C121.944 78.2733 121.168 77.5089 121.168 76.1644C121.168 74.82 121.942 73.4978 123.293 73.4978C124.644 73.4978 125.813 74.8111 125.813 76.1644C125.813 77.5178 124.642 78.2733 123.293 78.2733ZM129.155 162.88C127.806 162.88 127.03 162.116 127.03 160.771C127.03 159.427 127.804 158.1 129.155 158.1C130.506 158.1 131.675 159.418 131.675 160.771C131.675 162.124 130.504 162.88 129.155 162.88ZM129.155 155.553C127.806 155.553 127.03 154.789 127.03 153.44C127.03 152.091 127.804 150.773 129.155 150.773C130.506 150.773 131.675 152.091 131.675 153.44C131.675 154.789 130.504 155.553 129.155 155.553ZM129.155 148.222C127.806 148.222 127.03 147.458 127.03 146.113C127.03 144.769 127.804 143.451 129.155 143.451C130.506 143.451 131.675 144.764 131.675 146.113C131.675 147.462 130.504 148.222 129.155 148.222ZM129.155 140.898C127.806 140.898 127.03 140.138 127.03 138.789C127.03 137.44 127.804 136.122 129.155 136.122C130.506 136.122 131.675 137.44 131.675 138.789C131.675 140.138 130.504 140.898 129.155 140.898ZM129.155 133.576C127.806 133.576 127.03 132.811 127.03 131.458C127.03 130.104 127.804 128.796 129.155 128.796C130.506 128.796 131.675 130.113 131.675 131.458C131.675 132.802 130.504 133.576 129.155 133.576ZM129.155 126.244C127.806 126.244 127.03 125.48 127.03 124.136C127.03 122.791 127.804 121.464 129.155 121.464C130.506 121.464 131.675 122.782 131.675 124.136C131.675 125.489 130.504 126.244 129.155 126.244ZM129.155 118.918C127.806 118.918 127.03 118.153 127.03 116.804C127.03 115.456 127.804 114.138 129.155 114.138C130.506 114.138 131.675 115.456 131.675 116.804C131.675 118.153 130.504 118.918 129.155 118.918ZM129.155 111.587C127.806 111.587 127.03 110.822 127.03 109.478C127.03 108.133 127.804 106.816 129.155 106.816C130.506 106.816 131.675 108.129 131.675 109.478C131.675 110.827 130.504 111.587 129.155 111.587ZM129.155 104.26C127.806 104.26 127.03 103.5 127.03 102.151C127.03 100.802 127.804 99.4844 129.155 99.4844C130.506 99.4844 131.675 100.802 131.675 102.151C131.675 103.5 130.504 104.26 129.155 104.26ZM129.155 96.94C127.806 96.94 127.03 96.1756 127.03 94.8222C127.03 93.4689 127.804 92.16 129.155 92.16C130.506 92.16 131.675 93.4778 131.675 94.8222C131.675 96.1667 130.504 96.94 129.155 96.94ZM129.155 89.6089C127.806 89.6089 127.03 88.8444 127.03 87.4956C127.03 86.1467 127.804 84.8289 129.155 84.8289C130.506 84.8289 131.675 86.1467 131.675 87.4956C131.675 88.8444 130.504 89.6089 129.155 89.6089ZM129.155 82.2822C127.806 82.2822 127.03 81.5178 127.03 80.1689C127.03 78.82 127.804 77.5022 129.155 77.5022C130.506 77.5022 131.675 78.82 131.675 80.1689C131.675 81.5178 130.504 82.2822 129.155 82.2822ZM135.015 158.873C133.666 158.873 132.89 158.109 132.89 156.764C132.89 155.42 133.664 154.102 135.015 154.102C136.366 154.102 137.535 155.416 137.535 156.764C137.535 158.113 136.364 158.873 135.015 158.873ZM135.015 151.547C133.666 151.547 132.89 150.787 132.89 149.438C132.89 148.089 133.664 146.771 135.015 146.771C136.366 146.771 137.535 148.084 137.535 149.438C137.535 150.791 136.364 151.547 135.015 151.547ZM135.015 144.22C133.666 144.22 132.89 143.46 132.89 142.107C132.89 140.753 133.664 139.444 135.015 139.444C136.366 139.444 137.535 140.762 137.535 142.107C137.535 143.451 136.364 144.22 135.015 144.22ZM135.015 136.893C133.666 136.893 132.89 136.129 132.89 134.78C132.89 133.431 133.664 132.113 135.015 132.113C136.366 132.113 137.535 133.431 137.535 134.78C137.535 136.129 136.364 136.893 135.015 136.893ZM135.015 129.567C133.666 129.567 132.89 128.802 132.89 127.453C132.89 126.104 133.664 124.787 135.015 124.787C136.366 124.787 137.535 126.104 137.535 127.453C137.535 128.802 136.364 129.567 135.015 129.567ZM135.015 122.236C133.666 122.236 132.89 121.471 132.89 120.127C132.89 118.782 133.664 117.46 135.015 117.46C136.366 117.46 137.535 118.778 137.535 120.127C137.535 121.476 136.364 122.236 135.015 122.236ZM135.015 114.911C133.666 114.911 132.89 114.147 132.89 112.802C132.89 111.458 133.664 110.136 135.015 110.136C136.366 110.136 137.535 111.449 137.535 112.802C137.535 114.156 136.364 114.911 135.015 114.911ZM135.015 107.584C133.666 107.584 132.89 106.824 132.89 105.471C132.89 104.118 133.664 102.809 135.015 102.809C136.366 102.809 137.535 104.127 137.535 105.471C137.535 106.816 136.364 107.584 135.015 107.584ZM135.015 100.258C133.666 100.258 132.89 99.4933 132.89 98.1444C132.89 96.7955 133.664 95.4778 135.015 95.4778C136.366 95.4778 137.535 96.7955 137.535 98.1444C137.535 99.4933 136.364 100.258 135.015 100.258ZM135.015 92.9311C133.666 92.9311 132.89 92.1667 132.89 90.8178C132.89 89.4689 133.664 88.1511 135.015 88.1511C136.366 88.1511 137.535 89.4689 137.535 90.8178C137.535 92.1667 136.364 92.9311 135.015 92.9311ZM135.015 85.6C133.666 85.6 132.89 84.8356 132.89 83.4911C132.89 82.1467 133.664 80.8244 135.015 80.8244C136.366 80.8244 137.535 82.1422 137.535 83.4911C137.535 84.84 136.364 85.6 135.015 85.6ZM135.015 78.2733C133.666 78.2733 132.89 77.5089 132.89 76.1644C132.89 74.82 133.664 73.4978 135.015 73.4978C136.366 73.4978 137.535 74.8111 137.535 76.1644C137.535 77.5178 136.364 78.2733 135.015 78.2733Z" fill="#006BD9"/>
</svg>
