<svg width="240" height="240" viewBox="0 0 240 240" fill="none" xmlns="http://www.w3.org/2000/svg">
<path d="M182.165 139.409C181.843 139.409 181.525 139.007 181.211 138.976C178.58 138.96 178.58 138.778 175.949 138.778C173.318 138.778 173.318 139.289 170.685 139.289C168.051 139.289 167.967 139.782 165.374 139.336C163.696 138.138 161.843 137.027 159.84 136.382C157.907 135.76 155.885 135.52 153.747 135.52C151.609 135.52 149.596 135.791 147.663 136.413C145.663 137.058 143.707 137.604 142.029 138.8C139.338 139.251 139.345 139.153 136.616 139.153C133.889 139.153 133.889 139.371 131.16 139.371C128.431 139.371 128.431 138.962 125.705 138.962C122.976 138.962 122.976 139.096 120.249 139.096C117.523 139.096 117.52 139.2 114.794 139.2C112.065 139.2 112.065 138.907 109.336 138.907C106.607 138.907 106.607 138.991 103.878 138.991C101.149 138.991 101.149 138.924 98.4203 138.924C95.6914 138.924 95.6914 138.831 92.9625 138.831C90.2337 138.831 90.2337 138.733 87.5048 138.733C85.6292 138.733 83.7514 139.162 81.9492 138.907C80.1003 138.642 78.2581 138.251 76.5025 137.738C74.7181 137.213 73.0514 136.333 71.3825 135.571C69.6959 134.8 68.1537 133.782 66.607 132.787C65.0514 131.784 63.2803 131.04 61.887 129.831C60.4914 128.62 59.5937 126.896 58.3825 125.5C57.1737 124.107 55.5892 122.978 54.587 121.42C53.5914 119.873 53.1914 117.976 52.4203 116.289C51.6581 114.62 51.0848 112.9 50.5625 111.116C50.0492 109.36 49.6448 107.598 49.3803 105.751C49.1225 103.947 48.5359 102.144 48.5359 100.269C48.5359 97.6067 48.4581 97.6067 48.4581 94.9422C48.4581 92.28 48.3848 92.28 48.3848 89.6178C48.3848 86.9556 48.5914 86.9556 48.5914 84.2933C48.5914 81.6311 48.887 81.6311 48.887 78.9689C48.887 76.3067 48.4225 76.3067 48.4225 73.6422C48.4225 70.98 48.7159 70.98 48.7159 68.3156C48.7159 65.6533 48.5981 65.6533 48.5981 62.9889C48.5981 60.3267 48.8625 60.3267 48.8625 57.6622C48.8625 54.9978 48.5048 54.9978 48.5048 52.3356C48.5048 49.6711 48.727 49.6711 48.7292 47.0089C48.7337 45.3578 49.0937 43.7689 49.8759 42.4378C50.6803 41.0689 51.9048 39.9689 53.287 39.18C54.6225 38.4156 56.1759 38.0133 57.827 38.0133C60.5581 38.0133 60.5581 37.9378 63.287 37.9378C66.0159 37.9378 66.0181 37.8533 68.7492 37.8533C71.4803 37.8533 71.4803 37.9356 74.2114 37.9356C76.9425 37.9356 76.9425 38.0956 79.6737 38.0956C82.4048 38.0956 82.4048 37.9356 85.1359 37.9356C87.867 37.9356 87.867 37.9467 90.5981 37.9467C93.3292 37.9467 93.3292 37.9311 96.0603 37.9311C98.7914 37.9311 98.7914 37.7222 101.525 37.7222C104.258 37.7222 104.256 37.9978 106.989 37.9978C107.745 37.9978 108.38 38.5978 108.38 39.3533C108.38 43.1933 108.394 43.1933 108.396 47.0333C108.4 49.3756 107.431 51.5111 105.898 53.0489C104.365 54.5845 102.231 55.2178 99.8892 55.2178C96.9648 55.2178 96.9648 55.3156 94.0425 55.3156C91.1181 55.3156 91.1181 55.2845 88.1959 55.2845C85.2714 55.2845 85.2714 55.6489 82.347 55.6489C79.4225 55.6489 79.4225 55.4778 76.4981 55.4778C73.5737 55.4778 73.5737 55.4511 70.6492 55.4511C68.4937 55.4511 66.7114 57.36 66.7114 59.5156C69.147 60.5133 69.3781 59.5356 72.0092 59.5356C74.6403 59.5356 74.6403 59.7356 77.2714 59.7356C79.9025 59.7356 79.9025 59.6467 82.5337 59.6467C85.1648 59.6467 85.1648 59.3089 87.7959 59.3089C90.427 59.3089 90.427 59.5222 93.0581 59.5222C95.6892 59.5222 95.6892 59.1556 98.3203 59.1556C100.951 59.1556 100.951 59.5156 103.583 59.5156C106.214 59.5156 106.214 59.5978 108.845 59.5978C111.476 59.5978 111.476 59.6689 114.107 59.6689C116.738 59.6689 116.738 59.1533 119.369 59.1533C122 59.1533 122 59.4844 124.631 59.4844C127.263 59.4844 127.263 59.46 129.894 59.46C132.525 59.46 132.525 59.1644 135.156 59.1644C137.787 59.1644 137.787 59.7089 140.418 59.7089C143.049 59.7089 143.049 59.6533 145.68 59.6533C148.311 59.6533 148.311 59.2867 150.943 59.2867C153.574 59.2867 153.574 59.0933 156.205 59.0933C158.836 59.0933 158.836 59.6111 161.467 59.6111C164.098 59.6111 164.098 59.6467 166.729 59.6467C169.36 59.6467 169.36 59.3156 171.991 59.3156C174.623 59.3156 174.623 59.1956 177.256 59.1956C179.889 59.1956 179.887 59.5333 182.52 59.5333C184.111 59.5333 185.569 59.9089 186.856 60.6533C188.18 61.42 189.411 62.4156 190.178 63.74C190.923 65.0244 191.287 66.5689 191.287 68.16C191.287 68.1756 191.467 68.1778 191.467 68.1933C191.423 70.4956 190.289 72.6222 188.736 74.1067C187.189 75.5867 185.02 76.5556 182.727 76.5556C180.14 76.5556 180.14 76.7422 177.554 76.7422C175.829 76.7422 174.105 76.7437 172.38 76.7467C169.794 76.7467 169.794 76.5044 167.207 76.5044C164.62 76.5044 164.62 76.5711 162.034 76.5711C159.447 76.5711 159.447 76.3867 156.86 76.3867C154.274 76.3867 154.274 76.1245 151.687 76.1245C149.1 76.1245 149.1 76.2556 146.514 76.2556C143.927 76.2556 143.927 76.4022 141.34 76.4022C138.754 76.4022 138.754 76.4622 136.165 76.4622C133.578 76.4622 133.578 76.7245 130.989 76.7245C128.403 76.7245 128.403 76.6222 125.814 76.6222C123.227 76.6222 123.227 76.54 120.638 76.54C118.049 76.54 118.049 76.4178 115.463 76.4178C112.876 76.4178 112.874 76.1733 110.287 76.1733C109.207 76.1733 108.354 77.3089 108.36 78.3889C108.351 79.4578 109.2 80.0311 110.269 80.0311C112.858 80.0311 112.858 80.4689 115.447 80.4689C118.036 80.4689 118.036 80.1556 120.625 80.1556C123.214 80.1556 123.214 80.2622 125.803 80.2622C128.391 80.2622 128.391 80.6311 130.98 80.6311C133.569 80.6311 133.569 80.4022 136.16 80.4022C138.751 80.4022 138.749 80.2756 141.338 80.2756C143.927 80.2756 143.927 80.2022 146.516 80.2022C149.105 80.2022 149.105 80.1 151.694 80.1C154.283 80.1 154.283 80.0467 156.874 80.0467C159.465 80.0467 159.463 80.2733 162.054 80.2733C164.645 80.2733 164.643 80.5044 167.234 80.5044C169.825 80.5044 169.823 80.1222 172.414 80.1222C175.005 80.1222 175.005 80.58 177.594 80.58C180.183 80.58 180.185 80.0489 182.774 80.0489C185.116 80.0489 187.34 81.1778 188.876 82.7111C190.411 84.2467 191.1 86.4689 191.1 88.8133C191.1 91.1578 190.236 93.1667 188.711 94.6911C187.187 96.2156 185.16 97.1267 182.831 97.1267C180.234 97.1267 180.234 97.4689 177.638 97.4689C175.04 97.4689 175.04 97 172.443 97C169.845 97 169.845 97.4889 167.249 97.4889C164.651 97.4889 164.651 97.0733 162.056 97.0733C159.458 97.0733 159.458 96.9933 156.863 96.9933C154.265 96.9933 154.265 97.3333 151.667 97.3333C149.069 97.3333 149.069 97.1533 146.471 97.1533C143.874 97.1533 143.874 97.5689 141.276 97.5689C138.678 97.5689 138.678 97.3289 136.08 97.3289C133.483 97.3289 133.483 97.1889 130.885 97.1889C128.287 97.1889 128.251 97.6867 125.671 97.3778C124.216 96.5822 122.716 95.6356 121.071 95.2156C119.48 94.8089 117.765 94.7311 116.049 94.7311C114.245 94.7311 112.538 95.18 110.874 95.6267C109.151 96.0889 107.409 96.4933 105.903 97.3689C104.374 98.2556 102.811 99.2245 101.569 100.467C100.327 101.709 99.5092 103.36 98.6248 104.889C97.7514 106.398 96.887 107.969 96.4248 109.691C95.9781 111.356 96.067 113.144 96.067 114.949C96.067 116.753 96.3759 118.436 96.8225 120.1C97.2848 121.822 97.4559 123.671 98.3314 125.18C99.2181 126.709 100.7 127.818 101.943 129.06C103.185 130.302 104.547 131.347 106.076 132.233C107.585 133.107 109.174 133.738 110.896 134.2C112.563 134.647 114.249 135 116.054 135C117.751 135 119.354 134.733 120.929 134.336C122.556 133.924 124.249 133.676 125.691 132.896C127.156 132.104 128.196 130.716 129.414 129.6C130.634 128.482 132.16 127.604 133.078 126.218C133.987 124.847 134.463 123.053 135.02 121.476C137.585 120.787 137.716 121.467 140.371 121.467C143.027 121.467 143.027 121.522 145.68 121.522C148.334 121.522 148.336 121.907 150.989 121.907C153.643 121.907 153.645 121.48 156.3 121.48C158.956 121.48 158.956 121.636 161.611 121.636C164.267 121.636 164.267 121.349 166.923 121.349C169.578 121.349 169.578 121.642 172.234 121.642C174.889 121.642 174.889 121.591 177.545 121.591C180.2 121.591 180.2 121.736 182.856 121.736C185.185 121.736 187.523 122.347 189.047 123.873C190.574 125.4 191.287 127.736 191.287 130.064C191.287 131.718 190.645 133.156 189.865 134.489C189.063 135.86 188.205 137.302 186.82 138.093C185.483 138.86 183.825 139.416 182.169 139.416L182.165 139.409Z" fill="#006BD9"/>
<path d="M182.85 117.489C180.248 117.489 180.248 117.809 177.646 117.809C175.911 117.809 174.176 117.809 172.441 117.809C169.839 117.809 169.839 117.533 167.237 117.533C164.635 117.533 164.635 117.847 162.032 117.847C159.43 117.847 159.43 117.469 156.828 117.469C155.093 117.469 153.358 117.469 151.623 117.469C149.021 117.469 149.021 117.413 146.417 117.413C143.815 117.413 143.815 117.407 141.21 117.407C138.608 117.407 138.521 118.438 135.959 117.978C136.086 117.064 136.192 115.889 136.192 114.942C136.192 113.164 136.117 111.407 135.681 109.767C135.232 108.069 134.557 106.427 133.706 104.936C132.843 103.424 131.601 101.878 130.395 100.64C132.899 99.8711 133.083 100.591 135.701 100.591C138.319 100.591 138.319 100.784 140.939 100.784C143.559 100.784 143.559 100.967 146.177 100.967C148.795 100.967 148.797 101.051 151.415 101.051C154.032 101.051 154.035 101.131 156.652 101.131C159.27 101.131 159.272 100.829 161.892 100.829C164.512 100.829 164.512 100.573 167.13 100.573C169.748 100.573 169.75 100.729 172.37 100.729C174.99 100.729 174.99 100.704 177.61 100.704C180.23 100.704 180.23 100.862 182.85 100.862C185.179 100.862 187.252 101.842 188.779 103.369C190.303 104.893 191.315 106.967 191.315 109.296C191.315 111.624 190.439 113.833 188.915 115.36C187.39 116.887 185.179 117.491 182.85 117.491V117.489Z" fill="#006BD9"/>
<path d="M116.049 97.4644C114.155 97.4644 112.264 97.6911 110.555 98.2467C108.784 98.8222 107.149 99.8022 105.675 100.876C104.187 101.96 102.88 103.311 101.795 104.8C100.722 106.276 99.6999 107.887 99.1244 109.656C98.5666 111.364 98.3555 113.262 98.3555 115.156C98.3555 117.049 98.8866 118.842 99.4421 120.551C99.9977 122.26 100.835 123.953 101.911 125.429C102.995 126.918 104.244 128.278 105.733 129.362C107.209 130.438 108.873 131.233 110.642 131.811C112.411 132.389 114.158 132.553 116.053 132.553C117.949 132.553 119.707 132.224 121.415 131.667C123.187 131.091 125.078 130.684 126.551 129.609C128.04 128.524 128.909 126.773 129.991 125.284C131.064 123.809 131.978 122.289 132.553 120.518C133.129 118.747 133.551 117.049 133.551 115.156C133.551 113.262 133.158 111.489 132.6 109.78C132.042 108.071 131.415 106.249 130.34 104.776C129.255 103.287 127.793 102.127 126.304 101.042C124.829 99.9689 123.202 99.1689 121.433 98.5911C119.724 98.0333 117.947 97.4622 116.053 97.4622L116.049 97.4644ZM122.018 119.94C122.018 119.953 121.931 119.947 121.931 119.96C121.867 120.949 121.227 121.611 120.24 121.529C118.96 121.42 118.958 121.453 117.678 121.347C115.904 121.198 115.918 121.024 114.144 120.873C112.871 120.767 112.862 120.864 111.589 120.758C110.475 120.664 109.578 119.664 109.938 118.529C110.189 117.736 111.093 117.198 111.924 117.269C113.178 117.376 113.778 118.638 114.424 117.56C115.742 115.369 115.747 114.86 114.8 112.487C114.327 111.3 113.564 112.529 112.291 112.422C111.178 112.329 110.202 110.993 110.562 109.856C110.813 109.062 111.791 108.938 112.62 109.009C113.487 109.082 113.54 108.451 114.407 108.524C115.033 108.578 115.022 108.689 115.649 108.742C116.275 108.796 116.289 108.947 116.942 109.002C117.915 109.084 118.793 110.02 118.711 110.993C118.422 114.433 116.944 114.562 117.873 117.887C118.218 119.124 119.26 117.853 120.54 117.96C121.491 118.04 122.08 118.991 122.018 119.942V119.94Z" fill="#006BD9"/>
<path d="M109.949 166.884C108.056 166.884 106.165 167.111 104.456 167.667C102.685 168.242 101.049 169.222 99.5759 170.296C98.087 171.38 96.7803 172.731 95.6959 174.22C94.6225 175.696 93.6003 177.307 93.0247 179.076C92.4492 180.844 92.2559 182.682 92.2559 184.576C92.2559 186.469 92.787 188.262 93.3425 189.971C93.9181 191.742 94.7359 193.373 95.8114 194.849C96.8959 196.338 98.1448 197.698 99.6336 198.782C101.109 199.858 102.774 200.653 104.543 201.231C106.254 201.789 108.058 201.973 109.954 201.973C111.849 201.973 113.607 201.644 115.316 201.087C117.025 200.529 118.978 200.104 120.451 199.029C121.94 197.944 122.809 196.193 123.891 194.704C124.965 193.229 125.878 191.709 126.454 189.938C127.009 188.229 127.451 186.469 127.451 184.576C127.451 182.682 127.058 180.909 126.5 179.2C125.925 177.429 125.316 175.669 124.24 174.196C123.156 172.707 121.694 171.547 120.205 170.462C118.716 169.378 117.103 168.589 115.334 168.011C113.625 167.453 111.847 166.882 109.954 166.882L109.949 166.884ZM115.916 189.362C115.916 189.376 115.829 189.369 115.829 189.382C115.765 190.371 115.125 191.033 114.138 190.951C112.858 190.842 112.856 190.876 111.576 190.769C109.803 190.62 109.816 190.447 108.043 190.296C106.769 190.189 106.76 190.287 105.487 190.18C104.374 190.087 103.476 189.087 103.836 187.951C104.087 187.158 104.991 186.62 105.823 186.691C107.076 186.798 107.676 188.06 108.323 186.982C109.64 184.791 109.645 184.282 108.698 181.909C108.225 180.722 107.463 181.951 106.189 181.844C105.076 181.751 104.1 180.416 104.46 179.278C104.711 178.484 105.689 178.36 106.518 178.431C107.385 178.504 107.438 177.873 108.305 177.947C108.931 178 108.92 178.111 109.547 178.164C110.2 178.22 110.187 178.369 110.84 178.424C111.814 178.507 112.691 179.442 112.609 180.416C112.32 183.856 110.843 183.984 111.771 187.309C112.116 188.547 113.158 187.276 114.438 187.382C115.389 187.462 115.978 188.413 115.916 189.364V189.362Z" fill="#006BD9"/>
<path d="M153.747 137.736C151.853 137.736 150.031 138.213 148.322 138.771C146.551 139.347 144.725 139.945 143.249 141.02C141.76 142.105 140.653 143.682 139.569 145.171C138.496 146.647 137.807 148.336 137.229 150.105C136.651 151.873 136.096 153.578 136.096 155.471C136.096 157.365 136.478 159.191 137.036 160.902C137.611 162.673 138.307 164.438 139.38 165.911C140.465 167.4 141.987 168.529 143.476 169.613C144.951 170.689 146.458 171.887 148.229 172.465C149.938 173.022 151.856 172.987 153.749 172.987C155.642 172.987 157.478 172.773 159.189 172.216C160.96 171.638 162.653 170.833 164.127 169.758C165.616 168.673 166.76 167.202 167.845 165.713C168.918 164.238 169.942 162.691 170.52 160.92C171.078 159.209 171.618 157.365 171.618 155.471C171.618 153.578 171.211 151.689 170.656 149.978C170.1 148.267 168.785 146.805 167.709 145.329C166.625 143.84 165.473 142.465 163.985 141.38C162.509 140.305 160.873 139.565 159.105 138.987C157.336 138.409 155.645 137.733 153.751 137.733L153.747 137.736ZM160.318 155.247C160.182 156.273 160.105 157.262 159.682 158.142C159.26 159.018 158.48 159.587 157.673 160.273C156.985 160.858 156.338 161.616 155.3 162.031C154.509 162.347 153.38 162.562 152.327 162.413C151.258 162.262 150.305 161.647 149.665 161.105C148.918 160.471 148.149 159.58 147.64 158.549C147.113 157.485 147.02 156.356 147.109 155.396C147.242 153.962 147.238 152.767 147.722 151.893C148.327 150.809 149.396 150.429 150.62 150.025C151.585 149.707 152.667 149.262 154.065 149.253C155.102 149.247 156.14 149.307 157.22 149.307C158.227 149.307 159.269 149.389 160.376 149.389C160.387 149.389 160.529 149.267 160.529 149.278C160.636 150.293 160.485 151.313 160.518 152.282C160.553 153.32 160.442 154.298 160.318 155.245V155.247Z" fill="#006BD9"/>
</svg>
