<svg width="24" height="24" viewBox="0 0 24 24" fill="none" xmlns="http://www.w3.org/2000/svg">
<path d="M16.4235 19.8619C15.6947 19.8619 15.0709 19.6024 14.552 19.0834C14.0332 18.5644 13.7738 17.9406 13.7738 17.2119V6.78794C13.7738 6.05927 14.0333 5.43544 14.5523 4.91644C15.0713 4.39744 15.6952 4.13794 16.424 4.13794C17.1529 4.13794 17.7767 4.39744 18.2955 4.91644C18.8144 5.43544 19.0738 6.05927 19.0738 6.78794V17.2119C19.0738 17.9406 18.8143 18.5644 18.2953 19.0834C17.7763 19.6024 17.1524 19.8619 16.4235 19.8619ZM7.57553 19.8619C6.8467 19.8619 6.22286 19.6024 5.70403 19.0834C5.1852 18.5644 4.92578 17.9406 4.92578 17.2119V6.78794C4.92578 6.05927 5.18528 5.43544 5.70428 4.91644C6.22328 4.39744 6.8472 4.13794 7.57603 4.13794C8.30486 4.13794 8.9287 4.39744 9.44753 4.91644C9.96636 5.43544 10.2258 6.05927 10.2258 6.78794V17.2119C10.2258 17.9406 9.96628 18.5644 9.44728 19.0834C8.92828 19.6024 8.30436 19.8619 7.57553 19.8619Z" fill="#006BD9"/>
</svg>
