<svg width="24" height="24" viewBox="0 0 24 24" fill="none" xmlns="http://www.w3.org/2000/svg">
<path d="M9.94168 11.6323C9.58875 11.155 9.25165 10.664 8.92586 10.1685C7.99601 8.7455 7.21775 7.23421 6.38518 5.75234C6.35577 5.69804 6.3241 5.64374 6.29469 5.58944C6.19288 5.41071 5.82863 5.57134 5.69515 5.62338C5.29244 5.77722 4.90105 5.96274 4.51191 6.15052C4.30377 6.25006 3.87165 6.3745 4.03681 6.6754C4.56847 7.64823 5.09561 8.62333 5.6318 9.59163C6.16573 10.5577 6.71323 11.5169 7.28336 12.4626C7.87837 13.4445 8.50053 14.4106 9.15663 15.354C9.87381 16.3811 10.6317 17.3788 11.4258 18.3449C11.6973 18.6752 11.9303 19.0032 12.4122 18.8562C12.7765 18.7453 13.005 18.4173 13.229 18.1345C14.2312 16.8653 15.0095 15.4264 15.8511 14.0531C16.152 13.5599 16.4484 13.0644 16.7425 12.569C17.6384 11.0622 18.5207 9.54639 19.4076 8.0351C19.6089 7.69121 19.8035 7.34959 19.98 6.99439V6.98761C20.084 6.84734 19.756 6.64825 19.6089 6.53513C19.1157 6.15957 18.5456 5.90165 18.0524 5.52836C17.9845 5.47632 17.8895 5.49895 17.8465 5.57134C15.9913 8.79753 13.29 12.8653 12.3896 13.9875C12.2878 14.1164 12.0955 14.1278 11.9801 14.0124C11.2335 13.2794 10.5593 12.4762 9.93489 11.6368" fill="#006BD9"/>
</svg>
