<svg width="24" height="24" viewBox="0 0 24 24" fill="none" xmlns="http://www.w3.org/2000/svg">
<path d="M12.5107 10.0105C12.8129 10.0035 13.1173 9.96342 13.418 10.1003C13.4332 10.1073 13.4543 10.1145 13.4688 10.1345C13.4889 10.1625 13.4829 10.2133 13.4873 10.4402C13.4932 10.8042 13.4998 19.4682 13.5 19.8357C13.5002 20.0186 13.4806 19.9988 13.4414 19.9988C13.2432 19.9978 13.0449 19.9867 12.8467 19.9578C12.4516 19.9008 12.0555 19.8939 11.6602 19.9109C11.5309 19.9159 11.4027 19.9288 11.2734 19.9148C11.1673 19.9038 11.0612 19.9099 10.9551 19.9109C10.8273 19.9119 10.6998 19.9511 10.5723 19.9871C10.5058 20.0061 10.5 20.0194 10.5 19.8484C10.5 19.7277 10.5007 11.3248 10.501 11.2039C10.5017 11.0058 10.5024 10.8071 10.5039 10.6101C10.5044 10.5232 10.5051 10.4353 10.5059 10.3484L10.5078 10.2546C10.5125 10.1377 10.5265 10.0731 10.5586 10.0691C10.6327 10.0601 10.7033 10.0662 10.7734 10.0632C10.8739 10.0582 10.9747 10.0545 11.0752 10.0505C11.1752 10.0465 11.275 10.0398 11.375 10.0398C11.641 10.0308 11.9076 10.0243 12.1738 10.0183C12.2861 10.0153 12.3985 10.0135 12.5107 10.0105ZM11.8359 4.00659C12.4662 3.95656 12.9108 4.18978 13.377 4.60229C13.6564 4.84967 13.854 5.18396 13.9453 5.54663C13.9676 5.6353 13.9827 5.72399 13.9912 5.81226C14.0302 6.21853 13.9328 6.657 13.7705 7.02905C13.3031 8.1002 11.9672 8.21288 11.0381 7.71753C10.9834 7.68835 10.9298 7.65669 10.8779 7.6228C10.3393 7.27077 10.0267 6.67737 10.002 6.04077C9.97774 5.41613 10.2003 4.64395 10.7666 4.30249C11.0862 4.10989 11.4681 4.03581 11.8359 4.00659Z" fill="#006BD9"/>
</svg>
