<svg width="24" height="24" viewBox="0 0 24 24" fill="none" xmlns="http://www.w3.org/2000/svg">
<g clip-path="url(#clip0_1123_9148)">
<path d="M8.0625 9.00001C8.8385 9.00001 9.60825 9.09818 10.3717 9.29451C11.1351 9.49101 11.8402 9.77743 12.487 10.1538C13.1337 10.5303 13.6987 10.9926 14.182 11.5408C14.6653 12.0889 15.0186 12.7148 15.2418 13.4185C15.3273 13.8293 15.2372 14.1957 14.9715 14.5175C14.7057 14.8392 14.3624 15 13.9418 15H2.183C1.76233 15 1.41917 14.8392 1.1535 14.5175C0.887667 14.1957 0.7975 13.8293 0.883 13.4185C1.10633 12.7148 1.46142 12.0889 1.94825 11.5408C2.43525 10.9926 3.00208 10.5303 3.64875 10.1538C4.29558 9.77743 4.99892 9.49101 5.75875 9.29451C6.51842 9.09818 7.28633 9.00001 8.0625 9.00001ZM1.7745 19.212C1.431 19.212 1.14308 19.0958 0.91075 18.8635C0.678583 18.6312 0.5625 18.3433 0.5625 17.9998C0.5625 17.6603 0.678583 17.3734 0.91075 17.1393C1.14308 16.9051 1.431 16.788 1.7745 16.788H14.3505C14.6938 16.788 14.9817 16.9042 15.214 17.1365C15.4463 17.3688 15.5625 17.6568 15.5625 18.0003C15.5625 18.3398 15.4463 18.6266 15.214 18.8608C14.9817 19.0949 14.6938 19.212 14.3505 19.212H1.7745ZM1.7745 23.438C1.431 23.438 1.14308 23.3205 0.91075 23.0855C0.678583 22.8505 0.5625 22.5593 0.5625 22.212C0.5625 21.8687 0.678583 21.5808 0.91075 21.3485C1.14308 21.1162 1.431 21 1.7745 21H14.3505C14.6938 21 14.9817 21.1162 15.214 21.3485C15.4463 21.5808 15.5625 21.8688 15.5625 22.2123C15.5625 22.5558 15.4463 22.8459 15.214 23.0828C14.9817 23.3196 14.6938 23.438 14.3505 23.438H1.7745ZM20.357 23.438H18.8875C18.5193 23.438 18.2064 23.3093 17.9488 23.0518C17.6912 22.7941 17.5625 22.4812 17.5625 22.113V15C17.5625 13.2753 17.0173 11.7563 15.927 10.443C14.8368 9.12951 13.4675 8.19201 11.819 7.63051C11.5792 7.55218 11.3797 7.41626 11.2205 7.22276C11.0615 7.02926 10.9653 6.81259 10.932 6.57276L10.8712 6.04026C10.8284 5.6461 10.9379 5.30118 11.1997 5.00551C11.4618 4.70985 11.7892 4.56201 12.182 4.56201H15.718V1.77401C15.718 1.43051 15.8373 1.14259 16.076 0.910262C16.3148 0.678095 16.6042 0.562012 16.944 0.562012C17.2838 0.562012 17.5708 0.678095 17.8048 0.910262C18.0389 1.14259 18.156 1.43051 18.156 1.77401V4.56201H21.9713C22.3681 4.56201 22.6988 4.70568 22.9635 4.99301C23.228 5.28034 23.3389 5.6211 23.2963 6.01526L21.682 22.2413C21.6487 22.5761 21.505 22.8593 21.251 23.0908C20.997 23.3223 20.699 23.438 20.357 23.438Z" fill="#006BD9"/>
</g>
<defs>
<clipPath id="clip0_1123_9148">
<rect width="24" height="24" fill="white"/>
</clipPath>
</defs>
</svg>
