<svg width="24" height="24" viewBox="0 0 24 24" fill="none" xmlns="http://www.w3.org/2000/svg">
<path d="M19.9783 15.1683C20.0849 15.2991 19.7719 15.5007 19.6301 15.6147C19.1707 15.9843 18.7471 16.3975 18.2833 16.7616C18.2192 16.8127 18.1244 16.7952 18.0809 16.7263C14.4577 11.0066 13.7438 10.0918 13.7486 11.7402C13.7525 13.0778 14.1924 16.1033 14.2317 19.6189C14.2333 19.7631 14.1221 19.8844 13.9755 19.8919C13.1971 19.9326 10.6051 20.1963 10.6053 19.7119C10.6077 15.7947 10.9583 14.0903 10.7152 10.6969C10.5494 10.3371 10.1014 10.9023 9.9922 11.0369C9.61225 11.5049 9.30128 12.03 9.00205 12.55C8.17922 13.9803 7.49967 15.488 6.75261 16.9569C6.59299 17.271 6.43118 17.5839 6.26606 17.895C6.15892 18.0967 5.57331 17.8422 5.43773 17.7939C5.1218 17.6812 4.81358 17.5497 4.50592 17.4173C4.29989 17.3286 3.90086 17.2362 4.02267 16.9294C5.8419 12.3483 7.57177 8.22227 11.5472 4.14219C11.7131 3.99476 11.9633 3.97275 12.1721 4.02714C12.4546 4.10086 12.6814 4.32111 12.8639 4.53474C13.5661 5.35616 14.1695 6.27473 14.7786 7.16361C15.4031 8.07484 16.0142 8.9952 16.6196 9.91878C17.2008 10.8057 17.7762 11.6962 18.3477 12.589C18.6256 13.0232 18.9109 13.4526 19.1914 13.8853C19.3318 14.1014 19.471 14.3182 19.6075 14.5369C19.7297 14.7323 19.7501 14.751 19.9759 15.1622C19.977 15.164 19.9764 15.1667 19.9779 15.1683" fill="#006BD9"/>
</svg>
