<svg width="240" height="240" viewBox="0 0 240 240" fill="none" xmlns="http://www.w3.org/2000/svg">
<path d="M182.256 100.631C182.256 103.524 181.523 106.195 180.705 108.82C179.858 111.538 179.04 114.233 177.454 116.527C175.851 118.842 174.165 121.267 171.951 123.004C169.756 124.729 167.129 126.113 164.474 127.129C161.898 128.113 159 128.415 156.123 128.6C156.049 128.604 155.974 128.682 155.9 128.682C154.449 128.682 154.449 129.053 153 129.053C151.34 129.053 149.829 129.893 149.829 131.553C149.829 135.375 150.049 135.375 150.049 139.198C150.049 143.02 150.54 143.02 150.54 146.84C150.54 150.662 150.176 150.662 150.176 154.482C150.176 158.304 149.947 158.304 149.947 162.127C149.947 165.949 149.449 165.949 149.449 169.771C149.449 173.593 150.327 173.593 150.327 177.415C150.327 181.238 149.896 181.238 149.896 185.06C149.896 188.882 149.507 188.882 149.507 192.704C149.507 196.527 149.538 196.527 149.538 200.349C149.538 202.009 148.651 203.275 146.991 203.275C143.189 203.275 143.189 203.571 139.387 203.571C135.585 203.571 135.585 203.213 131.783 203.213C127.98 203.213 127.98 203.713 124.178 203.713C120.376 203.713 120.376 203.242 116.571 203.242C112.769 203.242 112.769 203.344 108.967 203.344C105.165 203.344 105.165 202.889 101.36 202.889C97.5581 202.889 97.5581 203.773 93.7536 203.773C91.6847 203.773 89.5336 201.678 89.5336 199.607C89.5336 195.827 89.7803 195.827 89.7803 192.044C89.7803 188.264 89.6003 188.264 89.6003 184.484C89.6003 180.704 90.4714 180.704 90.4714 176.924C90.4714 173.144 89.7314 173.144 89.7314 169.362C89.7314 165.582 89.7692 165.582 89.7692 161.8C89.7692 158.02 90.4403 158.02 90.4403 154.238C90.4403 150.458 89.5447 150.458 89.5447 146.675C89.5447 142.893 90.3892 142.893 90.3892 139.113C90.3892 135.333 90.1803 135.331 90.1803 131.551C90.1803 129.891 89.2714 128.68 87.1381 128.064C85.4781 128.064 84.1003 129.891 84.1003 131.551C84.1003 135.678 84.3625 135.678 84.3625 139.802C84.3625 143.929 83.6781 143.929 83.6781 148.055C83.6781 152.182 83.6381 152.182 83.6381 156.309C83.6381 160.435 84.4758 160.436 84.4758 164.562C84.4758 168.689 84.0092 168.689 84.0092 172.815C84.0092 176.942 84.4425 176.942 84.4425 181.069C84.4425 185.195 83.6114 185.195 83.6114 189.322C83.6114 190.982 82.6514 192.422 80.9914 192.422C76.3092 192.422 76.3092 192.844 71.627 192.844C69.2692 192.844 66.9514 192.058 65.0025 191.2C62.8514 190.253 60.6892 188.973 59.3892 187.273C58.0136 185.473 57.2114 183.002 57.2114 180.713C57.2114 176.989 57.8092 176.989 57.8092 173.262C57.8092 169.535 57.5381 169.535 57.5381 165.811C57.5381 162.084 57.2069 162.084 57.2069 158.36C57.2069 154.633 57.127 154.633 57.127 150.909C57.127 147.182 57.5825 147.182 57.5825 143.458C57.5825 139.731 58.1203 139.731 58.1203 136.004C58.1203 132.278 57.7958 132.278 57.7958 128.551C57.7958 126.042 58.3981 123.722 59.0181 121.409C59.6603 119.018 60.3492 116.727 61.5669 114.633C62.8003 112.511 64.1781 110.498 65.9069 108.775C67.6358 107.055 69.8358 106.002 71.9647 104.775C74.0625 103.567 76.1158 102.351 78.5114 101.716C80.8247 101.1 83.2047 101.058 85.7136 101.058C89.8736 101.058 89.8736 100.511 94.0336 100.511C98.1936 100.511 98.1936 100.269 102.354 100.269C106.514 100.269 106.514 100.062 110.674 100.062C114.834 100.062 114.834 100.151 118.994 100.151C123.154 100.151 123.154 100.176 127.316 100.176C131.476 100.176 131.476 100.198 135.638 100.198C139.8 100.198 139.8 100.74 143.96 100.74C148.123 100.74 148.123 100.067 152.283 100.069C154.34 100.069 155.907 98.9111 155.907 96.8555C155.907 92.7711 156.5 92.7711 156.5 88.6866C156.5 84.6022 156.265 84.6022 156.265 80.5155C156.265 76.4311 155.716 76.4311 155.716 72.3444C155.716 68.2577 155.898 68.2577 155.898 64.1733C155.898 60.0866 156.447 60.0866 156.447 56.0022C156.447 51.9155 156.365 51.9155 156.365 47.8288C156.365 43.7422 155.511 43.7422 155.511 39.6555C155.511 37.9955 157.351 36.9066 159.011 36.9066C163.694 36.9066 163.694 36.9533 168.376 36.9533C170.745 36.9533 172.878 37.3777 174.834 38.2688C176.976 39.2466 179.205 40.2266 180.5 41.9555C181.871 43.7866 182.629 46.1844 182.629 48.4711C182.629 52.1955 182.667 52.1955 182.667 55.9222C182.667 59.6488 181.84 59.6488 181.84 63.3733C181.84 67.0999 182.04 67.0999 182.04 70.8244C182.04 74.5511 182.271 74.5511 182.271 78.2755C182.271 80.7599 182.271 83.2436 182.271 85.7266C182.271 89.4533 182.169 89.4511 182.138 93.1777C182.107 96.9044 182.254 96.9066 182.254 100.633L182.256 100.631Z" fill="#006BD9"/>
<path d="M120.026 36.6467C121.77 36.6467 123.482 36.8401 125.142 37.1445C126.846 37.4578 128.493 37.9489 130.079 38.5556C131.688 39.1712 133.262 39.8734 134.722 40.7601C136.186 41.6489 137.53 42.729 138.817 43.8623C140.099 44.9934 141.346 46.1867 142.419 47.5267C143.486 48.8556 144.395 50.3223 145.228 51.8312C146.048 53.3201 146.693 54.9067 147.259 56.5401C147.815 58.1401 148.293 59.7845 148.579 61.4978C148.857 63.1601 148.957 64.8712 148.957 66.6156C148.957 68.3601 148.824 70.0645 148.546 71.7267C148.259 73.4378 147.864 75.1067 147.306 76.7045C146.739 78.3378 146.119 79.9512 145.299 81.4401C144.466 82.9512 143.47 84.3645 142.406 85.6956C141.33 87.0378 140.119 88.2623 138.837 89.3934C137.55 90.5267 136.166 91.549 134.699 92.4401C133.242 93.3245 131.688 94.0645 130.079 94.6778C128.493 95.2845 126.859 95.8445 125.155 96.1556C123.495 96.4601 121.77 96.6201 120.026 96.6201C118.282 96.6201 116.575 96.3667 114.915 96.0623C113.21 95.749 111.564 95.2756 109.977 94.669C108.368 94.0534 106.855 93.2556 105.395 92.3689C103.93 91.4801 102.515 90.5112 101.23 89.3778C99.9482 88.2467 98.7482 87.0156 97.6749 85.6734C96.6104 84.3445 95.666 82.9045 94.8327 81.3956C94.0104 79.9067 93.2793 78.3512 92.7127 76.7178C92.1571 75.1178 91.6882 73.4556 91.4038 71.7423C91.126 70.0801 91.0371 68.3578 91.0371 66.6134C91.0371 64.869 91.2616 63.1712 91.5371 61.5067C91.8238 59.7956 92.1504 58.1089 92.7038 56.5089C93.2727 54.8756 93.966 53.2956 94.7882 51.8089C95.6215 50.3001 96.5971 48.8778 97.6616 47.5467C98.7349 46.2067 99.9527 44.9912 101.237 43.8601C102.524 42.7267 103.933 41.7578 105.399 40.8667C106.859 39.9823 108.342 39.1023 109.95 38.4867C111.537 37.8801 113.215 37.4867 114.919 37.1756C116.579 36.8712 118.284 36.6823 120.028 36.6823" fill="#006BD9"/>
</svg>
