<svg width="240" height="240" viewBox="0 0 240 240" fill="none" xmlns="http://www.w3.org/2000/svg">
<path d="M111.654 98.6044C109.843 98.5066 109.854 98.3711 108.045 98.2266C106.267 98.2266 104.752 99.4222 104.41 101.167C103.556 105.511 103.405 105.482 102.552 109.827C101.698 114.171 101.65 114.162 100.796 118.507C100.307 120.993 98.3162 122.704 95.7807 122.704C92.0607 122.704 92.0607 122.889 88.3385 122.889C84.6185 122.889 84.6185 122.787 80.8962 122.787C77.174 122.787 77.174 123.047 73.454 123.047C69.734 123.047 69.7318 122.769 66.0118 122.769C63.4718 122.769 61.4096 121.007 60.9207 118.513C60.1962 114.827 59.9385 114.878 59.214 111.189C58.4896 107.5 58.4385 107.511 57.714 103.824C57.0718 100.558 54.3918 98.22 51.0629 98.22C48.9362 98.22 46.8651 99.1644 45.3029 100.556C43.6185 102.056 42.6607 103.996 43.1807 106.136C43.5762 107.76 44.4429 111.54 45.3874 115.513C46.1896 118.889 46.774 122.471 47.3607 124.947C47.8651 127.071 49.3896 128.789 51.2162 129.984C53.1718 131.264 55.8229 133.096 58.2807 134.829C61.7851 137.3 64.6385 139.684 64.5074 140.356C63.674 144.456 63.9785 144.518 63.1429 148.618C62.5859 151.351 62.0303 154.085 61.4762 156.82C60.6407 160.92 60.6962 160.931 59.8607 165.031C59.0251 169.131 58.9074 169.109 58.0718 173.209C57.2362 177.309 57.2829 177.318 56.454 181.42C55.9362 184.053 60.7962 186.951 63.5429 187.347C64.5096 187.487 65.014 188.52 65.014 189.496C65.014 190.887 65.0385 190.889 65.0385 192.28C65.0385 194.282 66.0096 196.082 67.3185 197.396C68.6318 198.707 70.4296 199.564 72.434 199.564C72.4807 199.564 76.2962 198.807 77.5207 197.584C78.7429 196.36 79.5585 194.642 79.5585 192.778C79.5562 190.891 79.2518 190.891 79.2474 189.004C79.2474 188.784 79.6807 186.631 79.7785 186.484C80.4629 185.453 82.3185 185.738 82.3851 187.596C82.3851 187.6 82.1496 190.187 82.1451 192.776C82.1451 194.64 83.0474 197.062 84.2696 198.287C85.494 199.509 93.2007 199.18 94.514 197.871C95.8251 196.558 96.5451 194.282 96.5451 192.278C96.5451 190.622 96.4851 190.622 96.4829 188.967C96.4829 188.247 97.6829 187.476 98.3429 187.089C99.0696 186.662 100.172 186.047 100.23 186.02C101.041 185.64 105.563 183.629 104.99 180.716C104.174 176.571 104.03 176.598 103.216 172.453C102.401 168.307 102.632 168.262 101.816 164.116C101.001 159.971 100.81 160.009 99.994 155.862C99.1785 151.716 99.2607 151.7 98.4451 147.553C97.6296 143.407 97.594 143.413 96.7807 139.269C96.6385 138.549 97.8896 137.667 98.5007 137.369C99.3474 136.958 100.185 136.549 101.012 136.098C102.427 135.324 104.112 134.964 105.43 133.958C106.965 132.787 109.11 131.873 110.594 130.631C112.29 129.538 112.881 127.547 113.827 125.764C114.096 125.26 115.107 123.093 115.132 123.002C115.485 121.678 116.201 118.16 116.972 114.584C117.681 111.3 118.441 107.967 118.872 106.191C119.876 102.064 116.076 98.5955 111.658 98.5955L111.654 98.6044Z" fill="#006BD9"/>
<path d="M189.408 98.2667C187.895 98.2667 187.895 98.3422 186.379 98.3422C184.808 98.3422 183.272 99.2244 182.97 100.764C182.026 105.573 182.041 105.576 181.097 110.384C180.152 115.193 180.446 115.251 179.501 120.058C179.184 121.671 177.641 122.609 175.995 122.611C172.288 122.649 172.29 122.889 168.584 122.938C164.877 122.984 164.875 122.747 161.168 122.793C157.461 122.84 157.461 122.853 153.755 122.9C150.048 122.947 150.055 123.087 146.348 122.993C144.537 122.947 144.539 123.058 142.732 122.922C141.328 122.922 139.997 121.844 139.726 120.467C139.057 117.058 139.277 117.016 138.606 113.609C137.935 110.202 137.888 110.209 137.219 106.802C136.55 103.396 136.641 103.376 135.972 99.9667C135.761 98.8956 134.69 98.1311 133.599 98.1311C131.672 98.1311 131.672 98.2555 129.746 98.2555C127.619 98.2555 125.466 99.06 123.904 100.451C122.219 101.951 121.43 103.962 121.952 106.102C122.272 107.416 122.864 109.869 123.577 112.596C124.132 114.72 124.721 117.018 125.264 119.078C126.212 122.673 125.908 122.367 126.677 125.627C127.026 127.478 128.868 129.051 130.93 130.627C132.637 131.929 134.586 133.209 136.546 134.191C138.981 135.413 141.297 136.307 142.675 136.827C143.497 137.138 144.175 137.891 144.384 138.744C144.49 139.176 144.575 139.189 144.557 139.633C144.428 142.964 143.904 142.942 143.786 146.273C143.65 150.102 143.95 150.113 143.95 153.944C143.95 157.776 144.026 157.776 144.026 161.609C144.026 165.44 143.948 165.44 143.946 169.273C143.946 171.827 143.944 174.382 143.939 176.938C143.939 180.771 144.024 180.771 144.021 184.602C144.021 187.158 143.992 189.713 143.932 192.267C143.572 200.504 151.252 199.313 151.261 199.313C151.27 199.313 158.221 200.102 157.835 192.769C157.732 188.384 158.161 188.38 158.168 183.996C158.172 181.073 158.175 178.149 158.175 175.224C158.181 170.84 157.908 170.838 157.915 166.453C157.915 165.622 158.75 164.96 159.577 164.944C160.404 164.962 161.266 165.622 161.266 166.453C161.272 170.838 160.984 170.838 160.99 175.222C160.997 179.607 161.037 179.607 161.044 183.993C161.05 188.38 160.924 188.378 160.915 192.764C160.868 200.444 167.886 199.478 167.897 199.476C167.906 199.476 175.675 200.133 175.068 192.271C174.919 188.442 174.995 188.436 174.995 184.604C174.995 180.773 175.217 180.773 175.215 176.942C175.215 173.111 175.357 173.111 175.357 169.28C175.357 165.449 175.015 165.449 175.012 161.618C175.012 157.787 175.044 157.787 175.041 153.953C175.039 150.12 175.172 150.124 175.032 146.293C174.919 143.144 174.564 143.158 174.579 140.009C174.586 138.669 174.179 138.253 175.277 137.484C176.788 136.427 178.79 137.147 178.888 137.153C183.019 137.444 185.826 135.953 187.839 134.064C191.497 130.633 192.312 125.578 192.312 125.578C193.175 122.344 192.888 122.651 193.837 119.058C194.381 117 195.17 114.756 195.724 112.633C196.435 109.909 197.048 107.46 197.368 106.144C197.888 104.004 196.937 101.951 195.255 100.453C193.692 99.0622 191.537 98.2733 189.41 98.2733L189.408 98.2667Z" fill="#006BD9"/>
<path d="M159.591 89.34C160.5 89.34 161.391 89.44 162.256 89.6C163.142 89.7622 164 90.02 164.827 90.3355C165.665 90.6555 166.485 91.0222 167.245 91.4822C168.007 91.9444 168.707 92.5066 169.376 93.0977C170.042 93.6866 170.691 94.3066 171.251 95.0066C171.807 95.7 172.28 96.4622 172.714 97.2489C173.14 98.0244 173.476 98.8511 173.771 99.7C174.06 100.533 174.309 101.389 174.458 102.28C174.602 103.147 174.654 104.036 174.654 104.944C174.654 105.853 174.585 106.74 174.438 107.607C174.289 108.498 174.082 109.367 173.794 110.2C173.498 111.051 173.176 111.891 172.749 112.664C172.316 113.451 171.798 114.187 171.243 114.88C170.682 115.578 170.051 116.218 169.385 116.804C168.716 117.396 167.994 117.927 167.231 118.391C166.471 118.851 165.662 119.236 164.827 119.556C164 119.871 163.149 120.162 162.262 120.327C161.398 120.484 160.5 120.569 159.594 120.569C158.687 120.569 157.796 120.438 156.934 120.278C156.047 120.116 155.189 119.867 154.362 119.553C153.525 119.233 152.738 118.818 151.976 118.356C151.214 117.893 150.476 117.389 149.807 116.798C149.14 116.209 148.514 115.569 147.956 114.869C147.4 114.176 146.909 113.427 146.476 112.642C146.049 111.867 145.667 111.058 145.371 110.207C145.082 109.373 144.838 108.509 144.689 107.616C144.545 106.751 144.498 105.853 144.498 104.947C144.498 104.04 144.614 103.153 144.758 102.289C144.907 101.398 145.078 100.52 145.365 99.6866C145.66 98.8355 146.022 98.0133 146.449 97.24C146.882 96.4555 147.391 95.7133 147.945 95.02C148.505 94.3222 149.138 93.6889 149.807 93.1C150.476 92.5089 151.211 92.0044 151.974 91.5422C152.734 91.0822 153.505 90.6244 154.342 90.3044C155.169 89.9889 156.042 89.7844 156.929 89.6222C157.794 89.4644 158.68 89.3644 159.589 89.3644" fill="#006BD9"/>
<path d="M80.6246 89.34C81.5335 89.34 82.4246 89.44 83.289 89.6C84.1757 89.7622 85.0335 90.02 85.8601 90.3355C86.6979 90.6555 87.5179 91.0222 88.2779 91.4822C89.0401 91.9444 89.7401 92.5066 90.409 93.0977C91.0757 93.6866 91.7246 94.3066 92.2846 95.0066C92.8401 95.7 93.3135 96.4622 93.7468 97.2489C94.1735 98.0244 94.509 98.8511 94.8046 99.7C95.0935 100.533 95.3424 101.389 95.4912 102.28C95.6357 103.147 95.6868 104.036 95.6868 104.944C95.6868 105.853 95.6179 106.74 95.4712 107.607C95.3224 108.498 95.1157 109.367 94.8268 110.2C94.5312 111.051 94.209 111.891 93.7824 112.664C93.349 113.451 92.8312 114.187 92.2757 114.88C91.7157 115.578 91.0846 116.218 90.4179 116.804C89.749 117.396 89.0268 117.927 88.2646 118.391C87.5046 118.851 86.6957 119.236 85.8601 119.556C85.0335 119.871 84.1824 120.162 83.2957 120.327C82.4312 120.484 81.5335 120.569 80.6268 120.569C79.7201 120.569 78.829 120.438 77.9668 120.278C77.0801 120.116 76.2224 119.867 75.3957 119.553C74.5579 119.233 73.7712 118.818 73.009 118.356C72.2468 117.893 71.509 117.389 70.8401 116.798C70.1735 116.209 69.5468 115.569 68.989 114.869C68.4335 114.176 67.9424 113.427 67.509 112.642C67.0824 111.867 66.7001 111.058 66.4046 110.207C66.1157 109.373 65.8712 108.509 65.7224 107.616C65.5779 106.751 65.5312 105.853 65.5312 104.947C65.5312 104.04 65.6468 103.153 65.7912 102.289C65.9401 101.398 66.1112 100.52 66.3979 99.6866C66.6935 98.8355 67.0557 98.0133 67.4824 97.24C67.9157 96.4555 68.4246 95.7133 68.9779 95.02C69.5379 94.3222 70.1712 93.6889 70.8401 93.1C71.509 92.5089 72.2446 92.0044 73.0068 91.5422C73.7668 91.0822 74.5379 90.6244 75.3757 90.3044C76.2024 89.9889 77.0757 89.7844 77.9624 89.6222C78.8268 89.4644 79.7135 89.3644 80.6224 89.3644" fill="#006BD9"/>
</svg>
