<svg width="240" height="240" viewBox="0 0 240 240" fill="none" xmlns="http://www.w3.org/2000/svg">
<path d="M188.266 56.7688C185.642 56.7688 185.642 56.8266 183.015 56.8266C180.391 56.8266 180.391 56.9066 177.764 56.9066C175.139 56.9066 175.139 56.8133 172.513 56.8133C169.888 56.8133 169.888 57.1133 167.262 57.1133C164.635 57.1133 164.635 56.7955 162.011 56.7955C159.386 56.7955 159.386 57.0177 156.759 57.0177C154.135 57.0177 154.135 57.1177 151.508 57.1177C148.884 57.1177 148.884 57.0555 146.257 57.0555C144.508 57.0555 142.757 57.0533 141.006 57.0488C138.382 57.0488 138.382 56.8199 135.755 56.8199C133.128 56.8199 133.128 56.8888 130.504 56.8888C127.879 56.8888 127.879 57.0888 125.253 57.0888C122.626 57.0888 122.626 56.7977 120.002 56.7977C117.375 56.7977 117.375 56.7711 114.751 56.7711C112.124 56.7711 112.124 56.8977 109.499 56.8977C106.873 56.8977 106.873 57.0399 104.248 57.0399C101.622 57.0399 101.622 56.8733 98.9972 56.8733C96.3728 56.8733 96.3728 56.9311 93.7461 56.9311C91.1217 56.9311 91.1217 56.7222 88.495 56.7222C85.8683 56.7222 85.8683 56.7399 83.2439 56.7399C80.6172 56.7399 80.6172 56.9999 77.9928 56.9999C75.3661 56.9999 75.3661 56.8133 72.7417 56.8133C70.9906 56.8133 69.2402 56.8118 67.4906 56.8088C64.8639 56.8088 64.8639 56.8466 62.2395 56.8466C59.615 56.8466 59.6128 56.9888 56.9861 56.9888C54.3595 56.9888 54.3595 56.7888 51.7328 56.7888C49.6883 56.7888 47.7861 57.4511 46.0083 58.1888C44.1661 58.9533 42.5883 60.0866 41.1995 61.4755C39.8106 62.8644 38.4928 64.3666 37.7283 66.2088C36.9906 67.9866 36.8039 69.9644 36.8039 72.0088C36.8039 74.6422 36.5083 74.6422 36.5083 77.2755C36.5083 79.9088 36.4395 79.9088 36.4395 82.5399C36.4395 85.1733 36.6461 85.1733 36.6461 87.8066C36.6461 89.5622 36.6483 91.3177 36.6528 93.0733C36.6528 95.7066 36.5906 95.7066 36.5906 98.3399C36.5906 100.973 36.7861 100.973 36.7861 103.604C36.7861 106.238 36.5706 106.238 36.5706 108.869C36.5706 111.502 36.7439 111.502 36.7439 114.135C36.7439 116.769 36.4995 116.769 36.4995 119.402C36.4995 122.035 36.7395 122.036 36.7395 124.669C36.7395 127.302 36.6039 127.302 36.6039 129.936C36.6039 132.569 36.8372 132.569 36.8372 135.202C36.8372 137.835 36.4483 137.835 36.4483 140.469C36.4483 143.102 36.6795 143.102 36.6795 145.736C36.6795 147.78 36.9261 149.787 37.6617 151.564C38.3972 153.342 39.6328 155.058 41.0217 156.447C42.4106 157.836 44.0617 159.04 45.9039 159.804C47.6817 160.542 49.6861 161 51.7306 161C54.3306 161 55.275 158.807 56.9506 160.793C58.9372 163.147 57.0683 163.891 57.0683 166.973C57.0683 170.053 56.8483 170.053 56.8483 173.135C56.8483 176.215 56.8706 176.216 56.8706 179.298C56.8706 182.089 59.895 183.984 62.3995 182.756C64.8372 181.438 64.7572 181.291 67.1661 179.924C69.5772 178.558 69.5639 178.538 71.975 177.171C74.3861 175.804 74.4883 175.987 76.8995 174.62C79.3106 173.253 79.2528 173.153 81.6639 171.787C84.075 170.42 83.975 170.242 86.3839 168.876C88.795 167.509 88.8217 167.555 91.2328 166.189C93.6439 164.822 93.7217 164.96 96.1328 163.593C98.5439 162.227 98.2595 161.564 100.939 160.851C103.577 160.149 103.657 160.809 106.388 160.809C109.119 160.809 109.117 160.787 111.846 160.787C114.575 160.787 114.575 160.627 117.304 160.627C120.033 160.627 120.033 160.624 122.762 160.624C125.491 160.624 125.491 160.664 128.219 160.664C130.948 160.664 130.948 160.715 133.677 160.715C136.406 160.715 136.406 160.66 139.135 160.66C141.864 160.66 141.864 160.613 144.593 160.613C147.322 160.613 147.322 160.838 150.051 160.838C152.779 160.838 152.779 160.924 155.508 160.924C158.237 160.924 158.237 161.009 160.966 161.009C163.695 161.009 163.695 160.838 166.424 160.838C169.153 160.838 169.153 160.922 171.882 160.922C174.611 160.922 174.611 160.738 177.339 160.738C180.068 160.738 180.068 161.027 182.799 161.027C185.531 161.027 185.528 160.62 188.259 160.62C190.304 160.62 192.317 160.564 194.095 159.829C195.937 159.064 197.462 157.72 198.851 156.331C200.239 154.942 201.231 153.271 201.995 151.429C202.733 149.651 203.417 147.784 203.417 145.74C203.417 143.107 203.324 143.107 203.324 140.473C203.324 137.84 203.508 137.84 203.508 135.209C203.508 132.578 203.286 132.576 203.286 129.942C203.286 127.309 203.235 127.309 203.235 124.675C203.235 122.92 203.235 121.164 203.235 119.409C203.235 116.776 203.342 116.776 203.342 114.144C203.342 111.511 203.293 111.511 203.293 108.88C203.293 106.247 203.206 106.247 203.206 103.613C203.206 100.98 203.233 100.98 203.233 98.3466C203.233 95.7133 203.133 95.7133 203.133 93.0799C203.133 90.4466 203.197 90.4466 203.197 87.8133C203.197 85.1799 203.146 85.1799 203.146 82.5466C203.146 79.9133 203.319 79.9133 203.319 77.2799C203.319 74.6466 203.377 74.6466 203.377 72.0133C203.377 69.9688 202.819 68.0666 202.082 66.2888C201.317 64.4466 200.448 62.6044 199.059 61.2155C197.671 59.8266 195.946 58.6733 194.104 57.9111C192.326 57.1733 190.306 56.7733 188.262 56.7733L188.266 56.7688ZM86.9195 107.398C86.735 108.798 86.4506 110.087 85.875 111.284C85.2995 112.478 84.5928 113.602 83.495 114.535C82.5572 115.333 81.3617 115.922 79.9461 116.487C78.8683 116.918 77.3995 117.276 75.9639 117.073C74.5039 116.867 73.2061 116.098 72.335 115.36C71.3172 114.496 70.1683 113.34 69.4728 111.933C68.755 110.482 68.2595 108.858 68.3817 107.549C68.5617 105.593 69.0039 104.002 69.6661 102.811C70.4906 101.331 71.7928 100.322 73.4617 99.7711C74.7772 99.3377 76.4195 99.4133 78.3261 99.4022C79.7417 99.3933 81.1572 99.2822 82.6283 99.2844C83.9995 99.2844 85.4217 99.1155 86.9328 99.1155C86.9461 99.1155 86.8239 99.2688 86.8261 99.2844C86.9706 100.671 87.0083 102.029 87.055 103.349C87.1039 104.764 87.095 106.102 86.9239 107.398H86.9195ZM128.737 103.584C128.484 105.073 128.297 106.509 127.995 107.882C127.675 109.338 127.393 110.753 126.851 112.082C126.293 113.453 125.213 114.527 124.011 115.431C122.791 116.351 121.473 117.253 120.059 117.478C118.502 117.727 117.033 117.216 115.839 116.353C114.537 115.409 113.026 114.191 111.988 112.66C110.886 111.038 110.004 109.204 109.999 107.653C109.993 105.869 110.439 104.342 111.071 103.16C111.811 101.771 113.017 100.747 114.475 100.113C115.746 99.5577 117.299 99.4711 118.993 99.4333C120.688 99.3977 122.382 99.3511 124.342 99.3599C125.911 99.3666 127.651 99.1666 129.695 99.1666C129.706 99.1666 129.584 99.2822 129.582 99.2933C129.271 100.776 128.977 102.202 128.742 103.582L128.737 103.584ZM171.075 103.584C170.822 105.073 170.635 106.509 170.333 107.882C170.013 109.338 169.731 110.753 169.188 112.082C168.631 113.453 167.551 114.527 166.348 115.431C165.128 116.351 163.811 117.253 162.397 117.478C160.839 117.727 159.371 117.216 158.177 116.353C156.875 115.409 155.364 114.191 154.326 112.66C153.224 111.038 152.342 109.204 152.337 107.653C152.331 105.869 152.777 104.342 153.408 103.16C154.148 101.771 155.355 100.747 156.813 100.113C158.084 99.5577 159.637 99.4711 161.331 99.4333C163.026 99.3977 164.719 99.3511 166.679 99.3599C168.248 99.3666 169.431 99.8355 171.473 99.8355C171.484 99.8355 171.362 99.9511 171.359 99.9622C171.048 101.444 171.313 102.202 171.077 103.582L171.075 103.584Z" fill="#006BD9"/>
</svg>
