<svg width="240" height="240" viewBox="0 0 240 240" fill="none" xmlns="http://www.w3.org/2000/svg">
<path d="M99.0398 176.522C97.8886 176.447 97.342 176.147 96.8531 176.22C94.7998 176.529 93.1553 176.444 91.7309 176.071C89.8331 175.571 88.4531 174.691 87.5153 173.318C86.582 171.949 86.2064 170.258 86.0509 168.411C85.9086 166.744 85.7064 164.942 86.0597 163.187C86.3709 161.638 86.9842 160.149 87.2998 158.6C87.6153 157.051 87.9686 155.511 88.2886 153.962C88.6064 152.416 88.8175 150.847 89.1398 149.298C89.4598 147.751 89.562 146.158 89.8842 144.611C90.2064 143.064 90.5753 141.527 90.8975 139.98C91.2198 138.433 91.4953 136.876 91.8175 135.329C92.1398 133.782 92.8109 132.309 93.1309 130.76C93.4486 129.213 93.7242 127.658 94.042 126.109C94.3598 124.56 94.4442 122.967 94.7598 121.418C95.0731 119.869 95.3509 118.313 95.662 116.762C95.9842 115.147 96.5375 113.576 96.8175 111.947C97.0953 110.331 97.3686 108.702 97.6242 107.064C97.8775 105.449 97.8109 103.771 98.0642 102.127C98.3131 100.516 98.5975 98.9844 98.8642 97.34C97.742 97.2311 96.782 97.0044 95.5286 96.8822C95.1842 98.4667 95.0375 100.133 94.6931 101.711C94.3486 103.293 93.6798 104.804 93.3353 106.384C92.9909 107.967 92.6664 109.549 92.322 111.129C91.9775 112.709 91.8886 114.342 91.5442 115.924C91.1998 117.502 90.7909 119.067 90.4464 120.649C90.102 122.227 89.7486 123.804 89.4042 125.389C89.0598 126.967 88.7353 128.549 88.3886 130.133C88.0464 131.711 87.7531 133.3 87.4086 134.887C87.0642 136.462 86.6664 138.064 86.322 139.651C84.5686 139.638 82.6798 139.698 80.8264 139.771C78.9842 139.847 77.1398 139.936 75.402 139.4C73.7931 138.902 72.1486 138.076 70.7953 136.48C69.3664 134.796 68.2686 131.707 68.7264 129.72C69.0931 128.142 69.6064 126.6 69.9909 125.027C70.3775 123.453 70.5464 121.827 70.9442 120.258C71.3442 118.689 72.0686 117.204 72.4775 115.638C72.8842 114.071 73.2131 112.482 73.622 110.916C74.0331 109.351 74.5242 107.804 74.9309 106.238C75.3398 104.671 75.5198 103.047 75.9198 101.476C76.322 99.9067 76.6709 98.3289 77.0598 96.7556C77.4464 95.1822 77.8442 93.6156 78.2109 92.0378C78.5909 90.4111 79.142 88.8867 79.8798 87.5444C80.6642 86.1133 81.7731 84.9333 82.8864 83.8356C84.0264 82.7156 85.3353 81.8289 86.7375 81.0689C88.1264 80.3156 89.5642 79.62 91.1264 79.2333C92.6509 78.8556 94.2509 78.7578 95.8664 78.7378C97.4664 78.7156 99.0664 78.5 100.666 78.4844C102.266 78.4689 103.871 78.5778 105.471 78.5689C107.071 78.5578 108.671 78.4889 110.273 78.4844C111.873 78.4778 113.475 78.6689 115.075 78.6667C116.678 78.6667 118.278 78.4622 119.878 78.4622C121.48 78.4622 123.08 78.6578 124.68 78.6622C126.282 78.6667 127.882 78.6111 129.482 78.6178C131.084 78.6244 132.686 78.4978 134.286 78.5044C135.886 78.5111 137.489 78.5044 139.089 78.5111C140.691 78.52 142.289 78.72 143.891 78.7289C145.28 78.7356 146.8 78.7111 148.278 79.1267C149.66 79.5156 150.982 80.26 152.311 80.9222C153.638 81.5844 155.033 82.1844 156.189 83.04C157.429 83.96 158.353 85.1711 159.246 86.22C160.3 87.4556 161.255 88.6556 161.598 89.9244C162.02 91.4911 162.406 93.0667 162.802 94.6378C163.2 96.2111 163.429 97.8244 163.809 99.4C164.189 100.976 164.5 102.569 164.873 104.144C165.246 105.722 165.713 107.278 166.091 108.853C166.478 110.46 166.891 112.062 167.278 113.669C167.666 115.276 168.122 116.867 168.504 118.473C168.889 120.082 169.066 121.738 169.435 123.349C169.804 124.96 170.218 126.562 170.566 128.176C170.915 129.796 170.96 131.218 170.813 132.502C170.633 134.056 170.078 135.262 169.071 136.333C168.189 137.273 167.098 138.158 165.5 138.731C164.295 139.162 162.884 139.544 161.238 139.769C159.986 139.938 158.706 139.764 157.42 139.733C156.158 139.704 154.971 139.664 153.691 139.664C153.315 137.982 152.731 136.42 152.358 134.744C151.984 133.062 151.651 131.373 151.278 129.698C150.904 128.016 150.633 126.313 150.262 124.638C149.889 122.956 149.34 121.318 148.966 119.642C148.593 117.96 148.238 116.278 147.869 114.6C147.498 112.918 147.124 111.242 146.755 109.562C146.384 107.884 146.02 106.204 145.653 104.527C145.391 103.329 145.415 102.029 145.453 100.798C145.504 99.0422 145.158 97.8911 144.249 97.3311C143.431 96.8289 142.178 96.7889 140.466 97.2844C140.784 98.7933 141.298 100.28 141.62 101.789C141.942 103.298 142.031 104.856 142.351 106.367C142.671 107.876 143.015 109.38 143.326 110.891C143.64 112.402 143.984 113.907 144.282 115.42C144.606 117.08 145.089 118.707 145.418 120.364C145.744 122.024 145.762 123.744 146.091 125.402C146.422 127.06 147.08 128.653 147.409 130.313C147.738 131.971 147.784 133.684 148.113 135.344C148.44 137.002 149.002 138.616 149.326 140.276C149.651 141.936 149.802 143.629 150.122 145.287C150.442 146.947 150.835 148.591 151.151 150.253C151.464 151.913 151.769 153.578 152.075 155.24C152.38 156.904 152.806 158.544 153.102 160.209C153.398 161.873 153.582 163.558 153.866 165.224C154.14 166.822 154.233 168.369 154.055 169.753C153.846 171.36 153.144 172.698 152.202 173.807C151.304 174.862 150.158 175.856 148.473 176.264C147.218 176.571 145.684 176.58 143.931 176.431C142.926 176.347 141.938 176.391 140.253 176.391C140.253 178.176 140.169 179.92 140.164 181.682C140.162 183.462 140.366 185.233 140.369 186.998C140.369 188.771 140.186 190.544 140.204 192.313C140.224 194.167 140.26 195.962 139.833 197.64C139.426 199.236 138.56 200.622 136.862 201.909C135.469 202.967 134.198 204.056 132.746 204.42C131.251 204.796 129.591 204.669 127.933 203.904C126.204 203.109 124.784 201.94 123.664 200.627C122.58 199.358 121.646 197.822 121.698 195.682C121.733 194.162 122.086 192.644 122.104 191.122C122.12 189.602 122.049 188.078 122.044 186.556C122.04 185.033 121.971 183.511 121.946 181.991C121.922 180.469 121.86 178.949 121.813 177.427C121.775 176.253 120.633 175.024 119.991 173.867C119.364 175.013 118.142 176.227 118.1 177.396C118.035 179.173 118.062 180.958 118.049 182.74C118.038 184.52 118.064 186.3 118.073 188.08C118.082 189.862 118.086 191.642 118.084 193.422C118.082 195.227 117.609 196.947 116.886 198.516C116.12 200.182 115.178 201.778 113.875 202.838C112.435 204.009 110.669 204.491 108.942 204.476C107.129 204.462 105.313 204.007 103.804 202.907C102.382 201.871 101.082 200.431 100.235 198.756C99.4353 197.178 98.9975 195.309 98.9598 193.429C98.922 191.553 99.0375 189.676 99.0353 187.789C99.0331 185.922 99.0886 184.044 99.0975 182.147C99.1064 180.284 99.2309 178.407 99.2309 176.502" fill="#006BD9"/>
<path d="M198.287 97.1867C196.876 97.1178 195.849 96.9622 194.667 96.9045C194.534 97.8733 194.569 98.7978 194.569 99.6178C194.569 101.316 194.471 103.013 194.471 104.711C194.471 106.409 194.509 108.107 194.507 109.802C194.507 111.5 194.467 113.198 194.467 114.896C194.467 116.593 194.434 118.291 194.434 119.989C194.434 121.687 194.238 123.384 194.238 125.08C194.238 126.776 194.358 128.476 194.358 130.173C194.358 131.871 194.363 133.569 194.363 135.267C194.363 136.964 194.449 138.662 194.449 140.358C194.449 142.053 194.271 143.753 194.271 145.451C194.271 147.149 194.314 148.707 194.314 150.333C194.314 151.96 194.465 153.587 194.465 155.213C194.465 156.84 194.38 158.469 194.38 160.096C194.38 161.722 194.374 163.349 194.374 164.978C194.374 166.607 194.329 168.231 194.329 169.858C194.329 171.484 194.52 173.111 194.52 174.74C194.52 176.369 194.431 177.993 194.431 179.62C194.431 181.247 194.391 182.873 194.391 184.502C194.391 186.131 194.474 187.756 194.474 189.382C194.474 191.009 194.22 192.638 194.22 194.264C194.22 196.056 193.86 197.709 193.085 199.182C192.267 200.733 191.205 202.153 189.785 203.078C188.356 204.007 186.643 204.48 184.871 204.484C182.978 204.491 181.345 204.022 180.016 203.149C178.64 202.247 177.445 200.964 176.776 199.247C176.223 197.822 176.103 196.082 176.103 194.178C176.103 192.624 175.923 191.073 175.923 189.52C175.923 187.967 176.178 186.416 176.178 184.862C176.178 183.309 175.916 181.758 175.916 180.204C175.916 178.651 176.189 177.1 176.189 175.547C176.189 173.993 176.151 172.442 176.151 170.889C176.151 169.336 175.983 167.784 175.983 166.231C175.983 164.678 176.231 163.127 176.231 161.573C176.231 160.02 176.234 158.469 176.231 156.916C176.229 155.362 176.207 153.811 176.203 152.258C176.2 150.704 176.24 149.153 176.236 147.6C176.231 146.416 175.798 145.173 175.274 144.147C175.034 143.676 173.36 143.253 173.06 143.558C172.305 144.333 171.691 145.524 171.674 146.551C171.649 148.016 171.425 149.478 171.414 150.944C171.4 152.409 171.338 153.876 171.334 155.342C171.331 156.809 171.534 158.273 171.536 159.74C171.536 161.207 171.647 162.671 171.649 164.138C171.649 165.604 171.489 167.069 171.489 168.536C171.489 170.298 171.418 172.062 171.42 173.827C171.42 175.591 171.498 177.356 171.498 179.118C171.498 180.882 171.609 182.647 171.609 184.409C171.609 186.171 171.585 187.938 171.583 189.7C171.583 191.464 171.676 193.229 171.671 194.991C171.667 197.182 171.023 198.929 170.227 200.342C169.325 201.944 167.971 203.091 166.029 203.771C164.827 204.191 163.387 204.489 161.938 204.322C160.591 204.164 159.243 203.596 158.014 203.004C156.716 202.38 155.638 201.476 154.847 200.449C154.234 199.656 153.927 198.469 153.903 197.429C153.869 195.971 154.003 194.509 153.98 193.049C153.956 191.591 153.967 190.131 153.951 188.673C153.938 187.216 153.891 185.758 153.887 184.298C153.88 182.84 153.689 181.38 153.691 179.922C153.691 179.004 153.934 177.784 154.538 177.296C155.783 176.296 156.774 175.231 157.474 174.118C158.274 172.847 158.738 171.458 158.98 170.064C159.223 168.68 159.316 167.211 159.167 165.738C159.029 164.353 158.52 162.969 158.174 161.529C157.843 160.149 157.516 158.769 157.194 157.378C156.876 156.007 156.745 154.582 156.427 153.178C156.118 151.811 155.683 150.456 155.365 149.044C155.058 147.682 154.691 146.238 154.369 144.822C156.147 144.822 157.554 144.907 158.898 144.982C160.591 145.076 162.151 144.722 163.631 144.42C165.247 144.089 166.84 143.811 168.205 143.049C169.585 142.278 170.783 141.182 171.911 140.013C172.98 138.904 174.071 137.702 174.916 136.273C175.518 135.253 175.66 133.862 175.847 132.544C176.034 131.231 175.983 129.931 175.711 128.778C175.338 127.187 175.014 125.582 174.634 123.993C174.251 122.402 173.994 120.782 173.605 119.193C173.216 117.604 172.749 116.038 172.351 114.449C171.954 112.862 171.48 111.298 171.076 109.711C170.671 108.127 170.358 106.52 169.945 104.938C169.531 103.356 168.983 101.809 168.56 100.229C168.138 98.6489 167.727 97.0667 167.296 95.4889C166.865 93.9111 166.429 92.3356 165.991 90.76C165.551 89.1933 165.205 87.5756 164.469 86.1C163.756 84.6645 162.729 83.38 161.665 82.08C160.671 80.8689 159.565 79.6822 158.207 78.6267C159.936 78.6267 161.658 78.5533 163.376 78.5445C165.105 78.5356 166.829 78.4889 168.549 78.4756C170.276 78.46 172 78.52 173.723 78.5067C175.449 78.4933 177.174 78.5978 178.896 78.5911C180.623 78.5822 182.345 78.4445 184.065 78.4467C185.791 78.4489 187.511 78.5822 189.234 78.5978C190.96 78.6156 192.683 78.5822 194.403 78.6222C196.125 78.66 197.851 78.6222 199.571 78.6845C201.22 78.7445 202.785 79.0178 204.209 79.4978C205.734 80.0089 207.076 80.8556 208.334 81.7422C209.629 82.6533 210.727 83.7622 211.729 84.9533C212.747 86.1667 213.729 87.4067 214.429 88.7889C215.156 90.22 215.654 91.7333 216.02 93.2111C216.418 94.8067 216.776 96.3911 216.738 97.8711C216.694 99.4667 216.356 101.058 216.331 102.653C216.307 104.249 216.287 105.849 216.278 107.444C216.269 109.04 216.496 110.638 216.498 112.236C216.498 113.833 216.543 115.429 216.549 117.027C216.556 118.624 216.591 120.22 216.6 121.818C216.611 123.416 216.629 125.011 216.636 126.609C216.643 128.207 216.536 129.804 216.534 131.4C216.534 132.88 216.225 134.373 215.505 135.596C214.778 136.836 213.558 137.738 212.314 138.482C211.107 139.204 209.74 139.551 208.249 139.593C206.611 139.64 204.98 139.709 203.278 139.7C201.691 139.693 200.007 139.776 198.258 139.776C197.438 137.56 198.143 137.398 198.143 135.033C198.143 132.669 198.396 132.669 198.396 130.304C198.396 127.94 198.294 127.94 198.294 125.576C198.294 123.211 198.14 123.211 198.14 120.847C198.14 118.482 198.454 118.482 198.454 116.116C198.454 113.749 198.24 113.753 198.24 111.389C198.24 109.024 198.225 109.022 198.225 106.658C198.225 104.293 198.034 104.276 198.249 101.918C198.467 99.5356 198.954 99.4622 198.287 97.1911" fill="#006BD9"/>
<path d="M85.1987 144.849C84.8365 146.473 84.6342 148.113 84.2654 149.698C83.8898 151.313 83.372 152.882 83.0098 154.471C82.6387 156.084 82.3498 157.702 82.0098 159.302C81.6676 160.913 81.2276 162.502 80.932 164.116C80.6209 165.811 80.5142 167.5 80.6542 169.087C80.8009 170.756 81.4031 172.284 82.2698 173.736C83.0476 175.036 84.0431 176.333 85.5787 177.387C86.3165 177.891 86.9165 179.16 86.9342 180.118C86.9676 181.94 86.8831 183.76 86.892 185.582C86.9009 187.404 86.9565 189.224 86.9431 191.047C86.9298 192.869 86.8831 194.689 86.8542 196.511C86.8298 197.873 86.272 199.196 85.3787 200.371C84.5676 201.433 83.4765 202.367 82.1965 203.071C80.9942 203.733 79.6609 204.349 78.2431 204.524C76.4742 204.747 74.5142 204.056 72.8787 203.031C71.2409 202.004 69.9676 200.484 69.4631 198.749C68.952 196.993 68.6365 195.111 68.632 193.278C68.6254 191.636 68.6854 189.993 68.6831 188.351C68.6787 186.709 68.6076 185.067 68.6054 183.422C68.6054 181.78 68.7965 180.138 68.7965 178.496C68.7965 176.853 68.6031 175.211 68.6031 173.567C68.6031 171.922 68.6587 170.282 68.6565 168.64C68.6565 166.998 68.8187 165.356 68.8142 163.711C68.812 162.069 68.732 160.429 68.7254 158.784C68.7187 157.142 68.6565 155.5 68.6431 153.858C68.632 152.216 68.7142 150.571 68.6965 148.929C68.6765 147.027 70.3409 143.309 66.2654 143.444C62.4476 143.569 63.8965 147.162 63.8787 149.171C63.8654 150.722 63.9387 152.278 63.9298 153.829C63.9209 155.382 63.8409 156.933 63.8342 158.487C63.8276 160.04 64.132 161.593 64.1276 163.147C64.1254 164.698 63.8454 166.251 63.8431 167.802C63.8431 169.356 63.8476 170.909 63.8476 172.46C63.8476 174.011 63.9876 175.567 63.9876 177.118C63.9876 178.669 64.012 180.224 64.012 181.776C64.012 183.329 63.8498 184.882 63.852 186.433C63.852 187.987 64.012 189.54 64.012 191.091C64.012 192.642 63.9431 194.198 63.9431 195.749C63.9409 197.876 63.6076 199.642 62.7476 200.962C61.8076 202.402 60.2231 203.142 58.252 203.684C56.9542 204.042 55.5254 204.436 54.092 204.236C52.6809 204.038 51.392 203.289 50.2009 202.636C48.8787 201.909 47.7298 201.069 47.132 199.896C46.3965 198.453 46.4276 196.564 46.4254 194.876C46.4254 193.247 46.4387 191.62 46.4365 189.991C46.4365 188.364 46.3431 186.736 46.3431 185.107C46.3431 183.48 46.3676 181.851 46.3654 180.224C46.3654 178.596 46.5165 176.967 46.5142 175.34C46.5142 173.711 46.2609 172.084 46.2609 170.456C46.2609 168.827 46.4476 167.2 46.4476 165.571C46.4476 163.942 46.2942 162.316 46.2942 160.687C46.2942 159.058 46.4854 157.431 46.4854 155.802C46.4854 154.173 46.2165 152.547 46.2165 150.918C46.2165 149.289 46.2276 147.662 46.2276 146.036C46.2276 144.409 46.4209 142.78 46.4209 141.151C46.4209 139.522 46.4854 137.896 46.4854 136.267C46.4854 134.638 46.4031 133.011 46.4031 131.382C46.4031 129.753 46.2431 128.127 46.2431 126.498C46.2431 124.869 46.2765 123.242 46.2765 121.613C46.2765 119.984 46.2876 118.358 46.2876 116.731C46.2876 115.104 46.4254 113.473 46.4254 111.847C46.4254 110.22 46.4942 108.591 46.4942 106.962C46.4942 105.333 46.5054 103.707 46.5054 102.078C46.5054 99.6533 46.9809 99.5711 46.2698 97.2533C44.7587 97.1578 43.4031 97.0022 41.7809 96.8978C40.9987 99.1422 41.9498 99.3244 41.9498 101.698C41.9498 104.071 41.7698 104.073 41.7698 106.451C41.7698 108.829 42.0609 108.827 42.0609 111.204C42.0609 113.582 41.7565 113.58 41.7565 115.958C41.7565 118.336 41.8542 118.336 41.8542 120.711C41.8542 123.087 42.0165 123.087 42.0165 125.464C42.0165 127.842 41.8431 127.842 41.8431 130.22C41.8431 132.598 41.852 132.6 41.852 134.98C41.852 137.36 42.8631 137.551 41.9831 139.762C40.1654 139.573 38.272 139.809 36.4676 139.92C34.5942 140.036 32.7609 139.958 31.032 139.569C29.3809 139.198 27.7454 138.509 26.3387 136.927C24.9987 135.418 23.7165 133.227 23.6742 131.353C23.6365 129.738 23.4631 128.127 23.4298 126.513C23.3987 124.9 23.6898 123.278 23.6654 121.664C23.6409 120.049 23.2987 118.438 23.2831 116.824C23.2676 115.211 23.2698 113.593 23.2676 111.98C23.2676 110.364 23.2698 108.749 23.2876 107.136C23.3031 105.52 23.5942 103.911 23.632 102.296C23.6698 100.682 23.6742 99.0689 23.7342 97.4555C23.7987 95.76 23.8676 94.0689 24.3054 92.48C24.752 90.8511 25.5454 89.3555 26.3654 87.9155C27.192 86.4578 28.2676 85.2066 29.4542 84.0266C30.6231 82.8644 31.812 81.6822 33.3076 80.8666C34.7276 80.0933 36.3054 79.5044 37.9987 79.1066C39.5476 78.7422 41.2165 78.7266 42.9809 78.7311C44.572 78.7355 46.1631 78.5911 47.7565 78.5933C49.3454 78.5933 50.9365 78.4422 52.5298 78.4444C54.1187 78.4444 55.712 78.5222 57.3054 78.5222C58.8987 78.5222 60.4854 78.74 62.0809 78.74C63.6765 78.74 65.2631 78.5711 66.8609 78.5689C68.4498 78.5689 70.0409 78.6333 71.6387 78.6333C73.2276 78.6333 74.8209 78.7533 76.4209 78.7533C78.0209 78.7533 79.5098 78.6355 81.112 78.6355C80.0276 79.7289 79.0298 80.7289 78.1676 81.9C77.2609 83.1222 76.6742 84.52 75.9676 85.8155C75.2454 87.1355 74.552 88.4511 73.9942 89.8311C73.432 91.2155 72.9054 92.6133 72.4631 94.04C72.0209 95.4644 71.632 96.9066 71.2631 98.3577C70.8965 99.8022 70.5742 101.264 70.2365 102.72C69.8698 104.296 69.4631 105.86 69.0942 107.436C68.7276 109.011 68.4054 110.596 68.0342 112.171C67.6631 113.744 67.1742 115.291 66.8009 116.864C66.4254 118.438 66.3209 120.076 65.9409 121.647C65.5609 123.218 65.1209 124.776 64.7365 126.347C64.3565 127.902 64.1076 129.38 64.1276 130.816C64.1476 132.398 64.3454 133.9 64.8098 135.284C65.2987 136.744 65.9031 138.18 66.8387 139.362C67.7609 140.531 69.0698 141.364 70.3809 142.2C71.6054 142.98 72.9142 143.764 74.4409 144.202C75.8209 144.6 77.3498 144.6 78.9476 144.678C80.9542 144.776 82.9654 144.904 85.2876 144.904" fill="#006BD9"/>
<path d="M194.392 55.7556C194.543 57.5289 194.319 59.28 193.839 60.9689C193.365 62.6378 192.659 64.2667 191.687 65.7622C190.743 67.2156 189.519 68.5022 188.214 69.7067C186.93 70.8933 185.545 71.9978 184.014 72.8689C182.479 73.74 180.854 74.4711 179.174 74.9467C177.47 75.4289 175.703 75.6445 173.956 75.6334C172.507 75.6245 170.994 75.3889 169.459 75.0333C168.019 74.6978 166.554 74.2622 165.145 73.6156C163.785 72.9933 162.467 72.2178 161.234 71.3022C160.03 70.4089 158.93 69.3622 157.932 68.1911C156.97 67.0578 156.094 65.8178 155.403 64.4245C154.754 63.1134 154.234 61.6845 153.892 60.14C153.581 58.7334 153.419 57.2222 153.414 55.62C153.41 54.0133 153.587 52.5045 153.894 51.0867C154.23 49.5378 154.767 48.12 155.414 46.7978C156.101 45.3978 156.943 44.1378 157.901 42.9956C158.894 41.8133 159.952 40.7089 161.152 39.8045C162.383 38.8733 163.716 38.1089 165.074 37.4734C166.483 36.8134 167.941 36.3356 169.383 35.9911C170.923 35.6245 172.447 35.4045 173.899 35.4022C175.419 35.4 176.943 35.6245 178.436 35.9956C179.91 36.3645 181.376 36.8445 182.759 37.5267C184.127 38.2022 185.439 39.0289 186.65 39.9622C187.87 40.9 188.952 42.0022 189.945 43.1489C190.961 44.32 191.847 45.5756 192.552 46.9089C193.279 48.28 193.765 49.7311 194.083 51.2089C194.403 52.7 194.499 54.2111 194.327 55.7511" fill="#006BD9"/>
<path d="M46.3742 55.5422C46.3742 53.9845 46.5009 52.4689 46.8275 51.0111C47.1631 49.5045 47.632 48.0445 48.2786 46.6867C48.9386 45.3022 49.7586 44 50.7009 42.8156C51.6497 41.6222 52.7742 40.58 53.9675 39.6356C55.1564 38.6956 56.452 37.8956 57.8409 37.2467C59.2031 36.6089 60.6431 36.1089 62.1564 35.7978C63.6142 35.4978 65.132 35.3689 66.6942 35.4111C68.1897 35.4534 69.712 35.6089 71.1964 35.9934C72.6475 36.3711 74.0609 36.96 75.4297 37.64C76.7764 38.3089 78.0675 39.1156 79.2697 40.0556C80.4564 40.9822 81.5831 42.0134 82.5586 43.1845C83.5209 44.3356 84.3497 45.6156 85.0453 46.98C85.7231 48.3067 86.2853 49.7222 86.6475 51.2267C86.9942 52.6534 87.1586 54.1667 87.1742 55.7378C87.1897 57.54 86.9186 59.2734 86.412 60.9067C85.892 62.5867 85.1097 64.1645 84.1564 65.62C83.1964 67.0822 82.0053 68.3734 80.732 69.5622C79.4431 70.7667 78.0786 71.88 76.5964 72.7556C75.0497 73.6689 73.4386 74.42 71.8275 74.9156C70.072 75.4578 68.3053 75.7245 66.6564 75.7045C65.1009 75.6845 63.5808 75.5222 62.1364 75.2045C60.6275 74.8734 59.2164 74.2934 57.8653 73.6689C56.472 73.0245 55.1475 72.2822 53.9586 71.3645C52.7564 70.4334 51.6942 69.3445 50.7409 68.1667C49.792 66.9956 48.9497 65.7289 48.2897 64.3511C47.6453 63.0067 47.1653 61.5645 46.832 60.0556C46.512 58.6134 46.3164 57.1067 46.3164 55.5445" fill="#006BD9"/>
<path d="M140.212 55.3845C140.244 56.9667 140.059 58.4756 139.764 59.9267C139.45 61.46 138.992 62.9067 138.357 64.2622C137.701 65.6645 136.872 66.9378 135.926 68.1156C134.966 69.3089 133.892 70.3911 132.686 71.3223C131.481 72.2511 130.181 73.0534 128.781 73.6867C127.406 74.3111 125.95 74.7845 124.437 75.0934C122.966 75.3889 121.441 75.5134 119.886 75.48C118.288 75.4467 116.779 75.2823 115.355 75.0023C113.795 74.6978 112.319 74.3111 110.972 73.7356C109.532 73.12 108.199 72.36 107.01 71.4645C105.781 70.5422 104.757 69.4089 103.808 68.2245C102.866 67.0489 102.061 65.7667 101.404 64.3667C100.77 63.0222 100.239 61.5978 99.8747 60.0756C99.5302 58.64 99.2658 57.1334 99.168 55.5667C99.0747 54.0556 99.2925 52.5378 99.6747 51.0467C100.048 49.6023 100.659 48.2067 101.408 46.8511C102.132 45.54 102.981 44.2734 103.99 43.1089C104.979 41.9667 106.092 40.9178 107.29 39.9778C108.492 39.0334 109.757 38.1689 111.104 37.4911C112.479 36.7956 113.915 36.26 115.372 35.9045C116.868 35.54 118.392 35.3223 119.901 35.38C121.435 35.44 122.941 35.6511 124.386 35.98C125.879 36.32 127.324 36.7978 128.677 37.4089C130.066 38.0356 131.33 38.8711 132.526 39.7667C133.735 40.6711 134.879 41.66 135.844 42.8222C136.795 43.9689 137.61 45.2467 138.277 46.6267C138.915 47.9467 139.359 49.3867 139.692 50.9067C140.006 52.3223 140.179 53.8111 140.195 55.3845" fill="#006BD9"/>
</svg>
