<svg width="24" height="24" viewBox="0 0 24 24" fill="none" xmlns="http://www.w3.org/2000/svg">
<path d="M6.78761 8.78809V3.00009C6.78761 2.65675 6.90378 2.36892 7.13611 2.13659C7.36844 1.90425 7.65628 1.78809 7.99961 1.78809C8.34294 1.78809 8.63078 1.90425 8.86311 2.13659C9.09544 2.36892 9.21161 2.65675 9.21161 3.00009V8.78809H10.2116V3.00009C10.2116 2.65675 10.3309 2.36892 10.5696 2.13659C10.8084 1.90425 11.0978 1.78809 11.4376 1.78809C11.7774 1.78809 12.0644 1.90425 12.2986 2.13659C12.5326 2.36892 12.6496 2.65675 12.6496 3.00009V8.78809C12.6496 9.84575 12.3056 10.7713 11.6176 11.5646C10.9296 12.3578 10.1276 12.871 9.21161 13.1043V21.0001C9.21161 21.3434 9.09544 21.6313 8.86311 21.8636C8.63078 22.0959 8.34294 22.2121 7.99961 22.2121C7.65628 22.2121 7.36844 22.0959 7.13611 21.8636C6.90378 21.6313 6.78761 21.3434 6.78761 21.0001V13.1043C5.87161 12.871 5.06961 12.3578 4.38161 11.5646C3.69361 10.7713 3.34961 9.84575 3.34961 8.78809V3.00009C3.34961 2.65675 3.46894 2.36892 3.70761 2.13659C3.94644 1.90425 4.23578 1.78809 4.57561 1.78809C4.91544 1.78809 5.20244 1.90425 5.43661 2.13659C5.67061 2.36892 5.78761 2.65675 5.78761 3.00009V8.78809H6.78761ZM17.4376 14.2121H15.7626C15.3946 14.2121 15.0818 14.0833 14.8241 13.8256C14.5664 13.5681 14.4376 13.2553 14.4376 12.8871V7.00009C14.4376 5.80509 14.888 4.63767 15.7889 3.49783C16.6895 2.358 17.6076 1.78809 18.5431 1.78809C18.9279 1.78809 19.2439 1.94242 19.4909 2.25108C19.738 2.55992 19.8616 2.91975 19.8616 3.33058V21.0001C19.8616 21.3434 19.7454 21.6313 19.5131 21.8636C19.2808 22.0959 18.9929 22.2121 18.6496 22.2121C18.3063 22.2121 18.0184 22.0959 17.7861 21.8636C17.5538 21.6313 17.4376 21.3434 17.4376 21.0001V14.2121Z" fill="#006BD9"/>
</svg>
