<svg width="240" height="240" viewBox="0 0 240 240" fill="none" xmlns="http://www.w3.org/2000/svg">
<path d="M203.446 123.098C203.446 124.996 202.848 126.76 202.293 128.471C201.717 130.244 201.108 131.993 200.033 133.471C198.948 134.962 197.548 136.191 196.057 137.278C194.579 138.353 193.013 139.396 191.239 139.973C189.528 140.529 187.655 140.449 185.757 140.449C182.935 140.449 182.935 140.576 180.111 140.576C177.286 140.576 177.286 140.827 174.464 140.827C171.639 140.827 171.639 140.951 168.817 140.951C165.993 140.951 165.993 140.642 163.171 140.642C161.288 140.642 159.405 140.641 157.524 140.64C154.699 140.64 154.699 140.624 151.875 140.624C149.051 140.624 149.051 140.778 146.226 140.778C144.779 140.778 143.426 141.224 142.477 142.173C141.531 143.12 140.984 144.476 140.984 145.922C140.984 148.767 141.006 148.767 141.006 151.611C141.006 154.456 141.173 154.455 141.173 157.302C141.173 160.147 140.937 160.147 140.937 162.993C140.937 165.838 140.859 165.838 140.859 168.684C140.859 170.581 140.858 172.478 140.855 174.376C140.855 177.222 140.804 177.222 140.804 180.067C140.804 182.913 140.893 182.913 140.893 185.758C140.893 187.656 140.642 189.467 140.086 191.178C139.511 192.951 138.524 194.484 137.448 195.962C136.364 197.453 135.286 198.978 133.795 200.062C132.304 201.147 130.537 201.678 128.762 202.253C127.051 202.809 125.299 203.484 123.402 203.484C120.153 203.484 120.153 203.502 116.904 203.502C115.006 203.502 113.204 202.971 111.491 202.413C109.717 201.838 108.086 201 106.608 199.924C105.131 198.849 103.557 197.731 102.473 196.24C101.388 194.749 100.891 192.92 100.315 191.147C99.7594 189.436 99.3816 187.653 99.3816 185.756C99.3816 183.253 99.135 183.253 99.135 180.753C99.135 178.253 99.0394 178.251 99.0394 175.751C99.0394 173.249 99.2216 173.249 99.2216 170.747C99.2216 168.244 99.575 168.244 99.575 165.742C99.575 163.24 99.3927 163.24 99.3927 160.738C99.3927 158.236 99.3172 158.235 99.3172 155.733C99.3172 153.231 99.5883 153.231 99.5883 150.729C99.5883 148.227 99.0683 148.227 99.0683 145.724C99.0683 142.94 97.0572 140.696 94.2705 140.696C91.7683 140.696 91.7683 140.424 89.2683 140.424C86.7661 140.424 86.7661 140.698 84.2661 140.698C81.7638 140.698 81.7638 140.442 79.2616 140.442C76.7594 140.442 76.7594 140.951 74.2572 140.951C71.755 140.951 71.755 140.78 69.2527 140.78C66.7505 140.78 66.7505 140.855 64.2483 140.855C61.7461 140.855 61.7461 140.744 59.2438 140.744C56.7416 140.744 56.7416 140.551 54.2394 140.551C52.3416 140.551 50.455 140.567 48.7416 140.011C46.9683 139.436 45.5283 138.189 44.0527 137.116C42.5616 136.031 41.0772 134.936 39.9927 133.444C38.9172 131.967 38.2083 130.264 37.6327 128.489C37.0572 126.713 36.5527 124.991 36.5527 123.093C36.5527 119.844 36.6016 119.844 36.6016 116.595C36.6016 114.698 36.7638 112.809 37.3194 111.098C37.895 109.324 38.895 107.704 39.9705 106.229C41.055 104.738 42.5705 103.671 44.0616 102.587C45.5527 101.502 47.0861 100.62 48.8616 100.044C50.5727 99.4888 52.3416 99.0977 54.2394 99.0977C56.8927 99.0977 56.8927 99.1555 59.5483 99.1555C62.2038 99.1555 62.2016 99.1777 64.8572 99.1777C67.5127 99.1777 67.5105 99.2155 70.1661 99.2155C72.8216 99.2155 72.8216 98.8488 75.475 98.8488C78.1283 98.8488 78.1283 98.9199 80.7838 98.9199C83.4394 98.9199 83.4394 98.7755 86.0927 98.7755C88.7461 98.7755 88.7483 98.9799 91.4016 98.9799C94.055 98.9799 94.0572 98.9933 96.7105 98.9933C98.1461 98.9933 99.1816 97.8444 99.1816 96.4088C99.1816 93.7733 99.575 93.7733 99.575 91.1377C99.575 88.5022 99.3105 88.5022 99.3105 85.8666C99.3105 83.2311 99.4216 83.2311 99.4216 80.5955C99.4216 77.9599 99.235 77.9599 99.235 75.3244C99.235 72.6888 99.175 72.6888 99.175 70.0533C99.175 67.4177 99.5661 67.4177 99.5661 64.7822C99.5661 62.1466 99.475 62.1466 99.475 59.5111C99.475 56.8755 99.435 56.8755 99.435 54.2399C99.435 52.3422 99.7394 50.5577 100.297 48.8444C100.873 47.0711 101.533 45.3311 102.606 43.8533C103.691 42.3622 104.971 40.9555 106.462 39.8711C107.939 38.7955 109.753 38.2777 111.526 37.7022C113.237 37.1466 115.002 36.4177 116.899 36.4177C120.148 36.4177 120.148 36.7711 123.397 36.7711C125.295 36.7711 127.057 37.1511 128.768 37.7088C130.542 38.2844 132.148 39.0866 133.624 40.1622C135.115 41.2466 136.377 42.5288 137.464 44.0199C138.539 45.4977 139.313 47.1066 139.888 48.8822C140.444 50.5933 141.039 52.3444 141.039 54.2399C141.039 57.0555 141.157 57.0555 141.157 59.8733C141.157 62.6911 140.864 62.6911 140.864 65.5066C140.864 68.3244 140.982 68.3244 140.982 71.1399C140.982 73.9577 141.151 73.9577 141.151 76.7733C141.151 79.5911 141.015 79.5911 141.015 82.4066C141.015 85.2244 140.982 85.2244 140.982 88.0422C140.982 90.8599 141.022 90.8599 141.022 93.6777C141.022 95.1511 141.715 96.3511 142.679 97.3155C143.644 98.2799 144.844 99.2222 146.317 99.2222C149.133 99.2222 149.133 98.8111 151.951 98.8111C154.768 98.8111 154.768 99.1022 157.584 99.1022C160.399 99.1022 160.402 99.0844 163.217 99.0844C166.033 99.0844 166.035 98.8333 168.851 98.8333C171.666 98.8333 171.668 98.8311 174.484 98.8311C177.299 98.8311 177.302 99.0911 180.119 99.0911C182.937 99.0911 182.937 99.2022 185.755 99.2022C187.653 99.2022 189.415 99.5088 191.126 100.067C192.837 100.624 194.533 101.407 196.011 102.482C197.502 103.567 199.086 104.633 200.173 106.124C201.248 107.602 202.162 109.307 202.737 111.082C203.293 112.793 203.573 114.698 203.573 116.595C203.639 119.844 203.446 119.849 203.446 123.098Z" fill="#006BD9"/>
</svg>
