<svg width="240" height="240" viewBox="0 0 240 240" fill="none" xmlns="http://www.w3.org/2000/svg">
<path d="M110.096 88.8755C111.487 88.8755 112.878 88.6666 114.267 88.6666C115.661 88.6666 117.052 88.8555 118.443 88.8533C119.834 88.8511 121.227 88.7555 122.616 88.7533C124.007 88.7511 125.398 88.8733 126.787 88.8711C128.178 88.8689 129.57 88.7311 130.958 88.7266C132.35 88.7266 133.741 88.56 135.13 88.5578C136.521 88.5555 137.914 88.9311 139.303 88.9311C140.694 88.9311 142.085 88.8044 143.474 88.8044C144.865 88.8044 146.256 88.6244 147.645 88.6266C149.036 88.6266 150.427 88.4933 151.816 88.4977C153.205 88.5022 154.594 88.7889 155.983 88.7955C157.374 88.8022 158.761 88.8755 160.15 88.8844C161.538 88.8933 162.932 88.56 164.321 88.5711C165.712 88.5844 167.101 88.5644 168.49 88.5822C169.878 88.6 171.267 88.6044 172.656 88.6244C174.054 88.6444 175.487 88.9533 176.892 89.2511C178.265 89.5422 179.532 90.28 180.885 90.72C182.238 91.16 183.656 91.4178 184.965 91.8955C186.374 92.4111 187.514 93.1889 188.47 94.1555C189.421 95.1155 190.141 96.2933 190.765 97.6111C191.33 98.8 191.761 100.033 192.15 101.442C190.365 101.527 188.918 101.68 187.401 101.68C185.956 101.68 184.514 101.52 183.067 101.52C181.623 101.52 180.181 101.64 178.736 101.642C177.292 101.642 175.847 101.967 174.403 101.967C172.958 101.967 171.516 101.769 170.07 101.769C168.625 101.769 167.183 101.489 165.738 101.489C164.294 101.489 162.85 101.853 161.405 101.853C159.961 101.853 158.518 101.911 157.072 101.911C155.625 101.911 154.185 101.911 152.741 101.911C151.296 101.911 149.852 101.7 148.407 101.7C146.963 101.7 145.518 101.518 144.074 101.518C142.63 101.518 141.187 101.604 139.741 101.607C138.296 101.607 136.854 101.813 135.41 101.816C133.965 101.818 132.521 101.802 131.076 101.802C129.632 101.804 128.19 101.931 126.745 101.936C125.301 101.938 123.856 101.627 122.412 101.631C120.967 101.636 119.523 101.782 118.078 101.787C116.634 101.793 115.192 101.893 113.747 101.9C112.734 101.904 111.31 101.351 110.183 101.482C109.112 101.607 108.438 102.262 108.492 104.098C108.534 105.618 109.261 106.18 110.365 106.511C111.398 106.82 112.645 106.916 113.816 106.913C115.243 106.913 116.67 107.047 118.096 107.044C119.523 107.042 120.95 107.002 122.376 107.002C123.803 107.002 125.23 106.982 126.656 106.98C128.083 106.98 129.51 106.713 130.936 106.711C132.363 106.711 133.79 106.811 135.216 106.811C136.643 106.811 138.07 106.747 139.496 106.747C140.923 106.747 142.35 107.06 143.776 107.06C145.203 107.06 146.63 106.92 148.056 106.92C149.483 106.92 150.91 107.173 152.336 107.173C153.763 107.173 155.19 107.107 156.616 107.107C158.043 107.107 159.47 107.098 160.896 107.098C162.323 107.098 163.75 107.093 165.176 107.093C166.603 107.093 168.03 106.702 169.456 106.702C170.883 106.702 172.31 107.104 173.736 107.104C175.163 107.104 176.59 106.778 178.016 106.778C179.443 106.778 180.87 106.764 182.296 106.764C183.723 106.764 185.15 107.173 186.576 107.173C189.272 107.173 189.35 106.293 191.954 106.982C191.954 108.409 192.047 109.758 192.056 111.142C192.065 112.56 192.016 113.962 192.016 115.351C192.014 116.76 191.803 118.156 191.767 119.553C191.734 120.927 192.072 122.309 192.05 123.682C192.027 125.056 191.61 126.422 191.592 127.798C191.572 129.171 191.827 130.549 191.803 131.924C191.778 133.298 191.467 134.664 191.43 136.038C191.39 137.411 191.696 138.798 191.636 140.169C191.574 141.542 191.583 142.922 191.492 144.293C191.401 145.664 190.901 147.004 190.77 148.371C190.625 149.898 190.261 151.238 189.767 152.529C189.238 153.913 188.55 155.116 187.687 156.269C186.823 157.422 185.845 158.433 184.718 159.391C183.63 160.318 182.521 161.233 181.247 162.011C180.021 162.762 178.785 163.547 177.447 164.191C176.176 164.802 174.832 165.069 173.543 165.451C172.21 165.842 170.914 166.207 169.565 166.404C168.203 166.604 166.854 166.84 165.481 166.898C164.11 166.956 162.736 166.998 161.358 166.969C159.985 166.94 158.618 166.709 157.243 166.649C155.87 166.589 154.49 166.609 153.118 166.576C151.741 166.54 150.367 166.722 149.001 166.767C147.236 166.824 145.578 166.822 144.132 167.291C142.523 167.811 141.058 168.627 139.856 169.698C138.707 170.72 137.641 172.016 136.876 173.58C136.274 174.811 136.058 176.287 135.841 177.713C135.63 179.109 135.387 180.547 135.345 181.922C135.303 183.28 135.563 184.644 135.545 186.004C135.527 187.358 135.421 188.716 135.418 190.082C135.418 191.429 135.438 192.789 135.447 194.158C135.454 195.504 135.634 196.86 135.641 198.236C135.647 199.578 135.438 200.742 135.438 202.12C133.696 202.764 133.652 202.296 131.792 202.296C129.932 202.296 129.932 202.478 128.07 202.478C126.207 202.478 126.207 202.191 124.345 202.191C122.992 202.191 121.634 202.264 120.278 202.26C118.923 202.258 117.567 202.418 116.212 202.413C114.856 202.409 113.501 202.384 112.145 202.38C110.79 202.376 109.434 202.367 108.078 202.362C106.723 202.36 105.367 202.318 104.012 202.318C102.656 202.318 101.301 202.269 99.9451 202.273C98.5895 202.278 97.234 202.151 95.8784 202.162C94.5229 202.171 93.1718 202.527 91.8162 202.542C90.4607 202.56 89.1073 202.611 87.7518 202.636C85.7651 202.671 84.4407 202.182 83.5984 201.424C82.7784 200.689 82.2362 199.469 82.2829 197.407C82.314 196 82.4384 194.6 82.4251 193.191C82.4118 191.784 82.3384 190.382 82.2895 188.976C82.2384 187.569 82.2251 186.164 82.1495 184.76C82.074 183.356 82.1495 181.94 82.0606 180.538C81.9695 179.133 81.6207 177.747 81.5206 176.344C81.4273 175.018 81.2518 173.764 80.6718 172.682C80.0695 171.564 79.174 170.624 78.1918 169.8C77.2295 168.989 76.0295 168.536 74.8384 168.038C73.6606 167.544 72.4695 167.216 71.2029 167.056C69.6784 166.864 68.1629 166.764 66.6118 166.798C65.0695 166.831 63.5184 166.633 61.9807 166.616C60.5807 166.6 59.2495 166.509 58.0029 166.124C56.6851 165.72 55.4807 165.122 54.3962 164.369C53.2851 163.6 52.1518 162.793 51.354 161.724C50.5629 160.664 50.2762 159.311 49.8584 158.022C49.4607 156.796 49.134 155.538 49.134 154.158C49.134 152.778 49.0984 151.398 49.0984 150.016C49.0984 148.633 48.834 147.256 48.834 145.873C48.834 144.491 48.954 143.113 48.9562 141.731C48.9562 140.351 49.094 138.971 49.094 137.589C49.094 136.207 48.9029 134.829 48.9051 133.447C48.9051 132.067 48.9473 130.687 48.9473 129.304C48.9473 127.922 48.9495 126.544 48.9495 125.162C48.9495 123.78 49.1607 122.402 49.1607 121.02C49.1607 119.638 48.9407 118.26 48.9407 116.878C48.9407 115.498 48.9362 114.118 48.9362 112.736C48.9362 111.353 49.2784 109.976 49.2784 108.593C49.2784 107.211 49.0029 105.833 49.0029 104.451C49.0029 103.069 49.2451 101.691 49.2451 100.309C49.2451 98.9266 49.2784 97.5489 49.2762 96.1666C49.2762 94.7866 49.0651 93.4066 49.0629 92.0244C49.0629 90.6444 48.8473 89.2644 48.8451 87.8844C48.8451 86.5044 49.0406 85.1222 49.0406 83.7422C49.0406 82.3622 49.0318 80.9822 49.0318 79.6C49.0318 78.22 49.2851 76.84 49.2851 75.4578C49.2829 74.0778 48.9162 72.6978 48.9118 71.3177C48.9118 69.9377 49.0095 68.5555 49.0073 67.1755C49.0051 65.7955 48.9384 64.4133 48.9362 63.0333C48.934 61.6533 49.174 60.2711 49.1695 58.8911C49.1651 57.5111 49.1273 56.1311 49.1229 54.7489C49.1184 53.3689 49.1273 51.9889 49.1229 50.6066C49.1207 49.2266 48.974 47.8466 48.9718 46.4666C48.9651 45.0866 49.1607 43.7044 49.1562 42.3244C49.1495 40.4133 49.0873 39.0489 49.834 38.3022C50.5851 37.5555 51.9629 37.3978 53.9162 37.4266C55.3407 37.4489 56.7651 37.6044 58.1918 37.62C59.6162 37.6378 61.0451 37.5889 62.4695 37.6C63.894 37.6089 65.3206 37.7044 66.7473 37.7111C68.1718 37.7155 69.5984 37.6911 71.0229 37.6933C72.4495 37.6933 73.8762 37.6466 75.3007 37.6444C76.7251 37.6444 78.1518 37.3422 79.5762 37.34C81.0007 37.3378 82.4295 37.8066 83.8562 37.8022C85.2807 37.7978 86.7051 37.4622 88.1318 37.46C89.5562 37.4555 90.9829 37.5311 92.4073 37.5289C93.8318 37.5266 95.2606 37.3844 96.6851 37.3844C98.1095 37.3844 99.4984 37.96 100.778 38.3022C102.19 38.6778 103.454 39.1333 104.576 39.8844C105.743 40.6666 106.852 41.5066 107.656 42.6511C108.425 43.7489 109.081 45.0022 109.472 46.3911C109.825 47.6489 109.943 49.0466 109.95 50.5133C109.956 51.8311 109.858 53.1466 109.863 54.4644C109.865 55.78 110.003 57.0955 110.003 58.4111C110.005 59.7289 110.076 61.0444 110.078 62.36C110.078 63.6778 109.83 64.9933 109.83 66.3089C109.83 67.6266 109.772 68.9422 109.772 70.2578C109.772 71.5755 109.807 72.8889 109.807 74.2066C109.807 75.5244 109.861 76.8378 109.858 78.1555C109.858 79.4733 109.698 80.7866 109.698 82.1044C109.698 83.4222 110.001 84.7355 110.001 86.0533C110.001 86.7555 109.956 87.46 110.032 88.7155" fill="#006BD9"/>
</svg>
