<svg width="240" height="240" viewBox="0 0 240 240" fill="none" xmlns="http://www.w3.org/2000/svg">
<path d="M179.106 124.94C177.877 126.122 176.775 127.438 175.544 128.618C174.313 129.798 172.902 130.791 171.668 131.971C170.435 133.151 169.144 134.267 167.911 135.447C166.677 136.624 165.513 137.876 164.277 139.053C163.042 140.231 162.411 142.042 161.175 143.218C159.94 144.393 158.468 145.324 157.233 146.5C155.997 147.676 154.653 148.74 153.417 149.916C152.182 151.091 151.066 152.396 149.831 153.571C148.595 154.749 146.904 155.444 145.668 156.622C144.433 157.8 143.377 159.164 142.144 160.342C140.911 161.52 139.946 162.98 138.715 164.16C137.484 165.34 135.944 166.2 134.713 167.38C132.946 169.071 133.077 169.209 131.311 170.9C129.544 172.591 129.722 172.776 127.955 174.469C126.188 176.16 126.113 176.08 124.346 177.771C123.157 178.911 121.535 179.618 119.973 179.631C118.411 179.644 116.62 179.14 115.408 178.022C113.54 176.3 113.466 176.38 111.597 174.658C109.728 172.936 110.186 172.438 108.317 170.716C106.448 168.993 106.353 169.098 104.497 167.362C103.257 166.153 101.931 165.036 100.688 163.829C99.4462 162.622 98.3507 161.264 97.1062 160.058C95.8618 158.853 94.8529 157.404 93.6062 156.202C92.3618 154.998 91.0929 153.818 89.8462 152.616C88.5995 151.413 87.3795 150.184 86.1329 148.98C84.8862 147.778 83.584 146.633 82.3373 145.431C81.0906 144.229 79.1573 143.738 77.9107 142.533C76.664 141.329 76.1084 139.413 74.864 138.209C73.6195 137.004 72.2906 135.887 71.0484 134.68C69.804 133.476 68.1018 132.742 66.8595 131.536C65.6173 130.329 64.8195 128.667 63.5795 127.458C62.3395 126.249 60.9484 125.196 59.7107 123.984C58.4751 122.776 57.284 121.58 56.2706 120.264C55.2573 118.949 54.084 117.611 53.2684 116.147C52.4529 114.682 52.0951 112.956 51.4973 111.371C50.904 109.798 50.3329 108.22 49.9573 106.553C49.5906 104.927 48.8706 103.307 48.704 101.596C48.5373 99.8711 48.5929 98.1044 48.6729 96.4066C48.7529 94.7089 49.0373 92.9511 49.3595 91.2755C49.6862 89.5866 50.8418 88.1422 51.4018 86.5244C51.9618 84.9066 52.5995 83.3866 53.3795 81.86C54.1595 80.3355 54.6218 78.6533 55.6062 77.2444C56.584 75.8444 57.5373 74.3978 58.704 73.1333C59.8595 71.88 61.5173 71.1689 62.8462 70.0689C64.1751 68.9689 65.084 67.3578 66.5507 66.4422C67.9907 65.5422 69.7729 65.2378 71.3506 64.5222C72.8906 63.8222 74.3773 62.9578 76.0395 62.4466C77.6529 61.9533 79.2618 61.2222 80.9795 60.9244C82.8173 60.6066 84.6551 60.2933 86.4284 60.1955C88.2018 60.0978 90.104 60.7555 91.8862 60.8911C93.7218 61.0311 95.4862 61.3044 97.2462 61.6955C99.0262 62.0911 100.646 62.8355 102.346 63.4844C104.033 64.1289 105.748 64.6378 107.355 65.5266C108.922 66.3955 110.522 67.2333 112.011 68.3333C113.444 69.3911 114.584 70.8222 115.942 72.0911C117.16 73.2311 118.602 74.3244 120.195 75.9178C121.846 74.1578 122.997 72.0755 124.588 70.6466C125.986 69.3911 127.311 68.0133 128.795 66.9889C130.331 65.9289 132.197 65.3911 133.824 64.5778C135.477 63.7511 137.24 63.2133 138.984 62.64C140.722 62.0666 142.382 61.0066 144.206 60.6866C145.993 60.3733 147.928 61.1489 149.797 61.0755C151.6 61.0044 153.404 60.7578 155.277 60.9111C156.988 61.0511 158.644 61.3044 160.288 61.6489C161.933 61.9933 163.688 62.1289 165.28 62.68C166.893 63.24 168.571 63.7178 170.082 64.4689C171.608 65.2289 172.733 66.6822 174.135 67.6222C175.551 68.5711 176.722 69.7422 177.991 70.8578C179.268 71.98 180.964 72.6555 182.077 73.9311C183.193 75.2111 183.966 76.7622 184.897 78.18C185.828 79.5955 186.597 81.0844 187.326 82.6222C188.051 84.1489 189.237 85.5244 189.744 87.1533C190.244 88.76 190.708 90.46 190.98 92.1511C191.26 93.9 190.755 95.7 190.813 97.3866C190.875 99.1466 190.706 100.829 190.528 102.52C190.346 104.256 190.246 105.958 189.813 107.618C189.375 109.289 189.422 111.164 188.731 112.756C188.051 114.322 186.786 115.656 185.86 117.144C184.964 118.582 183.984 120.013 182.862 121.376C181.74 122.738 180.373 123.702 179.095 124.933L179.106 124.94Z" fill="#006BD9"/>
</svg>
