<svg width="240" height="240" viewBox="0 0 240 240" fill="none" xmlns="http://www.w3.org/2000/svg">
<path d="M168.105 56.6911C166.831 56.6911 165.558 56.6896 164.285 56.6867C163.17 56.6867 162.459 55.8756 162.459 54.76C162.459 52.2956 162.352 52.2956 162.352 49.8311C162.352 47.7445 160.574 46.0311 158.488 46.0311C156.243 46.0311 156.243 45.8844 154.001 45.8844C151.756 45.8844 151.756 45.9756 149.514 45.9756C147.27 45.9756 147.27 46.1689 145.028 46.1689C142.941 46.1689 141.47 47.7445 141.47 49.8311C141.47 52.4445 141.274 52.4445 141.274 55.0556C141.274 56.0067 140.476 56.7333 139.525 56.7333C136.963 56.7333 136.963 56.9844 134.399 56.9844C131.836 56.9844 131.836 56.5933 129.272 56.5933C126.708 56.5933 126.708 56.7089 124.145 56.7089C121.581 56.7089 121.359 57.8267 119.052 56.7111C116.374 55.4178 116.979 54.6156 114.983 52.4111C112.988 50.2067 112.923 50.2645 110.928 48.06C108.93 45.8556 109.136 45.6689 107.139 43.4645C105.141 41.26 105.205 41.2022 103.21 38.9978C101.776 37.4156 99.5787 36.7311 97.4453 36.7311C95.092 36.7311 95.092 36.6 92.7387 36.6C90.3853 36.6 90.3853 36.5756 88.032 36.5756C85.6787 36.5756 85.6787 36.8178 83.3253 36.8178C80.972 36.8178 80.972 36.8422 78.6187 36.8422C76.532 36.8422 74.7498 38.3511 74.7498 40.4378C74.7498 42.9556 74.7053 42.9556 74.7053 45.4733C74.7053 47.9911 74.7875 47.9911 74.7875 50.5089C74.7875 53.0267 75.052 53.0267 75.052 55.5445C75.052 56.2267 74.2853 56.7911 73.6031 56.7911C72.9742 56.7911 72.9742 56.8067 72.3453 56.8067C70.2942 56.8067 68.4075 57.3467 66.6253 58.0867C64.7764 58.8533 63.0298 59.7956 61.6364 61.1889C60.2431 62.5822 58.9875 64.2 58.2209 66.0489C57.4542 67.8978 57.4164 69.8489 57.4164 71.9C57.4164 74.5444 57.0453 74.5444 57.0453 77.1867C57.0453 79.8289 57.3787 79.8311 57.3787 82.4733C57.3787 85.1156 57.0898 85.1156 57.0898 87.76C57.0898 90.4045 57.212 90.4044 57.212 93.0467C57.212 95.6889 57.4209 95.6911 57.4209 98.3333C57.4209 100.976 57.0098 100.978 57.0098 103.62C57.0098 106.262 57.0964 106.264 57.0964 108.907C57.0964 111.549 57.4431 111.551 57.4431 114.193C57.4431 116.836 57.2053 116.838 57.2053 119.48C57.2053 122.124 57.4053 122.124 57.4053 124.767C57.4053 127.409 57.0098 127.411 57.0098 130.053C57.0098 132.698 57.1853 132.698 57.1853 135.34C57.1853 137.982 57.3564 137.984 57.3564 140.627C57.3564 143.269 57.2609 143.269 57.2609 145.913C57.2609 148.558 57.372 148.558 57.372 151.2C57.372 153.842 57.3075 153.844 57.3075 156.487C57.3075 159.129 57.1786 159.131 57.1786 161.776C57.1786 164.42 57.2431 164.42 57.2431 167.064C57.2431 169.709 57.1875 169.709 57.1875 172.353C57.1875 174.998 57.2498 174.998 57.2498 177.642C57.2498 180.287 57.1898 180.287 57.1898 182.931C57.1898 185.576 57.012 185.576 57.012 188.22C57.012 190.271 57.8053 192.153 58.5453 193.936C59.312 195.784 60.1253 197.653 61.5186 199.047C62.912 200.44 64.6831 201.489 66.532 202.256C68.3142 202.996 70.2964 203.371 72.3453 203.371C75.0053 203.371 75.0053 203.393 77.6653 203.393C80.3253 203.393 80.3253 203.462 82.9853 203.462C85.6453 203.462 85.6453 203.147 88.3053 203.147C90.9653 203.147 90.9653 203.307 93.6253 203.307C96.2853 203.307 96.2853 203.353 98.9453 203.353C101.605 203.353 101.605 203.258 104.265 203.258C106.925 203.258 106.925 203.407 109.585 203.407C112.245 203.407 112.245 203.196 114.905 203.196C117.565 203.196 117.565 203.351 120.225 203.351C122.885 203.351 122.885 203.144 125.545 203.144C128.205 203.144 128.205 203.22 130.865 203.22C133.525 203.22 133.525 203.16 136.185 203.16C138.845 203.16 138.845 203.527 141.505 203.527C144.165 203.527 144.165 203.176 146.825 203.176C149.485 203.176 149.485 203.467 152.145 203.467C154.805 203.467 154.805 203.382 157.465 203.382C160.125 203.382 160.125 203.149 162.788 203.149C165.45 203.149 165.448 203.542 168.11 203.542C170.161 203.542 172.048 202.769 173.83 202.029C175.679 201.262 177.325 200.22 178.719 198.827C180.112 197.433 181.279 195.838 182.043 193.989C182.783 192.207 183.123 190.267 183.123 188.218C183.123 185.573 183.065 185.573 183.065 182.931C183.065 180.289 183.11 180.287 183.11 177.644C183.11 175.002 183.07 175.002 183.07 172.358C183.07 169.713 183.45 169.713 183.45 167.071C183.45 164.429 183.348 164.427 183.348 161.784C183.348 159.142 183.314 159.14 183.314 156.498C183.314 153.856 183.039 153.853 183.039 151.211C183.039 148.569 183.116 148.567 183.116 145.924C183.116 143.282 183.112 143.28 183.112 140.638C183.112 137.996 183.214 137.993 183.214 135.351C183.214 132.709 183.179 132.707 183.179 130.064C183.179 127.422 183.334 127.42 183.334 124.778C183.334 122.136 183.399 122.133 183.399 119.491C183.399 116.849 183.448 116.849 183.448 114.204C183.448 111.56 183.036 111.56 183.036 108.918C183.036 106.276 183.036 106.273 183.036 103.631C183.036 100.989 183.234 100.987 183.234 98.3422C183.234 95.6978 183.408 95.6978 183.408 93.0533C183.408 90.4089 183.336 90.4089 183.336 87.7645C183.336 85.12 183.096 85.12 183.096 82.4756C183.096 79.8311 183.023 79.8311 183.023 77.1867C183.023 74.5422 183.365 74.5422 183.365 71.8978C183.365 69.8467 182.839 67.8867 182.099 66.1045C181.332 64.2556 180.141 62.6533 178.748 61.26C177.354 59.8667 175.763 58.6511 173.914 57.8845C172.132 57.1445 170.159 56.6911 168.11 56.6911H168.105ZM80.612 42.0511C80.612 42.0511 80.6275 42.0689 80.6298 42.0622C80.6298 41.9511 80.7298 41.8289 80.7298 41.7156C80.7298 41.7089 80.5142 41.7867 80.5209 41.7889C81.1231 41.9156 81.7253 41.9667 82.3031 42.0733C84.2164 42.12 84.2187 42.22 86.132 42.22C87.9231 42.22 89.5853 42.8356 90.892 44.0089C92.2009 45.1845 93.2675 46.7444 93.4231 48.5333C93.6275 50.9022 92.6831 52.5667 91.4075 53.4867C89.3031 55.0022 86.1964 54.8489 86.1342 54.8489C84.9364 54.8533 83.9698 54.54 83.1764 54.1156C82.2431 53.6178 81.3787 52.9711 80.9542 51.9911C80.5809 51.1356 80.712 48.5645 80.712 48.4422C80.7898 45.2489 80.6075 45.2445 80.6142 42.0511H80.612ZM161.239 80.4445C160.104 81.8978 158.968 83.3496 157.83 84.8C156.128 86.98 156.05 86.92 154.348 89.0978C152.645 91.2778 152.728 91.3422 151.025 93.5222C149.323 95.7022 149.374 95.7422 147.672 97.9222C145.97 100.102 145.854 100.011 144.15 102.191C142.448 104.371 142.519 104.427 140.816 106.607C139.114 108.787 139.265 108.907 137.563 111.087C135.861 113.267 135.943 113.331 134.239 115.511C132.534 117.691 132.381 117.571 130.679 119.751C128.976 121.931 128.919 121.887 127.216 124.069C125.514 126.249 125.71 126.404 124.008 128.584C123.228 129.582 122.921 130.971 123.699 131.969C125.35 134.082 125.441 134.011 127.092 136.124C128.193 137.533 129.292 138.944 130.39 140.356C132.041 142.469 132.148 142.384 133.799 144.498C135.45 146.611 135.516 146.56 137.168 148.673C138.819 150.787 138.601 150.958 140.252 153.071C141.903 155.184 141.836 155.238 143.488 157.351C145.139 159.464 145.368 159.287 147.019 161.4C148.67 163.513 148.568 163.593 150.219 165.709C151.87 167.822 151.85 167.838 153.503 169.953C155.154 172.069 155.345 171.92 156.996 174.033C158.648 176.149 158.668 176.133 160.319 178.247C161.134 179.289 160.899 180.722 160.039 181.393C159.179 182.064 157.981 181.751 157.168 180.709C155.543 178.631 155.479 178.682 153.854 176.604C152.23 174.527 152.023 174.689 150.399 172.609C148.774 170.531 148.934 170.407 147.31 168.329C145.685 166.251 145.674 166.26 144.05 164.182C142.425 162.104 142.312 162.193 140.688 160.116C139.063 158.038 139.223 157.913 137.599 155.833C135.974 153.756 136.085 153.669 134.461 151.591C132.836 149.511 132.556 149.731 130.932 147.651C129.308 145.571 129.601 145.344 127.976 143.264C126.352 141.184 126.09 141.391 124.465 139.311C122.841 137.231 123.07 137.053 121.445 134.973C120.772 134.113 119.352 134.189 118.679 135.049C117.054 137.127 117.221 137.256 115.596 139.336C113.972 141.413 113.65 141.162 112.025 143.24C110.401 145.318 110.47 145.371 108.848 147.449C107.223 149.527 107.496 149.74 105.874 151.82C104.25 153.898 104.063 153.751 102.439 155.831C100.814 157.909 100.974 158.033 99.3498 160.113C97.7253 162.191 97.4142 161.949 95.792 164.027C94.1675 166.107 94.3053 166.213 92.6809 168.291C91.0564 170.371 91.192 170.476 89.5675 172.553C87.9431 174.631 87.8675 174.573 86.2431 176.653C84.6187 178.733 84.7053 178.8 83.0809 180.88C82.2653 181.922 80.7409 182.198 79.8831 181.527C79.0231 180.856 79.0742 179.429 79.8898 178.387C81.5387 176.276 81.4875 176.236 83.1364 174.127C84.7853 172.016 84.8298 172.049 86.4787 169.938C88.1275 167.827 88.0786 167.789 89.7275 165.68C91.3764 163.569 91.4253 163.607 93.0742 161.496C94.7231 159.384 94.8631 159.493 96.512 157.382C98.1609 155.271 97.8453 155.024 99.4942 152.913C101.143 150.802 101.441 151.036 103.09 148.924C104.739 146.813 104.641 146.738 106.292 144.627C107.941 142.516 107.912 142.493 109.563 140.382C111.212 138.271 111.23 138.284 112.879 136.171C114.528 134.06 114.583 134.102 116.232 131.991C117.041 130.956 116.792 129.544 115.983 128.509C114.283 126.333 114.41 126.233 112.71 124.058C111.01 121.882 111.045 121.853 109.345 119.676C107.645 117.5 107.57 117.558 105.87 115.38C104.17 113.204 104.288 113.111 102.585 110.936C100.885 108.76 100.719 108.889 99.0187 106.713C97.3186 104.536 97.4409 104.44 95.7409 102.264C94.0409 100.087 93.8787 100.213 92.1786 98.0378C90.4786 95.86 90.5364 95.8156 88.8364 93.6378C87.1364 91.46 87.0898 91.4978 85.3875 89.32C83.6875 87.1422 83.9764 86.9178 82.2742 84.74C80.5742 82.5622 80.2964 82.78 78.5942 80.6022C77.7787 79.56 78.0231 78.1689 78.8831 77.4978C79.7431 76.8267 80.9875 77.0533 81.8031 78.0956C83.4609 80.2178 83.6431 80.0733 85.3009 82.1956C86.9587 84.3178 86.6498 84.5578 88.3075 86.68C89.9653 88.8022 90.2631 88.5689 91.9209 90.6889C93.5787 92.8111 93.532 92.8467 95.1898 94.9689C96.8475 97.0911 96.7875 97.1378 98.4453 99.2578C100.103 101.38 100.154 101.34 101.81 103.462C103.468 105.584 103.512 105.549 105.17 107.669C106.828 109.791 106.792 109.818 108.45 111.94C110.108 114.062 110.139 114.038 111.796 116.16C113.454 118.282 113.154 118.516 114.812 120.638C116.47 122.76 116.552 122.698 118.21 124.82C119.081 125.936 120.928 125.916 121.799 124.798C123.456 122.676 123.239 122.507 124.896 120.387C126.554 118.264 126.614 118.313 128.272 116.191C129.377 114.776 130.48 113.361 131.581 111.944C133.239 109.822 133.319 109.887 134.976 107.764C136.634 105.642 136.605 105.622 138.263 103.5C139.921 101.378 140.043 101.473 141.701 99.3511C143.359 97.2289 143.408 97.2689 145.065 95.1489C146.723 93.0267 146.763 93.0578 148.421 90.9356C150.079 88.8133 149.754 88.56 151.412 86.4378C152.517 85.023 153.623 83.6082 154.73 82.1933C156.388 80.0711 156.543 80.1933 158.201 78.0711C159.016 77.0289 160.259 76.8645 161.119 77.5356C161.979 78.2067 162.054 79.4022 161.239 80.4445Z" fill="#006BD9"/>
</svg>
