<svg width="24" height="24" viewBox="0 0 24 24" fill="none" xmlns="http://www.w3.org/2000/svg">
<path d="M9.94168 12.3677C9.58875 12.845 9.25165 13.336 8.92586 13.8315C7.99601 15.2545 7.21775 16.7658 6.38518 18.2477C6.35577 18.302 6.3241 18.3563 6.29469 18.4106C6.19288 18.5893 5.82863 18.4287 5.69515 18.3766C5.29244 18.2228 4.90105 18.0373 4.51191 17.8495C4.30377 17.7499 3.87165 17.6255 4.03681 17.3246C4.56847 16.3518 5.09561 15.3767 5.6318 14.4084C6.16573 13.4423 6.71323 12.4831 7.28336 11.5374C7.87837 10.5555 8.50053 9.58944 9.15663 8.64602C9.87381 7.61889 10.6317 6.62117 11.4258 5.65512C11.6973 5.32481 11.9303 4.99677 12.4122 5.14382C12.7765 5.25468 13.005 5.58273 13.229 5.86553C14.2312 7.13474 15.0095 8.57363 15.8511 9.9469C16.152 10.4401 16.4484 10.9356 16.7425 11.431C17.6384 12.9378 18.5207 14.4536 19.4076 15.9649C19.6089 16.3088 19.8035 16.6504 19.98 17.0056V17.0124C20.084 17.1527 19.756 17.3518 19.6089 17.4649C19.1157 17.8404 18.5456 18.0983 18.0524 18.4716C17.9845 18.5237 17.8895 18.5011 17.8465 18.4287C15.9913 15.2025 13.29 11.1347 12.3896 10.0125C12.2878 9.88356 12.0955 9.87225 11.9801 9.98763C11.2335 10.7206 10.5593 11.5238 9.93489 12.3632" fill="#006BD9"/>
</svg>
