<svg width="24" height="24" viewBox="0 0 24 24" fill="none" xmlns="http://www.w3.org/2000/svg">
<path d="M7.32578 16.675H10.0008C10.3689 16.675 10.6818 16.8039 10.9393 17.0615C11.1969 17.319 11.3258 17.6319 11.3258 18C11.3258 18.3682 11.1969 18.681 10.9393 18.9385C10.6818 19.1962 10.3689 19.325 10.0008 19.325H6.00078C5.63261 19.325 5.31978 19.1962 5.06228 18.9385C4.80461 18.681 4.67578 18.3682 4.67578 18V14C4.67578 13.6319 4.80461 13.319 5.06228 13.0615C5.31978 12.8039 5.63261 12.675 6.00078 12.675C6.36895 12.675 6.68178 12.8039 6.93928 13.0615C7.19695 13.319 7.32578 13.6319 7.32578 14V16.675ZM16.6758 7.32505H14.0008C13.6326 7.32505 13.3198 7.19621 13.0623 6.93855C12.8046 6.68105 12.6758 6.36822 12.6758 6.00005C12.6758 5.63188 12.8046 5.31905 13.0623 5.06155C13.3198 4.80388 13.6326 4.67505 14.0008 4.67505H18.0008C18.3689 4.67505 18.6818 4.80388 18.9393 5.06155C19.1969 5.31905 19.3258 5.63188 19.3258 6.00005V10C19.3258 10.3682 19.1969 10.681 18.9393 10.9385C18.6818 11.1962 18.3689 11.325 18.0008 11.325C17.6326 11.325 17.3198 11.1962 17.0623 10.9385C16.8046 10.681 16.6758 10.3682 16.6758 10V7.32505Z" fill="#006BD9"/>
</svg>
