<svg width="24" height="24" viewBox="0 0 24 24" fill="none" xmlns="http://www.w3.org/2000/svg">
<path d="M19.5939 10.5079C19.5427 10.5066 19.4915 10.5062 19.4419 10.5059C19.3027 10.5052 19.1619 10.5045 19.0227 10.504C18.7074 10.5025 18.3906 10.5015 18.0738 10.5008C17.9186 10.5006 4.39625 10.5007 4.24104 10.5007C3.96743 10.5007 3.98983 10.5061 4.02023 10.5726C4.07784 10.7002 4.14024 10.8276 4.14184 10.9554C4.14344 11.0617 4.15304 11.1677 4.13544 11.274C4.11304 11.4033 4.13384 11.5316 4.14184 11.6609C4.16904 12.0563 4.15784 12.4521 4.06664 12.8472C4.02023 13.0455 4.00263 13.2438 4.00103 13.4421C4.00103 13.4813 3.96903 13.501 4.26185 13.5007C4.84588 13.5004 18.7122 13.4937 19.2947 13.4878C19.6579 13.4833 19.7395 13.4892 19.7843 13.4691C19.8163 13.4546 19.8275 13.4333 19.8387 13.418C20.0579 13.1172 19.9939 12.8126 19.9827 12.5103C19.9779 12.3979 19.9747 12.2858 19.9699 12.1734C19.9603 11.9071 19.9507 11.6409 19.9363 11.3748C19.9363 11.2747 19.9251 11.1748 19.9187 11.0747C19.9123 10.9741 19.9059 10.8737 19.8979 10.7731C19.8931 10.7029 19.9027 10.6328 19.8883 10.5587C19.8819 10.5265 19.7795 10.5123 19.5923 10.5076" fill="#006BD9"/>
<path d="M19.5939 16.0079C19.5427 16.0066 19.4915 16.0062 19.4419 16.0059C19.3027 16.0052 19.1619 16.0045 19.0227 16.004C18.7074 16.0025 18.3906 16.0015 18.0738 16.0008C17.9186 16.0006 4.39625 16.0007 4.24104 16.0007C3.96743 16.0007 3.98983 16.0061 4.02023 16.0726C4.07784 16.2002 4.14024 16.3276 4.14184 16.4554C4.14344 16.5617 4.15304 16.6677 4.13544 16.774C4.11304 16.9033 4.13384 17.0316 4.14184 17.1609C4.16904 17.5563 4.15784 17.9521 4.06664 18.3472C4.02023 18.5455 4.00263 18.7438 4.00103 18.9421C4.00103 18.9813 3.96903 19.001 4.26185 19.0007C4.84588 19.0004 18.7122 18.9937 19.2947 18.9878C19.6579 18.9833 19.7395 18.9892 19.7843 18.9691C19.8163 18.9546 19.8275 18.9333 19.8387 18.918C20.0579 18.6172 19.9939 18.3126 19.9827 18.0103C19.9779 17.8979 19.9747 17.7858 19.9699 17.6734C19.9603 17.4071 19.9507 17.1409 19.9363 16.8748C19.9363 16.7747 19.9251 16.6748 19.9187 16.5747C19.9123 16.4741 19.9059 16.3737 19.8979 16.2731C19.8931 16.2029 19.9027 16.1328 19.8883 16.0587C19.8819 16.0265 19.7795 16.0123 19.5923 16.0076" fill="#006BD9"/>
<path d="M19.5939 5.00787C19.5427 5.00665 19.4915 5.00616 19.4419 5.00591C19.3027 5.00518 19.1619 5.00445 19.0227 5.00397C18.7074 5.00251 18.3906 5.00154 18.0738 5.00082C17.9186 5.00058 4.39625 5.00069 4.24104 5.0007C3.96743 5.00071 3.98983 5.00611 4.02023 5.07261C4.07784 5.20021 4.14024 5.32757 4.14184 5.45542C4.14344 5.56168 4.15304 5.66769 4.13544 5.77395C4.11304 5.90328 4.13384 6.03162 4.14184 6.16094C4.16904 6.55628 4.15784 6.95211 4.06664 7.3472C4.02023 7.54549 4.00263 7.74377 4.00103 7.94205C4.00103 7.98132 3.96903 8.00095 4.26185 8.00069C4.84588 8.00042 18.7122 7.99367 19.2947 7.98776C19.6579 7.98333 19.7395 7.98921 19.7843 7.96909C19.8163 7.95461 19.8275 7.93326 19.8387 7.91804C20.0579 7.61717 19.9939 7.31264 19.9827 7.01031C19.9779 6.89791 19.9747 6.78577 19.9699 6.67337C19.9603 6.40712 19.9507 6.14086 19.9363 5.87485C19.9363 5.77473 19.9251 5.67485 19.9187 5.57473C19.9123 5.47411 19.9059 5.37375 19.8979 5.27313C19.8931 5.20295 19.9027 5.13276 19.8883 5.05866C19.8819 5.02651 19.7795 5.01228 19.5923 5.00763" fill="#006BD9"/>
</svg>
