<svg width="240" height="240" viewBox="0 0 240 240" fill="none" xmlns="http://www.w3.org/2000/svg">
<path d="M121.72 68.9956C120.284 69.9289 118.706 69.4223 117.346 68.7623C115.986 68.1023 114.855 67.1489 114.766 65.4267C114.766 65.4001 115.02 62.9289 115.02 59.6001C115.02 57.8178 114.637 55.7912 114.635 53.7667C114.635 51.74 114.644 49.7134 114.644 47.9334C114.644 44.5845 114.166 45.0178 114.164 42.1C114.164 39.3534 116.906 36.9956 119.655 36.9956C119.997 36.9956 119.997 37.1467 120.34 37.1467C123.089 37.1467 125.111 39.3534 125.111 42.1C125.111 44.94 125.269 44.94 125.269 47.78C125.269 50.62 125.249 50.6201 125.249 53.4601C125.249 56.3001 125.475 56.3001 125.475 59.1401C125.475 61.9801 124.829 61.98 124.829 64.82C124.829 65.8578 124.882 66.9223 124.013 67.4867C122.906 68.3 122.866 68.2512 121.717 68.9978L121.72 68.9956Z" fill="#006BD9"/>
<path d="M120.422 170.327C123.168 170.327 125.004 172.073 125.004 174.822C125.004 177.707 125.173 177.707 125.173 180.591C125.173 183.476 125.002 183.476 125.002 186.36C125.002 189.244 125.304 189.244 125.304 192.131C125.304 195.018 125.062 195.016 125.062 197.902C125.062 200.649 123.108 203.182 120.359 203.182C119.766 203.218 119.773 203.129 119.179 203.164C116.431 203.164 114.279 200.649 114.279 197.902C114.279 195.451 114.733 195.451 114.733 193C114.733 190.549 114.304 190.549 114.304 188.098C114.304 185.647 114.246 185.647 114.246 183.196C114.246 180.744 114.415 180.744 114.415 178.293C114.415 176.087 113.917 172.529 115.575 171.073C117.835 170.098 117.986 170.713 120.424 170.327H120.422Z" fill="#006BD9"/>
<path d="M88.4282 74.9244C89.8037 77.3022 92.6748 78.8533 95.0548 77.4778C95.3526 77.3067 95.3037 77.2222 95.5993 77.0511C97.9771 75.6756 98.9993 71.9956 97.6237 69.6133C96.1815 67.1156 96.1193 67.1511 94.6771 64.6533C93.2348 62.1556 92.4282 62.62 90.986 60.1222C89.5437 57.6244 89.7215 57.52 88.2793 55.0222C86.8371 52.5244 86.8637 52.5089 85.4215 50.0089C84.0459 47.6311 81.1326 46.5667 78.7526 47.94C75.9548 50.7333 75.4726 52.5822 76.846 54.96C78.2882 57.4578 77.7548 57.7667 79.1971 60.2644C80.6393 62.7622 80.6926 62.7311 82.1348 65.2289C83.5771 67.7267 83.7837 67.5889 85.3771 69.9933C86.9793 72.4111 86.9837 72.4222 88.4282 74.92V74.9244Z" fill="#006BD9"/>
<path d="M151.849 164.916C150.474 162.538 147.467 161.345 145.089 162.72C144.356 163.062 144.383 163.076 143.649 163.418C141.271 164.793 140.936 168.045 142.309 170.427C143.751 172.925 144.236 172.645 145.678 175.142C147.12 177.64 146.7 177.882 148.143 180.38C149.585 182.878 150.149 182.553 151.591 185.051C153.034 187.549 152.436 187.896 153.878 190.393C155.254 192.771 158.707 193.2 161.085 191.825C161.72 191.529 161.714 191.562 162.349 191.267C164.727 189.896 164.571 187.391 163.196 185.011C161.754 182.513 162.383 182.151 160.94 179.653C159.498 177.156 158.825 177.545 157.383 175.047C155.94 172.549 156.514 172.213 155.009 169.751C153.505 167.287 153.289 167.416 151.847 164.918L151.849 164.916Z" fill="#006BD9"/>
<path d="M69.8764 97.1733C72.2541 98.5489 75.0075 97.6822 76.3808 95.3C77.4075 91.4822 77.7097 89.1022 75.3297 87.7289C72.8319 86.2867 72.5164 86.8311 70.0186 85.3889C67.5208 83.9467 67.6341 83.7511 65.1341 82.3089C62.6364 80.8667 62.9786 80.2733 60.4786 78.8311C57.9808 77.3889 57.5586 78.1178 55.0608 76.6756C52.6808 75.3 49.6075 75.7711 48.2319 78.1511C47.8119 78.7622 47.903 78.8067 47.483 79.4178C46.1075 81.7956 47.2897 84.6356 49.6697 86.0111L69.8741 97.1733H69.8764Z" fill="#006BD9"/>
<path d="M190.058 154.456C192.436 155.831 193.696 158.96 192.32 161.34C192.067 161.825 192.076 161.822 191.82 162.307C190.445 164.685 187.171 164.951 184.789 163.576C182.291 162.133 182.269 162.171 179.771 160.727C177.273 159.285 177.456 158.969 174.956 157.527C173.291 156.565 171.626 155.602 169.962 154.638C167.465 153.196 167.567 153.018 165.069 151.576C162.691 150.205 161.558 147.56 162.931 145.18C163.102 144.885 163.107 144.887 163.278 144.589C164.649 142.209 167.807 141.345 170.185 142.72C172.26 144.009 172.105 144.251 174.158 145.576C176.211 146.9 176.06 147.131 178.113 148.456C180.167 149.78 180.571 149.151 182.625 150.476C184.676 151.8 184.718 151.736 186.771 153.06L190.056 154.453L190.058 154.456Z" fill="#006BD9"/>
<path d="M70.2978 120.347C70.2978 123.096 67.9245 124.896 65.1778 124.896C62.2934 124.896 62.2934 125.622 59.409 125.622C56.5245 125.622 56.5245 125.313 53.6401 125.313C50.7556 125.313 50.7556 125.418 47.869 125.418C44.9845 125.418 44.9845 125.811 42.0978 125.811C39.3512 125.811 37.0623 123.091 37.0623 120.342C37.0623 120 37.0156 120 37.0156 119.658C37.0156 116.909 39.3512 115.082 42.0978 115.082C44.9823 115.082 44.9823 114.247 47.8667 114.247C50.7512 114.247 50.7512 114.156 53.6356 114.156C56.5201 114.156 56.5201 115.127 59.4067 115.127C62.2934 115.127 62.2912 114.176 65.1778 114.176C68.0645 114.176 70.229 116.185 70.229 118.933C70.229 119.64 70.3245 119.638 70.2978 120.345V120.347Z" fill="#006BD9"/>
<path d="M197.9 114.927C200.649 114.927 202.742 116.911 202.742 119.658C202.742 120.536 202.993 120.536 202.993 121.413C202.993 124.162 200.646 125.14 197.9 125.14C195.015 125.14 195.015 125.218 192.129 125.218C189.242 125.218 189.244 125.096 186.357 125.096C183.471 125.096 183.473 125.26 180.589 125.26C177.704 125.26 177.704 125.562 174.82 125.562C171.935 125.562 170.066 123.078 170.066 120.329C170.051 119.907 170.089 119.911 170.073 119.491C170.073 116.744 172.071 114.738 174.82 114.738C177.591 114.738 177.591 114.171 180.36 114.171C183.131 114.171 183.131 114.207 185.9 114.207C188.669 114.207 188.669 114.384 191.44 114.384C194.209 114.384 194.209 115.073 196.98 115.073L197.9 114.924V114.927Z" fill="#006BD9"/>
<path d="M76.9997 145.222C78.3753 147.6 77.7886 151.036 75.4086 152.407C72.9108 153.849 72.5064 153.149 70.0086 154.591C67.5109 156.033 67.5197 156.051 65.022 157.496C62.5242 158.938 62.8175 159.445 60.3175 160.887C57.8197 162.329 57.6442 162.025 55.1442 163.467C52.7642 164.842 50.322 165.278 48.9464 162.9C48.5153 162.007 48.3753 162.087 47.9442 161.196C46.5686 158.818 47.6131 155.92 49.9908 154.545C52.4886 153.102 52.482 153.089 54.9797 151.647C57.4775 150.205 57.602 150.418 60.0997 148.976C62.5975 147.533 62.4931 147.351 64.9908 145.909C67.4886 144.467 67.3575 144.238 69.8553 142.798C72.2353 141.427 75.2397 142.273 76.6108 144.656L76.9953 145.225L76.9997 145.222Z" fill="#006BD9"/>
<path d="M164.35 95.9089C166.612 97.98 167.888 98.4911 170.041 97.0356C172.508 95.5378 172.825 96.08 175.323 94.6378C177.821 93.1956 177.608 92.8245 180.105 91.3822C182.603 89.94 182.745 90.1867 185.245 88.7445C187.743 87.3022 187.801 87.4022 190.299 85.9578C192.676 84.5822 193.328 82.0756 191.954 79.6978C191.659 79.0134 191.663 79.0489 191.368 78.3645C189.992 75.9867 187.085 74.8956 184.703 76.2689C182.205 77.7111 182.232 77.7556 179.734 79.1978C177.236 80.64 177.334 80.8089 174.834 82.2511C172.336 83.6934 172.479 83.94 169.979 85.3822C167.481 86.8245 167.174 86.2933 164.674 87.7356C162.296 89.1067 161.845 92.2711 163.221 94.6511L164.348 95.9111L164.35 95.9089Z" fill="#006BD9"/>
<path d="M96.4429 163.325C98.8206 164.7 98.5407 167.742 97.1673 170.12C95.7251 172.618 95.9184 172.731 94.4762 175.229C93.034 177.727 93.0451 177.733 91.6029 180.233C90.1606 182.731 89.6295 182.425 88.1873 184.922C86.7451 187.42 86.5073 187.318 85.1918 189.887C84.5673 191.745 83.7918 192.825 82.4784 192.907C80.4295 193.036 80.1873 192.676 78.2762 191.587C75.8962 190.211 75.454 187.407 76.8273 185.027C78.2695 182.529 77.9273 182.331 79.3695 179.833C80.8118 177.336 80.7184 177.28 82.1607 174.782C83.6029 172.285 83.3829 172.158 84.8251 169.658C86.2673 167.16 86.854 167.498 88.2962 165C89.0362 163.72 89.7695 163.007 90.9829 162.562C92.0251 162.182 93.1051 161.809 94.714 162.385L96.4429 163.325Z" fill="#006BD9"/>
<path d="M145.075 77.2911C146.862 78.18 149.189 78.0356 150.869 76.7289C151.373 76.3378 151.993 75.9022 152.311 75.3511C152.311 75.3511 153.404 73.1445 155.06 70.2756C155.94 68.7489 156.749 66.9022 157.749 65.1667C158.751 63.4311 159.393 61.4867 160.273 59.9622C161.929 57.0956 162.46 57.8934 163.902 55.3956C165.273 53.0178 163.911 50.1289 161.529 48.7534C161.233 48.5822 161.189 48.6578 160.893 48.4867C158.513 47.1156 155.862 47.58 154.487 49.9622C153.044 52.46 153.211 52.0645 151.555 54.9311C150.675 56.4578 149.835 58.2867 148.833 60.0222C147.831 61.7578 146.662 63.3956 145.78 64.9222C144.124 67.7889 142.4 69.6289 142.4 69.6311C141.195 71.72 141.971 74.8333 143.835 76.36C144.224 76.6778 144.631 77.0734 145.071 77.2911H145.075Z" fill="#006BD9"/>
<path d="M162.846 119.049C162.911 122.316 162.566 125.429 161.953 128.424C161.306 131.591 160.464 134.624 159.153 137.424C157.8 140.32 156.08 142.973 154.122 145.407C152.138 147.873 149.878 150.082 147.382 152.007C144.895 153.927 142.178 155.538 139.284 156.847C136.44 158.136 133.446 159.158 130.32 159.793C127.278 160.407 124.126 160.6 120.911 160.531C117.609 160.46 114.511 160.064 111.566 159.484C108.342 158.853 105.306 158.082 102.522 156.893C99.5442 155.62 96.7354 154.156 94.2798 152.307C91.7398 150.398 89.6398 148.038 87.6776 145.587C85.7287 143.158 84.0954 140.489 82.7354 137.6C81.4242 134.82 80.2931 131.889 79.5398 128.744C78.8287 125.776 78.3398 122.658 78.1376 119.42C77.9465 116.296 78.2487 113.136 79.042 110.058C79.8131 107.071 81.2042 104.227 82.7509 101.427C84.2465 98.7178 85.9931 96.0977 88.0754 93.6933C90.1198 91.3311 92.3665 89.1066 94.8442 87.1622C97.3287 85.2111 99.9842 83.4866 102.771 82.0844C105.611 80.6489 108.569 79.5022 111.58 78.7689C114.671 78.0155 117.822 77.6711 120.94 77.7933C124.111 77.9177 127.231 78.2489 130.215 78.9289C133.3 79.6289 136.298 80.6089 139.093 81.8711C141.964 83.1666 144.495 85.0155 146.969 86.8666C149.464 88.7355 151.906 90.6866 153.898 93.0844C155.864 95.4533 157.48 98.1311 158.858 100.982C160.178 103.711 161.231 106.642 161.924 109.78C162.571 112.702 162.786 115.8 162.82 119.051" fill="#006BD9"/>
</svg>
