<svg width="240" height="240" viewBox="0 0 240 240" fill="none" xmlns="http://www.w3.org/2000/svg">
<path d="M109.343 164.158C111.305 164.158 111.305 163.996 113.265 163.996C115.225 163.996 115.227 164.26 117.192 164.26C119.156 164.26 119.154 164.062 121.118 164.062C122.501 164.062 123.883 163.973 125.265 163.973C126.647 163.973 128.03 164.067 129.412 164.064C130.794 164.064 132.176 163.971 133.558 163.971C134.941 163.971 136.323 163.971 137.705 163.971C139.087 163.971 140.47 164.182 141.852 164.182C143.234 164.182 144.616 164.307 145.998 164.307C147.381 164.307 148.763 164.356 150.145 164.353C151.527 164.353 152.91 164.251 154.292 164.251C155.674 164.251 157.056 164.153 158.438 164.153C159.821 164.153 161.203 164.284 162.585 164.284C163.967 164.284 165.35 164.133 166.732 164.133C168.114 164.133 169.496 164.367 170.878 164.367C172.261 164.367 173.643 164.247 175.025 164.249C176.407 164.249 177.79 163.998 179.172 163.998C180.554 163.998 181.936 164.327 183.318 164.329C185.021 164.329 186.532 164.509 187.836 165.047C189.361 165.676 190.761 166.493 191.607 167.727C192.443 168.944 192.932 170.533 192.963 172.207C192.996 173.936 192.654 175.524 191.958 176.718C191.21 178.004 189.787 178.669 188.243 179.273C186.996 179.76 185.572 180.193 183.834 180.198C182.487 180.202 181.143 180.171 179.798 180.173C178.454 180.176 177.107 180.116 175.763 180.118C174.416 180.118 173.072 180.38 171.727 180.382C170.383 180.382 169.036 180.422 167.692 180.422C166.345 180.422 165.001 180.307 163.656 180.309C162.31 180.309 160.965 180.249 159.621 180.249C158.276 180.249 156.93 180.378 155.585 180.378C154.241 180.378 152.894 180.082 151.549 180.082C150.203 180.082 148.858 180.311 147.514 180.311C146.17 180.311 144.823 180.116 143.478 180.116C142.132 180.116 140.787 180.062 139.443 180.062C138.096 180.062 136.752 180.073 135.407 180.073C134.063 180.073 132.716 180.422 131.372 180.422C129.892 180.422 128.41 180.144 126.93 180.149C125.447 180.153 123.967 180.091 122.487 180.093C121.007 180.096 119.527 180.142 118.047 180.133C116.565 180.124 115.083 180.342 113.603 180.316C112.463 180.296 111.312 180.122 110.498 180.511C109.632 180.924 109.061 181.82 109.147 183.216C109.194 183.991 111.903 185.08 113.345 185.089C114.698 185.096 116.05 185.149 117.401 185.156C118.752 185.162 120.105 185.222 121.456 185.227C122.81 185.233 124.161 185.278 125.512 185.282C126.865 185.287 128.216 185.14 129.57 185.144C130.921 185.149 132.274 185.416 133.625 185.418C134.978 185.42 136.33 185.411 137.683 185.413C139.034 185.416 140.387 185.431 141.738 185.431C143.092 185.431 144.443 185.184 145.794 185.187C147.147 185.187 148.498 185.484 149.852 185.484C151.205 185.484 152.556 185.26 153.907 185.26C155.258 185.26 156.612 185.502 157.963 185.502C159.314 185.502 160.667 185.158 162.021 185.158C163.374 185.158 164.725 185.433 166.076 185.433C167.427 185.433 168.781 185.282 170.132 185.282C171.485 185.282 172.836 185.349 174.187 185.349C175.538 185.349 176.892 185.207 178.245 185.209C179.598 185.209 180.95 185.087 182.301 185.087C183.801 185.087 185.154 185.376 186.336 185.649C187.81 185.989 188.987 186.633 189.958 187.389C191.032 188.224 191.738 189.304 192.196 190.64C192.59 191.791 192.972 193.098 192.905 194.611C192.847 195.896 192.361 197.218 191.641 198.342C190.938 199.44 189.95 200.438 188.85 201.124C187.723 201.829 186.385 202.1 185.081 202.102C183.716 202.104 182.352 202.36 180.985 202.362C179.621 202.364 178.256 202.371 176.89 202.373C175.525 202.378 174.161 202.204 172.794 202.207C171.43 202.211 170.065 202.073 168.698 202.078C167.334 202.082 165.97 202.167 164.603 202.171C163.238 202.178 161.872 202.111 160.507 202.116C159.143 202.122 157.778 202.389 156.412 202.396C155.047 202.402 153.683 202.387 152.316 202.393C150.952 202.398 149.585 202.329 148.221 202.333C146.856 202.338 145.492 202.418 144.125 202.42C142.761 202.424 141.396 202.331 140.03 202.336C138.663 202.34 137.298 202.413 135.934 202.416C134.57 202.418 133.205 202.398 131.838 202.398C130.474 202.398 129.11 202.28 127.743 202.28C126.376 202.28 125.012 202.233 123.647 202.233C122.283 202.231 120.916 202.504 119.552 202.502C118.187 202.498 116.823 202.156 115.456 202.149C114.092 202.142 112.725 202.438 111.361 202.431C109.994 202.422 108.632 202.111 107.267 202.1C105.901 202.091 104.536 202.224 103.17 202.213C101.805 202.2 100.438 202.258 99.0739 202.242C97.7095 202.227 96.3451 202.149 94.9784 202.131C93.6139 202.113 92.2473 202.193 90.8828 202.173C89.5184 202.153 88.1584 201.867 86.7917 201.842C85.4273 201.818 84.0562 202.113 82.6895 202.084C81.3606 202.058 80.0673 201.762 78.7984 201.556C77.4984 201.344 76.2384 201.011 75.0006 200.627C73.754 200.238 72.4495 199.967 71.2651 199.418C70.0851 198.871 68.9428 198.2 67.8295 197.511C66.7273 196.831 65.8317 195.833 64.7917 195.029C63.7695 194.238 62.6895 193.504 61.7273 192.607C60.7806 191.727 59.9895 190.682 59.1006 189.711C58.2273 188.758 57.0784 188.02 56.2584 186.993C55.3651 185.876 54.7584 184.584 54.034 183.422C53.2851 182.216 52.5006 181.049 51.9184 179.8C51.3228 178.522 50.6984 177.251 50.2562 175.933C49.814 174.607 49.6784 173.187 49.374 171.82C49.0695 170.462 48.9473 169.073 48.7606 167.682C48.5784 166.307 48.3606 164.931 48.274 163.527C48.1895 162.142 48.1695 160.749 48.1606 159.342C48.1517 157.949 48.134 156.553 48.1317 155.16C48.1295 153.767 48.2051 152.373 48.2073 150.978C48.2073 149.584 47.9406 148.189 47.9451 146.796C47.9495 145.402 47.9984 144.009 48.0028 142.613C48.0095 141.22 47.9028 139.827 47.9073 138.431C47.9117 137.038 48.0317 135.644 48.034 134.249C48.0384 132.856 48.2851 131.462 48.2851 130.069C48.2851 128.676 48.0428 127.28 48.0384 125.887C48.034 124.493 48.0717 123.098 48.0628 121.704C48.0517 120.311 48.2428 118.913 48.2251 117.52C48.2073 116.127 47.9162 114.736 47.8895 113.342C47.8606 111.724 47.8406 110.233 48.094 108.936C48.4028 107.351 49.1228 106.036 49.8384 104.898C50.6362 103.629 51.7651 102.771 53.0362 102.013C54.2117 101.313 55.5184 100.793 57.0695 100.491C58.394 100.233 59.8273 99.8067 61.4095 99.8111C62.7073 99.8156 64.0028 99.8 65.3006 99.8022C66.5984 99.8044 67.894 99.8244 69.194 99.8267C70.4895 99.8267 71.7873 100.136 73.0851 100.136C74.3806 100.136 75.6784 99.9267 76.9784 99.9267C78.2739 99.9267 79.5717 99.8844 80.8717 99.8844C82.1717 99.8844 83.4628 100.029 84.7628 100.029C86.0584 100.029 87.354 99.9578 88.6517 99.9578C89.9473 99.9578 91.2428 99.9511 92.5428 99.9511C93.8384 99.9511 95.1362 100.182 96.4384 100.182C97.7317 100.182 99.0295 100.071 100.332 100.069C101.627 100.069 102.923 100.089 104.227 100.089C105.521 100.089 106.861 99.9778 108.163 99.9778C108.163 101.349 108.174 102.742 108.194 104.087C108.214 105.453 108.234 106.809 108.225 108.153C108.214 109.516 108.256 110.876 108.167 112.224C108.094 113.296 107.301 114.462 106.161 115.373C105.256 116.096 104.061 116.691 102.834 117.129C101.643 117.553 100.35 117.729 99.1451 117.733C97.7739 117.738 96.4051 117.68 95.034 117.687C93.6651 117.693 92.294 117.724 90.9251 117.731C89.554 117.738 88.1851 117.82 86.8162 117.824C85.4451 117.829 84.0762 117.756 82.7051 117.753C81.3362 117.753 79.9673 117.682 78.5962 117.676C77.2273 117.667 75.854 117.889 74.4851 117.873C73.1162 117.858 71.7495 117.602 70.3784 117.578C68.5406 117.542 67.3295 118.011 66.6273 118.882C65.974 119.693 65.814 120.78 66.0562 122.649C68.374 123.487 68.4628 122.916 70.9273 122.916C72.2717 122.916 73.6184 122.671 74.9628 122.671C76.3073 122.671 77.6517 123.002 78.9984 123.002C80.3451 123.002 81.6873 122.682 83.0317 122.682C84.3762 122.682 85.7228 122.653 87.0673 122.653C88.4117 122.653 89.7562 122.647 91.1028 122.647C92.4495 122.647 93.7917 122.904 95.1362 122.904C96.4806 122.904 97.8273 122.816 99.1717 122.816C100.516 122.816 101.861 123.011 103.207 123.011C104.554 123.011 105.896 122.822 107.241 122.822C108.585 122.822 109.932 123.029 111.276 123.029C112.621 123.029 113.965 122.724 115.312 122.724C116.658 122.724 118.001 122.633 119.345 122.633C120.69 122.633 122.036 122.727 123.381 122.727C124.725 122.727 126.07 122.951 127.416 122.951C128.763 122.951 130.105 122.807 131.45 122.807C132.794 122.807 134.141 122.98 135.485 122.98C136.83 122.98 138.174 122.876 139.521 122.876C140.867 122.876 142.21 122.889 143.554 122.889C144.898 122.889 146.245 123.007 147.59 123.007C148.934 123.007 150.278 122.918 151.625 122.918C152.972 122.918 154.314 122.631 155.658 122.631C157.003 122.631 158.35 122.856 159.694 122.856C161.038 122.856 162.383 122.962 163.73 122.962C165.076 122.962 166.418 122.72 167.763 122.72C169.107 122.72 170.454 122.947 171.798 122.947C173.143 122.947 174.487 122.88 175.834 122.88C177.181 122.88 178.523 122.753 179.867 122.753C181.212 122.753 182.558 122.691 183.903 122.691C185.478 122.691 186.938 123.018 188.167 123.524C189.592 124.109 190.718 125.073 191.521 126.207C192.327 127.347 192.803 128.727 192.814 130.278C192.827 131.907 192.165 133.309 191.341 134.598C190.516 135.889 189.456 136.971 188.023 137.696C186.696 138.367 185.21 139.047 183.556 139.049C182.196 139.049 180.836 138.711 179.474 138.711C178.114 138.711 176.754 138.987 175.392 138.989C174.03 138.989 172.67 138.716 171.31 138.716C169.95 138.716 168.59 138.707 167.227 138.707C165.865 138.707 164.507 138.658 163.145 138.66C161.783 138.66 160.423 139.007 159.063 139.007C157.703 139.007 156.343 139.051 154.981 139.051C153.618 139.051 152.261 138.918 150.898 138.918C149.536 138.918 148.176 138.94 146.816 138.94C145.456 138.94 144.096 138.924 142.734 138.924C141.372 138.924 140.014 139.056 138.652 139.056C137.29 139.056 135.93 138.833 134.57 138.833C133.21 138.833 131.85 138.893 130.487 138.893C129.127 138.893 127.767 139.042 126.405 139.042C125.043 139.042 123.683 138.927 122.323 138.927C120.963 138.927 119.603 139.056 118.241 139.056C116.878 139.056 115.521 139.011 114.158 139.011C113.03 139.011 111.794 138.62 110.838 139.029C109.923 139.42 109.147 140.493 108.41 141.298C109.198 141.891 110.123 142.871 110.934 142.902C112.436 142.958 113.936 143.207 115.441 143.22C116.945 143.233 118.45 142.94 119.954 142.933C121.458 142.927 122.963 143.016 124.467 143.016C125.847 143.016 127.227 142.92 128.607 142.92C129.987 142.92 131.367 143.013 132.747 143.013C134.127 143.013 135.507 142.869 136.887 142.869C138.267 142.869 139.647 143.276 141.027 143.276C142.407 143.276 143.787 143.256 145.167 143.256C146.547 143.256 147.927 143.02 149.307 143.018C150.687 143.018 152.067 143.018 153.447 143.018C154.827 143.018 156.207 142.853 157.587 142.853C158.967 142.853 160.347 143.113 161.727 143.113C163.107 143.113 164.487 142.876 165.867 142.876C167.247 142.876 168.627 142.9 170.007 142.902C171.387 142.902 172.767 143.042 174.147 143.044C175.527 143.044 176.907 143.013 178.287 143.016C179.667 143.016 181.047 143.26 182.427 143.262C183.778 143.262 185.072 143.153 186.216 143.493C187.501 143.876 188.718 144.422 189.672 145.167C190.696 145.967 191.318 147.136 191.87 148.269C192.405 149.371 192.756 150.573 192.756 151.913C192.756 153.253 192.67 154.451 192.192 155.467C191.681 156.549 190.678 157.276 189.667 157.989C188.763 158.629 187.721 159.102 186.452 159.413C185.385 159.676 184.225 159.787 182.923 159.793C181.494 159.8 180.067 159.847 178.638 159.851C177.212 159.856 175.783 160.164 174.356 160.167C172.927 160.167 171.501 160.184 170.072 160.184C168.645 160.184 167.216 160.016 165.787 160.013C164.361 160.013 162.932 159.82 161.503 159.818C160.076 159.818 158.647 159.987 157.218 159.984C155.792 159.984 154.363 160.033 152.934 160.033C151.505 160.033 150.078 160.076 148.65 160.076C147.318 160.076 145.985 160.093 144.654 160.093C143.323 160.093 141.99 159.907 140.658 159.909C139.327 159.909 137.994 159.878 136.663 159.878C135.332 159.878 133.998 159.978 132.667 159.98C131.336 159.98 130.003 160.162 128.672 160.162C127.341 160.162 126.007 160.024 124.676 160.024C123.345 160.024 122.014 159.776 120.681 159.773C119.35 159.769 118.016 159.887 116.685 159.882C115.354 159.876 114.023 159.74 112.692 159.731C111.178 159.722 110.165 160.224 109.592 160.938C109.07 161.587 109.027 162.524 109.474 164.14" fill="#006BD9"/>
<path d="M192.78 79.7511C192.78 81.0089 192.764 82.2178 192.78 83.3955C192.797 84.64 192.833 85.8467 192.829 87.0333C192.822 88.26 192.806 89.4667 192.731 90.6711C192.655 91.8867 191.835 93.1933 190.651 94.3267C189.653 95.28 188.384 96.1155 187.095 96.6955C185.644 97.3489 184.146 97.6622 182.933 97.4533C181.706 97.2422 180.566 96.7089 179.569 95.9533C178.593 95.2155 177.74 94.2755 177.1 93.1978C176.469 92.1311 176.053 90.9333 175.862 89.7111C175.671 88.4889 175.702 87.2311 176.064 86.0244C176.444 84.7578 177.004 83.6755 177.722 82.7889C178.5 81.8311 179.477 81.1089 180.609 80.6022C181.651 80.1355 182.833 79.8622 184.146 79.7822C185.546 79.6955 186.955 79.6755 188.453 79.6911C189.795 79.7067 191.211 79.7378 192.762 79.7378" fill="#006BD9"/>
<path d="M192.762 58.6422C192.762 59.8733 192.855 61.0889 192.94 62.2711C193.029 63.5244 193.124 64.74 193.104 65.8956C193.082 67.1644 192.924 68.3622 192.504 69.4578C191.98 70.8267 190.909 72.0844 189.644 73.2044C188.446 74.2667 187.08 75.2222 185.777 75.9667C184.269 76.8289 182.855 76.6489 181.58 75.9956C180.34 75.3622 179.2 74.28 178.189 73.2467C176.971 72.0067 176.169 70.6022 175.844 69.1267C175.517 67.6333 175.68 66.0422 176.42 64.4444C176.964 63.2667 177.617 62.1844 178.382 61.2667C179.195 60.2933 180.151 59.5 181.34 59.0333C182.384 58.6222 183.602 58.4689 185.026 58.6067C186.277 58.7289 187.54 58.7133 188.897 58.6889C190.093 58.6689 191.364 58.6378 192.766 58.6378" fill="#006BD9"/>
<path d="M192.778 37.5422C192.778 39.1778 192.724 40.7067 192.695 42.1689C192.664 43.7667 192.642 45.2889 192.818 46.7889C193.033 48.6156 192.558 50.0178 191.715 51.1378C190.782 52.38 189.427 53.2733 188.158 54.0222C186.873 54.78 185.369 55.1933 183.847 55.12C182.422 55.0511 180.984 54.5511 179.689 53.56C178.264 52.4689 177.18 51.2 176.522 49.7511C175.864 48.3022 175.622 46.6756 175.944 44.8556C176.202 43.3956 176.718 42.1156 177.484 41.0644C178.289 39.96 179.367 39.0956 180.66 38.4978C181.815 37.9622 183.162 37.6711 184.655 37.5822C185.975 37.5044 187.298 37.5 188.711 37.5156C189.973 37.5289 191.309 37.5667 192.771 37.5667" fill="#006BD9"/>
</svg>
