<svg width="24" height="24" viewBox="0 0 24 24" fill="none" xmlns="http://www.w3.org/2000/svg">
<path d="M10.8023 15.4805H7.84453C7.47653 15.4805 7.1637 15.3517 6.90603 15.094C6.64836 14.8364 6.51953 14.5235 6.51953 14.1555V9.84453C6.51953 9.47653 6.64836 9.16369 6.90603 8.90603C7.1637 8.64836 7.47653 8.51953 7.84453 8.51953H10.8023L14.2293 5.10653C14.6496 4.68619 15.1299 4.59178 15.67 4.82328C16.2104 5.05478 16.4805 5.46619 16.4805 6.05753V17.9425C16.4805 18.5339 16.2104 18.9453 15.67 19.1768C15.1299 19.4083 14.6496 19.3139 14.2293 18.8935L10.8023 15.4805Z" fill="#006BD9"/>
</svg>
