<svg width="240" height="240" viewBox="0 0 240 240" fill="none" xmlns="http://www.w3.org/2000/svg">
<path d="M60.8844 199.931C60.8844 200.971 60.1511 201.933 59.1133 201.933C56.5422 201.933 56.5422 201.58 53.9711 201.58C51.4 201.58 51.4 201.887 48.8289 201.887C46.2577 201.887 46.2578 201.907 43.6844 201.907C41.1133 201.907 41.1133 201.649 38.54 201.649C37.5 201.649 36.8889 200.976 36.8889 199.933C36.8889 197.311 36.8444 197.311 36.8444 194.689C36.8444 192.067 36.3066 192.067 36.3066 189.444C36.3066 186.822 36.8866 186.822 36.8866 184.2C36.8866 181.578 36.5844 181.578 36.5844 178.953C36.5844 176.331 36.5 176.331 36.5 173.709C36.5 171.087 36.9866 171.087 36.9866 168.462C36.9866 165.838 36.5422 165.84 36.5422 163.218C36.5422 160.596 36.32 160.596 36.32 157.971C36.32 155.349 36.5844 155.349 36.5844 152.724C36.5844 150.1 36.7755 150.102 36.7755 147.478C36.7755 144.856 36.6533 144.856 36.6533 142.233C36.6533 139.611 36.7977 139.611 36.7977 136.989C36.7977 134.367 36.9178 134.367 36.9178 131.742C36.9178 129.12 36.4511 129.12 36.4511 126.496C36.4511 123.873 36.8066 123.873 36.8066 121.249C36.8066 118.627 36.3755 118.627 36.3755 116.002C36.3755 113.38 36.74 113.38 36.74 110.756C36.74 108.131 36.7044 108.131 36.7044 105.509C36.7044 102.884 36.9311 102.884 36.9311 100.262C36.9311 99.2222 37.5044 98.1911 38.5422 98.1911C41.1133 98.1911 41.1133 98.6422 43.6844 98.6422C46.2555 98.6422 46.2555 98.3111 48.8266 98.3111C51.3978 98.3111 51.3977 98.3356 53.9711 98.3356C56.5444 98.3356 56.5422 98.1911 59.1155 98.1911C60.1555 98.1911 61.0444 99.2222 61.0444 100.262C61.0444 102.884 61.2266 102.884 61.2266 105.507C61.2266 108.129 60.7444 108.129 60.7444 110.751C60.7444 113.373 60.7822 113.373 60.7822 115.996C60.7822 118.618 60.9066 118.618 60.9066 121.242C60.9066 123.864 61.0289 123.864 61.0289 126.487C61.0289 129.109 60.7222 129.109 60.7222 131.733C60.7222 134.356 61.3089 134.356 61.3089 136.978C61.3089 139.6 60.7378 139.6 60.7378 142.224C60.7378 144.849 61.1733 144.847 61.1733 147.471C61.1733 150.093 61.1955 150.093 61.1955 152.718C61.1955 155.34 61.2289 155.34 61.2289 157.962C61.2289 160.584 61.1378 160.584 61.1378 163.207C61.1378 165.829 61.1444 165.829 61.1444 168.453C61.1444 171.078 60.82 171.076 60.82 173.7C60.82 176.322 60.9466 176.322 60.9466 178.947C60.9466 181.569 60.9578 181.569 60.9578 184.193C60.9578 186.816 60.7044 186.816 60.7044 189.44C60.7044 192.064 61.2311 192.067 61.1933 194.691C61.1555 197.316 60.8822 197.311 60.8822 199.936L60.8844 199.931Z" fill="#006BD9"/>
<path d="M88.9583 199.931C88.9583 200.971 88.4272 201.669 87.3872 201.669C84.8161 201.669 84.8161 201.882 82.245 201.882C79.6739 201.882 79.6739 202.047 77.1028 202.047C74.5317 202.047 74.5317 201.549 71.9583 201.549C69.385 201.549 69.3872 201.671 66.8139 201.671C65.7739 201.671 65.1783 200.971 65.1783 199.931C65.1783 197.309 64.7628 197.309 64.7628 194.684C64.7628 192.062 65.1517 192.062 65.1517 189.438C65.1517 186.815 65.2517 186.815 65.2517 184.191C65.2517 181.567 64.8072 181.569 64.8072 178.944C64.8072 176.322 64.9383 176.322 64.9383 173.698C64.9383 171.076 64.7694 171.076 64.7694 168.451C64.7694 165.829 65.1161 165.829 65.1161 163.204C65.1161 160.58 64.745 160.58 64.745 157.958C64.745 155.335 65.1383 155.335 65.1383 152.711C65.1383 150.089 64.625 150.089 64.625 147.464C64.625 144.842 65.0694 144.842 65.0694 142.218C65.0694 139.593 64.9961 139.595 64.9961 136.971C64.9961 134.349 65.205 134.349 65.205 131.724C65.205 129.1 65.1494 129.1 65.1494 126.478C65.1494 123.855 64.9094 123.855 64.9094 121.231C64.9094 118.609 65.2672 118.609 65.2672 115.984C65.2672 113.362 64.945 113.362 64.945 110.738C64.945 108.113 64.6694 108.113 64.6694 105.491C64.6694 102.867 64.9494 102.867 64.9494 100.244C64.9494 97.6199 64.7828 97.6199 64.7828 94.9977C64.7828 92.3733 64.905 92.3733 64.905 89.7511C64.905 87.1266 64.6272 87.1266 64.6272 84.5022C64.6272 81.8777 65.1072 81.8777 65.1072 79.2533C65.1072 78.2133 65.7783 77.2066 66.8161 77.2066C69.3872 77.2066 69.3872 77.5422 71.9583 77.5422C74.5294 77.5422 74.5294 77.2066 77.1006 77.2066C79.6717 77.2066 79.6717 77.2311 82.245 77.2311C84.8183 77.2311 84.8161 77.3288 87.3894 77.3288C88.4294 77.3288 89.0006 78.2111 89.0006 79.2533C89.0006 81.8755 89.2294 81.8755 89.2294 84.4999C89.2294 87.1222 89.5406 87.1222 89.5406 89.7466C89.5406 92.3688 89.2361 92.3688 89.2361 94.9933C89.2361 97.6155 89.525 97.6155 89.525 100.24C89.525 102.862 89.2428 102.862 89.2428 105.487C89.2428 108.109 89.0339 108.109 89.0339 110.733C89.0339 113.355 89.5428 113.355 89.5428 115.98C89.5428 118.604 89.0828 118.604 89.0828 121.227C89.0828 123.849 89.105 123.849 89.105 126.473C89.105 129.095 89.0272 129.095 89.0272 131.72C89.0272 134.342 89.4894 134.342 89.4894 136.967C89.4894 139.589 89.4983 139.589 89.4983 142.213C89.4983 144.838 88.9317 144.835 88.9317 147.46C88.9317 150.084 89.3828 150.084 89.3828 152.707C89.3828 155.329 89.0028 155.329 89.0028 157.953C89.0028 160.575 89.5761 160.576 89.5761 163.2C89.5761 165.822 89.2983 165.822 89.2983 168.447C89.2983 171.071 89.0539 171.071 89.0539 173.693C89.0539 176.318 89.105 176.318 89.105 178.94C89.105 181.564 89.3206 181.564 89.3206 184.187C89.3206 186.811 89.4206 186.811 89.4206 189.433C89.4206 192.058 89.0783 192.049 88.9739 194.669C88.8694 197.298 88.9517 197.304 88.9517 199.929L88.9583 199.931Z" fill="#006BD9"/>
<path d="M143.902 197.891C141.402 198.493 141.282 197.998 138.784 198.602C136.284 199.207 136.331 199.396 133.831 199.998C131.331 200.602 131.366 200.747 128.866 201.349C126.366 201.951 126.4 202.093 123.902 202.698C122.891 202.942 122.086 202.049 121.844 201.04C121.228 198.491 121.004 198.544 120.388 195.996C119.773 193.444 119.553 193.498 118.937 190.949C118.322 188.4 118.533 188.349 117.917 185.798C117.302 183.249 117.053 183.309 116.437 180.758C115.822 178.209 116.093 178.142 115.477 175.593C114.862 173.044 114.466 173.14 113.851 170.589C113.235 168.04 113.462 167.984 112.846 165.436C112.231 162.887 112.455 162.831 111.84 160.28C111.224 157.731 111.28 157.718 110.664 155.167C110.048 152.616 110.151 152.591 109.535 150.042C108.92 147.493 108.773 147.527 108.157 144.978C107.542 142.427 107.126 142.529 106.511 139.978C105.895 137.429 106.224 137.349 105.608 134.798C104.993 132.247 104.906 132.269 104.291 129.718C103.675 127.169 103.397 127.236 102.782 124.687C102.166 122.138 102.626 122.024 102.011 119.476C101.395 116.924 101.053 117.009 100.437 114.458C99.8217 111.907 99.7106 111.933 99.0951 109.384C98.4795 106.833 99.0484 106.696 98.4328 104.147C97.8173 101.596 97.604 101.649 96.9884 99.0978C96.3728 96.5467 96.1351 96.6045 95.5195 94.0534C94.904 91.5022 94.8528 91.5156 94.2373 88.9645C93.6217 86.4134 93.7462 86.3845 93.1306 83.8334C92.8862 82.82 93.5928 81.5556 94.604 81.3111C97.104 80.7067 97.2195 81.1867 99.7195 80.5822C102.22 79.9778 102.128 79.6045 104.628 79C107.128 78.3956 107.193 78.6667 109.693 78.0645C112.193 77.46 112.071 76.9578 114.571 76.3556C115.582 76.1134 116.768 77.0556 117.013 78.0689C117.628 80.6178 117.333 80.6889 117.948 83.24C118.564 85.7911 118.468 85.8134 119.084 88.3622C119.7 90.9111 119.717 90.9067 120.333 93.4578C120.948 96.0067 121.128 95.9645 121.744 98.5134C122.36 101.062 122.148 101.113 122.764 103.664C123.38 106.213 123.986 106.069 124.602 108.618C125.217 111.167 124.804 111.267 125.42 113.818C126.035 116.369 126.271 116.311 126.886 118.862C127.502 121.411 127.137 121.5 127.753 124.049C128.368 126.6 128.388 126.593 129.004 129.144C129.62 131.693 129.877 131.631 130.493 134.182C131.108 136.733 130.973 136.764 131.588 139.316C132.204 141.864 132.331 141.836 132.946 144.384C133.562 146.936 133.213 147.018 133.828 149.569C134.444 152.118 134.48 152.111 135.095 154.66C135.711 157.209 136.077 157.122 136.693 159.671C137.308 162.22 136.997 162.296 137.613 164.847C138.228 167.398 138.175 167.411 138.791 169.96C139.406 172.511 139.66 172.449 140.275 175C140.891 177.551 141.151 177.487 141.766 180.038C142.382 182.589 141.982 182.684 142.597 185.236C143.213 187.787 143.504 187.716 144.122 190.267C144.737 192.818 144.671 192.833 145.288 195.384C145.533 196.396 144.92 197.651 143.911 197.893L143.902 197.891Z" fill="#006BD9"/>
<path d="M175.167 199.931C175.167 200.971 174.225 201.704 173.185 201.704C170.613 201.704 170.613 201.516 168.042 201.516C165.471 201.516 165.471 201.538 162.9 201.538C160.329 201.538 160.329 202.044 157.756 202.044C155.182 202.044 155.185 201.813 152.611 201.813C151.571 201.813 150.576 200.971 150.576 199.931C150.576 197.28 150.589 197.28 150.589 194.629C150.589 191.978 150.749 191.978 150.749 189.327C150.749 186.676 150.578 186.676 150.578 184.024C150.578 181.373 150.587 181.373 150.587 178.722C150.587 176.071 150.922 176.071 150.922 173.42C150.922 170.769 150.816 170.769 150.816 168.116C150.816 165.464 151.038 165.464 151.038 162.813C151.038 160.162 150.938 160.162 150.938 157.511C150.938 154.86 150.413 154.86 150.413 152.209C150.413 149.558 150.513 149.558 150.513 146.907C150.513 144.256 150.762 144.256 150.762 141.604C150.762 138.953 150.787 138.953 150.787 136.302C150.787 133.651 151.051 133.651 151.051 131C151.051 128.349 151.018 128.349 151.018 125.698C151.018 123.047 150.698 123.047 150.698 120.396C150.698 117.744 150.542 117.744 150.542 115.091C150.542 112.44 150.847 112.44 150.847 109.787C150.847 107.136 150.909 107.136 150.909 104.482C150.909 102.715 150.909 100.947 150.909 99.1778C150.909 96.5245 151.047 96.5245 151.047 93.8733C151.047 91.22 150.402 91.22 150.402 88.5689C150.402 87.5289 151.573 86.3356 152.611 86.3356C155.182 86.3356 155.182 86.9556 157.753 86.9556C160.325 86.9556 160.325 86.7156 162.896 86.7156C165.467 86.7156 165.467 86.9511 168.04 86.9511C170.613 86.9511 170.611 86.6289 173.185 86.6289C174.225 86.6289 175.256 87.5267 175.256 88.5689C175.256 91.22 175.147 91.22 175.147 93.8711C175.147 96.5222 175.4 96.5222 175.4 99.1733C175.4 101.824 175.351 101.824 175.351 104.476C175.351 107.127 175.267 107.127 175.267 109.778C175.267 112.429 175.378 112.429 175.378 115.08C175.378 117.731 175.018 117.731 175.018 120.384C175.018 123.036 174.807 123.036 174.807 125.687C174.807 128.338 174.9 128.338 174.9 130.989C174.9 133.64 175.005 133.64 175.005 136.291C175.005 138.059 175.005 139.826 175.007 141.593C175.007 144.244 175.118 144.244 175.118 146.896C175.118 149.547 175.013 149.547 175.013 152.198C175.013 154.849 175.298 154.849 175.298 157.5C175.298 160.151 175.409 160.151 175.409 162.802C175.409 165.453 175.24 165.453 175.24 168.104C175.24 170.756 174.927 170.756 174.927 173.409C174.927 176.06 175.313 176.06 175.313 178.713C175.313 181.364 175.327 181.364 175.327 184.018C175.327 186.669 175.085 186.669 175.085 189.322C175.085 191.976 174.8 191.978 174.833 194.629C174.867 197.282 175.171 197.278 175.171 199.931H175.167Z" fill="#006BD9"/>
<path d="M203.615 199.931C203.615 200.971 202.497 201.491 201.459 201.491C198.888 201.491 198.888 201.707 196.317 201.707C193.746 201.707 193.746 201.589 191.175 201.589C188.604 201.589 188.604 201.744 186.03 201.744C183.459 201.744 183.459 201.824 180.886 201.824C179.846 201.824 178.886 200.971 178.886 199.931C178.886 197.309 178.946 197.309 178.946 194.684C178.946 192.062 178.795 192.062 178.795 189.438C178.795 186.816 179.059 186.816 179.059 184.191C179.059 181.569 178.755 181.569 178.755 178.944C178.755 176.322 178.877 176.322 178.877 173.698C178.877 171.076 179.039 171.076 179.039 168.451C179.039 165.827 179.002 165.829 179.002 163.204C179.002 160.58 179.304 160.58 179.304 157.958C179.304 155.336 179.008 155.336 179.008 152.711C179.008 150.087 178.65 150.089 178.65 147.464C178.65 144.842 179.35 144.842 179.35 142.218C179.35 139.596 179.264 139.596 179.264 136.971C179.264 134.349 178.995 134.349 178.995 131.724C178.995 129.1 178.797 129.1 178.797 126.478C178.797 123.856 178.666 123.856 178.666 121.231C178.666 118.609 178.924 118.609 178.924 115.984C178.924 113.362 179.139 113.362 179.139 110.738C179.139 108.113 178.868 108.113 178.868 105.491C178.868 102.867 178.773 102.867 178.773 100.244C178.773 97.62 179.161 97.62 179.161 94.9978C179.161 92.3733 178.875 92.3733 178.875 89.7511C178.875 87.1267 178.948 87.1267 178.948 84.5022C178.948 81.8778 178.808 81.8778 178.808 79.2533C178.808 78.2133 179.848 77.5111 180.888 77.5111C183.459 77.5111 183.459 77.1467 186.03 77.1467C188.602 77.1467 188.602 77.3933 191.173 77.3933C193.744 77.3933 193.744 77.2489 196.317 77.2489C198.89 77.2489 198.888 77.3756 201.462 77.3756C202.502 77.3756 203.337 78.2111 203.337 79.2533C203.337 81.8756 203.444 81.8756 203.444 84.5C203.444 87.1222 203.395 87.1222 203.395 89.7467C203.395 92.3689 203.137 92.3689 203.137 94.9933C203.137 97.6178 203.655 97.6156 203.655 100.24C203.655 102.862 203.521 102.862 203.521 105.487C203.521 108.109 203.673 108.109 203.673 110.733C203.673 113.356 203.05 113.356 203.05 115.98C203.05 118.604 203.173 118.604 203.173 121.227C203.173 123.849 203.144 123.849 203.144 126.473C203.144 129.096 203.497 129.096 203.497 131.72C203.497 134.342 203.168 134.342 203.168 136.967C203.168 139.591 203.026 139.589 203.026 142.213C203.026 144.836 203.628 144.836 203.628 147.46C203.628 150.084 203.482 150.084 203.482 152.707C203.482 155.329 203.082 155.329 203.082 157.953C203.082 160.576 203.126 160.576 203.126 163.2C203.126 165.822 203.266 165.822 203.266 168.447C203.266 171.071 203.177 171.071 203.177 173.693C203.177 176.318 203.428 176.318 203.428 178.94C203.428 181.562 203.253 181.564 203.253 184.187C203.253 186.811 203.628 186.811 203.628 189.433C203.628 192.058 203.224 192.06 203.315 194.682C203.406 197.311 203.615 197.304 203.615 199.929V199.931Z" fill="#006BD9"/>
</svg>
