<svg width="24" height="24" viewBox="0 0 24 24" fill="none" xmlns="http://www.w3.org/2000/svg">
<path d="M11.9995 10.0619C12.6618 10.0619 13.2252 9.82964 13.6897 9.36514C14.1542 8.90064 14.3865 8.33722 14.3865 7.67489C14.3865 7.01256 14.1542 6.44914 13.6897 5.98464C13.2252 5.52014 12.6618 5.28789 11.9995 5.28789C11.3372 5.28789 10.7737 5.52014 10.3092 5.98464C9.84475 6.44914 9.6125 7.01256 9.6125 7.67489C9.6125 8.33722 9.84475 8.90064 10.3092 9.36514C10.7737 9.82964 11.3372 10.0619 11.9995 10.0619ZM11.9995 15.2824C11.293 15.2824 10.6537 15.0891 10.0815 14.7026C9.5095 14.316 9.09741 13.8027 8.84525 13.1629C8.76191 13.1629 8.68216 13.1671 8.606 13.1754C8.53 13.1837 8.44558 13.1879 8.35275 13.1879C7.41075 13.1879 6.6055 12.8536 5.937 12.1851C5.2685 11.5166 4.93425 10.7114 4.93425 9.76939C4.93425 9.39122 4.99966 9.02314 5.1305 8.66514C5.26133 8.30714 5.45283 7.97706 5.705 7.67489C5.4695 7.37272 5.28633 7.04264 5.1555 6.68464C5.02466 6.32664 4.95925 5.95855 4.95925 5.58039C4.95925 4.63822 5.28933 3.83297 5.9495 3.16464C6.60966 2.49614 7.41075 2.16189 8.35275 2.16189C8.44558 2.16189 8.53 2.16605 8.606 2.17439C8.68216 2.18272 8.76191 2.18689 8.84525 2.18689C9.09741 1.54705 9.5095 1.03381 10.0815 0.647139C10.6537 0.260472 11.293 0.0671387 11.9995 0.0671387C12.706 0.0671387 13.3477 0.260472 13.9245 0.647139C14.5013 1.03381 14.9111 1.54705 15.1537 2.18689C15.2466 2.18689 15.331 2.18272 15.407 2.17439C15.4832 2.16605 15.5629 2.16189 15.6462 2.16189C16.5882 2.16189 17.3893 2.49614 18.0495 3.16464C18.7097 3.83297 19.0397 4.63822 19.0397 5.58039C19.0397 5.95855 18.9785 6.32664 18.856 6.68464C18.7335 7.04264 18.5509 7.37272 18.3082 7.67489C18.5342 7.97706 18.7127 8.30714 18.8435 8.66514C18.9743 9.02314 19.0397 9.39122 19.0397 9.76939C19.0397 10.7114 18.7097 11.5166 18.0495 12.1851C17.3893 12.8536 16.5882 13.1879 15.6462 13.1879C15.5629 13.1879 15.4832 13.1837 15.407 13.1754C15.331 13.1671 15.2466 13.1629 15.1537 13.1629C14.9111 13.8027 14.5013 14.316 13.9245 14.7026C13.3477 15.0891 12.706 15.2824 11.9995 15.2824ZM11.9995 22.8511C11.9995 20.3553 12.6728 18.2449 14.0195 16.5199C15.3663 14.7949 17.1655 13.7001 19.417 13.2356C19.7525 13.1618 20.0885 13.1445 20.425 13.1836C20.7617 13.2228 21.0467 13.3685 21.28 13.6206C21.5082 13.875 21.6372 14.171 21.667 14.5086C21.6967 14.8463 21.6698 15.1804 21.5865 15.5109C21.1103 17.7412 20.0103 19.5221 18.2865 20.8536C16.5625 22.1853 14.4668 22.8511 11.9995 22.8511ZM11.9995 22.8619C11.9995 20.3662 11.3262 18.2559 9.9795 16.5309C8.63266 14.8059 6.8335 13.7111 4.582 13.2466C4.2465 13.1726 3.9105 13.1576 3.574 13.2016C3.23733 13.2455 2.95233 13.3935 2.719 13.6456C2.49083 13.9 2.36183 14.1936 2.332 14.5266C2.30233 14.8595 2.32916 15.1911 2.4125 15.5216C2.88866 17.7521 3.98866 19.5331 5.7125 20.8646C7.4365 22.1961 9.53216 22.8619 11.9995 22.8619Z" fill="#006BD9"/>
</svg>
