<svg width="240" height="240" viewBox="0 0 240 240" fill="none" xmlns="http://www.w3.org/2000/svg">
<path d="M146.912 54.2111C148.496 54.2111 150.052 54.3867 151.561 54.6645C153.11 54.9489 154.605 55.3956 156.045 55.9467C157.507 56.5067 158.936 57.1445 160.263 57.9489C161.594 58.7578 162.816 59.7378 163.983 60.7689C165.147 61.7956 166.281 62.88 167.256 64.1C168.225 65.3089 169.049 66.64 169.807 68.0111C170.552 69.3645 171.138 70.8045 171.654 72.2889C172.158 73.7422 172.594 75.2378 172.854 76.7933C173.107 78.3045 173.196 79.8578 173.196 81.4422C173.196 83.0267 173.074 84.5756 172.823 86.0867C172.563 87.6422 172.203 89.1578 171.696 90.6111C171.181 92.0956 170.618 93.56 169.874 94.9133C169.118 96.2845 168.212 97.5689 167.245 98.78C166.269 100 165.167 101.113 164.003 102.14C162.834 103.169 161.576 104.098 160.245 104.907C158.921 105.711 157.51 106.382 156.047 106.94C154.605 107.491 153.121 108 151.574 108.284C150.067 108.562 148.501 108.707 146.914 108.707C145.327 108.707 143.778 108.476 142.272 108.2C140.723 107.916 139.225 107.484 137.785 106.933C136.323 106.373 134.949 105.649 133.623 104.844C132.292 104.036 131.007 103.158 129.838 102.127C128.674 101.1 127.583 99.9822 126.607 98.76C125.638 97.5511 124.783 96.2445 124.025 94.8733C123.278 93.52 122.614 92.1067 122.098 90.6222C121.594 89.1667 121.17 87.66 120.91 86.1022C120.656 84.5933 120.576 83.0289 120.576 81.4422C120.576 79.8556 120.778 78.3133 121.032 76.8022C121.292 75.2467 121.589 73.7156 122.092 72.2622C122.607 70.7778 123.238 69.3445 123.985 67.9911C124.741 66.62 125.627 65.3289 126.596 64.12C127.572 62.9022 128.678 61.7978 129.843 60.7711C131.012 59.7422 132.292 58.86 133.623 58.0511C134.949 57.2467 136.296 56.4489 137.756 55.8889C139.196 55.3378 140.723 54.9822 142.27 54.6978C143.776 54.42 145.327 54.2489 146.912 54.2489" fill="#006BD9"/>
<path d="M77.8466 66.9C77.8466 64.62 77.6977 64.62 77.6977 62.3422C77.6977 60.0644 79.62 59.3066 78.0333 57.6689C76.4977 56.0844 75.7089 57.7022 73.5022 57.7022C71.2955 57.7022 71.2933 57.9689 69.0866 57.9689C67.4555 57.9689 65.9555 58.2844 64.6466 59.08C63.3133 59.8911 62.3022 61.0755 61.5377 62.4666C60.8044 63.7955 60.2844 65.2644 60.2844 66.9022C60.2844 68.54 60.5866 70.1289 61.32 71.4578C62.0866 72.8466 63.4 73.7711 64.7333 74.58C66.0444 75.3777 67.4577 75.8333 69.0889 75.8333C70.72 75.8333 72.3511 75.7311 73.6622 74.9355C74.9955 74.1266 76.0089 72.8 76.7755 71.4111C77.5089 70.0822 77.8511 68.5422 77.8511 66.9022M201.591 181.033C201.591 182.567 201.333 184.124 200.647 185.438C199.971 186.738 198.702 187.669 197.507 188.624C196.378 189.527 195.124 190.3 193.66 190.787C192.293 191.24 190.836 191.751 189.282 191.751C186.573 191.751 186.573 191.618 183.867 191.618C181.16 191.618 180.442 193.407 178.358 191.676C176.629 190.24 178.424 189.318 178.424 187.069C178.424 184.82 178.553 184.82 178.553 182.571C178.553 180.322 178.231 180.324 178.231 178.076C178.231 175.827 178.262 175.829 178.262 173.582C178.262 171.336 178.647 171.336 178.647 169.087C178.647 166.838 178.456 166.84 178.456 164.591C178.456 162.342 178.38 162.344 178.38 160.096C178.38 157.847 178.424 157.847 178.424 155.598C178.424 153.349 178.26 153.351 178.26 151.102C178.26 148.853 178.571 148.853 178.571 146.602C178.571 144.351 178.451 144.351 178.451 142.1C178.451 139.849 180.184 139.031 178.476 137.571C176.473 135.86 175.176 135.876 173.16 137.571C171.464 138.996 172.969 139.813 172.969 142.029C172.969 144.242 172.993 144.242 172.993 146.458C172.993 148.671 172.976 148.671 172.976 150.887C172.976 153.1 173.073 153.1 173.071 155.316C173.071 157.529 173.233 157.529 173.233 159.744C173.233 161.221 173.233 162.698 173.231 164.173C173.231 166.387 173.404 166.387 173.404 168.6C173.404 170.813 172.96 170.813 172.96 173.029C172.96 175.242 173.389 175.242 173.389 177.458C173.389 179.671 173.364 179.671 173.364 181.887C173.364 184.102 173.011 184.102 173.011 186.316C173.011 188.529 173.333 188.529 173.333 190.742C173.333 192.958 173.111 192.958 173.111 195.173C173.111 197.391 173.049 197.391 173.049 199.609C173.049 201.827 174.573 202.318 173.013 203.893C171.471 205.451 170.973 203.829 168.78 203.829C166.587 203.829 166.589 204.173 164.398 204.173C162.207 204.173 162.204 203.818 160.011 203.818C157.818 203.818 157.82 204.071 155.631 204.071C153.442 204.071 153.44 204.269 151.247 204.269C149.053 204.269 149.056 204.08 146.864 204.08C144.673 204.08 144.673 204.071 142.48 204.071C140.287 204.071 140.289 203.853 138.096 203.853C135.902 203.853 135.904 204.169 133.713 204.169C131.522 204.169 131.52 203.929 129.327 203.929C127.133 203.929 127.131 204.04 124.938 204.04C122.744 204.04 122.238 205.458 120.693 203.9C119.136 202.327 120.589 201.829 120.593 199.613C120.596 197.4 120.716 197.4 120.72 195.184C120.722 192.971 120.691 192.971 120.693 190.756C120.698 188.542 120.66 188.542 120.664 186.327C120.667 184.113 120.644 184.113 120.647 181.898C120.651 179.682 120.427 179.682 120.429 177.469C120.433 175.256 120.498 175.256 120.502 173.042C120.504 170.829 120.758 170.829 120.76 168.616C120.764 166.402 120.44 166.4 120.444 164.187C120.447 161.973 120.6 161.973 120.602 159.76C120.604 157.544 120.804 157.544 120.809 155.331C120.811 153.118 120.762 153.118 120.764 150.904C120.769 148.689 120.631 148.689 120.633 146.473C120.638 144.256 120.822 144.256 120.824 142.038C120.829 139.82 122.32 139.058 120.704 137.538C118.987 135.922 118.287 137.4 115.927 137.4C113.567 137.4 113.569 137.653 111.211 137.653C108.853 137.653 108.853 137.584 106.493 137.584C104.133 137.584 104.136 137.762 101.776 137.762C99.4155 137.762 99.4177 137.444 97.0577 137.444C94.6977 137.444 94.6977 137.791 92.3377 137.791C89.9777 137.791 89.9777 137.509 87.6177 137.509C85.2577 137.509 85.2577 137.631 82.9 137.631C80.5422 137.631 80.54 137.658 78.1777 137.658C75.8155 137.658 75.2289 136.036 73.5844 137.729C71.8911 139.473 73.7022 140.033 73.7022 142.464C73.7022 144.896 73.3755 144.893 73.3755 147.324C73.3755 149.756 73.7066 149.753 73.7066 152.184C73.7066 154.616 73.7022 154.616 73.7022 157.049C73.7022 159.482 75.2777 160.293 73.5689 162.022C71.88 163.731 71.0533 162.047 68.6533 162.047C66.2533 162.047 65.5577 163.6 63.7933 161.973C62.1644 160.469 63.7444 159.696 63.7444 157.48C63.7444 155.264 63.72 155.262 63.72 153.047C63.72 150.831 63.9644 150.831 63.9644 148.613C63.9644 146.396 63.7777 146.396 63.7777 144.178C63.7777 141.96 63.9755 141.958 63.9755 139.738C63.9755 137.518 64.2244 137.487 63.7955 135.311C62.7711 134.551 62.0955 133.493 61.3489 132.444C60.6177 131.413 60.0133 130.338 59.6222 129.098C59.2489 127.909 59.0266 126.687 59.0266 125.367C59.0266 123.593 59.0866 121.842 59.7044 120.298C60.3489 118.682 61.4533 117.3 62.6289 116.084C63.0089 115.687 63.5777 115.338 64.0089 114.996C64.2066 112.909 63.7044 112.884 63.7044 110.789C63.7044 108.693 63.86 108.693 63.86 106.596C63.86 104.498 63.9022 104.498 63.9022 102.398C63.9022 100.298 65.5155 99.4955 64.0022 98.0422C62.4266 96.5289 61.6644 98.0355 59.48 98.0355C57.2955 98.0355 57.2977 98.1933 55.1133 98.1933C52.9289 98.1933 52.9289 98.2178 50.7444 98.2178C48.56 98.2178 48.5577 98.3244 46.3711 98.3244C44.1844 98.3244 44.1844 98.3933 41.9977 98.3933C39.9866 98.3933 38.3889 96.5177 38.3889 94.4422C38.3889 92.1489 38.5377 92.1489 38.5377 89.8533C38.5377 87.5578 38.5377 87.56 38.5377 85.2644C38.5377 82.9689 38.5866 82.9689 38.5866 80.6733C38.5866 78.3778 38.4644 78.38 38.4644 76.0866C38.4644 73.7933 38.2422 73.7933 38.2422 71.4977C38.2422 69.2022 38.2689 69.2044 38.2689 66.9066C38.2689 64.6089 38.6044 64.6133 38.6044 62.3177C38.6044 60.0222 38.48 60.0244 38.48 57.7266C38.48 55.4289 38.3111 55.4311 38.3111 53.1333C38.3111 50.8355 38.36 50.84 38.36 48.5422C38.36 46.2444 38.5444 46.2444 38.5444 43.9489C38.5444 41.6533 38.5689 41.6511 38.5689 39.3555C38.5689 37.28 39.9866 35.4844 41.9977 35.4844C44.2177 35.4844 44.2177 35.4622 46.4377 35.4622C48.6577 35.4622 48.6577 35.5822 50.88 35.5822C53.1022 35.5822 53.1 35.7933 55.3222 35.7933C57.5444 35.7933 57.5422 35.4489 59.76 35.4489C61.9777 35.4489 61.98 35.5022 64.2022 35.5022C66.4244 35.5022 66.4222 35.4044 68.6422 35.4044C70.8622 35.4044 70.8622 35.7177 73.0822 35.7177C75.3022 35.7177 75.3022 35.4422 77.5244 35.4422C79.7466 35.4422 79.7444 35.5222 81.9644 35.5222C84.1844 35.5222 84.1866 35.3666 86.4089 35.3666C88.6311 35.3666 88.6311 35.6533 90.8555 35.6533C93.08 35.6533 93.0777 35.7578 95.3022 35.7578C97.3155 35.7578 98.8044 37.2822 98.8044 39.3555C98.8044 41.6489 98.7155 41.6489 98.7155 43.9444C98.7155 46.24 98.7444 46.2378 98.7444 48.5355C98.7444 50.8333 99.0955 50.8289 99.0955 53.1266C99.0955 55.4244 98.8422 55.42 98.8422 57.7133C98.8422 60.0066 99.1533 60.0066 99.1533 62.3022C99.1533 64.5977 98.98 64.5955 98.98 66.8911C98.98 69.1866 99.0866 69.1844 99.0866 71.48C99.0866 73.7755 98.76 73.7755 98.76 76.0711C98.76 78.3666 98.9177 78.3666 98.9177 80.6622C98.9177 82.9578 98.8244 82.9578 98.8244 85.2533C98.8244 87.5489 98.9777 87.5511 98.9777 89.8466C98.9777 92.1422 99.02 92.1422 99.02 94.44C99.02 96.5155 97.3177 98.2889 95.3022 98.2889C93.1177 98.2889 93.1177 98.1 90.9355 98.1C88.7533 98.1 88.7511 97.96 86.5689 97.96C84.3866 97.96 84.3844 98.2755 82.2 98.2755C80.0155 98.2755 80.0133 98.1 77.8266 98.1C75.64 98.1 74.8911 96.5489 73.3977 98.1466C71.8022 99.8533 73.2911 100.538 73.2911 102.873C73.2911 105.209 73.3911 105.211 73.3911 107.549C73.3911 109.887 71.78 110.589 73.4 112.273C74.96 113.893 75.7022 112.207 77.9511 112.207C80.2 112.207 80.2 112.356 82.4466 112.356C84.6933 112.356 84.6977 112.46 86.9466 112.46C89.1955 112.46 89.1955 112.36 91.4422 112.36C93.6889 112.36 93.6933 112.153 95.9422 112.153C98.1911 112.153 98.1911 112.149 100.44 112.149C102.689 112.149 102.691 112.1 104.94 112.1C107.189 112.1 107.189 112.136 109.438 112.136C111.687 112.136 111.689 112.071 113.938 112.071C116.187 112.071 116.189 112.129 118.438 112.129C120.687 112.129 120.687 112.222 122.938 112.222C125.189 112.222 125.189 112.036 127.438 112.036C129.687 112.036 129.689 111.98 131.938 111.98C134.187 111.98 134.189 112.291 136.438 112.291C138.687 112.291 138.687 112.158 140.936 112.158C143.184 112.158 143.187 112.267 145.436 112.267C147.684 112.267 147.687 112.149 149.936 112.149C152.184 112.149 152.187 112.322 154.436 112.322C156.684 112.322 156.687 112.318 158.938 112.318C161.189 112.318 161.187 112.42 163.436 112.42C165.684 112.42 165.687 112.124 167.938 112.124C170.189 112.124 170.191 112.429 172.442 112.429C174.693 112.429 174.696 112.144 176.947 112.144C178.427 112.144 179.873 112.371 181.282 112.629C182.727 112.896 184.069 113.44 185.413 113.956C186.778 114.476 188.022 115.164 189.26 115.916C190.502 116.671 191.949 117.162 193.038 118.124C194.124 119.082 195.16 120.164 196.071 121.302C196.976 122.431 197.707 123.729 198.413 125.009C199.109 126.271 199.658 127.638 200.138 129.022C200.609 130.38 200.88 131.813 201.122 133.267C201.358 134.678 201.531 136.12 201.531 137.6C201.531 139.773 201.571 139.773 201.571 141.944C201.571 144.116 201.638 144.116 201.638 146.284C201.638 148.453 201.464 148.456 201.464 150.627C201.464 152.798 201.758 152.798 201.758 154.969C201.758 157.14 201.669 157.14 201.669 159.311C201.669 161.482 201.758 161.484 201.758 163.656C201.758 165.827 201.709 165.827 201.709 167.998C201.709 170.169 201.411 170.171 201.411 172.342C201.411 174.513 201.358 174.518 201.382 176.691C201.407 178.864 201.589 178.864 201.589 181.038" fill="#006BD9"/>
</svg>
