<svg width="240" height="240" viewBox="0 0 240 240" fill="none" xmlns="http://www.w3.org/2000/svg">
<path d="M176.932 191.8C174.681 191.8 174.681 192.06 172.43 192.06C170.179 192.06 170.179 192.171 167.928 192.171C165.784 192.171 163.844 190.289 163.844 188.144C163.844 185.513 164.028 185.513 164.028 182.882C164.028 180.251 164.266 180.251 164.266 177.62C164.266 174.989 163.806 174.989 163.806 172.358C163.806 169.727 164.097 169.727 164.097 167.096C164.097 164.464 164.17 164.464 164.17 161.833C164.17 159.202 164.301 159.202 164.301 156.571C164.301 153.94 163.937 153.94 163.937 151.309C163.937 148.678 163.808 148.678 163.808 146.047C163.808 143.416 164.206 143.416 164.206 140.784C164.206 138.153 163.939 138.153 163.939 135.522C163.939 132.891 164.324 132.891 164.324 130.26C164.324 127.629 163.81 127.629 163.81 124.998C163.81 122.367 163.961 122.367 163.961 119.736C163.961 117.104 164.279 117.104 164.279 114.473C164.279 111.842 164.064 111.842 164.064 109.211C164.064 107.457 164.064 105.702 164.064 103.947C164.064 101.316 163.126 101.156 163.866 98.6289C165.484 98.3689 167.252 97.9089 168.521 96.9822C169.81 96.0422 170.532 94.5555 171.264 93.1222C171.97 91.7378 172.608 90.2955 172.608 88.6355C172.608 85.9733 172.726 85.9733 172.726 83.3089C172.726 80.6467 172.801 80.6467 172.801 77.9822C172.801 75.3178 172.428 75.3178 172.428 72.6556C172.428 69.9911 172.584 69.9911 172.584 67.3289C172.584 64.6644 172.619 64.6644 172.619 62.0022C172.619 59.3378 172.457 59.3378 172.457 56.6755C172.457 54.0111 172.344 54.0111 172.344 51.3467C172.344 48.6822 172.37 48.6822 172.37 46.0178C172.37 44.1622 171.924 42.5333 171.057 41.0356C170.161 39.4889 169.041 38.1311 167.495 37.2378C165.997 36.3711 164.281 35.6689 162.426 35.6689C162.092 35.6689 162.092 35.7556 161.761 35.7556C159.906 35.7556 158.028 36.0889 156.528 36.9556C155.028 37.8222 153.868 39.4 152.972 40.9444C152.106 42.4422 151.475 44.1622 151.475 46.0178C151.475 48.68 151.712 48.68 151.712 51.3444C151.712 54.0067 151.377 54.0067 151.377 56.6711C151.377 59.3356 151.537 59.3355 151.537 61.9978C151.537 64.66 151.415 64.6622 151.415 67.3244C151.415 69.9889 151.397 69.9889 151.397 72.6511C151.397 75.3155 151.826 75.3155 151.826 77.9778C151.826 80.6422 151.357 80.6422 151.357 83.3067C151.357 85.9711 151.424 85.9711 151.424 88.6355C151.424 90.3222 151.75 92.0311 152.475 93.4289C153.226 94.8755 154.446 96.1378 155.768 97.0756C157.09 98.0133 158.446 98.5533 160.095 98.7844C160.855 101.411 160.221 101.449 160.221 104.182C160.221 106.916 160.566 106.916 160.566 109.649C160.566 112.382 160.428 112.382 160.428 115.118C160.428 117.851 160.079 117.851 160.079 120.587C160.079 123.32 161.119 123.436 160.328 126.053C159.23 124.216 157.621 122.791 155.761 121.727C153.901 120.662 151.935 119.851 149.708 119.851C147.541 119.851 147.541 119.816 145.377 119.816C143.212 119.816 142.057 118.087 141.012 119.984C139.115 123.431 140.895 123.936 140.895 127.869C140.895 129.656 141.315 131.396 141.957 132.949C142.626 134.56 143.721 135.94 144.937 137.153C146.15 138.367 147.506 139.527 149.117 140.196C150.67 140.84 152.437 140.978 154.221 140.978C157.277 140.978 157.884 139.216 160.239 141.162C162.186 142.771 160.457 143.573 160.457 146.1C160.457 148.627 160.101 148.627 160.101 151.153C160.101 153.68 160.29 153.68 160.29 156.207C160.29 158.733 160.248 158.733 160.248 161.262C160.248 163.789 160.421 163.789 160.421 166.318C160.421 168.844 160.528 168.844 160.528 171.373C160.528 173.9 160.084 173.9 160.084 176.429C160.084 178.958 160.497 178.958 160.497 181.484C160.497 184.013 160.172 184.013 160.172 186.54C160.172 188.056 159.57 189.282 158.575 190.276C157.581 191.269 156.355 192.189 154.839 192.189C151.924 192.189 151.924 192.138 149.008 192.138C146.092 192.138 146.092 192.06 143.177 192.06C140.261 192.06 140.261 191.878 137.346 191.878C134.43 191.878 134.43 191.762 131.515 191.762C128.599 191.762 128.599 191.827 125.684 191.827C123.57 191.827 121.717 190.32 121.717 188.207C121.717 185.576 122.11 185.576 122.11 182.942C122.11 180.309 121.744 180.309 121.744 177.678C121.744 175.047 121.859 175.047 121.859 172.413C121.859 169.78 121.984 169.78 121.984 167.149C121.984 164.516 121.744 164.516 121.744 161.884C121.744 159.251 122.079 159.251 122.079 156.62C122.079 153.987 122.07 153.987 122.07 151.356C122.07 148.722 121.761 148.722 121.761 146.091C121.761 143.46 122.055 143.46 122.055 140.827C122.055 138.196 121.961 138.196 121.961 135.562C121.961 132.929 121.759 132.929 121.759 130.298C121.759 127.664 121.852 127.664 121.852 125.033C121.852 122.4 121.817 122.4 121.817 119.769C121.817 117.136 122.135 117.136 122.135 114.504C122.135 111.871 121.81 111.871 121.81 109.24C121.81 106.609 121.672 106.607 121.672 103.973C121.672 101.34 120.868 101.16 121.617 98.6355C123.25 98.3911 124.906 97.7 126.19 96.7778C127.497 95.84 128.557 94.6733 129.297 93.2333C130.012 91.8422 130.697 90.3178 130.697 88.6444C130.697 85.9822 130.575 85.9822 130.575 83.3178C130.575 80.6555 130.492 80.6555 130.492 77.9911C130.492 75.3267 130.466 75.3267 130.466 72.6644C130.466 70 130.532 70 130.532 67.3378C130.532 64.6733 130.415 64.6733 130.415 62.0111C130.415 59.3467 130.65 59.3467 130.65 56.6844C130.65 54.02 130.477 54.02 130.477 51.3556C130.477 48.6911 130.415 48.6911 130.415 46.0267C130.415 44.1711 129.941 42.48 129.075 40.9822C128.208 39.4844 126.968 38.1133 125.421 37.22C123.924 36.3533 122.192 36.1067 120.337 36.1067C120.006 36.1067 120.006 36.0022 119.672 36.0022C117.817 36.0022 116.201 36.5533 114.701 37.42C113.155 38.3156 111.715 39.3733 110.821 40.92C109.955 42.4178 109.637 44.1733 109.637 46.0311C109.637 48.6933 109.608 48.6933 109.608 51.3578C109.608 54.02 109.457 54.02 109.457 56.6844C109.457 59.3489 109.21 59.3489 109.21 62.0111C109.21 64.6755 109.695 64.6755 109.695 67.3378C109.695 70.0022 109.215 70.0022 109.215 72.6644C109.215 75.3289 109.428 75.3289 109.428 77.9911C109.428 80.6555 109.592 80.6556 109.592 83.32C109.592 85.9844 109.472 85.9844 109.472 88.6489C109.472 90.3222 109.995 91.8467 110.71 93.2378C111.426 94.6289 112.319 96.1111 113.624 97.0511C114.908 97.9733 116.417 98.4955 118.05 98.74C118.799 101.311 118.157 101.391 118.157 104.069C118.157 106.749 118.001 106.749 118.001 109.429C118.001 112.109 118.259 112.109 118.259 114.789C118.259 117.469 118.368 117.469 118.368 120.149C118.368 122.829 118.33 122.829 118.33 125.509C118.33 128.189 118.384 128.189 118.384 130.869C118.384 133.549 118.246 133.549 118.246 136.229C118.246 138.016 118.246 139.802 118.246 141.589C118.246 144.269 119.206 144.471 118.412 147.031C117.306 145.238 115.421 143.793 113.581 142.758C111.799 141.756 109.812 141.051 107.621 141.051C105.455 141.051 105.455 141.26 103.29 141.26C101.126 141.26 99.9302 139.12 98.8857 141.018C96.988 144.464 98.7702 144.991 98.7702 148.924C98.7702 150.711 99.1169 152.498 99.7613 154.051C100.406 155.604 101.577 157.058 102.792 158.271C104.008 159.484 105.444 160.529 107.055 161.198C108.608 161.842 110.35 162.287 112.137 162.287C115.144 162.287 115.881 160.131 118.157 162.096C120.124 163.793 118.088 164.698 118.088 167.296C118.088 169.893 118.137 169.893 118.137 172.489C118.137 175.084 117.93 175.087 117.93 177.682C117.93 180.28 118.041 180.28 118.041 182.878C118.041 185.476 118.388 185.476 118.388 188.073C118.388 190.267 116.375 192.02 114.181 192.02C111.681 192.02 111.681 192.273 109.184 192.273C106.684 192.273 106.684 192.26 104.186 192.26C101.686 192.26 101.686 192.271 99.188 192.271C96.688 192.271 96.688 191.882 94.1902 191.882C91.6902 191.882 91.6902 191.907 89.1902 191.907C86.6902 191.907 86.6902 192.293 84.1902 192.293C81.6968 192.293 79.4102 190.02 79.4102 187.527C79.4102 184.916 79.6213 184.916 79.6213 182.304C79.6213 179.693 79.6013 179.693 79.6013 177.08C79.6013 174.469 79.688 174.469 79.688 171.858C79.688 169.247 79.4857 169.247 79.4857 166.636C79.4857 164.024 79.4369 164.024 79.4369 161.413C79.4369 158.802 79.6546 158.802 79.6546 156.191C79.6546 153.58 79.8791 153.58 79.8791 150.969C79.8791 148.358 79.4057 148.358 79.4057 145.744C79.4057 143.133 79.708 143.133 79.708 140.522C79.708 137.911 79.3969 137.911 79.3969 135.3C79.3969 132.689 79.7524 132.689 79.7524 130.078C79.7524 127.467 79.708 127.467 79.708 124.853C79.708 122.242 79.8191 122.242 79.8191 119.629C79.8191 117.018 79.6969 117.018 79.6969 114.404C79.6969 111.793 79.4991 111.793 79.4991 109.18C79.4991 106.567 79.5724 106.567 79.5724 103.956C79.5724 101.342 78.7946 101.196 79.5502 98.6933C81.1991 98.4622 82.9102 97.9689 84.2102 97.0489C85.5324 96.1111 86.5368 94.7644 87.288 93.3178C88.0391 91.8711 88.4746 90.3378 88.4746 88.6511C88.4746 85.9889 88.668 85.9889 88.668 83.3244C88.668 80.6622 88.708 80.6622 88.708 77.9978C88.708 75.3333 88.3813 75.3333 88.3813 72.6711C88.3813 70.0067 88.4435 70.0067 88.4435 67.3444C88.4435 64.68 88.2591 64.68 88.2591 62.0178C88.2591 59.3533 88.4391 59.3533 88.4391 56.6911C88.4391 54.0267 88.3835 54.0267 88.3835 51.3622C88.3835 48.6978 88.6302 48.6978 88.6302 46.0333C88.6302 44.1778 87.7591 42.5444 86.8924 41.0444C85.9968 39.4978 85.0057 37.9089 83.4591 37.0133C81.9613 36.1467 80.108 35.8644 78.2524 35.8644C78.0302 35.8644 77.8087 35.8644 77.588 35.8644C75.7324 35.8644 73.9724 36.3044 72.4724 37.1733C70.9257 38.0689 69.4746 39.2867 68.5791 40.8333C67.7124 42.3311 67.5035 44.1778 67.5035 46.0333C67.5035 48.6955 67.3035 48.6955 67.3035 51.36C67.3035 54.0222 67.5435 54.0222 67.5435 56.6867C67.5435 59.3511 67.4391 59.3511 67.4391 62.0133C67.4391 64.6778 67.1257 64.6778 67.1257 67.34C67.1257 70.0044 67.2369 70.0044 67.2369 72.6667C67.2369 75.3311 67.3546 75.3311 67.3546 77.9933C67.3546 80.6578 67.408 80.6578 67.408 83.3222C67.408 85.9867 67.3569 85.9867 67.3569 88.6511C67.3569 90.3133 67.8057 91.8778 68.5124 93.26C69.2435 94.6911 70.1391 96.1467 71.428 97.0867C72.7169 98.0267 74.0813 98.5111 75.6991 98.7711C76.4413 101.371 76.1524 101.4 76.1524 104.102C76.1524 106.804 75.9213 106.807 75.9213 109.509C75.9213 112.213 76.1502 112.213 76.1502 114.916C76.1502 117.62 76.2257 117.62 76.2257 120.324C76.2257 123.029 76.5257 123.078 75.7369 125.662C74.6191 123.916 73.3946 122.376 71.5746 121.371C69.8102 120.4 67.6969 120.1 65.5391 120.1C63.3724 120.1 63.3724 120.284 61.208 120.284C59.0413 120.284 57.9235 118.116 56.8791 120.011C54.9813 123.458 56.8924 123.944 56.8924 127.878C56.8924 129.664 57.4835 131.264 58.128 132.818C58.7724 134.371 59.4524 136.051 60.6657 137.264C61.8791 138.478 63.4635 139.229 65.0746 139.898C66.628 140.542 68.2657 141.169 70.0524 141.169C73.008 141.169 73.5635 139.311 75.7969 141.249C77.7346 142.929 75.7524 143.62 75.7524 146.184C75.7524 148.749 75.9124 148.749 75.9124 151.313C75.9124 153.878 76.0902 153.878 76.0902 156.442C76.0902 159.007 76.0546 159.007 76.0546 161.571C76.0546 164.136 75.8146 164.136 75.8146 166.7C75.8146 169.264 75.728 169.264 75.728 171.829C75.728 174.393 76.1213 174.393 76.1213 176.958C76.1213 179.522 76.0435 179.522 76.0435 182.089C76.0435 184.653 75.9769 184.653 75.9769 187.22C75.9769 189.88 73.808 191.949 71.1457 191.949C69.128 191.949 69.128 191.884 67.108 191.884C65.0902 191.884 65.0902 192.016 63.0702 192.016C61.4813 192.016 59.8435 192.453 58.7302 193.447C57.6169 194.44 56.7946 196.007 56.6657 197.598C56.5235 199.371 57.2924 201.109 58.3946 202.304C59.4969 203.5 61.188 204.458 62.9457 204.458C65.6613 204.458 65.6613 204.389 68.3791 204.389C71.0969 204.389 71.0946 204.436 73.8124 204.436C76.5302 204.436 76.528 203.927 79.2457 203.927C81.9635 203.927 81.9635 204.296 84.6791 204.296C87.3946 204.296 87.3969 204.222 90.1124 204.222C92.828 204.222 92.8302 204.193 95.5457 204.193C98.2613 204.193 98.2635 204.022 100.979 204.022C103.695 204.022 103.697 204.044 106.412 204.044C109.128 204.044 109.13 204.209 111.846 204.209C114.561 204.209 114.564 203.953 117.279 203.953C119.995 203.953 119.997 203.916 122.712 203.916C125.428 203.916 125.43 203.913 128.146 203.913C130.861 203.913 130.861 204.282 133.579 204.282C136.297 204.282 136.297 204.436 139.012 204.436C141.728 204.436 141.73 203.998 144.446 203.998C147.161 203.998 147.164 204.042 149.881 204.042C152.599 204.042 152.599 204.409 155.317 204.409C158.035 204.409 158.035 204.018 160.752 204.018C163.47 204.018 163.47 204.231 166.188 204.231C168.906 204.231 168.906 203.927 171.624 203.927C174.341 203.927 174.341 203.971 177.059 203.971C178.817 203.971 180.364 203.384 181.475 202.18C182.577 200.984 183.401 199.378 183.259 197.604C183.132 196.013 182.27 194.584 181.152 193.587C180.039 192.593 178.526 191.809 176.937 191.809L176.932 191.8Z" fill="#006BD9"/>
</svg>
