<svg width="24" height="24" viewBox="0 0 24 24" fill="none" xmlns="http://www.w3.org/2000/svg">
<path d="M6.16953 22.4381C5.44086 22.4381 4.81703 22.1786 4.29803 21.6596C3.77903 21.1407 3.51953 20.5169 3.51953 19.7881V10.1273C3.51953 9.39849 3.77903 8.77457 4.29803 8.25557C4.81703 7.73674 5.44086 7.47732 6.16953 7.47732H6.78803V5.88707C6.78803 4.4284 7.29436 3.18799 8.30703 2.16582C9.3197 1.14365 10.5507 0.632568 12 0.632568C13.4494 0.632568 14.6804 1.14365 15.693 2.16582C16.7057 3.18799 17.212 4.4284 17.212 5.88707V7.47732H17.8305C18.5592 7.47732 19.183 7.73674 19.702 8.25557C20.221 8.77457 20.4805 9.39849 20.4805 10.1273V19.7881C20.4805 20.5169 20.221 21.1407 19.702 21.6596C19.183 22.1786 18.5592 22.4381 17.8305 22.4381H6.16953ZM12 16.9576C12.55 16.9576 13.0209 16.7617 13.4125 16.3701C13.8042 15.9784 14 15.5076 14 14.9576C14 14.4076 13.8042 13.9367 13.4125 13.5451C13.0209 13.1534 12.55 12.9576 12 12.9576C11.45 12.9576 10.9792 13.1534 10.5875 13.5451C10.1959 13.9367 10 14.4076 10 14.9576C10 15.5076 10.1959 15.9784 10.5875 16.3701C10.9792 16.7617 11.45 16.9576 12 16.9576ZM9.43803 7.47732H14.562V5.88707C14.562 5.16357 14.3151 4.54865 13.8213 4.04232C13.3274 3.53582 12.7204 3.28257 12 3.28257C11.2797 3.28257 10.6726 3.53582 10.1788 4.04232C9.68495 4.54865 9.43803 5.16357 9.43803 5.88707V7.47732Z" fill="#006BD9"/>
</svg>
