<svg width="240" height="240" viewBox="0 0 240 240" fill="none" xmlns="http://www.w3.org/2000/svg">
<path d="M113.411 80.3644C112.658 78.8859 111.905 77.4089 111.151 75.9333C110.022 73.7155 110.52 73.4644 109.391 71.2467C108.262 69.0289 107.507 69.4155 106.378 67.1978C105.249 64.98 105.767 64.7178 104.638 62.5022C103.509 60.2844 103.522 60.2778 102.393 58.0622C101.264 55.8444 101.138 55.9111 100.009 53.6933C99.6199 52.9267 98.7332 52.7467 97.9532 53.1111C96.371 53.8489 94.5888 54.1111 93.0821 54.8644C91.5199 55.6467 90.1399 56.7267 88.6621 57.5289C87.1243 58.3622 85.4599 58.92 84.011 59.7733C82.5021 60.6622 81.1888 61.8155 79.7777 62.7267C78.3665 63.6378 76.9332 64.7133 75.5643 65.6867C74.1354 66.7022 72.6554 67.5955 71.3399 68.6378C69.9665 69.7267 68.7199 70.9222 67.471 72.04C66.1643 73.2089 65.251 74.7178 64.0799 75.92C62.9088 77.1222 61.6777 78.3822 60.6021 79.6733C59.4821 81.0178 57.8843 81.96 56.9265 83.3422C55.871 84.86 55.3954 86.7778 54.4754 88.44C53.5843 90.0511 52.9599 91.7978 52.1977 93.5444C51.4354 95.2911 50.4177 96.8089 49.7999 98.6178C49.2088 100.353 48.8088 102.18 48.3265 104.031C47.8643 105.804 47.3665 107.602 47.0043 109.482C46.6577 111.282 46.4688 113.14 46.2154 115.038C45.971 116.856 45.3221 118.669 45.1621 120.576C45.0088 122.404 44.8354 124.282 44.7599 126.191C44.6888 128.027 44.5999 129.911 44.5977 131.822C44.5977 134.511 44.6621 134.511 44.6621 137.198C44.6621 139.884 45.4132 139.884 45.4132 142.573C45.4132 145.262 44.7132 145.262 44.7132 147.949C44.7132 149.741 44.711 151.533 44.7065 153.324C44.7065 156.013 45.251 156.013 45.251 158.7C45.251 161.389 44.6154 161.389 44.6154 164.076C44.6154 166.764 44.7377 166.764 44.7377 169.451C44.7377 172.14 45.2154 172.14 45.2154 174.829C45.2154 177.518 44.6932 177.518 44.6932 180.207C44.6932 182.896 44.6465 182.896 44.6465 185.584C44.6465 186.467 45.6865 186.9 46.5688 186.9C49.3221 186.9 49.3221 187.027 52.0754 187.027C54.8288 187.027 54.8288 187.249 57.5821 187.249C60.3354 187.249 60.3354 186.873 63.0888 186.873C65.8421 186.873 65.8421 187.578 68.5954 187.578C71.3488 187.578 71.3488 187.471 74.1021 187.471C76.8554 187.471 76.8554 187.584 79.6088 187.584C82.3621 187.584 82.3621 187.356 85.1177 187.356C87.8732 187.356 87.871 187.278 90.6265 187.278C93.3821 187.278 93.3799 186.904 96.1354 186.904C98.891 186.904 98.8888 186.829 101.644 186.829C104.4 186.829 104.4 187.378 107.153 187.378C109.907 187.378 109.909 187.164 112.662 187.164C113.544 187.164 114.109 186.46 114.109 185.578C114.109 182.929 114.587 182.929 114.587 180.282C114.587 177.633 113.875 177.633 113.875 174.987C113.875 172.338 114.335 172.338 114.335 169.689C114.335 167.04 114.215 167.04 114.215 164.393C114.215 161.744 114.164 161.744 114.164 159.098C114.164 156.449 114.24 156.449 114.24 153.802C114.24 151.153 114.638 151.153 114.638 148.504C114.638 145.856 113.987 145.856 113.987 143.207C113.987 140.558 114.469 140.558 114.469 137.909C114.469 135.26 114.555 135.26 114.555 132.611C114.555 129.962 113.938 129.962 113.938 127.313C113.938 124.664 114.344 124.664 114.344 122.016C114.344 121.133 113.544 119.984 112.662 119.984C110.178 119.984 110.178 120.396 107.693 120.396C105.209 120.396 105.209 120.096 102.724 120.096C100.24 120.096 100.24 120.847 97.7554 120.847C95.271 120.847 95.271 120.616 92.7865 120.616C90.3021 120.616 90.3021 120.047 87.8177 120.047C85.3332 120.047 85.3332 120.089 82.8488 120.089C81.8999 120.089 81.2288 119.598 81.3199 118.653C81.4888 116.913 81.531 115.14 81.9421 113.453C82.3532 111.767 82.8177 110.04 83.4665 108.422C84.1154 106.804 85.0732 105.307 85.9465 103.793C86.8132 102.291 87.6621 100.731 88.7443 99.3533C89.6977 98.1489 91.031 97.1244 92.2999 95.9178C93.4221 94.8511 94.6021 93.7044 95.971 92.6355C97.2021 91.6755 98.7288 90.9978 100.158 90.0355C101.462 89.1578 102.509 87.7422 103.978 86.8622C105.333 86.0511 106.833 85.34 108.329 84.5289C109.724 83.7711 111.222 83.0778 112.74 82.32C113.535 81.9222 114.009 81.0489 113.607 80.2555" fill="#006BD9"/>
<path d="M169.457 99.3155C170.412 98.1111 171.746 97.0778 173.017 95.8711C174.139 94.8044 175.659 94.0822 177.026 93.0133C178.257 92.0533 179.09 90.4044 180.519 89.4422C181.823 88.5644 183.481 88.0955 184.95 87.2155C186.306 86.4044 187.63 85.4067 189.128 84.5955C190.523 83.8378 192.09 83.2889 193.608 82.5311C194.403 82.1333 194.337 81.2755 193.935 80.4844C192.806 78.2667 193.088 78.1244 191.959 75.9067C190.83 73.6889 190.941 73.6333 189.812 71.4155C188.683 69.1978 188.903 69.0867 187.775 66.8711C186.646 64.6533 186.412 64.7733 185.286 62.5555C184.157 60.3378 183.775 60.5333 182.646 58.3155C181.517 56.0978 182.177 55.7622 181.048 53.5444C180.659 52.7778 179.583 52.9555 178.803 53.3178C177.221 54.0555 175.492 54.4067 173.986 55.1622C172.423 55.9444 170.89 56.7155 169.41 57.5178C167.872 58.3511 166.499 59.4 165.05 60.2533C163.543 61.1422 162.175 62.1711 160.763 63.0822C159.292 64.0311 157.772 64.8267 156.403 65.8C154.975 66.8155 153.759 68.0311 152.446 69.0733C151.072 70.1622 149.748 71.22 148.499 72.34C147.192 73.5089 145.759 74.4733 144.588 75.6733C143.366 76.9289 141.903 77.9378 140.828 79.2267C139.708 80.5711 139.092 82.2667 138.132 83.6489C137.077 85.1667 135.977 86.6755 135.059 88.3378C134.168 89.9489 133.07 91.5089 132.308 93.2533C131.572 94.9356 130.73 96.6489 130.115 98.4578C129.523 100.193 129.675 102.2 129.192 104.051C128.73 105.824 127.85 107.542 127.488 109.422C127.141 111.222 127.368 113.151 127.112 115.047C126.868 116.862 126.683 118.709 126.526 120.616C126.372 122.444 126.07 124.289 125.997 126.2C125.926 128.033 125.87 129.9 125.87 131.811C125.87 134.5 126.103 134.5 126.103 137.187C126.103 139.873 125.832 139.873 125.832 142.562C125.832 145.249 126.139 145.249 126.139 147.938C126.139 150.627 125.826 150.627 125.826 153.313C125.826 156.002 125.346 156.002 125.346 158.689C125.346 161.378 125.388 161.378 125.388 164.064C125.388 166.753 126.026 166.753 126.026 169.44C126.026 172.129 125.721 172.129 125.721 174.816C125.721 177.504 125.959 177.504 125.959 180.193C125.959 182.882 126.088 182.882 126.088 185.571C126.088 186.453 126.448 187.544 127.33 187.544C130.083 187.544 130.083 187.173 132.837 187.173C135.59 187.173 135.59 186.871 138.343 186.871C141.097 186.871 141.097 187.14 143.85 187.14C146.603 187.14 146.603 187.036 149.357 187.036C152.11 187.036 152.11 186.998 154.863 186.998C157.617 186.998 157.617 187.347 160.37 187.347C163.123 187.347 163.123 187.116 165.879 187.116C168.635 187.116 168.632 187.153 171.388 187.153C174.143 187.153 174.141 187.173 176.897 187.173C179.652 187.173 179.65 187.407 182.406 187.407C185.161 187.407 185.161 186.764 187.915 186.764C190.668 186.764 190.67 187.416 193.423 187.416C194.306 187.416 194.737 186.456 194.737 185.571C194.737 182.922 194.946 182.922 194.946 180.276C194.946 177.629 194.937 177.627 194.937 174.98C194.937 172.333 195.401 172.331 195.401 169.684C195.401 167.038 194.788 167.038 194.788 164.389C194.788 161.74 194.586 161.74 194.586 159.093C194.586 156.444 194.759 156.444 194.759 153.798C194.759 151.149 195.159 151.149 195.159 148.502C195.159 145.853 195.443 145.853 195.443 143.207C195.443 140.558 195.259 140.558 195.259 137.911C195.259 135.262 195.063 135.262 195.063 132.613C195.063 129.964 195.081 129.964 195.081 127.316C195.081 124.667 194.679 124.667 194.679 122.018C194.679 121.136 194.308 120.449 193.428 120.449C190.943 120.449 190.943 120.698 188.459 120.698C185.975 120.698 185.975 120.262 183.49 120.262C181.006 120.262 181.006 119.98 178.521 119.98C176.037 119.98 176.037 120.242 173.552 120.242C171.068 120.242 171.068 120.291 168.583 120.291C166.099 120.291 166.099 120.238 163.615 120.238C162.666 120.238 161.637 119.569 161.728 118.624C161.897 116.884 162.426 115.178 162.837 113.491C163.25 111.796 163.466 110 164.115 108.382C164.763 106.764 166.023 105.42 166.897 103.909C167.766 102.407 168.308 100.647 169.39 99.2689" fill="#006BD9"/>
</svg>
