<svg width="24" height="24" viewBox="0 0 24 24" fill="none" xmlns="http://www.w3.org/2000/svg">
<path d="M12.3304 14.0583C12.8107 14.4113 13.3046 14.7484 13.8031 15.0741C15.2348 16.004 16.7553 16.7823 18.2461 17.6148C18.3008 17.6442 18.3554 17.6759 18.41 17.7053C18.5898 17.8071 18.4282 18.1714 18.3759 18.3049C18.2211 18.7076 18.0344 19.099 17.8455 19.4881C17.7454 19.6962 17.6202 20.1283 17.3175 19.9632C16.3387 19.4315 15.3577 18.9044 14.3835 18.3682C13.4116 17.8343 12.4465 17.2868 11.4951 16.7166C10.5072 16.1216 9.5353 15.4995 8.58614 14.8434C7.55277 14.1262 6.54899 13.3683 5.57707 12.5742C5.24475 12.3027 4.91471 12.0697 5.06266 11.5878C5.17419 11.2235 5.50424 10.995 5.78876 10.771C7.06568 9.7688 8.51331 8.99054 9.89493 8.14892C10.3911 7.84802 10.8896 7.55165 11.3881 7.25753C12.904 6.36162 14.429 5.47928 15.9495 4.59242C16.2955 4.39107 16.6392 4.1965 16.9965 4.02003L17.0034 4.02003C17.1445 3.91596 17.3448 4.24401 17.4586 4.39107C17.8364 4.88427 18.0959 5.4544 18.4715 5.9476C18.5238 6.01547 18.5011 6.11049 18.4282 6.15348C15.1824 8.00865 11.0899 10.71 9.96094 11.6104C9.8312 11.7122 9.81982 11.9045 9.9359 12.0199C10.6734 12.7665 11.4814 13.4407 12.3259 14.0651" fill="#006BD9"/>
</svg>
