<svg width="24" height="24" viewBox="0 0 24 24" fill="none" xmlns="http://www.w3.org/2000/svg">
<path d="M11.6323 14.0583C11.155 14.4113 10.664 14.7484 10.1685 15.0741C8.7455 16.004 7.23421 16.7823 5.75234 17.6148C5.69804 17.6442 5.64374 17.6759 5.58944 17.7053C5.41071 17.8071 5.57134 18.1714 5.62338 18.3049C5.77722 18.7076 5.96274 19.099 6.15052 19.4881C6.25006 19.6962 6.3745 20.1283 6.6754 19.9632C7.64823 19.4315 8.62333 18.9044 9.59163 18.3682C10.5577 17.8343 11.5169 17.2868 12.4626 16.7166C13.4445 16.1216 14.4106 15.4995 15.354 14.8434C16.3811 14.1262 17.3788 13.3683 18.3449 12.5742C18.6752 12.3027 19.0032 12.0697 18.8562 11.5878C18.7453 11.2235 18.4173 10.995 18.1345 10.771C16.8653 9.7688 15.4264 8.99054 14.0531 8.14892C13.5599 7.84802 13.0644 7.55165 12.569 7.25753C11.0622 6.36162 9.54639 5.47928 8.0351 4.59242C7.69122 4.39107 7.34959 4.1965 6.9944 4.02003L6.98761 4.02003C6.84734 3.91596 6.64825 4.24401 6.53513 4.39107C6.15957 4.88427 5.90166 5.4544 5.52836 5.9476C5.47632 6.01547 5.49895 6.11049 5.57134 6.15348C8.79753 8.00865 12.8653 10.71 13.9875 11.6104C14.1164 11.7122 14.1278 11.9045 14.0124 12.0199C13.2794 12.7665 12.4762 13.4407 11.6368 14.0651" fill="#006BD9"/>
</svg>
