<svg width="24" height="24" viewBox="0 0 24 24" fill="none" xmlns="http://www.w3.org/2000/svg">
<path d="M4.0352 21.4805C3.61287 21.4805 3.25695 21.3358 2.96745 21.0463C2.67795 20.7568 2.5332 20.3961 2.5332 19.9643V15.8153C2.5332 15.4008 2.6482 15.0565 2.8782 14.7825C3.10837 14.5087 3.43904 14.3102 3.8702 14.187L6.93845 13.5293C7.31312 13.4583 7.66845 13.4697 8.00445 13.5635C8.34029 13.6574 8.63504 13.8264 8.8887 14.0705L11.3375 16.4773C11.839 16.1859 12.326 15.8524 12.7985 15.4765C13.2708 15.1009 13.7418 14.6783 14.2115 14.2088C14.7238 13.7131 15.1809 13.2154 15.5827 12.7158C15.9844 12.2161 16.333 11.7098 16.6287 11.1968L14.119 8.85978C13.8726 8.64161 13.708 8.38911 13.625 8.10228C13.542 7.81528 13.536 7.46778 13.607 7.05978L14.243 3.85653C14.3328 3.44203 14.5259 3.11561 14.8222 2.87728C15.1187 2.63878 15.492 2.51953 15.942 2.51953H19.9777C20.4095 2.51953 20.7679 2.66428 21.0527 2.95378C21.3375 3.24328 21.48 3.60395 21.48 4.03578C21.48 6.17578 21.014 8.29303 20.0822 10.3875C19.1502 12.482 17.8226 14.3909 16.0995 16.1143C14.3763 17.8279 12.4698 19.1508 10.38 20.0828C8.29012 21.0146 6.1752 21.4805 4.0352 21.4805Z" fill="#006BD9"/>
</svg>
