<svg width="240" height="240" viewBox="0 0 240 240" fill="none" xmlns="http://www.w3.org/2000/svg">
<path d="M55.9429 129.313C53.6585 129.313 54.1674 130.649 52.5541 132.262C50.9385 133.878 51.1052 134.047 49.4896 135.662C47.8741 137.278 48.014 137.42 46.3985 139.036C45.0629 140.371 44.0229 141.818 43.3274 143.467C42.6074 145.171 42.0141 146.936 41.9896 148.753C41.9652 150.578 42.2785 152.449 42.9652 154.164C43.6274 155.822 44.7118 157.356 46.0474 158.7C47.3829 160.044 48.9385 161.058 50.5852 161.742C52.2918 162.453 54.1229 162.884 55.9429 162.884C57.7629 162.884 59.4963 162.224 61.2052 161.516C62.8518 160.831 64.6274 160.171 65.9629 158.824C67.3007 157.478 68.3585 155.862 69.0229 154.204C69.7096 152.491 69.6985 150.582 69.674 148.758C69.6496 146.938 69.2007 145.204 68.4807 143.5C67.7852 141.851 66.9385 140.258 65.6029 138.922C63.9874 137.307 64.2007 137.096 62.5852 135.48C60.9696 133.864 60.3163 134.411 59.0585 132.502C57.7429 130.504 58.2296 129.313 55.9429 129.313Z" fill="#006BD9"/>
<path d="M99.6271 72.1445C99.6271 75.0711 99.4404 75.0711 99.4404 77.9978C99.4404 80.9245 99.8337 80.9245 99.8337 83.8511C99.8337 86.7778 99.8782 86.7778 99.8782 89.7067C99.8782 92.6334 99.5826 92.6334 99.5826 95.5623C99.5826 97.38 98.1626 98.8711 96.3471 98.8711C93.8382 98.8711 93.8382 98.6467 91.3271 98.6467C88.8159 98.6467 88.8159 99.0156 86.3071 99.0156C83.7959 99.0156 83.7959 98.6823 81.2871 98.6823C78.7759 98.6823 78.7759 98.7445 76.2671 98.7445C73.7559 98.7445 73.7559 98.8178 71.2471 98.8178C68.7359 98.8178 68.7359 98.6311 66.2271 98.6311C63.7159 98.6311 63.7159 98.7289 61.2048 98.7289C58.6937 98.7289 58.6937 98.8911 56.1826 98.8911C54.3182 98.8911 52.7693 99.7489 51.5493 100.969C50.3271 102.191 49.4004 103.738 49.4004 105.602C49.4004 108.256 49.5048 108.256 49.5048 110.909C49.5048 113.562 49.4226 113.562 49.4226 116.216C49.4226 118.869 49.6693 118.869 49.6693 121.522C49.6693 123.193 50.7871 124.54 52.4582 124.54C56.2604 124.54 56.2604 124.282 60.0626 124.282C61.6448 124.282 62.9182 123.267 62.9182 121.682C62.9182 118.211 62.9559 118.211 62.9559 114.742C62.9559 113.422 64.0004 112.209 65.3204 112.209C67.8359 112.209 67.8359 112.26 70.3515 112.26C72.8671 112.26 72.8671 112.198 75.3826 112.198C77.8982 112.198 77.8982 112.22 80.4137 112.22C82.9293 112.22 82.9293 112.498 85.4448 112.498C87.9604 112.498 87.9604 112.12 90.4782 112.12C92.9959 112.12 92.9937 112.371 95.5115 112.371C97.7893 112.371 99.5537 114.202 99.5537 116.48C99.5537 119.147 99.5315 119.147 99.5315 121.816C99.5315 124.482 99.8337 124.482 99.8337 127.151C99.8337 129.818 99.5182 129.818 99.5182 132.487C99.5182 135.153 99.8559 135.153 99.8559 137.822C99.8559 140.489 99.8182 140.489 99.8182 143.156C99.8182 145.822 99.8715 145.822 99.8715 148.491C99.8715 151.158 99.7759 151.158 99.7759 153.827C99.7759 156.496 99.8515 156.496 99.8515 159.162C99.8515 161.829 99.6048 161.831 99.6048 164.498C99.6048 167.167 99.4582 167.167 99.4582 169.833C99.4582 172.502 99.5048 172.502 99.5048 175.169C99.5048 177.838 99.4626 177.838 99.4626 180.507C99.4626 183.176 99.8048 183.176 99.8048 185.844C99.8048 187.336 100.069 188.862 101.052 189.844C102.034 190.827 103.56 191.016 105.051 191.016C107.692 191.016 107.691 191.496 110.329 191.496C112.967 191.496 112.969 191.496 115.607 191.496C118.245 191.496 118.247 191.002 120.887 191.002C123.527 191.002 123.527 191.011 126.167 191.011C127.658 191.011 129.016 190.658 129.998 189.676C130.98 188.693 131.443 187.336 131.443 185.844C131.443 183.253 131.547 183.253 131.547 180.66C131.547 178.069 131.598 178.069 131.598 175.478C131.598 172.887 131.629 172.887 131.629 170.296C131.629 167.704 131.823 167.704 131.823 165.113C131.823 162.522 131.387 162.522 131.387 159.929C131.387 157.338 131.32 157.338 131.32 154.747C131.32 152.156 131.8 152.156 131.8 149.564C131.8 146.973 131.854 146.973 131.854 144.382C131.854 141.791 131.325 141.791 131.325 139.198C131.325 136.607 131.371 136.607 131.371 134.013C131.371 131.422 131.363 131.422 131.363 128.829C131.363 126.238 131.716 126.238 131.716 123.644C131.716 121.051 131.338 121.051 131.338 118.46C131.338 115.867 131.629 115.867 131.629 113.276C131.629 112.769 132.012 112.407 132.518 112.407C134.86 111.589 134.98 111.589 136.925 110.042C138.314 108.938 139.516 107.338 139.558 105.807C139.598 104.371 138.278 103.093 136.896 101.982C135.558 100.907 134.111 99.7578 133.009 99.2267C132.203 98.84 131.814 98.2489 131.814 97.3534C131.814 93.7423 131.849 93.7423 131.849 90.1289C131.849 89.12 131.067 88.1711 130.205 87.6467C127.883 86.2289 127.914 86.1756 125.591 84.76C123.269 83.3423 123.312 83.2689 120.989 81.8534C118.667 80.4356 118.456 80.7778 116.134 79.3623C113.809 77.9445 113.88 77.8311 111.556 76.4134C109.232 74.9956 109.371 74.7689 107.047 73.3511C104.723 71.9334 104.531 72.2467 102.209 70.8289C101.034 70.1111 99.6248 70.7778 99.6248 72.1578L99.6271 72.1445Z" fill="#006BD9"/>
<path d="M196.36 111.329C194.273 109.571 194.315 109.52 192.229 107.76C190.142 106.002 190.038 106.124 187.951 104.364C185.864 102.607 185.731 102.764 183.644 101.007C181.558 99.2467 181.853 98.8978 179.766 97.1378C177.68 95.38 177.442 95.66 175.355 93.9022C173.269 92.1422 173.355 92.04 171.266 90.2822C169.178 88.5244 169.086 88.6333 167 86.8733C164.913 85.1133 165.135 84.8511 163.046 83.0911C160.958 81.3311 159.795 82.2644 158.746 79.7422C157.495 76.7333 158.493 76.4955 158.493 73.2355C158.493 69.9755 158.926 69.9755 158.926 66.7155C158.926 65.8244 158.289 65.0555 157.711 64.3778C155.84 62.18 155.88 62.1444 154.009 59.9489C152.138 57.7533 152.111 57.7733 150.24 55.5778C148.369 53.38 148.28 53.4555 146.409 51.26C144.538 49.0622 144.778 48.8578 142.906 46.66C141.035 44.4622 141.155 44.36 139.284 42.1622C137.413 39.9644 137.338 40.0267 135.466 37.8311C134.753 36.9955 133.604 36.3822 132.506 36.3822C129.738 36.3822 129.738 36.6644 126.969 36.6644C124.2 36.6644 124.2 36.7422 121.431 36.7422C118.662 36.7422 118.662 36.6644 115.893 36.6644C113.124 36.6644 113.124 36.8244 110.355 36.8244C107.586 36.8244 107.586 36.4178 104.815 36.4178C102.046 36.4178 102.046 36.3489 99.2753 36.3489C97.2042 36.3489 95.3287 38.2822 95.3287 40.3533C95.3287 41.4933 95.4264 41.4933 95.4264 42.6355C95.4264 43.5111 95.0153 44.3822 94.1909 44.6711C91.8531 45.4889 90.2598 47.6444 90.2598 50.2644C90.2598 52.8844 92.0153 55.08 94.4909 55.8178C95.1331 56.0089 95.2775 56.7755 95.2775 57.4467C95.2775 58.78 95.3175 58.78 95.3175 60.1133C95.3175 61.1333 95.9287 62.1155 96.642 62.8133C98.9064 64.3044 98.8709 64.3667 101.184 65.78C103.5 67.1911 103.629 66.98 105.942 68.3911C108.258 69.8022 108.349 69.6533 110.664 71.0644C112.98 72.4778 112.738 72.8711 115.053 74.2844C117.369 75.6978 117.489 75.5 119.804 76.9111C122.12 78.3244 122.18 78.2244 124.495 79.6355C126.811 81.0489 126.68 81.2622 128.995 82.6733C131.311 84.0867 131.324 84.0644 133.64 85.4755C135.955 86.8889 136.046 86.7355 138.362 88.1489C138.669 88.3355 138.984 88.3155 139.344 88.3155C139.349 88.3155 139.346 88.3222 139.351 88.3222C142.131 88.3222 142.131 88.5622 144.913 88.5622C147.695 88.5622 147.891 87.4644 150.504 88.4155C153.104 89.3622 152.633 90.2289 154.746 92.0111C156.862 93.7933 156.926 93.7155 159.042 95.4978C161.158 97.28 161.195 97.2355 163.311 99.0178C165.426 100.8 165.355 100.884 167.471 102.669C169.586 104.451 169.462 104.598 171.578 106.38C172.988 107.568 174.398 108.757 175.809 109.947C177.924 111.729 178.031 111.604 180.146 113.389C182.262 115.173 182.273 115.158 184.391 116.942C186.509 118.727 186.34 118.924 188.455 120.709C189.58 121.658 191.051 122.18 192.415 122.18C194.122 122.18 195.658 121.144 196.844 119.736C197.911 118.469 198.535 117.024 198.404 115.496C198.273 113.967 197.629 112.396 196.362 111.329H196.36Z" fill="#006BD9"/>
<path d="M91.1599 176.171C90.4532 177.411 89.3066 179.029 88.1243 181.191C87.4221 182.476 86.8532 183.838 86.2377 184.976C85.0955 187.089 84.1932 188.64 84.1799 188.664C83.8777 189.229 83.7132 189.884 84.0421 190.436C84.371 190.984 85.0266 191.522 85.6688 191.522C87.7399 191.522 87.7399 191.416 89.811 191.416C91.8821 191.416 91.8821 191.331 93.9532 191.331C94.9599 191.331 95.631 190.467 95.631 189.462C95.631 186.989 95.9977 186.989 95.9977 184.516C95.9977 182.042 95.851 182.042 95.851 179.569C95.851 177.096 95.8688 177.096 95.8688 174.622C95.8688 173.616 94.9599 172.827 93.9532 172.827C92.7755 172.827 92.691 173.491 91.1621 176.171H91.1599Z" fill="#006BD9"/>
<path d="M150.805 194.793C148.107 194.793 148.107 195.191 145.409 195.191C142.711 195.191 142.711 195.033 140.014 195.033C137.316 195.033 137.316 195.047 134.618 195.047C131.92 195.047 131.92 194.878 129.223 194.878C126.525 194.878 126.525 194.74 123.827 194.74C121.129 194.74 121.129 194.704 118.431 194.704C115.734 194.704 115.734 195.018 113.036 195.018C110.338 195.018 110.338 194.713 107.64 194.713C104.943 194.713 104.943 194.987 102.245 194.987C99.547 194.987 99.547 194.869 96.8493 194.869C94.1515 194.869 94.1515 194.676 91.4537 194.676C88.7559 194.676 88.7559 194.702 86.0559 194.702C83.3559 194.702 83.3582 195.084 80.6582 195.084C78.3248 195.084 76.3359 196.827 76.3359 199.16C76.3359 201.493 78.3248 203.336 80.6582 203.336C83.3559 203.336 83.3559 203.293 86.0537 203.293C88.7515 203.293 88.7515 203.364 91.4493 203.364C94.147 203.364 94.147 203.127 96.8448 203.127C99.5426 203.127 99.5426 203.622 102.24 203.622C104.938 203.622 104.938 203.656 107.636 203.656C110.334 203.656 110.334 203.282 113.031 203.282C115.729 203.282 115.729 203.571 118.427 203.571C121.125 203.571 121.125 203.164 123.823 203.164C126.52 203.164 126.52 203.351 129.218 203.351C131.916 203.351 131.916 203.613 134.614 203.613C137.311 203.613 137.311 203.244 140.009 203.244C142.707 203.244 142.707 203.642 145.407 203.642C148.107 203.642 148.105 203.56 150.805 203.56C153.138 203.56 154.867 201.493 154.867 199.16C154.867 196.827 153.138 194.791 150.805 194.791V194.793Z" fill="#006BD9"/>
<path d="M135.277 174.622C135.277 177.096 135.551 177.096 135.551 179.569C135.551 182.042 135.484 182.042 135.484 184.516C135.484 186.989 135.442 186.989 135.442 189.462C135.442 190.469 136.297 191.049 137.304 191.049C139.375 191.049 139.375 191.433 141.446 191.433C143.517 191.433 143.517 191.3 145.588 191.3C146.228 191.3 146.786 190.929 147.115 190.38C147.444 189.831 147.346 189.251 147.044 188.687C147.031 188.662 146.273 187.033 145.131 184.918C144.515 183.78 144.024 182.376 143.322 181.091C142.14 178.929 140.953 177.329 140.246 176.089C138.72 173.409 138.482 173.064 137.306 173.064C136.3 173.064 135.28 173.62 135.28 174.627L135.277 174.622Z" fill="#006BD9"/>
</svg>
