<svg width="240" height="240" viewBox="0 0 240 240" fill="none" xmlns="http://www.w3.org/2000/svg">
<path d="M172.042 81.6978C172.12 82.04 172.569 82.24 172.92 82.24C175.344 82.24 175.344 82.6333 177.771 82.6333C180.197 82.6333 180.197 81.9333 182.622 81.9333C185.046 81.9333 185.049 82.0022 187.473 82.0022C189.897 82.0022 189.9 81.9578 192.324 81.9578C192.586 81.9578 193.149 82.3044 193.284 82.08C193.42 81.8555 193.106 81.3866 192.986 81.1533C192.135 79.5222 191.177 77.9533 190.224 76.3844C189.269 74.8133 188.346 73.22 187.293 71.7178C186.237 70.2133 185.337 68.5755 184.186 67.1444C183.035 65.7111 181.384 64.7044 180.144 63.3511C178.902 61.9977 177.8 60.5177 176.473 59.2466C175.146 57.9755 173.711 56.8333 172.302 55.6511C170.895 54.4711 169.513 53.2666 168.031 52.1778C166.551 51.0911 165.009 50.1 163.457 49.1111C163.184 48.9355 162.749 48.6822 162.497 48.8889C162.246 49.0955 162.484 49.5422 162.604 49.8466C163.282 51.56 163.706 53.3778 164.342 55.1155C164.973 56.8466 165.949 58.4666 166.537 60.2222C167.126 61.9777 167.026 63.9422 167.569 65.7111C168.111 67.4755 168.64 69.2355 169.137 71.0155C169.635 72.7933 170.153 74.5577 170.604 76.3511C171.055 78.1422 171.635 79.8978 172.042 81.6978Z" fill="#006BD9"/>
<path d="M120.966 81.8623C123.546 81.8623 123.547 82.2178 126.124 82.2178C128.702 82.2178 128.704 82.0245 131.284 82.0245C133.864 82.0245 133.864 82.2911 136.444 82.2911C139.024 82.2911 139.024 82.5667 141.604 82.5667C144.184 82.5667 144.184 82.0511 146.764 82.0511C149.344 82.0511 149.344 82.0511 151.924 82.0511C154.504 82.0511 154.504 82.5311 157.084 82.5311C159.664 82.5311 159.664 82.42 162.244 82.42C164.824 82.42 164.824 82.1378 167.404 82.1378C167.633 82.1378 167.673 82.16 167.815 81.9823C167.958 81.8023 168.015 81.5934 167.964 81.3711C167.544 79.56 167.431 77.7089 166.98 75.98C166.511 74.1756 165.86 72.46 165.367 70.7489C164.849 68.9467 164.702 67.08 164.169 65.3911C163.602 63.5911 162.658 61.9756 162.087 60.3134C161.467 58.5111 160.509 56.92 159.902 55.2911C159.227 53.4778 158.762 51.7045 158.124 50.1223C157.38 48.2756 156.598 46.6267 155.94 45.1178C155.869 44.9556 155.049 44.3356 154.891 44.2556C153.369 43.4978 151.898 42.6734 150.375 42.0245C148.818 41.36 147.278 40.6667 145.711 40.1111C144.122 39.5489 142.471 39.1778 140.864 38.7267C139.251 38.2734 137.589 38.0111 135.947 37.6645C134.304 37.3178 132.673 37 131.004 36.7578C129.362 36.52 127.704 36.2534 126.015 36.1111C124.367 35.9711 122.682 36.2067 120.982 36.1534C120.733 36.1489 120.615 36.2156 120.464 36.4178C120.36 36.5578 120.2 37.8734 120.2 38.0489C120.2 40.7645 120.027 40.7645 120.027 43.48C120.027 46.1956 120.407 46.1956 120.407 48.9111C120.407 51.6267 119.853 51.6267 119.853 54.3423C119.853 57.0578 120.5 57.0578 120.5 59.7734C120.5 62.4889 120.293 62.4889 120.293 65.2045C120.293 67.92 120.244 67.92 120.244 70.6356C120.244 73.3511 119.88 73.3511 119.88 76.0689C119.88 78.7845 119.84 78.7845 119.84 81.5023C119.84 81.9156 120.551 81.8645 120.964 81.8645L120.966 81.8623Z" fill="#006BD9"/>
<path d="M120.966 118.167C123.535 118.167 123.535 118.482 126.102 118.482C128.669 118.482 128.671 117.807 131.237 117.807C133.804 117.807 133.806 118.336 136.373 118.336C138.94 118.336 138.942 118.522 141.509 118.522C144.075 118.522 144.077 118.218 146.646 118.218C149.215 118.218 149.215 118.424 151.784 118.424C154.353 118.424 154.353 118.256 156.922 118.256C159.491 118.256 159.491 118.089 162.06 118.089C164.629 118.089 164.629 118.367 167.197 118.367C169.766 118.367 169.766 118.469 172.335 118.469C172.54 118.469 172.995 118.309 173.135 118.162C173.275 118.016 173.411 117.556 173.402 117.351C173.326 115.491 172.566 113.656 172.433 111.778C172.3 109.9 172.724 108.002 172.535 106.131C172.346 104.276 172.055 102.418 171.811 100.553C171.569 98.7022 171.051 96.8823 170.753 95.0289C170.457 93.1845 170.213 91.3267 169.864 89.4823C169.689 88.5534 169.371 87.6623 169.184 86.7511C169.113 86.4023 168.937 85.9334 168.58 85.9334C165.935 85.9334 165.935 86.4111 163.291 86.4111C160.646 86.4111 160.646 86.1022 158.002 86.1022C155.357 86.1022 155.357 86.4489 152.713 86.4489C150.069 86.4489 150.069 85.9511 147.422 85.9511C144.777 85.9511 144.777 86.4956 142.131 86.4956C139.486 86.4956 139.486 85.9956 136.84 85.9956C135.077 85.9956 133.313 85.9956 131.549 85.9956C128.902 85.9956 128.902 85.8778 126.257 85.8778C123.613 85.8778 123.611 86.4 120.966 86.4C120.553 86.4 120.4 86.46 120.4 86.8734C120.4 89.4178 120.113 89.4178 120.113 91.96C120.113 94.5045 120.237 94.5045 120.237 97.0467C120.237 99.5911 120.213 99.5911 120.213 102.133C120.213 104.678 120.12 104.678 120.12 107.22C120.12 109.762 120.104 109.764 120.104 112.307C120.104 114.851 120.051 114.851 120.051 117.393C120.051 117.807 120.551 118.164 120.964 118.164L120.966 118.167Z" fill="#006BD9"/>
<path d="M120.967 154.224C123.687 154.224 123.687 154.084 126.407 154.084C129.127 154.084 129.127 154.296 131.847 154.296C134.567 154.296 134.567 154.382 137.289 154.382C140.012 154.382 140.009 154.202 142.732 154.202C145.454 154.202 145.452 154.342 148.174 154.342C150.896 154.342 150.894 153.664 153.616 153.664C156.338 153.664 156.336 153.884 159.058 153.884C161.78 153.884 161.78 154.384 164.5 154.384C167.22 154.384 167.223 153.984 169.943 153.984C170.305 153.984 170.547 153.769 170.612 153.413C170.898 151.824 171.185 150.229 171.425 148.627C171.665 147.024 171.629 145.382 171.816 143.784C172.02 142.049 172.483 140.333 172.632 138.571C172.778 136.827 173.16 135.087 173.254 133.322C173.345 131.573 172.803 129.793 172.838 128.031C172.876 126.278 173.105 124.527 173.087 122.764C173.083 122.353 172.88 122.344 172.469 122.344C169.894 122.344 169.894 122.229 167.32 122.229C164.747 122.229 164.747 122.196 162.172 122.196C159.596 122.196 159.596 122.178 157.023 122.178C154.449 122.178 154.447 122.122 151.874 122.122C149.3 122.122 149.298 121.642 146.723 121.642C144.147 121.642 144.147 122.227 141.572 122.227C138.996 122.227 138.996 122.184 136.42 122.184C133.845 122.184 133.845 121.878 131.269 121.878C128.694 121.878 128.694 121.838 126.118 121.838C123.543 121.838 123.543 121.682 120.967 121.682C120.554 121.682 120.36 122.358 120.36 122.771C120.36 125.316 120.456 125.316 120.456 127.858C120.456 130.402 120.605 130.402 120.605 132.944C120.605 135.489 120.274 135.489 120.274 138.031C120.274 140.576 120.24 140.576 120.24 143.118C120.24 145.662 120.029 145.662 120.029 148.204C120.029 150.749 120.405 150.749 120.405 153.291C120.405 153.704 120.554 154.224 120.969 154.224H120.967Z" fill="#006BD9"/>
<path d="M44.3645 82.4711C47.4067 82.4711 47.4067 82 50.4511 82C53.4956 82 53.4934 82.2556 56.5378 82.2556C59.5822 82.2556 59.58 81.8823 62.6245 81.8823C62.9756 81.8823 63.0578 81.9578 63.1334 81.6156C63.5267 79.8734 64.0578 78.1578 64.4956 76.4245C64.9311 74.6911 65.2267 72.9156 65.7045 71.1934C66.1823 69.4711 66.9778 67.8378 67.4978 66.1289C68.02 64.4178 68.4689 62.6845 69.0311 60.9911C69.5956 59.2934 70.1245 57.5822 70.7289 55.9022C71.3334 54.2222 71.8067 52.48 72.4534 50.8178C72.5711 50.5134 72.8778 50.0022 72.6222 49.7978C72.3667 49.5934 71.7645 49.6689 71.4911 49.8511C70.0267 50.8311 68.4934 51.7467 67.0978 52.8134C65.6978 53.8822 64.4556 55.1711 63.1267 56.3245C61.7978 57.48 60.7067 58.8956 59.4534 60.1289C58.1978 61.3645 57.0645 62.7 55.8911 64.0089C54.7178 65.3178 53.3689 66.4778 52.2778 67.86C51.1867 69.24 50.2711 70.7489 49.2667 72.1956C48.2645 73.6422 47.3556 75.14 46.4445 76.6467C45.5334 78.1534 44.3934 79.5289 43.58 81.0911C43.4578 81.3245 43.4756 81.7334 43.6111 81.9578C43.7467 82.1822 44.1022 82.4711 44.3645 82.4711Z" fill="#006BD9"/>
<path d="M35.0043 118.122C37.8576 118.122 37.8576 118.244 40.7109 118.244C43.5643 118.244 43.5643 118.249 46.4176 118.249C49.2709 118.249 49.2709 118.518 52.1265 118.518C54.9821 118.518 54.9798 118.331 57.8354 118.331C58.2376 118.331 58.4398 117.822 58.4554 117.42C58.5309 115.496 59.0821 113.587 59.2176 111.644C59.3532 109.72 59.4487 107.793 59.6443 105.856C59.8376 103.936 60.0798 102.02 60.3332 100.091C60.5843 98.1755 60.8843 96.2689 61.1932 94.3511C61.4998 92.4422 61.4287 90.4644 61.7909 88.5577C61.8909 88.0333 61.9243 87.4977 62.0265 86.98C62.0709 86.76 62.2198 86.1911 62.0776 86.0177C61.9354 85.8444 61.7087 85.7422 61.4843 85.7422C59.0243 85.7422 59.0243 85.98 56.5643 85.98C54.1043 85.98 54.1043 86.5044 51.6443 86.5044C49.1843 86.5044 49.1843 86.1022 46.7243 86.1022C44.2643 86.1022 44.2643 85.9666 41.8043 85.9666C41.5065 85.9666 41.122 86.2555 41.002 86.5289C40.2998 88.1511 39.8065 89.8555 39.2087 91.5111C38.6109 93.1666 38.0487 94.8422 37.5576 96.5333C37.0665 98.2244 36.5376 99.9133 36.1554 101.636C35.7732 103.356 35.3465 105.078 35.0732 106.822C34.7998 108.567 35.1243 110.371 34.9598 112.131C34.7976 113.882 34.2198 115.604 34.1643 117.373C34.1576 117.576 34.3109 117.789 34.4509 117.933C34.5932 118.078 34.7998 118.124 35.002 118.124L35.0043 118.122Z" fill="#006BD9"/>
<path d="M60.5595 154.16C60.7017 153.991 60.6239 153.433 60.5862 153.216C60.3262 151.72 60.6039 150.136 60.3862 148.638C60.1662 147.127 60.0239 145.618 59.8506 144.127C59.6462 142.364 58.9728 140.638 58.8239 138.847C58.6751 137.076 59.0084 135.264 58.9173 133.473C58.8262 131.682 58.8639 129.916 58.8262 128.127C58.7884 126.347 58.5062 124.567 58.5217 122.778C58.5217 122.578 58.4262 122.373 58.2862 122.231C58.1462 122.089 57.9062 122.058 57.7062 122.058C54.9462 122.04 54.9462 122.158 52.1862 122.138C49.4262 122.12 49.4284 122.027 46.6684 122.009C43.9084 121.991 43.9106 121.571 41.1506 121.553C38.3906 121.536 38.3862 122.222 35.6262 122.204C35.4239 122.204 34.5839 122.218 34.4417 122.364C34.3017 122.511 34.0951 122.596 34.1017 122.8C34.1595 124.569 34.6528 126.304 34.8173 128.056C34.9839 129.816 35.3573 131.529 35.6328 133.267C35.9084 135.004 35.7306 136.836 36.1173 138.556C36.5039 140.278 37.1951 141.922 37.6906 143.616C38.1862 145.309 38.6884 146.993 39.2906 148.653C39.8906 150.309 40.6795 151.884 41.3862 153.504C41.5062 153.778 41.5773 154.187 41.8773 154.187C43.9069 154.187 45.9365 154.187 47.9662 154.187C51.0106 154.187 51.0106 153.7 54.0551 153.7C57.0995 153.7 57.0995 154.369 60.1439 154.369C60.3662 154.369 60.4151 154.329 60.5573 154.158L60.5595 154.16Z" fill="#006BD9"/>
<path d="M62.1526 158.458C62.0793 158.111 61.5282 157.945 61.1748 157.945C58.3882 157.945 58.3882 157.898 55.6015 157.898C52.8148 157.898 52.8148 157.798 50.0282 157.798C47.2415 157.798 47.2415 158.125 44.4548 158.125C44.1926 158.125 44.0859 158.136 43.9504 158.36C43.8148 158.585 43.3837 158.929 43.5059 159.162C44.2859 160.649 45.6282 161.82 46.4948 163.256C47.3615 164.691 48.3126 166.056 49.2637 167.438C50.2148 168.82 51.1193 170.218 52.1526 171.54C53.1837 172.862 53.9482 174.409 55.0571 175.669C56.1659 176.929 57.3437 178.138 58.5259 179.329C59.7082 180.52 61.0148 181.587 62.2637 182.707C63.5126 183.827 64.6193 185.131 65.9348 186.176C67.2482 187.218 68.6704 188.142 70.0459 189.105C70.1748 189.196 70.4259 189.153 70.5771 189.153C70.7459 189.153 70.9815 189.122 71.1193 189.011C71.3793 188.8 71.2059 188.44 71.0726 188.133C70.3904 186.551 69.8282 184.913 69.1993 183.305C68.5704 181.7 68.3882 179.933 67.8126 178.305C67.2393 176.68 66.6637 175.065 66.1437 173.42C65.6237 171.778 64.7237 170.249 64.2593 168.587C63.7948 166.925 63.3793 165.249 62.9682 163.573C62.5571 161.898 62.5126 160.142 62.1571 158.456L62.1526 158.458Z" fill="#006BD9"/>
<path d="M115.53 158.264C112.812 158.264 112.812 157.74 110.095 157.74C107.377 157.74 107.377 158.189 104.659 158.189C101.941 158.189 101.941 158.26 99.2236 158.26C96.5058 158.26 96.5058 157.829 93.788 157.829C91.0702 157.829 91.0702 157.878 88.3524 157.878C85.6347 157.878 85.6347 157.727 82.9169 157.727C80.1991 157.727 80.1991 158.047 77.4813 158.047C74.7636 158.047 74.7636 158.02 72.0436 158.02C69.3258 158.02 69.3258 158.062 66.6058 158.062C66.3791 158.062 66.0835 158 65.9413 158.178C65.7991 158.353 65.648 158.689 65.6969 158.911C66.0724 160.64 66.3147 162.411 66.7524 164.124C67.188 165.84 68.1147 167.424 68.6102 169.122C69.1058 170.82 69.3102 172.611 69.8658 174.291C70.4213 175.971 71.4458 177.487 72.0591 179.144C72.6724 180.804 73.4391 182.393 74.1102 184.029C74.7813 185.667 75.0302 187.48 75.7591 189.091C76.488 190.702 77.4902 192.184 78.2747 193.769C78.3435 193.909 78.6547 194.191 78.7902 194.264C80.3835 195.122 82.0502 195.78 83.6302 196.544C85.2547 197.331 86.9769 197.818 88.6013 198.5C90.2569 199.196 91.8702 199.918 93.5436 200.498C95.2302 201.082 96.9058 201.644 98.628 202.104C100.341 202.564 102.057 202.996 103.821 203.324C105.552 203.649 107.326 203.707 109.121 203.9C110.861 204.087 112.612 204.244 114.428 204.302C114.437 204.302 115.524 204.24 115.53 204.24C115.724 204.24 115.841 203.984 115.981 203.849C116.128 203.707 116.215 203.584 116.215 203.382C116.215 200.591 115.904 200.591 115.904 197.8C115.904 195.009 116.328 195.009 116.328 192.218C116.328 189.427 116.184 189.427 116.184 186.633C116.184 183.842 116.321 183.842 116.321 181.049C116.321 178.258 116.132 178.258 116.132 175.464C116.132 172.673 116.617 172.673 116.617 169.88C116.617 167.087 116.161 167.087 116.161 164.296C116.161 161.504 116.088 161.502 116.088 158.711C116.088 158.298 115.946 158.264 115.532 158.264H115.53Z" fill="#006BD9"/>
<path d="M115.593 122.269C112.967 122.269 112.967 121.956 110.342 121.956C107.718 121.956 107.718 121.967 105.091 121.967C102.467 121.967 102.467 122.138 99.8398 122.138C97.2132 122.138 97.2132 122.347 94.5887 122.347C91.9621 122.347 91.9621 122.191 89.3376 122.191C86.711 122.191 86.711 122.127 84.0865 122.127C81.4599 122.127 81.4599 122.371 78.8354 122.371C76.2087 122.371 76.2087 121.698 73.5843 121.698C71.8332 121.698 70.0821 121.698 68.331 121.698C65.7043 121.698 65.7043 122.067 63.0776 122.067C62.6665 122.067 62.6132 122.353 62.6087 122.764C62.591 124.527 62.3332 126.282 62.371 128.036C62.4087 129.8 62.571 131.551 62.6621 133.3C62.7532 135.064 62.4687 136.849 62.6154 138.593C62.7643 140.356 63.1065 142.096 63.3087 143.831C63.4954 145.429 63.5687 147.062 63.8087 148.671C64.0465 150.271 64.5354 151.842 64.8221 153.431C64.8865 153.789 65.2376 154.111 65.5999 154.111C68.3776 154.111 68.3776 153.804 71.1532 153.804C73.9287 153.804 73.931 153.74 76.7065 153.74C79.4821 153.74 79.4843 153.796 82.2599 153.796C85.0354 153.796 85.0376 153.96 87.8154 153.96C90.5932 153.96 90.5932 153.993 93.371 153.993C96.1487 153.993 96.1487 153.971 98.9265 153.971C101.704 153.971 101.704 153.978 104.482 153.978C107.26 153.978 107.26 154.131 110.038 154.131C112.815 154.131 112.815 154.322 115.593 154.322C116.007 154.322 116.464 153.707 116.464 153.293C116.464 150.749 116.073 150.749 116.073 148.207C116.073 145.662 116.544 145.662 116.544 143.12C116.544 140.576 116.424 140.576 116.424 138.033C116.424 135.489 116.315 135.489 116.315 132.947C116.315 130.402 116.387 130.402 116.387 127.86C116.387 125.316 116.084 125.316 116.084 122.773C116.084 122.36 116.009 122.273 115.593 122.273V122.269Z" fill="#006BD9"/>
<path d="M115.594 86.1578C112.894 86.1578 112.894 85.9622 110.192 85.9622C107.49 85.9622 107.49 86.1733 104.79 86.1733C102.09 86.1733 102.087 86.1778 99.3875 86.1778C96.6853 86.1778 96.6853 86.1711 93.9853 86.1711C91.283 86.1711 91.283 85.8911 88.583 85.8911C85.8808 85.8911 85.8808 85.9689 83.1808 85.9689C80.4786 85.9689 80.4786 85.7667 77.7764 85.7667C75.0742 85.7667 75.0742 86.2667 72.3719 86.2667C69.6697 86.2667 69.6697 86.0044 66.9675 86.0044C66.6119 86.0044 66.6719 86.4511 66.6008 86.8C66.4142 87.7111 66.2008 88.62 66.0253 89.5467C65.683 91.3511 65.3164 93.0955 65.0164 94.8244C64.7053 96.62 64.1119 98.3311 63.8519 100.08C63.5875 101.864 63.0431 103.6 62.8364 105.376C62.6297 107.149 62.9631 108.98 62.8231 110.78C62.6831 112.542 62.7319 114.324 62.6608 116.147C62.6519 116.351 62.7319 117.804 62.8719 117.951C63.0119 118.098 63.5208 118.329 63.7253 118.329C66.3186 118.322 66.3186 118.631 68.9119 118.627C71.5053 118.62 71.5053 118.582 74.0986 118.576C76.6919 118.569 76.6919 118.387 79.2853 118.38C81.8786 118.373 81.8786 118.147 84.4719 118.14C87.0653 118.133 87.0675 118.509 89.6608 118.502C92.2542 118.496 92.2542 118.302 94.8475 118.296C97.4408 118.289 97.4408 117.918 100.034 117.911C102.627 117.904 102.627 118.169 105.223 118.162C107.816 118.156 107.816 117.84 110.41 117.833C113.003 117.827 113.003 117.909 115.599 117.904C116.012 117.904 116.365 117.811 116.365 117.398C116.365 114.853 116.688 114.853 116.688 112.311C116.688 109.767 116.454 109.767 116.454 107.224C116.454 104.682 116.576 104.68 116.576 102.138C116.576 99.5933 116.461 99.5933 116.461 97.0511C116.461 94.5067 116.216 94.5067 116.216 91.9644C116.216 89.42 116.321 89.42 116.321 86.8778C116.321 86.4644 116.014 86.1622 115.601 86.1622L115.594 86.1578Z" fill="#006BD9"/>
<path d="M115.546 36.8089C113.792 36.8667 112.05 36.4511 110.368 36.5956C108.686 36.74 106.928 37.0667 105.248 37.3133C103.53 37.5645 101.795 37.6845 100.126 38.0445C98.4412 38.4089 96.8924 39.2933 95.2412 39.7756C93.6012 40.2556 91.9701 40.7489 90.3435 41.3511C88.7168 41.9533 87.0212 42.2511 85.4279 42.9667C83.8346 43.6822 82.3835 44.5133 80.8301 45.3267C80.6768 45.4067 79.3879 46.3422 79.3212 46.5C78.6835 47.9822 77.8079 49.5489 77.0857 51.36C76.4657 52.9133 75.5279 54.4689 74.8724 56.2445C74.2835 57.84 73.8946 59.6 73.2924 61.3645C72.7368 62.9933 72.219 64.7 71.6657 66.4622C71.1479 68.1156 70.8679 69.8911 70.3612 71.6533C69.8812 73.3289 68.8812 74.9045 68.4235 76.6711C67.9835 78.3645 67.4857 80.0867 67.0746 81.86C67.0235 82.0822 67.4457 82.3333 67.5857 82.5111C67.7279 82.6911 67.8746 82.7689 68.1035 82.7689C70.739 82.7689 70.739 83.1156 73.3746 83.1156C76.0101 83.1156 76.0101 82.5645 78.6457 82.5645C81.2812 82.5645 81.2813 82.4622 83.919 82.4622C86.5568 82.4622 86.5546 83.1689 89.1924 83.1689C91.8301 83.1689 91.8279 83.0667 94.4657 83.0667C97.1035 83.0667 97.1012 82.5889 99.739 82.5889C102.377 82.5889 102.375 83.1822 105.012 83.1822C107.65 83.1822 107.65 82.5222 110.286 82.5222C112.921 82.5222 112.923 82.7045 115.559 82.7045C115.972 82.7045 116.321 82.5156 116.321 82.1C116.321 79.2978 116.092 79.2978 116.092 76.4956C116.092 73.6933 116.25 73.6933 116.25 70.8911C116.25 68.0889 116.299 68.0889 116.299 65.2867C116.299 62.4845 115.992 62.4845 115.992 59.6822C115.992 56.88 115.972 56.88 115.972 54.0778C115.972 51.2756 116.348 51.2756 116.348 48.4733C116.348 45.6711 116.601 45.6711 116.601 42.8667C116.601 40.0645 115.992 40.0645 115.992 37.26C115.992 37.0578 116.01 37.0867 115.863 36.9445C115.717 36.8022 115.746 36.8067 115.543 36.8089H115.546Z" fill="#006BD9"/>
<path d="M169.548 158.347C169.406 158.171 169.097 158.133 168.87 158.133C166.21 158.133 166.21 157.869 163.548 157.869C160.888 157.869 160.888 157.971 158.226 157.971C155.564 157.971 155.564 158.149 152.904 158.149C150.242 158.149 150.242 157.92 147.582 157.92C144.919 157.92 144.919 158.269 142.259 158.269C139.597 158.269 139.597 158.024 136.937 158.024C134.275 158.024 134.275 157.753 131.615 157.753C128.953 157.753 128.953 157.544 126.29 157.544C123.628 157.544 123.628 157.787 120.966 157.787C120.553 157.787 120.053 158.247 120.053 158.66C120.053 161.333 120.108 161.333 120.108 164.007C120.108 166.68 119.859 166.68 119.859 169.353C119.859 172.027 120.535 172.027 120.535 174.7C120.535 177.373 120.437 177.373 120.437 180.047C120.437 182.72 119.953 182.72 119.953 185.393C119.953 188.067 120.026 188.067 120.026 190.74C120.026 193.413 119.995 193.413 119.995 196.087C119.995 198.76 120.017 198.76 120.017 201.433C120.017 201.636 120.27 203.762 120.417 203.902C120.557 204.038 120.77 203.92 120.964 203.92C120.97 203.92 121.837 203.767 121.844 203.767C123.586 203.713 125.273 203.1 126.966 202.96C128.699 202.818 130.477 203.242 132.164 203.007C133.879 202.764 135.499 202.013 137.175 201.667C138.864 201.318 140.486 200.778 142.144 200.318C143.795 199.858 145.519 199.642 147.15 199.067C148.759 198.498 150.299 197.729 151.895 197.04C153.453 196.367 155.03 195.691 156.584 194.898C156.726 194.824 156.962 194.809 157.033 194.667C157.848 193.047 158.19 191.204 158.946 189.558C159.702 187.911 160.695 186.376 161.39 184.7C162.086 183.024 163.082 181.467 163.717 179.767C164.353 178.067 165.077 176.389 165.65 174.669C166.224 172.949 166.375 171.091 166.886 169.351C167.397 167.613 168.162 165.938 168.61 164.18C169.059 162.424 169.413 160.636 169.799 158.864C169.848 158.642 169.693 158.522 169.55 158.347H169.548Z" fill="#006BD9"/>
<path d="M192.238 158.193C189.262 158.193 189.262 157.898 186.284 157.898C183.309 157.898 183.309 157.704 180.331 157.704C177.353 157.704 177.355 157.991 174.378 157.991C174.015 157.991 173.406 158.107 173.331 158.462C172.964 160.213 173.082 162.073 172.655 163.811C172.229 165.549 171.493 167.209 171.006 168.929C170.52 170.651 170.224 172.433 169.68 174.136C169.133 175.84 168.489 177.516 167.882 179.198C167.275 180.88 166.393 182.46 165.729 184.12C165.064 185.78 164.662 187.553 163.942 189.189C163.824 189.458 163.989 189.489 164.175 189.716C164.326 189.898 164.818 189.893 165.033 189.893C165.178 189.893 168.146 187.749 168.273 187.664C169.851 186.616 171.678 186.036 173.066 184.953C174.549 183.798 175.82 182.458 177.122 181.247C178.48 179.984 179.793 178.707 180.995 177.362C182.198 176.018 182.958 174.273 184.058 172.807C185.138 171.367 186.238 169.944 187.242 168.382C188.204 166.884 189.66 165.638 190.589 164.009C191.464 162.473 192.102 160.738 192.978 159.067C193.038 158.953 192.853 158.789 192.846 158.662C192.826 158.224 192.622 158.196 192.233 158.196L192.238 158.193Z" fill="#006BD9"/>
<path d="M201.68 122.169C198.7 122.169 198.7 122.258 195.72 122.258C192.74 122.258 192.74 122.287 189.76 122.287C187.773 122.287 185.787 122.287 183.8 122.287C180.82 122.287 180.82 122.049 177.84 122.049C177.64 122.049 177.429 122.082 177.289 122.224C177.149 122.367 176.869 122.58 176.871 122.78C176.887 124.569 177.442 126.36 177.405 128.142C177.367 129.924 177.016 131.713 176.924 133.491C176.831 135.282 176.569 137.053 176.422 138.824C176.273 140.613 175.933 142.369 175.727 144.131C175.553 145.624 175.58 147.158 175.36 148.669C175.142 150.167 174.731 151.638 174.471 153.131C174.433 153.349 174.502 153.758 174.645 153.927C174.787 154.096 175.178 153.987 175.4 153.987C177.827 153.987 177.827 154.022 180.253 154.022C182.68 154.022 182.68 153.873 185.107 153.873C187.533 153.873 187.533 153.74 189.96 153.74C192.387 153.74 192.387 154.413 194.813 154.413C195.111 154.413 195.371 153.86 195.489 153.587C196.196 151.964 197.127 150.427 197.727 148.773C198.329 147.113 198.769 145.384 199.264 143.693C199.76 142 200.34 140.311 200.727 138.589C201.113 136.869 201.373 135.104 201.651 133.36C201.927 131.622 202.129 129.856 202.296 128.093C202.462 126.342 201.989 124.551 202.047 122.78C202.053 122.578 202.087 122.44 201.944 122.293C201.802 122.147 201.882 122.167 201.68 122.167V122.169Z" fill="#006BD9"/>
<path d="M173.402 86.3356C173.26 86.5089 173.393 86.7778 173.435 86.9978C173.537 87.5156 173.413 88.08 173.513 88.6044C173.877 90.5133 174.544 92.3644 174.851 94.2733C175.16 96.1911 174.875 98.1911 175.126 100.104C175.38 102.033 175.651 103.942 175.846 105.862C176.042 107.798 176.3 109.713 176.435 111.638C176.573 113.58 177.224 115.489 177.297 117.413C177.313 117.816 177.304 118.44 177.706 118.44C180.704 118.44 180.704 117.907 183.7 117.907C186.695 117.907 186.697 118.484 189.693 118.484C192.689 118.484 192.691 118.378 195.689 118.378C198.686 118.378 198.686 118.262 201.684 118.262C201.886 118.262 202.042 118.024 202.184 117.88C202.326 117.733 202.409 117.576 202.402 117.373C202.349 115.604 202.215 113.849 202.053 112.098C201.889 110.338 201.793 108.571 201.52 106.833C201.246 105.089 200.931 103.349 200.549 101.629C200.166 99.9089 199.48 98.2644 198.989 96.5711C198.497 94.88 198.24 93.1111 197.642 91.4489C197.044 89.7933 195.975 88.3289 195.271 86.7044C195.153 86.4311 195.182 86.4756 194.884 86.4756C192.282 86.4756 192.282 86.0378 189.677 86.0378C187.075 86.0378 187.075 86.2778 184.471 86.2778C181.866 86.2778 181.866 86.0911 179.264 86.0911C176.662 86.0911 176.66 86.1956 174.057 86.1956C173.833 86.1956 173.544 86.1622 173.402 86.3356Z" fill="#006BD9"/>
</svg>
