<svg width="24" height="24" viewBox="0 0 24 24" fill="none" xmlns="http://www.w3.org/2000/svg">
<path d="M16.5586 5.40356C16.621 5.44573 16.6639 5.50192 16.7168 5.5481C16.7936 5.61358 16.8696 5.67972 16.9453 5.74634C17.0206 5.81261 17.0991 5.87574 17.1699 5.94653C17.3681 6.12439 17.5628 6.30613 17.7578 6.48755C17.8407 6.56362 17.922 6.64097 18.0049 6.71704C18.2265 6.92287 18.4871 7.09258 18.5449 7.46021C18.5477 7.47881 18.5552 7.50176 18.543 7.53442C18.5255 7.58032 18.4635 7.63407 18.21 7.8938C18.0387 8.06859 16.2062 9.89962 14.1113 11.9973C16.3377 14.2208 18.35 16.2283 18.5322 16.4104C18.739 16.6168 18.7025 16.6084 18.6748 16.636C18.5335 16.7751 18.381 16.9036 18.208 17.011C17.8643 17.2258 17.5766 17.4975 17.3164 17.7961C17.2306 17.8932 17.1541 17.9989 17.0469 18.0745C16.9594 18.1371 16.8913 18.2189 16.8174 18.2952C16.7282 18.3866 16.6823 18.5208 16.6328 18.6516C16.6073 18.7201 16.6192 18.7396 16.4258 18.5461C16.3744 18.4948 14.2512 16.3715 11.9961 14.1165C9.77444 16.3406 7.76986 18.3504 7.58789 18.5325C7.38132 18.7393 7.39005 18.7028 7.3623 18.675C7.2233 18.5338 7.09563 18.3812 6.98828 18.2083C6.7734 17.8644 6.50093 17.577 6.20215 17.3167C6.10511 17.2309 6.00039 17.1543 5.9248 17.0471C5.86221 16.9597 5.78027 16.8915 5.7041 16.8176C5.61257 16.7284 5.47764 16.6826 5.34668 16.6331C5.2783 16.6076 5.25907 16.6191 5.45215 16.426C5.50351 16.3747 7.62482 14.253 9.87891 11.9993C8.12118 10.2415 6.68688 8.80737 6.64453 8.76489C6.42104 8.54038 6.19743 8.31595 5.97559 8.09204C5.87753 7.9933 5.77855 7.89311 5.68066 7.79419L5.5752 7.68677C5.44633 7.55134 5.38445 7.46905 5.40234 7.44165C5.44456 7.37906 5.50064 7.33549 5.54688 7.28247C5.61225 7.20581 5.67862 7.13047 5.74512 7.05493C5.81138 6.97962 5.87453 6.90111 5.94531 6.83032C6.12323 6.63204 6.30484 6.43652 6.48633 6.24146C6.56227 6.15874 6.6389 6.0771 6.71484 5.99438C6.9207 5.77269 7.09124 5.51209 7.45898 5.45435C7.47763 5.45151 7.50043 5.44498 7.5332 5.45728C7.57911 5.47473 7.63261 5.53658 7.89258 5.79028C8.06737 5.96156 9.89763 7.79069 11.9941 9.88403C13.7514 8.12713 15.1872 6.6928 15.2344 6.64575C15.4589 6.42226 15.6843 6.19865 15.9082 5.97681C16.0068 5.8789 16.1063 5.77962 16.2051 5.68188L16.3135 5.57642C16.449 5.4475 16.5314 5.38537 16.5586 5.40356Z" fill="#006BD9"/>
</svg>
