<svg width="24" height="24" viewBox="0 0 24 24" fill="none" xmlns="http://www.w3.org/2000/svg">
<path d="M15.1683 19.9783C15.2991 20.0849 15.5007 19.7719 15.6147 19.6301C15.9843 19.1707 16.3975 18.7471 16.7616 18.2833C16.8127 18.2192 16.7952 18.1244 16.7263 18.0809C11.0066 14.4577 10.0918 13.7438 11.7402 13.7486C13.0778 13.7525 16.1033 14.1924 19.6189 14.2317C19.7631 14.2333 19.8844 14.1221 19.8919 13.9755C19.9326 13.1971 20.1963 10.6051 19.7119 10.6053C15.7947 10.6077 14.0903 10.9583 10.6969 10.7152C10.3371 10.5494 10.9023 10.1014 11.0369 9.9922C11.5049 9.61225 12.03 9.30128 12.55 9.00205C13.9803 8.17922 15.488 7.49967 16.9569 6.75261C17.271 6.59299 17.5839 6.43118 17.895 6.26606C18.0967 6.15892 17.8422 5.57331 17.7939 5.43773C17.6812 5.1218 17.5497 4.81358 17.4173 4.50592C17.3286 4.29989 17.2362 3.90086 16.9294 4.02267C12.3483 5.84189 8.22227 7.57177 4.14219 11.5472C3.99476 11.7131 3.97275 11.9633 4.02714 12.1721C4.10086 12.4546 4.32111 12.6814 4.53474 12.8639C5.35616 13.5661 6.27473 14.1695 7.16361 14.7786C8.07484 15.4031 8.9952 16.0142 9.91878 16.6196C10.8057 17.2008 11.6962 17.7762 12.589 18.3477C13.0232 18.6256 13.4526 18.9109 13.8853 19.1914C14.1014 19.3318 14.3182 19.471 14.5369 19.6075C14.7323 19.7297 14.751 19.7501 15.1622 19.9759C15.164 19.977 15.1667 19.9764 15.1683 19.9779" fill="#006BD9"/>
</svg>
