<svg width="240" height="240" viewBox="0 0 240 240" fill="none" xmlns="http://www.w3.org/2000/svg">
<path d="M67.4506 174.982C64.9462 174.982 64.9462 174.853 62.444 174.853C59.9395 174.853 59.9395 174.891 57.4373 174.891C54.9329 174.891 54.9329 174.691 52.4306 174.691C49.9262 174.691 49.9262 174.558 47.424 174.558C44.9195 174.558 44.9195 174.7 42.4151 174.7C39.9106 174.7 39.9106 174.629 37.4062 174.629C36.9906 174.629 36.4551 174.493 36.4551 174.08C36.4551 172.876 36.504 172.876 36.504 171.671C36.504 171.256 36.9929 171.156 37.4084 171.156C39.9195 171.156 39.9195 171.14 42.4284 171.14C44.9373 171.14 44.9395 171.124 47.4484 171.124C49.9573 171.124 49.9595 170.738 52.4684 170.738C54.9773 170.738 54.9795 171.131 57.4884 171.131C59.9973 171.131 59.9995 171.087 62.5106 171.087C65.0217 171.087 65.0217 171.122 67.5329 171.122C68.6329 171.122 69.5906 171.827 69.5573 172.933C69.524 174.004 68.5217 174.978 67.4506 174.978V174.982Z" fill="#006BD9"/>
<path d="M67.4509 159.991C64.9198 159.991 64.9198 160.476 62.3865 160.476C59.8554 160.476 59.8554 159.933 57.322 159.933C54.7909 159.933 54.7909 160.3 52.2576 160.3C49.7265 160.3 49.7265 160.104 47.1931 160.104C44.6598 160.104 44.6598 160.473 42.1287 160.473C39.5976 160.473 39.5954 160.269 37.0643 160.269C36.8376 160.269 36.8687 160.022 36.8687 159.796C36.8687 158.249 36.6465 158.249 36.6465 156.702C36.6465 156.476 36.8376 156.302 37.0643 156.302C39.602 156.302 39.602 156.047 42.142 156.047C44.682 156.047 44.682 156.504 47.2198 156.504C49.7576 156.504 49.7576 156.044 52.2976 156.044C54.8376 156.044 54.8376 156.536 57.3754 156.536C59.9132 156.536 59.9154 156.049 62.4532 156.049C64.9909 156.049 64.9932 156.144 67.5309 156.144C68.6309 156.144 69.542 157.202 69.5087 158.311C69.4754 159.382 68.5198 159.993 67.4487 159.993L67.4509 159.991Z" fill="#006BD9"/>
<path d="M67.4506 145.42C64.9572 145.42 64.9572 145.48 62.4661 145.48C59.9728 145.48 59.9728 145.316 57.4817 145.316C54.9884 145.316 54.9883 145.671 52.4972 145.671C50.0039 145.671 50.0039 145.56 47.5106 145.56C45.0172 145.56 45.0172 145.427 42.5239 145.427C40.0306 145.427 40.0306 145.398 37.5372 145.398C37.0506 145.398 36.615 145.182 36.615 144.696C36.615 143.622 36.5039 143.622 36.5039 142.547C36.5039 142.06 37.0506 141.638 37.5372 141.638C40.0372 141.638 40.0372 141.531 42.5372 141.531C45.0372 141.531 45.0372 141.844 47.5372 141.844C50.0372 141.844 50.0372 141.871 52.5372 141.871C55.0372 141.871 55.0372 141.902 57.5372 141.902C60.0372 141.902 60.0372 141.816 62.5372 141.816C65.0372 141.816 65.0372 141.878 67.5372 141.878C68.6372 141.878 69.7972 142.58 69.7639 143.689C69.7306 144.76 68.5261 145.422 67.455 145.422L67.4506 145.42Z" fill="#006BD9"/>
<path d="M67.4509 131.169C64.5332 131.169 64.5332 131.122 61.6154 131.122C58.6976 131.122 58.6976 131.162 55.7798 131.162C52.862 131.162 52.862 131.093 49.9443 131.093C47.0265 131.093 47.0265 130.938 44.1065 130.938C41.1865 130.938 41.1887 131.129 38.2687 131.129C37.3776 131.129 36.8576 130.222 36.8576 129.331C36.8576 128.989 36.7109 128.989 36.7109 128.647C36.7109 127.756 37.3754 127.178 38.2665 127.178C41.1932 127.178 41.1932 127.016 44.1198 127.016C47.0465 127.016 47.0465 127.251 49.9732 127.251C52.8998 127.251 52.8998 126.838 55.8265 126.838C58.7532 126.838 58.7532 126.962 61.6798 126.962C64.6065 126.962 64.6065 127.298 67.5332 127.298C68.6332 127.298 69.7843 127.951 69.7509 129.058C69.7176 130.129 68.522 131.169 67.4509 131.169Z" fill="#006BD9"/>
<path d="M67.451 116.078C64.9843 116.078 64.9843 116.578 62.5176 116.578C60.051 116.578 60.051 116.176 57.5843 116.176C55.1176 116.176 55.1176 116.413 52.651 116.413C51.0065 116.413 49.3621 116.411 47.7176 116.407C45.251 116.407 45.251 116.478 42.7821 116.478C40.3154 116.478 40.3154 116.398 37.8465 116.398C37.191 116.398 36.7421 115.782 36.7421 115.127C36.7421 114.36 36.4043 114.36 36.4043 113.593C36.4043 112.938 37.191 112.376 37.8487 112.376C40.3221 112.376 40.3221 112.284 42.7976 112.284C45.2732 112.284 45.271 112.238 47.7465 112.238C50.2221 112.238 50.2199 112.558 52.6954 112.558C55.171 112.558 55.1687 112.344 57.6443 112.344C60.1199 112.344 60.1176 112.34 62.5932 112.34C65.0687 112.34 65.0665 112.182 67.5421 112.182C68.6421 112.182 69.7065 113.318 69.6732 114.427C69.6399 115.498 68.531 116.078 67.4599 116.078H67.451Z" fill="#006BD9"/>
<path d="M201.388 174.676C198.504 174.676 198.504 175.029 195.621 175.029C192.737 175.029 192.737 174.809 189.855 174.809C186.97 174.809 186.97 174.747 184.086 174.747C181.201 174.747 181.201 174.953 178.317 174.953C175.432 174.953 175.432 174.58 172.548 174.58C171.477 174.58 170.759 174.004 170.726 172.933C170.692 171.824 171.368 170.938 172.466 170.938C175.357 170.938 175.357 170.836 178.25 170.836C181.144 170.836 181.141 170.887 184.035 170.887C186.928 170.887 186.926 170.822 189.819 170.822C192.712 170.822 192.712 171.053 195.604 171.053C198.495 171.053 198.497 171.109 201.388 171.109C202.468 171.109 203.361 171.809 203.361 172.889C202.957 174.216 202.468 174.682 201.388 174.682V174.676Z" fill="#006BD9"/>
<path d="M203.329 159.002C203.329 159.667 202.807 160.344 202.143 160.344C199.676 160.344 199.676 159.931 197.212 159.931C194.745 159.931 194.745 160.22 192.28 160.22C189.814 160.22 189.814 160.311 187.349 160.311C184.885 160.311 184.883 160.236 182.418 160.236C179.952 160.236 179.952 160.44 177.485 160.44C175.018 160.44 175.018 160.4 172.552 160.4C171.48 160.4 170.798 159.376 170.765 158.304C170.732 157.196 171.372 156.442 172.469 156.442C174.943 156.442 174.943 156.347 177.416 156.347C179.889 156.347 179.889 156.391 182.363 156.391C184.836 156.391 184.836 156.164 187.309 156.164C189.783 156.164 189.783 156.098 192.256 156.098C194.729 156.098 194.729 156.289 197.203 156.289C199.676 156.289 199.676 156.453 202.149 156.453C202.814 156.453 203.547 156.836 203.547 157.5C203.538 158.253 203.338 158.251 203.338 159.004L203.329 159.002Z" fill="#006BD9"/>
<path d="M203.4 144.871C203.4 145.26 203.028 145.642 202.642 145.642C200.135 145.642 200.135 145.398 197.626 145.398C195.12 145.398 195.12 145.682 192.611 145.682C190.104 145.682 190.104 145.489 187.595 145.489C185.088 145.489 185.088 145.769 182.58 145.769C180.071 145.769 180.071 145.636 177.564 145.636C175.057 145.636 175.055 145.796 172.548 145.796C171.477 145.796 170.788 144.744 170.755 143.671C170.722 142.562 171.366 141.936 172.466 141.936C174.982 141.936 174.982 141.867 177.495 141.867C180.008 141.867 180.011 141.502 182.524 141.502C185.037 141.502 185.04 141.662 187.553 141.662C190.066 141.662 190.068 141.431 192.582 141.431C195.095 141.431 195.097 141.889 197.611 141.889C200.124 141.889 200.126 141.678 202.64 141.678C203.028 141.678 203.482 141.973 203.482 142.36C203.524 143.613 203.397 143.618 203.397 144.871H203.4Z" fill="#006BD9"/>
<path d="M203.28 130.458C203.28 130.727 203.127 131.142 202.858 131.142C200.334 131.142 200.334 130.951 197.807 130.951C195.28 130.951 195.28 131.062 192.756 131.062C190.232 131.062 190.232 131.207 187.705 131.207C185.178 131.207 185.178 130.92 182.654 130.92C180.127 130.92 180.127 130.882 177.603 130.882C175.076 130.882 175.076 130.86 172.552 130.86C171.48 130.86 170.278 130.131 170.245 129.06C170.212 127.951 171.369 126.809 172.469 126.809C175.003 126.809 175.003 127.082 177.534 127.082C180.065 127.082 180.067 126.942 182.598 126.942C185.129 126.942 185.132 127.04 187.663 127.04C190.194 127.04 190.196 127.249 192.727 127.249C195.258 127.249 195.26 127.133 197.794 127.133C200.327 127.133 200.327 126.98 202.86 126.98C203.129 126.98 203.416 127.258 203.416 127.527C203.363 128.996 203.283 128.993 203.283 130.462L203.28 130.458Z" fill="#006BD9"/>
<path d="M203.496 115.12C203.496 115.78 202.809 116.209 202.149 116.209C199.682 116.209 199.682 116.182 197.216 116.182C194.749 116.182 194.749 116.289 192.282 116.289C189.816 116.289 189.816 116.442 187.349 116.442C184.882 116.442 184.882 116.402 182.416 116.402C179.949 116.402 179.949 116.433 177.482 116.433C175.016 116.433 175.016 116.118 172.549 116.118C171.478 116.118 170.751 115.487 170.718 114.416C170.685 113.307 171.367 112.189 172.467 112.189C174.94 112.189 174.94 112.585 177.414 112.585C179.887 112.585 179.887 112.536 182.36 112.536C184.834 112.536 184.834 112.273 187.307 112.273C189.78 112.273 189.78 112.507 192.254 112.507C194.727 112.507 194.727 112.653 197.2 112.653C199.674 112.653 199.674 112.469 202.147 112.469C202.807 112.469 203.538 112.92 203.538 113.58C203.618 114.342 203.494 114.36 203.494 115.12H203.496Z" fill="#006BD9"/>
<path d="M157.374 50.5444C152.718 45.4311 146.32 42.1311 140.143 40C127.216 35.5444 113.111 35.5444 100.185 40C94.007 42.1289 87.6092 45.4311 82.9559 50.5444C77.1781 56.8867 70.7226 65.1555 72.9848 84.6378C75.3848 105.269 79.7826 105.933 80.9159 122.696C82.047 139.458 84.5381 171.4 86.8048 179.782C89.0715 188.164 95.0737 203.342 120.165 203.342C145.256 203.342 151.258 188.167 153.52 179.782C155.787 171.4 158.278 139.458 159.411 122.696C160.545 105.933 164.94 105.267 167.34 84.6378C169.607 65.1555 163.151 56.8867 157.374 50.5444ZM136.407 70.7755C135.989 73.2267 135.585 75.5822 135.087 77.8467C134.56 80.2422 133.965 82.5533 133.074 84.7422C132.154 87.0022 130.451 88.9089 128.476 90.3978C126.467 91.9133 124.129 92.9467 121.803 93.32C119.238 93.7311 116.729 93.3667 114.765 91.9444C112.62 90.3889 110.38 88.1178 108.671 85.6C106.856 82.9267 105.591 79.9867 105.583 77.4311C105.571 74.4933 106.178 72.0733 107.218 70.1267C108.438 67.84 110.325 66.2311 112.723 65.1889C114.818 64.2756 117.296 63.7711 120.083 63.7111C122.874 63.6511 125.667 63.6911 128.894 63.7022C131.478 63.7133 134.345 63.7133 137.707 63.7133H137.74C137.227 66.1533 136.791 68.5022 136.403 70.7755H136.407Z" fill="#006BD9"/>
</svg>
