<svg width="24" height="24" viewBox="0 0 24 24" fill="none" xmlns="http://www.w3.org/2000/svg">
<path d="M7.51953 17.4434V6.55645C7.51953 6.16945 7.65253 5.85186 7.91853 5.6037C8.18453 5.35553 8.4932 5.23145 8.84453 5.23145C8.9562 5.23145 9.07436 5.24628 9.19903 5.27594C9.32353 5.30561 9.44161 5.35495 9.55328 5.42395L18.1273 10.8814C18.3243 11.0098 18.4744 11.1748 18.5778 11.3764C18.6811 11.5783 18.7328 11.7861 18.7328 11.9999C18.7328 12.2138 18.6811 12.4216 18.5778 12.6234C18.4744 12.8251 18.3243 12.9901 18.1273 13.1184L9.55328 18.5759C9.44161 18.6449 9.32353 18.6943 9.19903 18.7239C9.07436 18.7536 8.9562 18.7684 8.84453 18.7684C8.4932 18.7684 8.18453 18.6444 7.91853 18.3962C7.65253 18.148 7.51953 17.8304 7.51953 17.4434Z" fill="#006BD9"/>
</svg>
